<?xml version="1.0" encoding="utf-8"?>
<!-- Generator: Adobe Illustrator 25.4.1, SVG Export Plug-In . SVG Version: 6.00 Build 0)  -->
<svg version="1.1" id="Capa_1" xmlns="http://www.w3.org/2000/svg" xmlns:xlink="http://www.w3.org/1999/xlink" x="0px" y="0px"
	 viewBox="0 0 200 200" style="enable-background:new 0 0 200 200;" xml:space="preserve">
<style type="text/css">
	.st0{fill:#015AAA;}
	.st1{fill:#00ADEF;}
	.st2{fill:#0DC6F7;}
	.st3{fill:#355FDE;}
	.st4{fill:#21F430;}
</style>
<g>
	<g>
		<path class="st1" d="M137.07,122.82v59.13l-35.63-21.17l-36.03,21.17v-64.38c2.38,1.39,4.86,3.45,6.54,6.48
			c5.62,10.16,15.06,11.68,15.41,11.73c0.17,0.03,0.71,0.11,1.53,0.11c2.33,0,6.95-0.61,12.21-4.59c4.88-3.7,12.73-1.77,13.48-1.57
			c1.16,0.4,9.23,2.93,16.13-0.68C133.57,127.55,135.63,125.18,137.07,122.82z"/>
	</g>
</g>
<g>
	<path class="st0" d="M160.82,85.56l-0.03-0.22c-0.39-1.86-1.93-8.22-5.24-12.28c-0.34-0.42-0.61-1.43-0.78-2.78l-8.71,0.62
		c0.35,2.9,1.15,5.75,2.73,7.69c1.58,1.95,2.88,5.97,3.39,8.28c0,0.06,0.01,0.14,0.01,0.24c0,1.33-0.53,5.98-7.18,10.23
		c-7.02,4.48-9.91,9.27-11.11,12.49c-0.66,1.81-0.86,3.27-0.9,4.22c-0.29,1.12-1.86,6.61-5.64,8.59c-4.34,2.27-10.21,0.32-10.5,0.22
		l-0.18-0.06c-0.47-0.15-2.82-0.74-5.79-0.92c-3.28-0.21-6.3,0.12-8.99,0.99c-1.9,0.61-3.64,1.5-5.17,2.66
		c-4.64,3.52-8.23,3.1-8.23,3.1c-0.26-0.04-6.38-1.15-10.22-8.09c-3.27-5.94-8.48-9.14-12.27-10.79c-2.15-0.93-4.04-1.46-5.32-1.74
		v-0.38l-1.53,0.07c-0.64-0.24-3.27-1.5-6.35-6.98c-0.17-1.11-0.4-4.27,1.2-9.36c2.96-9.45-2.19-18.07-2.94-19.25l-0.52-1.21
		l-1.27-0.45c-0.42-0.38-1.86-2.03-1.35-6.86c0.46-4.4,4.42-6.67,6.75-7.64c2.79-1.16,5.32-2.81,7.51-4.9
		c3.91-3.75,6.23-8.06,6.71-12.46c0.55-5.18,4.1-8.17,5.08-8.9c1.06-0.46,5.19-1.97,10.2,0.13l0.5,0.22l0.52,0.08
		c2.23,0.36,13.67,1.86,19.92-4.27c2.19-2.15,7.47-1.6,10.35-0.74c0.62,0.28,3.72,1.92,5.39,6.37c3.37,9,16.05,12.89,16.16,12.92
		l0.32,0.1l0.67,0.1c0.65,0.04,1.54,0.18,2.5,0.43l2.99-8.24c-1.9-0.54-3.48-0.77-4.26-0.85c-3.46-1.2-8.92-4.13-10.2-7.53
		c-3.27-8.73-10.24-11.4-10.62-11.53l-0.11-0.04c-1.28-0.4-12.63-3.78-19.3,2.77c-2.35,2.3-8.36,2.43-11.96,1.95
		c-9.08-3.55-16.5,0.05-17.39,0.52l-0.29,0.17c-0.83,0.55-8.12,5.66-9.16,15.4c-0.31,2.94-2.38,5.48-4.07,7.09
		c-1.39,1.34-3.02,2.4-4.83,3.14c-3.3,1.38-11.1,5.56-12.07,14.79c-0.95,9.13,2.85,13.28,4.83,14.8C45,79.2,47.16,84,45.67,88.75
		c-2.85,9.12-1.33,14.3-1.15,14.86l0.32,0.73c5.64,10.45,11.59,11.89,13.39,12.08c0.43,0.08,3.36,0.66,6.42,2.45
		c2.66,1.55,4.67,3.54,5.99,5.91c6.02,10.88,16.08,12.43,16.47,12.48c0.22,0.04,0.86,0.13,1.78,0.13c2.48,0,7.49-0.64,13.12-4.89
		c4.27-3.25,11.43-1.51,12.14-1.33c1.22,0.41,9.84,3.09,17.26-0.79c2.74-1.44,5.07-3.72,6.94-6.78c2.06-3.36,2.98-6.75,3.29-8.11
		l0.12-0.51l-0.03-0.49c0-0.05,0.11-4.76,7.99-9.79C162.32,96.65,160.89,86.01,160.82,85.56z"/>
</g>
<path class="st1" d="M101.24,45.14c-17.33,0-31.36,14.05-31.36,31.37c0,17.33,14.04,31.36,31.36,31.36
	c17.32,0,31.36-14.04,31.36-31.36C132.61,59.18,118.56,45.14,101.24,45.14z M95.8,93.68L81.29,78.77l6.05-6.13l7.93,7.45
	l19.48-18.48l6.44,6.06L95.8,93.68z"/>
<circle class="st0" cx="141.46" cy="40.66" r="4.39"/>
<circle class="st0" cx="150.4" cy="70.68" r="4.39"/>
</svg>
