<?xml version="1.0" encoding="utf-8"?>
<!-- Generator: Adobe Illustrator 25.4.1, SVG Export Plug-In . SVG Version: 6.00 Build 0)  -->
<svg version="1.1" id="Capa_1" xmlns="http://www.w3.org/2000/svg" xmlns:xlink="http://www.w3.org/1999/xlink" x="0px" y="0px"
	 viewBox="0 0 200 200" style="enable-background:new 0 0 200 200;" xml:space="preserve">
<style type="text/css">
	.st0{fill:#00ADEF;}
	.st1{fill:#FFFFFF;}
</style>
<g>
	<path class="st0" d="M62.38,184.32c1.23,0,2.47-0.47,3.41-1.41l20.38-20.43h71.85c18.14,0,32.9-14.76,32.9-32.9V52.79
		c0-18.14-14.76-32.9-32.9-32.9H49.55c-18.14,0-32.9,14.76-32.9,32.9v109.68h29.99c2.66,0,4.81-2.15,4.81-4.81s-2.15-4.81-4.81-4.81
		H26.28V52.79c0-12.83,10.44-23.27,23.27-23.27h108.48c12.83,0,23.27,10.44,23.27,23.27v76.78c0,12.83-10.44,23.27-23.27,23.27
		H82.17l-23.21,23.26c-1.88,1.88-1.87,4.93,0.01,6.81C59.92,183.86,61.15,184.32,62.38,184.32z"/>
	<circle class="st1" cx="62.68" cy="91.24" r="12.37"/>
	<circle class="st1" cx="103.79" cy="91.24" r="12.37"/>
	<path class="st1" d="M157.26,91.24c0-6.83-5.54-12.37-12.37-12.37c-6.83,0-12.37,5.54-12.37,12.37c0,6.83,5.54,12.37,12.37,12.37
		C151.72,103.61,157.26,98.07,157.26,91.24z"/>
</g>
</svg>
