<?xml version="1.0" encoding="utf-8"?>
<svg version="1.1" id="Capa_1" xmlns="http://www.w3.org/2000/svg" xmlns:xlink="http://www.w3.org/1999/xlink" x="0px" y="0px"
	 viewBox="0 0 200 200" style="enable-background:new 0 0 200 200;" xml:space="preserve">
<style type="text/css">
	.st0{fill:#015AAA;}
	.st1{fill:#00ADEF;}
	.st2{fill:#0DC6F7;}
	.st3{fill:#355FDE;}
	.st4{fill:#21F430;}
</style>
<g>
	<g>
		<g>
			<g>
				<path class="st0" d="M168.4,140.83c-1.36,0-2.71-0.52-3.75-1.55c-2.07-2.07-2.07-5.42,0-7.49
					c13.7-13.69,21.24-31.92,21.24-51.32c0-19.4-7.54-37.63-21.24-51.33c-2.07-2.07-2.07-5.43,0-7.5s5.43-2.07,7.5,0
					c15.7,15.7,24.34,36.59,24.34,58.82c0,22.24-8.64,43.12-24.35,58.82C171.11,140.31,169.75,140.83,168.4,140.83z"/>
				<path class="st0" d="M150.04,122.47c-1.36,0-2.71-0.52-3.75-1.55c-2.07-2.07-2.07-5.42,0-7.5c8.8-8.8,13.64-20.51,13.64-32.97
					c0-12.46-4.85-24.17-13.64-32.97c-2.07-2.07-2.07-5.42,0-7.5c2.07-2.07,5.43-2.07,7.5,0c10.8,10.8,16.75,25.17,16.75,40.46
					c0,15.29-5.95,29.66-16.75,40.46C152.75,121.95,151.4,122.47,150.04,122.47z"/>
				<path class="st0" d="M150.04,122.47c-1.36,0-2.71-0.52-3.75-1.55c-2.07-2.07-2.07-5.42,0-7.5c8.8-8.8,13.64-20.51,13.64-32.97
					c0-12.46-4.85-24.17-13.64-32.97c-2.07-2.07-2.07-5.42,0-7.5c2.07-2.07,5.43-2.07,7.5,0c10.8,10.8,16.75,25.17,16.75,40.46
					c0,15.29-5.95,29.66-16.75,40.46C152.75,121.95,151.4,122.47,150.04,122.47z"/>
				<path class="st0" d="M131.68,104.11c-1.36,0-2.72-0.52-3.75-1.55c-2.07-2.07-2.07-5.43,0-7.5c3.9-3.89,6.04-9.08,6.04-14.6
					c0-5.52-2.15-10.71-6.05-14.61c-2.07-2.07-2.07-5.43,0-7.5c2.07-2.07,5.43-2.07,7.5,0c5.9,5.9,9.15,13.75,9.15,22.11
					c0,8.36-3.25,16.21-9.15,22.1C134.39,103.59,133.03,104.11,131.68,104.11z"/>
				<path class="st0" d="M131.68,104.11c-1.36,0-2.72-0.52-3.75-1.55c-2.07-2.07-2.07-5.43,0-7.5c3.9-3.89,6.04-9.08,6.04-14.6
					c0-5.52-2.15-10.71-6.05-14.61c-2.07-2.07-2.07-5.43,0-7.5c2.07-2.07,5.43-2.07,7.5,0c5.9,5.9,9.15,13.75,9.15,22.11
					c0,8.36-3.25,16.21-9.15,22.1C134.39,103.59,133.03,104.11,131.68,104.11z"/>
			</g>
			<g>
				<path class="st0" d="M33.79,140.83c-1.36,0-2.71-0.52-3.75-1.55C14.35,123.58,5.7,102.69,5.7,80.46
					c0-22.23,8.65-43.12,24.35-58.82c2.07-2.07,5.43-2.07,7.5,0c2.07,2.07,2.07,5.43,0,7.5C23.84,42.83,16.3,61.06,16.3,80.46
					c0,19.4,7.54,37.63,21.24,51.32c2.07,2.07,2.07,5.42,0,7.49C36.51,140.31,35.15,140.83,33.79,140.83z"/>
				<path class="st0" d="M52.15,122.47c-1.36,0-2.71-0.52-3.75-1.55c-10.8-10.8-16.75-25.17-16.75-40.46
					c0-15.29,5.95-29.67,16.75-40.46c2.07-2.07,5.42-2.07,7.49,0c2.07,2.07,2.07,5.42,0,7.49c-8.8,8.8-13.65,20.5-13.65,32.97
					c0,12.46,4.85,24.17,13.65,32.97c2.07,2.07,2.07,5.43,0,7.5C54.86,121.95,53.51,122.47,52.15,122.47z"/>
				<path class="st0" d="M52.15,122.47c-1.36,0-2.71-0.52-3.75-1.55c-10.8-10.8-16.75-25.17-16.75-40.46
					c0-15.29,5.95-29.67,16.75-40.46c2.07-2.07,5.42-2.07,7.49,0c2.07,2.07,2.07,5.42,0,7.49c-8.8,8.8-13.65,20.5-13.65,32.97
					c0,12.46,4.85,24.17,13.65,32.97c2.07,2.07,2.07,5.43,0,7.5C54.86,121.95,53.51,122.47,52.15,122.47z"/>
				<path class="st0" d="M70.51,104.11c-1.35,0-2.71-0.52-3.75-1.55c-5.9-5.9-9.15-13.75-9.15-22.1c0-8.36,3.25-16.21,9.15-22.11
					c2.07-2.07,5.43-2.07,7.5,0c2.07,2.07,2.07,5.43,0,7.5c-3.9,3.9-6.05,9.09-6.05,14.61c0,5.52,2.15,10.71,6.05,14.6
					c2.07,2.07,2.07,5.42,0,7.5C73.22,103.59,71.86,104.11,70.51,104.11z"/>
				<path class="st0" d="M70.51,104.11c-1.35,0-2.71-0.52-3.75-1.55c-5.9-5.9-9.15-13.75-9.15-22.1c0-8.36,3.25-16.21,9.15-22.11
					c2.07-2.07,5.43-2.07,7.5,0c2.07,2.07,2.07,5.43,0,7.5c-3.9,3.9-6.05,9.09-6.05,14.61c0,5.52,2.15,10.71,6.05,14.6
					c2.07,2.07,2.07,5.42,0,7.5C73.22,103.59,71.86,104.11,70.51,104.11z"/>
			</g>
		</g>
	</g>
	<path class="st1" d="M124.1,170.07l-12.51-68.13c-0.45-2.45,0.45-4.95,2.33-6.58c4.49-3.88,7.2-9.76,6.77-16.25
		c-0.65-9.75-8.53-17.66-18.28-18.33C90.89,59.99,81.3,69.1,81.3,80.46c0,5.97,2.65,11.31,6.84,14.93c1.88,1.62,2.76,4.12,2.31,6.56
		l-12.51,68.13c-1.21,6.56,2.57,13.08,8.91,15.16c9.45,3.11,18.89,3.11,28.34,0C121.53,183.15,125.31,176.64,124.1,170.07z
		 M101.02,72.21c4.55,0,8.25,3.69,8.25,8.25c0,4.55-3.69,8.25-8.25,8.25s-8.25-3.69-8.25-8.25C92.77,75.9,96.46,72.21,101.02,72.21z
		"/>
</g>
</svg>
