<?xml version="1.0" encoding="utf-8"?>
<!-- Generator: Adobe Illustrator 25.4.1, SVG Export Plug-In . SVG Version: 6.00 Build 0)  -->
<svg version="1.1" id="Capa_1" xmlns="http://www.w3.org/2000/svg" xmlns:xlink="http://www.w3.org/1999/xlink" x="0px" y="0px"
	 viewBox="0 0 200 200" style="enable-background:new 0 0 200 200;" xml:space="preserve">
<style type="text/css">
	.st0{fill:#015AAA;}
	.st1{fill:#00ADEF;}
	.st2{fill:#0DC6F7;}
	.st3{fill:#355FDE;}
	.st4{fill:#21F430;}
</style>
<g>
	<path class="st0" d="M131.38,45.09H68.63V27.82c0-6.43,5.23-11.67,11.67-11.67h39.42c6.43,0,11.67,5.23,11.67,11.67V45.09z
		 M77.27,36.45h45.45v-8.62c0-1.67-1.35-3.02-3.02-3.02H80.29c-1.66,0-3.02,1.36-3.02,3.02V36.45z"/>
</g>
<g>
	<path class="st0" d="M174.08,141.15v3.12c0,2.39,1.94,4.32,4.33,4.32l0,0c2.39,0,4.33-1.94,4.33-4.32v-3.12H174.08z"/>
	<path class="st0" d="M182.73,65.68v75.89h-8.65V65.68c0-11.37-9.22-20.59-20.59-20.59H46.5c-11.37,0-20.58,9.21-20.58,20.58v80.87
		c0,11.37,9.21,20.58,20.58,20.58h97.62c2.39,0,4.32,1.94,4.32,4.32l0,0c0,2.39-1.94,4.32-4.32,4.32H46.5
		c-16.14,0-29.23-13.09-29.23-29.23V65.68c0-16.14,13.09-29.23,29.23-29.23h107C169.64,36.45,182.73,49.54,182.73,65.68z"/>
</g>
<g>
	<path class="st1" d="M182.73,65.68V86.1c0,16.12-13.11,29.23-29.23,29.23h-31.21v-8.65h31.21c11.35,0,20.58-9.23,20.58-20.58V65.68
		c0-11.35-9.23-20.59-20.58-20.59h-107c-11.35,0-20.58,9.24-20.58,20.59V86.1c0,11.35,9.23,20.58,20.58,20.58h31.21v8.65H46.5
		c-16.12,0-29.23-13.11-29.23-29.23V65.68c0-16.12,13.11-29.23,29.23-29.23h107C169.62,36.45,182.73,49.56,182.73,65.68z"/>
</g>
<g>
	<g>
		<path class="st1" d="M109,88.72H91c-7.33,0-13.29,5.96-13.29,13.29v18c0,7.33,5.96,13.29,13.29,13.29h18
			c7.33,0,13.29-5.96,13.29-13.29v-18C122.29,94.68,116.33,88.72,109,88.72z M113.64,120.01c0,2.56-2.08,4.64-4.64,4.64H91
			c-2.56,0-4.64-2.08-4.64-4.64v-18c0-2.56,2.08-4.65,4.64-4.65h18c2.56,0,4.64,2.09,4.64,4.65V120.01z"/>
	</g>
</g>
<g>
	<path class="st1" d="M106.43,111.01c0-3.55-2.88-6.42-6.42-6.42c-3.55,0-6.42,2.88-6.42,6.42c0,3.55,2.88,6.42,6.42,6.42
		C103.55,117.43,106.43,114.56,106.43,111.01z"/>
</g>
</svg>
