<?xml version="1.0" encoding="utf-8"?>
<!-- Generator: Adobe Illustrator 25.4.1, SVG Export Plug-In . SVG Version: 6.00 Build 0)  -->
<svg version="1.1" id="Capa_1" xmlns="http://www.w3.org/2000/svg" xmlns:xlink="http://www.w3.org/1999/xlink" x="0px" y="0px"
	 viewBox="0 0 200 200" style="enable-background:new 0 0 200 200;" xml:space="preserve">
<style type="text/css">
	.st0{fill:#FFFFFF;}
	.st1{fill:#00ADEF;}
	.st2{fill:#015AAA;}
</style>
<g>
	<g>
		<path class="st0" d="M133.66,100.32l-0.14,0.27c-0.01,0.14-0.04,0.29-0.1,0.45c-0.7,1.89-1.83,3.61-3.29,4.97l-49,46.11
			c-1.2,1.13-2.76,1.75-4.4,1.75h-0.19c-1.72-0.05-3.32-0.77-4.5-2.02c-1.18-1.25-1.79-2.89-1.74-4.6c0.05-1.72,0.77-3.31,2.02-4.49
			l44.98-42.31L72.31,58.13c-2.58-2.43-2.71-6.5-0.28-9.09c1.18-1.25,2.78-1.97,4.5-2.02c1.71-0.05,3.34,0.57,4.59,1.75l49.01,46.1
			c1.33,1.25,2.37,2.5,3.11,4.53c0.02,0.05,0.04,0.1,0.07,0.16l0.04,0.11L133.66,100.32z"/>
	</g>
</g>
<path class="st0" d="M79.51,12.46C127.78,1.71,175.8,32.23,186.55,80.5c10.75,48.27-19.77,96.29-68.04,107.04
	c-48.27,10.75-96.29-19.77-107.04-68.04c-0.91-4.09,1.67-8.15,5.76-9.06c4.09-0.91,8.15,1.67,9.06,5.76
	c8.93,40.1,48.83,65.46,88.93,56.52c40.1-8.93,65.46-48.83,56.52-88.93c-8.93-40.1-48.82-65.46-88.93-56.52
	C62.45,31.81,44.8,44.8,34.4,62.9c-2.09,3.63-6.73,4.89-10.36,2.8c-3.64-2.09-4.89-6.73-2.8-10.36C33.76,33.55,55,17.92,79.51,12.46
	z"/>
</svg>
