<?xml version="1.0" encoding="utf-8"?>
<!-- Generator: Adobe Illustrator 25.4.1, SVG Export Plug-In . SVG Version: 6.00 Build 0)  -->
<svg version="1.1" id="Capa_1" xmlns="http://www.w3.org/2000/svg" xmlns:xlink="http://www.w3.org/1999/xlink" x="0px" y="0px"
	 viewBox="0 0 200 200" style="enable-background:new 0 0 200 200;" xml:space="preserve">
<style type="text/css">
	.st0{fill:#FFFFFF;}
	.st1{fill:#0089D0;}
	.st2{fill:#015AAA;}
	.st3{fill:#FFFFFF;}
</style>
<g>
	<g>
		<g>
			<path class="st3" d="M96.46,185.35c-44.83,0-81.3-36.47-81.3-81.3c0-44.83,36.47-81.3,81.3-81.3c33.9,0,64.56,21.36,76.29,53.15
				c0.9,2.43-0.35,5.13-2.78,6.03c-2.43,0.9-5.13-0.35-6.03-2.78c-10.38-28.12-37.5-47.01-67.49-47.01
				c-39.65,0-71.91,32.26-71.91,71.91c0,39.65,32.26,71.91,71.91,71.91c21.83,0,42.22-9.75,55.96-26.74c1.63-2.02,4.59-2.33,6.6-0.7
				c2.02,1.63,2.33,4.58,0.7,6.6C144.19,174.33,121.13,185.35,96.46,185.35z"/>
		</g>
		<g>
			<g>
				<polygon class="st3" points="184.84,68.51 173.06,104.05 148.17,76.08 				"/>
			</g>
		</g>
	</g>
	<g>
		<path class="st2" d="M96.46,109.46c-2.99,0-5.42-2.42-5.42-5.42V61.76c0-2.99,2.42-5.42,5.42-5.42s5.42,2.42,5.42,5.42v42.28
			C101.87,107.04,99.45,109.46,96.46,109.46z"/>
	</g>
	<g>
		<path class="st2" d="M66.56,139.36c-1.39,0-2.77-0.53-3.83-1.59c-2.12-2.11-2.12-5.54,0-7.66l29.9-29.9
			c2.12-2.12,5.54-2.12,7.66,0c2.12,2.11,2.12,5.54,0,7.66l-29.9,29.9C69.33,138.83,67.94,139.36,66.56,139.36z"/>
	</g>
</g>
</svg>
