<?xml version="1.0" encoding="utf-8"?>
<!-- Generator: Adobe Illustrator 25.4.1, SVG Export Plug-In . SVG Version: 6.00 Build 0)  -->
<svg version="1.1" id="Capa_1" xmlns="http://www.w3.org/2000/svg" xmlns:xlink="http://www.w3.org/1999/xlink" x="0px" y="0px"
	 viewBox="0 0 200 200" style="enable-background:new 0 0 200 200;" xml:space="preserve">
<style type="text/css">
	.st0{fill:#015AAA;}
	.st1{fill:#00ADEF;}
	.st2{fill:#0DC6F7;}
	.st3{fill:#355FDE;}
	.st4{fill:#21F430;}
</style>
<path class="st0" d="M181.44,100.03c0,45.97-37.4,83.37-83.37,83.37s-83.37-37.4-83.37-83.37s37.4-83.37,83.37-83.37
	c22.27,0,43.21,8.67,58.95,24.42c1.81,1.81,1.81,4.75,0,6.56c-1.81,1.81-4.75,1.81-6.56,0c-13.99-14-32.6-21.7-52.4-21.7
	c-40.86,0-74.1,33.24-74.1,74.1c0,40.86,33.24,74.1,74.1,74.1c40.86,0,74.1-33.24,74.1-74.1c0-2.56,2.08-4.64,4.64-4.64
	C179.36,95.4,181.44,97.47,181.44,100.03z"/>
<path class="st2" d="M100,145.48L100,145.48c-5.4,0-9.77-4.37-9.77-9.77V93.59c0-5.4,4.37-9.77,9.77-9.77h0
	c5.4,0,9.77,4.37,9.77,9.77v42.12C109.77,141.11,105.4,145.48,100,145.48z"/>
<path class="st2" d="M100,76.25L100,76.25c-5.59,0-10.11-4.53-10.11-10.11v0c0-5.59,4.53-10.11,10.11-10.11h0
	c5.59,0,10.11,4.53,10.11,10.11v0C110.11,71.73,105.59,76.25,100,76.25z"/>
</svg>
