<?xml version="1.0" encoding="utf-8"?>
<!-- Generator: Adobe Illustrator 25.4.1, SVG Export Plug-In . SVG Version: 6.00 Build 0)  -->
<svg version="1.1" xmlns="http://www.w3.org/2000/svg" xmlns:xlink="http://www.w3.org/1999/xlink" x="0px" y="0px"
	 viewBox="0 0 200 63.08" style="enable-background:new 0 0 200 63.08;" xml:space="preserve">
<style type="text/css">
	.st0{display:none;}
	.st1{display:inline;opacity:0.8;}
	.st2{fill-rule:evenodd;clip-rule:evenodd;}
	.st3{opacity:0.8;}
	.st4{display:inline;}
	.st5{opacity:0.8;fill-rule:evenodd;clip-rule:evenodd;}
	.st6{clip-path:url(#SVGID_00000025439795583555430110000006857822969809420674_);}
	.st7{clip-path:url(#SVGID_00000159442030085463503130000009270227926398760351_);}
	.st8{fill:#333333;}
	.st9{fill:#DBDBDB;}
	.st10{fill:#3F3F3F;}
	.st11{fill:#FFFFFA;}
	.st12{fill:#DEDEDE;}
	.st13{fill:#979797;}
	.st14{fill:#484848;}
	.st15{fill:#4D4D4D;}
	.st16{fill:#6F6F6F;}
	.st17{fill:none;stroke:#000000;stroke-width:2;stroke-miterlimit:3.8637;}
	.st18{display:inline;opacity:0.8;fill-rule:evenodd;clip-rule:evenodd;}
	.st19{fill-rule:evenodd;clip-rule:evenodd;fill:none;stroke:#000000;stroke-miterlimit:10;}
	.st20{fill:#1D1D1B;}
	.st21{fill:#FFE13A;}
	.st22{fill:#009EE2;}
	.st23{fill-rule:evenodd;clip-rule:evenodd;fill:#009EE2;}
	.st24{fill:#0D2B60;}
	.st25{fill:#D6430D;}
	.st26{fill:#F5A300;}
	.st27{fill:#AABC14;}
	.st28{fill:#CCA857;}
	.st29{fill:#791525;}
	.st30{fill:none;stroke:#791525;stroke-width:0.0496;}
	.st31{fill:#00A651;}
	.st32{fill:#005E9E;}
	.st33{fill:#FFCB05;}
	.st34{fill:#ED1C24;}
	.st35{fill-rule:evenodd;clip-rule:evenodd;fill:#ED1C24;}
	.st36{fill-rule:evenodd;clip-rule:evenodd;fill:#00A651;}
	.st37{opacity:0.8;fill:#FFE13A;}
	.st38{fill:#9E250E;}
	.st39{fill:#312C63;}
	.st40{fill-rule:evenodd;clip-rule:evenodd;fill:#312C63;}
	.st41{fill:none;stroke:#7F1313;stroke-width:2;stroke-miterlimit:3.8637;}
	.st42{fill-rule:evenodd;clip-rule:evenodd;fill:#083D79;}
	.st43{fill-rule:evenodd;clip-rule:evenodd;fill:#00168D;}
	.st44{fill:#00168D;}
	.st45{fill:#00376F;}
	.st46{fill:#04A359;}
	.st47{fill-rule:evenodd;clip-rule:evenodd;fill:#113A60;}
	.st48{fill:#113A60;}
	.st49{opacity:0.8;fill-rule:evenodd;clip-rule:evenodd;fill:#027CA9;}
	.st50{opacity:0.8;fill:#027CA9;}
	.st51{fill:#184287;}
	.st52{fill:#1A4486;}
	.st53{fill:#F8D800;}
	.st54{fill:#E50402;}
	.st55{fill:#F3FF1B;}
	.st56{fill:#0C790D;}
	.st57{fill:#FFFFFF;}
	.st58{fill:#FCDD09;}
	.st59{fill:#EB7711;}
	.st60{fill:#DA121A;}
	.st61{fill:#742C64;}
	.st62{fill:#0F47AF;}
	.st63{fill:#078930;}
	.st64{fill:none;}
</style>
<g id="Capa_1" class="st0">
	<path class="st18" d="M85.76,36.84h4.01v-7.5c0-4.36,2.36-5.5,6.2-5.67v-3.4c-3.4,0.17-4.89,2.18-6.2,4.36l0,0v-4.01h-4.01V36.84
		L85.76,36.84z"/>
	<path class="st18" d="M171.07,37.49c5.2,0,7.84-2.92,7.84-8.67c0-5.57-2.64-8.67-7.84-8.67c-5.2,0-7.68,3.1-7.68,8.67
		C163.38,34.57,165.87,37.49,171.07,37.49L171.07,37.49z M167.39,28.82c0-3.01,0.48-7.26,3.68-7.26c3.36,0,3.84,4.25,3.84,7.26
		c0,3.1-0.48,7.17-3.84,7.17C167.87,35.99,167.39,31.92,167.39,28.82L167.39,28.82z"/>
	<path class="st18" d="M183.05,37.19h3.89v-6.74c0-2.01,1.05-7.53,4.78-7.53c1.86,0,2.19,2.01,2.19,4.03v10.24h3.73v-11.9
		c0-2.36-1.38-4.9-4.37-4.9c-3.97,0-5.59,3.06-6.32,4.38l0,0v-4.03h-3.89V37.19L183.05,37.19z"/>
	<polygon class="st18" points="132.89,36.84 136.88,36.84 136.88,20.7 132.89,20.7 132.89,36.84 	"/>
	<polygon class="st18" points="132.89,18.69 136.88,18.69 136.88,14.92 132.89,14.92 132.89,18.69 	"/>
	<polygon class="st18" points="155.34,36.84 159.32,36.84 159.32,20.7 155.34,20.7 155.34,36.84 	"/>
	<polygon class="st18" points="155.34,18.69 159.32,18.69 159.32,14.92 155.34,14.92 155.34,18.69 	"/>
	<polygon class="st18" points="113.71,20.7 116.91,20.7 121.78,32.97 126.84,20.7 129.99,20.7 123.34,37.19 120.08,37.19 
		113.71,20.7 	"/>
	<path class="st18" d="M67.61,36.82h3.24l0,0h0.88h0.1v-1.46h0V34.8h0v-7.69l0,0v-1.35c3.07,0.22,5.55-0.35,6.24-0.53
		c0,0,0-0.01,0-0.01c0.05-0.01,0.1-0.02,0.14-0.03l0.05-0.02l0.01,0c1.98-0.41,4.37-1.91,4.37-4.88c0-4.66-4.92-5.19-9.14-5.19
		h-5.89V36.82L67.61,36.82z M71.83,17.13h1.67c3.08,0,4.92,0.53,4.92,3.52c0,2.9-2.02,3.69-4.92,3.69h-1.67V17.13L71.83,17.13z"/>
	<path class="st18" d="M112.46,35.08c-1.28,0.55-2.2,0.55-3.48,0.55c-5.86,0-7.5-5.31-7.5-8.6h11.53c0-3.11-1.28-6.77-7.5-6.77
		c-6.04,0-8.05,3.29-8.05,7.87c0,6.59,4.21,9.33,9.51,9.33c2.38,0,4.39-0.55,6.04-1.1L112.46,35.08L112.46,35.08z M101.66,25.38
		c0-0.92,0.55-3.66,3.84-3.66c2.93,0,3.48,2.38,3.48,3.66H101.66L101.66,25.38z"/>
	<path class="st1" d="M150.55,20.7v3.18c0,0-1.91-2.03-5.03-1.59c0,0-1.85,0.43-1.78,1.59c0.07,1.16,1.8,2.29,1.8,2.29
		s6.03,3.07,6.08,5.23s0.04,3.96-2.47,5.28c-2.52,1.31-6.26,0.8-6.26,0.8s-2.36-0.45-2.4-0.63v-3.2c0,0,3.08,2.14,5.57,1.65
		c2.49-0.49,2.2-2.25,2.2-2.25s0.11-0.98-2.03-2.2s-5.2-3.2-5.54-4.5c-0.36-1.38-0.62-2.61,1.29-4.63c1.91-2.03,5.72-1.47,5.72-1.47
		S150.46,20.52,150.55,20.7z"/>
	<polygon class="st1" points="171.77,14.71 170.87,18.55 173.87,18.69 175.51,14.71 	"/>
	<path class="st1" d="M177.28,55.76c-0.22-0.62-0.67-2.56-0.67-2.56l-1.17-4.77h-1.25l-4.54,7.58c0,0-0.12,0.43-0.92,0.38v0.71h3.44
		l-0.05-0.67c0,0-1.02-0.29-0.67-1.09l0.68-1.23h2.89l0.2,1.4c0,0-0.01,0.82-0.53,0.88h-0.58l-0.02,0.71h4.24v-0.64
		C178.33,56.46,177.5,56.38,177.28,55.76z M172.78,52.99l1.55-2.72l0.39,2.72H172.78z"/>
	<path class="st1" d="M179.64,57.1h4.44v-0.7c0,0-1.18-0.09-1.04-0.88c0.14-0.79,0.49-2.27,0.49-2.27h0.76c0,0,0.48,0.06,0.52,0.53
		s0,0.85,0,0.85l0.9-0.03l0.37-3.45h-0.62c0,0-0.4,0.96-1.08,0.95l-0.65-0.03l0.29-1.78c0,0-0.07-0.87,1.45-0.9s2.18,1.29,2.18,1.29
		l0.11,0.24l0.82,0.01l-0.85-2.53h-6.43l0.03,0.76c0,0,1.1,0.14,0.89,1.44c-0.21,1.29-0.98,4.64-0.98,4.64s-0.12,0.87-1.09,1.12
		l-0.52,0.08V57.1z"/>
	<path class="st4" d="M195.97,48.49h-6v0.49c0,0,0.85,0.28,0.83,1.1c-0.01,0.82-0.73,4.87-0.73,4.87s-0.37,1.22-1.15,1.33h-0.73
		v0.82h4.49v-0.7c0,0-1.09-0.07-1.02-0.86c0.06-0.79,0.3-2.03,0.3-2.03h2.82c0,0,2.38-0.42,2.65-2.04
		C197.69,49.85,197.23,48.69,195.97,48.49z M194.49,52.21c-0.12,0.07-0.25,0.1-0.38,0.1h-1.79l0.1-1.04
		c0.07-1.92,0.85-1.78,0.85-1.78h1.3c0.16,0,0.31,0.06,0.42,0.16c0.22,0.22,0.54,0.64,0.5,1.27
		C195.44,51.61,194.82,52.04,194.49,52.21z"/>
	<path class="st18" d="M4.15,4.26h54.4v43.78H4.15V4.26L4.15,4.26z M13.61,33.8H7.16V18.5h6.63c3.18,0,4.25,2.56,2.56,4.95
		l-0.71,1.15C21.04,27.17,19.19,33.8,13.61,33.8L13.61,33.8z M12.91,25.31l1.24-2.03c0.18-0.35,0.44-0.71,0.44-1.06
		c0-0.97-0.97-1.68-1.86-1.68h-1.86v11.23h0.88c1.86,0,3.36-0.88,3.36-3.27C15.12,26.64,14.14,25.49,12.91,25.31L12.91,25.31z
		 M26.53,33.8h-6.46V18.5h6.72c3.1,0,4.25,2.56,2.57,4.95l-0.8,1.15C33.96,27.17,32.1,33.8,26.53,33.8L26.53,33.8z M25.82,25.31
		l1.33-2.03c0.18-0.35,0.35-0.71,0.35-1.06c0-0.97-0.97-1.68-1.86-1.68h-1.86v11.23h0.97c1.77,0,3.27-0.88,3.27-3.27
		C28.03,26.64,27.15,25.49,25.82,25.31L25.82,25.31z M41.74,18.5h2.39l-4.6,15.3h-3.71l-4.95-15.3h2.74c0.88,0,1.33,0.18,1.86,2.03
		l2.74,9.64L41.74,18.5L41.74,18.5z M50.05,18.5c1.15,0,1.33,0.35,1.86,1.41l4.6,13.89h-4.25l-0.88-3.27h-5.57l-1.15,3.27h-2.39
		l4.86-15.3H50.05L50.05,18.5z M50.59,28.32h-4.25l2.21-7.08L50.59,28.32L50.59,28.32z"/>
</g>
<g id="Capa_2">
	<path class="st43" d="M85.76,36.84h4.01v-7.5c0-4.36,2.36-5.5,6.2-5.67v-3.4c-3.4,0.17-4.89,2.18-6.2,4.36l0,0v-4.01h-4.01V36.84
		L85.76,36.84z"/>
	<path class="st43" d="M171.07,37.49c5.2,0,7.84-2.92,7.84-8.67c0-5.57-2.64-8.67-7.84-8.67c-5.2,0-7.68,3.1-7.68,8.67
		C163.38,34.57,165.87,37.49,171.07,37.49L171.07,37.49z M167.39,28.82c0-3.01,0.48-7.26,3.68-7.26c3.36,0,3.84,4.25,3.84,7.26
		c0,3.1-0.48,7.17-3.84,7.17C167.87,35.99,167.39,31.92,167.39,28.82L167.39,28.82z"/>
	<path class="st43" d="M183.05,37.19h3.89v-6.74c0-2.01,1.05-7.53,4.78-7.53c1.86,0,2.19,2.01,2.19,4.03v10.24h3.73v-11.9
		c0-2.36-1.38-4.9-4.37-4.9c-3.97,0-5.59,3.06-6.32,4.38l0,0v-4.03h-3.89V37.19L183.05,37.19z"/>
	<polygon class="st43" points="132.89,36.84 136.88,36.84 136.88,20.7 132.89,20.7 132.89,36.84 	"/>
	<polygon class="st43" points="132.89,18.69 136.88,18.69 136.88,14.92 132.89,14.92 132.89,18.69 	"/>
	<polygon class="st43" points="155.34,36.84 159.32,36.84 159.32,20.7 155.34,20.7 155.34,36.84 	"/>
	<polygon class="st43" points="155.34,18.69 159.32,18.69 159.32,14.92 155.34,14.92 155.34,18.69 	"/>
	<polygon class="st43" points="113.71,20.7 116.91,20.7 121.78,32.97 126.84,20.7 129.99,20.7 123.34,37.19 120.08,37.19 
		113.71,20.7 	"/>
	<path class="st43" d="M67.61,36.82h3.24l0,0h0.88h0.1v-1.46h0V34.8h0v-7.69l0,0v-1.35c3.07,0.22,5.55-0.35,6.24-0.53
		c0,0,0-0.01,0-0.01c0.05-0.01,0.1-0.02,0.14-0.03l0.05-0.02l0.01,0c1.98-0.41,4.37-1.91,4.37-4.88c0-4.66-4.92-5.19-9.14-5.19
		h-5.89V36.82L67.61,36.82z M71.83,17.13h1.67c3.08,0,4.92,0.53,4.92,3.52c0,2.9-2.02,3.69-4.92,3.69h-1.67V17.13L71.83,17.13z"/>
	<path class="st43" d="M112.46,35.08c-1.28,0.55-2.2,0.55-3.48,0.55c-5.86,0-7.5-5.31-7.5-8.6h11.53c0-3.11-1.28-6.77-7.5-6.77
		c-6.04,0-8.05,3.29-8.05,7.87c0,6.59,4.21,9.33,9.51,9.33c2.38,0,4.39-0.55,6.04-1.1L112.46,35.08L112.46,35.08z M101.66,25.38
		c0-0.92,0.55-3.66,3.84-3.66c2.93,0,3.48,2.38,3.48,3.66H101.66L101.66,25.38z"/>
	<path class="st44" d="M150.55,20.7v3.18c0,0-1.91-2.03-5.03-1.59c0,0-1.85,0.43-1.78,1.59c0.07,1.16,1.8,2.29,1.8,2.29
		s6.03,3.07,6.08,5.23s0.04,3.96-2.47,5.28c-2.52,1.31-6.26,0.8-6.26,0.8s-2.36-0.45-2.4-0.63v-3.2c0,0,3.08,2.14,5.57,1.65
		c2.49-0.49,2.2-2.25,2.2-2.25s0.11-0.98-2.03-2.2s-5.2-3.2-5.54-4.5c-0.36-1.38-0.62-2.61,1.29-4.63c1.91-2.03,5.72-1.47,5.72-1.47
		S150.46,20.52,150.55,20.7z"/>
	<polygon class="st44" points="171.77,14.71 170.87,18.55 173.87,18.69 175.51,14.71 	"/>
	<path class="st44" d="M177.28,55.76c-0.22-0.62-0.67-2.56-0.67-2.56l-1.17-4.77h-1.25l-4.54,7.58c0,0-0.12,0.43-0.92,0.38v0.71
		h3.44l-0.05-0.67c0,0-1.02-0.29-0.67-1.09l0.68-1.23h2.89l0.2,1.4c0,0-0.01,0.82-0.53,0.88h-0.58l-0.02,0.71h4.24v-0.64
		C178.33,56.46,177.5,56.38,177.28,55.76z M172.78,52.99l1.55-2.72l0.39,2.72H172.78z"/>
	<path class="st44" d="M179.64,57.1h4.44v-0.7c0,0-1.18-0.09-1.04-0.88c0.14-0.79,0.49-2.27,0.49-2.27h0.76c0,0,0.48,0.06,0.52,0.53
		s0,0.85,0,0.85l0.9-0.03l0.37-3.45h-0.62c0,0-0.4,0.96-1.08,0.95l-0.65-0.03l0.29-1.78c0,0-0.07-0.87,1.45-0.9s2.18,1.29,2.18,1.29
		l0.11,0.24l0.82,0.01l-0.85-2.53h-6.43l0.03,0.76c0,0,1.1,0.14,0.89,1.44c-0.21,1.29-0.98,4.64-0.98,4.64s-0.12,0.87-1.09,1.12
		l-0.52,0.08V57.1z"/>
	<path class="st44" d="M195.97,48.49h-6v0.49c0,0,0.85,0.28,0.83,1.1c-0.01,0.82-0.73,4.87-0.73,4.87s-0.37,1.22-1.15,1.33h-0.73
		v0.82h4.49v-0.7c0,0-1.09-0.07-1.02-0.86c0.06-0.79,0.3-2.03,0.3-2.03h2.82c0,0,2.38-0.42,2.65-2.04
		C197.69,49.85,197.23,48.69,195.97,48.49z M194.49,52.21c-0.12,0.07-0.25,0.1-0.38,0.1h-1.79l0.1-1.04
		c0.07-1.92,0.85-1.78,0.85-1.78h1.3c0.16,0,0.31,0.06,0.42,0.16c0.22,0.22,0.54,0.64,0.5,1.27
		C195.44,51.61,194.82,52.04,194.49,52.21z"/>
	<path class="st43" d="M4.15,4.26h54.4v43.78H4.15V4.26L4.15,4.26z M13.61,33.8H7.16V18.5h6.63c3.18,0,4.25,2.56,2.56,4.95
		l-0.71,1.15C21.04,27.17,19.19,33.8,13.61,33.8L13.61,33.8z M12.91,25.31l1.24-2.03c0.18-0.35,0.44-0.71,0.44-1.06
		c0-0.97-0.97-1.68-1.86-1.68h-1.86v11.23h0.88c1.86,0,3.36-0.88,3.36-3.27C15.12,26.64,14.14,25.49,12.91,25.31L12.91,25.31z
		 M26.53,33.8h-6.46V18.5h6.72c3.1,0,4.25,2.56,2.57,4.95l-0.8,1.15C33.96,27.17,32.1,33.8,26.53,33.8L26.53,33.8z M25.82,25.31
		l1.33-2.03c0.18-0.35,0.35-0.71,0.35-1.06c0-0.97-0.97-1.68-1.86-1.68h-1.86v11.23h0.97c1.77,0,3.27-0.88,3.27-3.27
		C28.03,26.64,27.15,25.49,25.82,25.31L25.82,25.31z M41.74,18.5h2.39l-4.6,15.3h-3.71l-4.95-15.3h2.74c0.88,0,1.33,0.18,1.86,2.03
		l2.74,9.64L41.74,18.5L41.74,18.5z M50.05,18.5c1.15,0,1.33,0.35,1.86,1.41l4.6,13.89h-4.25l-0.88-3.27h-5.57l-1.15,3.27h-2.39
		l4.86-15.3H50.05L50.05,18.5z M50.59,28.32h-4.25l2.21-7.08L50.59,28.32L50.59,28.32z"/>
</g>
</svg>
