<?xml version="1.0" encoding="utf-8"?>
<!-- Generator: Adobe Illustrator 25.4.1, SVG Export Plug-In . SVG Version: 6.00 Build 0)  -->
<svg version="1.1" xmlns="http://www.w3.org/2000/svg" xmlns:xlink="http://www.w3.org/1999/xlink" x="0px" y="0px"
	 viewBox="0 0 200 117.96" style="enable-background:new 0 0 200 117.96;" xml:space="preserve">
<style type="text/css">
	.st0{display:none;}
	.st1{display:inline;opacity:0.8;}
	.st2{fill-rule:evenodd;clip-rule:evenodd;}
	.st3{opacity:0.8;}
	.st4{display:inline;}
	.st5{opacity:0.8;fill-rule:evenodd;clip-rule:evenodd;}
	.st6{clip-path:url(#SVGID_00000005975581520993743030000005931925169231701661_);}
	.st7{clip-path:url(#SVGID_00000068652244567136549620000009349704198969621411_);}
	.st8{fill:#333333;}
	.st9{fill:#DBDBDB;}
	.st10{fill:#3F3F3F;}
	.st11{fill:#FFFFFA;}
	.st12{fill:#DEDEDE;}
	.st13{fill:#979797;}
	.st14{fill:#484848;}
	.st15{fill:#4D4D4D;}
	.st16{fill:#6F6F6F;}
	.st17{fill:none;stroke:#000000;stroke-width:2;stroke-miterlimit:3.8637;}
	.st18{display:inline;opacity:0.8;fill-rule:evenodd;clip-rule:evenodd;}
	.st19{fill-rule:evenodd;clip-rule:evenodd;fill:none;stroke:#000000;stroke-miterlimit:10;}
	.st20{fill:#1D1D1B;}
	.st21{fill:#FFE13A;}
	.st22{fill:#009EE2;}
	.st23{fill-rule:evenodd;clip-rule:evenodd;fill:#009EE2;}
	.st24{fill:#0D2B60;}
	.st25{fill:#D6430D;}
	.st26{fill:#F5A300;}
	.st27{fill:#AABC14;}
	.st28{fill:#CCA857;}
	.st29{fill:#791525;}
	.st30{fill:none;stroke:#791525;stroke-width:0.0496;}
	.st31{fill:#00A651;}
	.st32{fill:#005E9E;}
	.st33{fill:#FFCB05;}
	.st34{fill:#ED1C24;}
	.st35{fill-rule:evenodd;clip-rule:evenodd;fill:#ED1C24;}
	.st36{fill-rule:evenodd;clip-rule:evenodd;fill:#00A651;}
	.st37{opacity:0.8;fill:#FFE13A;}
	.st38{fill:#9E250E;}
	.st39{fill:#312C63;}
	.st40{fill-rule:evenodd;clip-rule:evenodd;fill:#312C63;}
	.st41{fill:none;stroke:#7F1313;stroke-width:2;stroke-miterlimit:3.8637;}
	.st42{fill-rule:evenodd;clip-rule:evenodd;fill:#083D79;}
	.st43{fill-rule:evenodd;clip-rule:evenodd;fill:#00168D;}
	.st44{fill:#00168D;}
	.st45{fill:#00376F;}
	.st46{fill:#04A359;}
	.st47{fill-rule:evenodd;clip-rule:evenodd;fill:#113A60;}
	.st48{fill:#113A60;}
	.st49{opacity:0.8;fill-rule:evenodd;clip-rule:evenodd;fill:#027CA9;}
	.st50{opacity:0.8;fill:#027CA9;}
	.st51{fill:#184287;}
	.st52{fill:#1A4486;}
	.st53{fill:#F8D800;}
	.st54{fill:#E50402;}
	.st55{fill:#F3FF1B;}
	.st56{fill:#0C790D;}
	.st57{fill:#FFFFFF;}
	.st58{fill:#FCDD09;}
	.st59{fill:#EB7711;}
	.st60{fill:#DA121A;}
	.st61{fill:#742C64;}
	.st62{fill:#0F47AF;}
	.st63{fill:#078930;}
	.st64{fill:none;}
</style>
<g id="Capa_1" class="st0">
	<g class="st4">
		<g class="st3">
			<path d="M116.71,38.01c7.59-8.26,7.59-21.64,0-29.9c-7.59-8.26-19.89-8.26-27.48,0L79.69,18.5l8.34,9.07l14.31-15.57l10.44,11.36
				L89.23,48.98l8.64,9.4L116.71,38.01L116.71,38.01z"/>
			<path d="M83.47,34.34c-7.59,8.26-7.59,21.64,0,29.9c7.59,8.26,19.89,8.26,27.48,0l9.54-10.39l-8.34-9.07L97.84,60.35L87.4,48.99
				l23.55-25.62l-8.64-9.4L83.47,34.34L83.47,34.34z"/>
			<polygon class="st2" points="8.66,75.68 14.15,75.68 9.86,97.07 16.45,97.07 14.92,102.21 3.49,102.21 			"/>
			<path class="st2" d="M23.67,87.4c0,0-3.26,0-5.81,6.67c-2.55,6.68,1.65,8.47,1.65,8.47c3.41,0,3.62-1.34,3.62-1.34l-0.25,1.34
				h3.33l2.73-15.15H23.67z M22.51,99.4c0,0-2.14-0.23-1.32-3.55c0.82-3.32,1.77-5.42,3.3-5.29C24.49,90.57,25.03,96.28,22.51,99.4z
				"/>
			<path class="st2" d="M95.15,87.4c0,0-3.26,0-5.81,6.67c-2.55,6.68,1.65,8.47,1.65,8.47c3.41,0,3.62-1.34,3.62-1.34l-0.25,1.34
				h3.33l2.73-15.15H95.15z M94,99.4c0,0-2.14-0.23-1.32-3.55c0.82-3.32,1.77-5.42,3.3-5.29C95.98,90.57,96.52,96.28,94,99.4z"/>
			<path class="st2" d="M118.18,87.4c0,0-3.26,0-5.81,6.67c-2.55,6.68,1.65,8.47,1.65,8.47c3.41,0,3.62-1.34,3.62-1.34l-0.25,1.34
				h3.33l2.73-15.15H118.18z M117.02,99.4c0,0-2.14-0.23-1.32-3.55c0.82-3.32,1.77-5.42,3.3-5.29
				C119,90.57,119.54,96.28,117.02,99.4z"/>
			<path class="st19" d="M22.51,99.4c0,0-2.14-0.23-1.32-3.55c0.82-3.32,1.77-5.42,3.3-5.29C24.49,90.57,25.03,96.28,22.51,99.4z"/>
			<path class="st19" d="M46.17,82.73c-0.44,4.36-2.25,3.82-2.25,3.82h-2.64l1.1-6.57h1.35C46.55,79.81,46.17,82.73,46.17,82.73z"/>
			<path class="st19" d="M44.35,93.97c-0.27,4.06-2.14,3.88-2.14,3.88h-3.3l1.43-6.57C40.34,91.28,44.63,89.9,44.35,93.97z"/>
			<path class="st2" d="M51.33,81.36c0,0,0.42-5.08-5.14-5.74h-8.04l-5.16,26.59h10.16c0,0,6.43-1,6.7-7.76c0,0,0.88-4.91-3.02-6.4
				C46.83,88.05,51.11,87.28,51.33,81.36z M44.35,93.97c-0.27,4.06-2.14,3.88-2.14,3.88h-3.3l1.43-6.57
				C40.34,91.28,44.63,89.9,44.35,93.97z M46.17,82.73c-0.44,4.36-2.25,3.82-2.25,3.82h-2.64l1.1-6.57h1.35
				C46.55,79.81,46.17,82.73,46.17,82.73z"/>
			<polygon class="st2" points="65.61,80.29 61.1,102.57 65.33,102.57 69.23,80.29 			"/>
			<polygon class="st2" points="69.62,87.75 66.82,102.21 70.94,102.21 73.3,87.75 			"/>
			<polygon class="st2" points="70.55,81.18 70.06,85.51 73.76,85.51 74.34,81.18 			"/>
			<polygon class="st2" points="74.34,87.4 78.02,87.4 78.02,96.78 81.37,87.4 84.99,87.4 79.17,102.21 74.78,102.21 			"/>
			<polygon class="st2" points="85.98,87.4 89.81,87.4 86.72,102.21 82.81,102.21 			"/>
			<polygon class="st2" points="86.77,81.18 86.31,85.15 90.1,85.15 90.72,81.18 			"/>
			<path class="st2" d="M155.62,87.4c0,0-3.26,0-5.81,6.67c-2.55,6.68,1.65,8.47,1.65,8.47c3.41,0,3.62-1.34,3.62-1.34l-0.25,1.34
				h3.33l2.73-15.15H155.62z M154.47,99.4c0,0-2.14-0.23-1.32-3.55c0.82-3.32,1.77-5.42,3.3-5.29
				C156.44,90.57,156.98,96.28,154.47,99.4z"/>
			<polygon class="st2" points="146.45,87.4 150.28,87.4 147.19,102.21 143.28,102.21 			"/>
			<polygon class="st2" points="147.23,81.18 146.78,85.15 150.57,85.15 151.19,81.18 			"/>
			<path class="st2" d="M99.78,102.36h3.83l1.61-10.22c0,0,0.24-1.8,1.28-1.8s0.95,1.42,0.95,1.42l-1.83,10.6h4.12
				c0,0,3.4-15.26-0.1-15.28c0,0-2.1-0.83-3.73,1.32c0,0,0.06-1.48-1.63-1.48s-2.41,1.73-2.41,1.73L99.78,102.36z"/>
			<path d="M145.38,77.27l-0.66,4.93c0,0-6.1-4.03-8.49,2.6c-1.43,3.98-1.15,7.38-0.69,9.46c0.32,1.44,1.28,2.61,2.55,3.13
				c1.67,0.69,3.98,1.24,4.81-0.54c0,0,0.09,4.97-2.63,5.69c-2.72,0.72-7.83-0.94-9.23-3.85c-0.6-1.25-0.94-3.36-1.14-5.38
				c-0.43-4.38,0.33-8.85,2.4-12.63c1.34-2.45,3.25-4.62,5.82-4.85C144.31,75.3,145.38,77.27,145.38,77.27z"/>
			<path d="M169.81,87.62l-0.7,3.23c0,0-4.41-1.84-4.9,3.5c0,0-0.66,5.42,3.5,5.06l-0.41,2.81c0,0-6.5,1.76-6.4-5.23
				c0.1-6.99,2.94-8.96,2.94-8.96S167,85.78,169.81,87.62z"/>
			<path d="M170.96,87.4h3.91v2.24c0,0,1.11-2.33,3.25-2.24l-0.78,4.3c0,0-3.13-1.08-3.91,2.96c-0.78,4.03-1.4,7.53-1.4,7.53h-3.38
				L170.96,87.4z"/>
			<path d="M178.99,87.39c0,0-3.38,14.98-0.25,15.02c3.13,0.04,3.46-1.26,3.46-1.26v1.26l3.71,0l2.76-15.02h-3.91
				c0,0-0.58,11.47-3.13,11.43c0,0-1.28-0.13,1.03-11.43L178.99,87.39z"/>
			<polygon points="189.54,87.39 189.16,90.49 192.87,90.76 186.69,102.41 196.54,102.41 196.83,98.87 192.3,98.78 198.97,87.39 			
				"/>
			<path class="st2" d="M56.99,87.04c0,0-5.14,0.18-6.18,6.96c-1.04,6.78,2.72,8.42,4.26,8.36c1.54-0.06,6.26-2.39,6.32-7.66
				C61.43,89.43,60.72,87.45,56.99,87.04z M55.64,99.85c0,0-1.48-0.18-0.96-5.15c0.52-4.98,2.42-5.1,2.42-5.1s1.04-0.15,1.02,4.69
				C58.08,99.14,55.64,99.85,55.64,99.85z"/>
			<path class="st19" d="M58.11,94.3c-0.03,4.84-2.47,5.56-2.47,5.56s-1.48-0.18-0.96-5.15c0.52-4.98,2.42-5.1,2.42-5.1
				S58.14,89.46,58.11,94.3z"/>
		</g>
		<g>
			<polygon class="st20" points="86.63,114.35 82.33,114.35 83.92,107.64 87.96,107.64 87.96,108.57 84.65,108.57 83.5,113.43 
				86.63,113.43 			"/>
			<rect x="83.83" y="110.38" class="st20" width="2.88" height="0.92"/>
			<path class="st20" d="M94.95,114.38c-0.71,0-1.31-0.19-1.77-0.57c-0.8-0.64-0.9-1.59-0.91-1.63c-0.01-0.11-0.17-2.5,1.47-3.88
				c1.43-1.21,2.95-0.31,3.56,0.33l-0.67,0.64c-0.12-0.12-1.19-1.19-2.29-0.26c-1.27,1.07-1.15,3.08-1.15,3.1
				c0.02,0.14,0.23,1.55,2.15,1.34l0.07-0.01l0.07,0.02c0,0,0.17,0.02,0.32-0.12c0.16-0.15,0.4-0.56,0.36-1.64h-0.69v-0.92h1.54
				l0.04,0.42c0.13,1.39-0.09,2.35-0.65,2.84c-0.4,0.35-0.83,0.36-1.02,0.34C95.23,114.37,95.09,114.38,94.95,114.38z"/>
			<path class="st20" d="M104.47,114.29c-0.11,0-0.2-0.01-0.26-0.02c-0.6,0-1.09-0.24-1.42-0.69c-1.17-1.62,0.18-5.63,0.34-6.08
				l0.87,0.3c-0.53,1.53-1.13,4.31-0.46,5.24c0.1,0.14,0.29,0.3,0.7,0.31l0.07,0l0.06,0.02c0.09,0.02,0.95,0.17,1.41-1.4l0.99-4.41
				l0.9,0.2l-1,4.44C106.13,114.04,105.03,114.29,104.47,114.29z"/>
			<path class="st20" d="M112.18,114.66l-0.89-0.24l1.8-6.69l0.26-0.07c0.18-0.05,1.77-0.43,2.68,0.23
				c0.36,0.26,0.56,0.65,0.59,1.12c0.1,1.59-0.98,2.2-1.57,2.29l-0.05,0.01l-1.91-0.08L112.18,114.66z M113.35,110.31l1.59,0.07
				c0.2-0.05,0.83-0.29,0.76-1.31c-0.02-0.26-0.12-0.37-0.22-0.44c-0.39-0.28-1.18-0.22-1.65-0.13L113.35,110.31z"/>
			
				<rect x="114.18" y="110.31" transform="matrix(0.795 -0.6066 0.6066 0.795 -44.7751 92.6197)" class="st20" width="0.92" height="4.48"/>
			<path class="st20" d="M75.79,114.59c-0.69,0-1.24-0.17-1.29-0.18c0.02,0.02-0.74-0.14-0.98-1.32l0.9-0.18
				c0.11,0.53,0.31,0.61,0.32,0.61c0.11,0.03,1.97,0.59,2.71-0.67c0.2-0.34,0.25-0.63,0.17-0.86c-0.14-0.36-0.61-0.57-0.78-0.63
				c-0.05-0.01-1.07-0.2-1.46-0.98c-0.15-0.31-0.26-0.82,0.1-1.52c0.26-0.5,0.65-0.83,1.14-0.94c1-0.24,2.03,0.49,2.15,0.58
				l-0.54,0.74c-0.22-0.16-0.89-0.54-1.39-0.42c-0.22,0.05-0.39,0.21-0.53,0.47c-0.15,0.29-0.18,0.52-0.1,0.69
				c0.15,0.31,0.68,0.47,0.86,0.5c0.16,0.05,1.09,0.35,1.42,1.18c0.2,0.51,0.12,1.07-0.23,1.66
				C77.64,114.34,76.61,114.59,75.79,114.59z"/>
			<path class="st20" d="M132.5,114.59c-0.69,0-1.24-0.17-1.29-0.18c-0.01,0.02-0.74-0.14-0.98-1.32l0.9-0.18
				c0.11,0.53,0.31,0.61,0.32,0.61c0.11,0.03,1.97,0.59,2.71-0.67c0.2-0.34,0.26-0.63,0.17-0.86c-0.16-0.42-0.77-0.62-0.77-0.62
				c-0.06-0.01-1.08-0.2-1.47-0.98c-0.15-0.31-0.26-0.82,0.1-1.52c0.26-0.5,0.65-0.83,1.14-0.94c1-0.24,2.03,0.49,2.15,0.58
				l-0.54,0.74c-0.22-0.16-0.89-0.54-1.39-0.42c-0.22,0.05-0.39,0.21-0.53,0.47c-0.15,0.29-0.18,0.52-0.1,0.69
				c0.15,0.31,0.68,0.47,0.86,0.5c0.16,0.05,1.09,0.35,1.42,1.18c0.2,0.51,0.12,1.07-0.23,1.66
				C134.35,114.34,133.33,114.59,132.5,114.59z"/>
			<path class="st20" d="M123.48,114.33c-0.01,0-0.02,0-0.03,0c-0.66-0.01-1.21-0.28-1.6-0.79c-0.6-0.78-0.74-2.05-0.38-3.48
				c0.59-2.35,2.66-2.55,2.75-2.56l0.03,0l0.03,0c2.45,0.14,2.34,2.24,2.28,3.36C126.5,112.3,125.23,114.33,123.48,114.33z
				 M124.27,108.43c-0.22,0.03-1.51,0.28-1.91,1.86c-0.29,1.14-0.21,2.14,0.21,2.69c0.21,0.28,0.51,0.42,0.88,0.43
				c1.19,0.03,2.14-1.51,2.19-2.51C125.72,109.4,125.67,108.52,124.27,108.43z"/>
		</g>
	</g>
</g>
<g id="Capa_2">
	<path class="st45" d="M116.71,38.01c7.59-8.26,7.59-21.64,0-29.9c-7.59-8.26-19.89-8.26-27.48,0L79.69,18.5l8.34,9.07l14.31-15.57
		l10.44,11.36L89.23,48.98l8.64,9.4L116.71,38.01L116.71,38.01z"/>
	<path class="st46" d="M83.47,34.34c-7.59,8.26-7.59,21.64,0,29.9c7.59,8.26,19.89,8.26,27.48,0l9.54-10.39l-8.34-9.07L97.84,60.35
		L87.4,48.99l23.55-25.62l-8.64-9.4L83.47,34.34L83.47,34.34z"/>
	<polygon class="st47" points="8.66,75.68 14.15,75.68 9.86,97.07 16.45,97.07 14.92,102.21 3.49,102.21 	"/>
	<path class="st47" d="M23.67,87.4c0,0-3.26,0-5.81,6.67c-2.55,6.68,1.65,8.47,1.65,8.47c3.41,0,3.62-1.34,3.62-1.34l-0.25,1.34
		h3.33l2.73-15.15H23.67z M22.51,99.4c0,0-2.14-0.23-1.32-3.55c0.82-3.32,1.77-5.42,3.3-5.29C24.49,90.57,25.03,96.28,22.51,99.4z"
		/>
	<path class="st47" d="M95.15,87.4c0,0-3.26,0-5.81,6.67c-2.55,6.68,1.65,8.47,1.65,8.47c3.41,0,3.62-1.34,3.62-1.34l-0.25,1.34
		h3.33l2.73-15.15H95.15z M94,99.4c0,0-2.14-0.23-1.32-3.55c0.82-3.32,1.77-5.42,3.3-5.29C95.98,90.57,96.52,96.28,94,99.4z"/>
	<path class="st47" d="M118.18,87.4c0,0-3.26,0-5.81,6.67c-2.55,6.68,1.65,8.47,1.65,8.47c3.41,0,3.62-1.34,3.62-1.34l-0.25,1.34
		h3.33l2.73-15.15H118.18z M117.02,99.4c0,0-2.14-0.23-1.32-3.55c0.82-3.32,1.77-5.42,3.3-5.29C119,90.57,119.54,96.28,117.02,99.4z
		"/>
	<path class="st47" d="M51.33,81.36c0,0,0.42-5.08-5.14-5.74h-8.04l-5.16,26.59h10.16c0,0,6.43-1,6.7-7.76c0,0,0.88-4.91-3.02-6.4
		C46.83,88.05,51.11,87.28,51.33,81.36z M44.35,93.97c-0.27,4.06-2.14,3.88-2.14,3.88h-3.3l1.43-6.57
		C40.34,91.28,44.63,89.9,44.35,93.97z M46.17,82.73c-0.44,4.36-2.25,3.82-2.25,3.82h-2.64l1.1-6.57h1.35
		C46.55,79.81,46.17,82.73,46.17,82.73z"/>
	<polygon class="st47" points="65.61,80.29 61.1,102.57 65.33,102.57 69.23,80.29 	"/>
	<polygon class="st47" points="69.62,87.75 66.82,102.21 70.94,102.21 73.3,87.75 	"/>
	<polygon class="st47" points="70.55,81.18 70.06,85.51 73.76,85.51 74.34,81.18 	"/>
	<polygon class="st47" points="74.34,87.4 78.02,87.4 78.02,96.78 81.37,87.4 84.99,87.4 79.17,102.21 74.78,102.21 	"/>
	<polygon class="st47" points="85.98,87.4 89.81,87.4 86.72,102.21 82.81,102.21 	"/>
	<polygon class="st47" points="86.77,81.18 86.31,85.15 90.1,85.15 90.72,81.18 	"/>
	<path class="st47" d="M155.62,87.4c0,0-3.26,0-5.81,6.67c-2.55,6.68,1.65,8.47,1.65,8.47c3.41,0,3.62-1.34,3.62-1.34l-0.25,1.34
		h3.33l2.73-15.15H155.62z M154.47,99.4c0,0-2.14-0.23-1.32-3.55c0.82-3.32,1.77-5.42,3.3-5.29
		C156.44,90.57,156.98,96.28,154.47,99.4z"/>
	<polygon class="st47" points="146.45,87.4 150.28,87.4 147.19,102.21 143.28,102.21 	"/>
	<polygon class="st47" points="147.23,81.18 146.78,85.15 150.57,85.15 151.19,81.18 	"/>
	<path class="st47" d="M99.78,102.36h3.83l1.61-10.22c0,0,0.24-1.8,1.28-1.8s0.95,1.42,0.95,1.42l-1.83,10.6h4.12
		c0,0,3.4-15.26-0.1-15.28c0,0-2.1-0.83-3.73,1.32c0,0,0.06-1.48-1.63-1.48s-2.41,1.73-2.41,1.73L99.78,102.36z"/>
	<path class="st48" d="M145.38,77.27l-0.66,4.93c0,0-6.1-4.03-8.49,2.6c-1.43,3.98-1.15,7.38-0.69,9.46
		c0.32,1.44,1.28,2.61,2.55,3.13c1.67,0.69,3.98,1.24,4.81-0.54c0,0,0.09,4.97-2.63,5.69c-2.72,0.72-7.83-0.94-9.23-3.85
		c-0.6-1.25-0.94-3.36-1.14-5.38c-0.43-4.38,0.33-8.85,2.4-12.63c1.34-2.45,3.25-4.62,5.82-4.85
		C144.31,75.3,145.38,77.27,145.38,77.27z"/>
	<path class="st48" d="M169.81,87.62l-0.7,3.23c0,0-4.41-1.84-4.9,3.5c0,0-0.66,5.42,3.5,5.06l-0.41,2.81c0,0-6.5,1.76-6.4-5.23
		c0.1-6.99,2.94-8.96,2.94-8.96S167,85.78,169.81,87.62z"/>
	<path class="st48" d="M170.96,87.4h3.91v2.24c0,0,1.11-2.33,3.25-2.24l-0.78,4.3c0,0-3.13-1.08-3.91,2.96
		c-0.78,4.03-1.4,7.53-1.4,7.53h-3.38L170.96,87.4z"/>
	<path class="st48" d="M178.99,87.39c0,0-3.38,14.98-0.25,15.02c3.13,0.04,3.46-1.26,3.46-1.26v1.26l3.71,0l2.76-15.02h-3.91
		c0,0-0.58,11.47-3.13,11.43c0,0-1.28-0.13,1.03-11.43L178.99,87.39z"/>
	<polygon class="st48" points="189.54,87.39 189.16,90.49 192.87,90.76 186.69,102.41 196.54,102.41 196.83,98.87 192.3,98.78 
		198.97,87.39 	"/>
	<path class="st47" d="M56.99,87.04c0,0-5.14,0.18-6.18,6.96c-1.04,6.78,2.72,8.42,4.26,8.36c1.54-0.06,6.26-2.39,6.32-7.66
		C61.43,89.43,60.72,87.45,56.99,87.04z M55.64,99.85c0,0-1.48-0.18-0.96-5.15c0.52-4.98,2.42-5.1,2.42-5.1s1.04-0.15,1.02,4.69
		C58.08,99.14,55.64,99.85,55.64,99.85z"/>
	<g>
		<polygon class="st48" points="86.63,114.35 82.33,114.35 83.92,107.64 87.96,107.64 87.96,108.57 84.65,108.57 83.5,113.43 
			86.63,113.43 		"/>
		<rect x="83.83" y="110.38" class="st48" width="2.88" height="0.92"/>
		<path class="st48" d="M94.95,114.38c-0.71,0-1.31-0.19-1.77-0.57c-0.8-0.64-0.9-1.59-0.91-1.63c-0.01-0.11-0.17-2.5,1.47-3.88
			c1.43-1.21,2.95-0.31,3.56,0.33l-0.67,0.64c-0.12-0.12-1.19-1.19-2.29-0.26c-1.27,1.07-1.15,3.08-1.15,3.1
			c0.02,0.14,0.23,1.55,2.15,1.34l0.07-0.01l0.07,0.02c0,0,0.17,0.02,0.32-0.12c0.16-0.15,0.4-0.56,0.36-1.64h-0.69v-0.92h1.54
			l0.04,0.42c0.13,1.39-0.09,2.35-0.65,2.84c-0.4,0.35-0.83,0.36-1.02,0.34C95.23,114.37,95.09,114.38,94.95,114.38z"/>
		<path class="st48" d="M104.47,114.29c-0.11,0-0.2-0.01-0.26-0.02c-0.6,0-1.09-0.24-1.42-0.69c-1.17-1.62,0.18-5.63,0.34-6.08
			l0.87,0.3c-0.53,1.53-1.13,4.31-0.46,5.24c0.1,0.14,0.29,0.3,0.7,0.31l0.07,0l0.06,0.02c0.09,0.02,0.95,0.17,1.41-1.4l0.99-4.41
			l0.9,0.2l-1,4.44C106.13,114.04,105.03,114.29,104.47,114.29z"/>
		<path class="st48" d="M112.18,114.66l-0.89-0.24l1.8-6.69l0.26-0.07c0.18-0.05,1.77-0.43,2.68,0.23c0.36,0.26,0.56,0.65,0.59,1.12
			c0.1,1.59-0.98,2.2-1.57,2.29l-0.05,0.01l-1.91-0.08L112.18,114.66z M113.35,110.31l1.59,0.07c0.2-0.05,0.83-0.29,0.76-1.31
			c-0.02-0.26-0.12-0.37-0.22-0.44c-0.39-0.28-1.18-0.22-1.65-0.13L113.35,110.31z"/>
		
			<rect x="114.18" y="110.31" transform="matrix(0.795 -0.6066 0.6066 0.795 -44.7751 92.6197)" class="st48" width="0.92" height="4.48"/>
		<path class="st48" d="M75.79,114.59c-0.69,0-1.24-0.17-1.29-0.18c0.02,0.02-0.74-0.14-0.98-1.32l0.9-0.18
			c0.11,0.53,0.31,0.61,0.32,0.61c0.11,0.03,1.97,0.59,2.71-0.67c0.2-0.34,0.25-0.63,0.17-0.86c-0.14-0.36-0.61-0.57-0.78-0.63
			c-0.05-0.01-1.07-0.2-1.46-0.98c-0.15-0.31-0.26-0.82,0.1-1.52c0.26-0.5,0.65-0.83,1.14-0.94c1-0.24,2.03,0.49,2.15,0.58
			l-0.54,0.74c-0.22-0.16-0.89-0.54-1.39-0.42c-0.22,0.05-0.39,0.21-0.53,0.47c-0.15,0.29-0.18,0.52-0.1,0.69
			c0.15,0.31,0.68,0.47,0.86,0.5c0.16,0.05,1.09,0.35,1.42,1.18c0.2,0.51,0.12,1.07-0.23,1.66
			C77.64,114.34,76.61,114.59,75.79,114.59z"/>
		<path class="st48" d="M132.5,114.59c-0.69,0-1.24-0.17-1.29-0.18c-0.01,0.02-0.74-0.14-0.98-1.32l0.9-0.18
			c0.11,0.53,0.31,0.61,0.32,0.61c0.11,0.03,1.97,0.59,2.71-0.67c0.2-0.34,0.26-0.63,0.17-0.86c-0.16-0.42-0.77-0.62-0.77-0.62
			c-0.06-0.01-1.08-0.2-1.47-0.98c-0.15-0.31-0.26-0.82,0.1-1.52c0.26-0.5,0.65-0.83,1.14-0.94c1-0.24,2.03,0.49,2.15,0.58
			l-0.54,0.74c-0.22-0.16-0.89-0.54-1.39-0.42c-0.22,0.05-0.39,0.21-0.53,0.47c-0.15,0.29-0.18,0.52-0.1,0.69
			c0.15,0.31,0.68,0.47,0.86,0.5c0.16,0.05,1.09,0.35,1.42,1.18c0.2,0.51,0.12,1.07-0.23,1.66
			C134.35,114.34,133.33,114.59,132.5,114.59z"/>
		<path class="st48" d="M123.48,114.33c-0.01,0-0.02,0-0.03,0c-0.66-0.01-1.21-0.28-1.6-0.79c-0.6-0.78-0.74-2.05-0.38-3.48
			c0.59-2.35,2.66-2.55,2.75-2.56l0.03,0l0.03,0c2.45,0.14,2.34,2.24,2.28,3.36C126.5,112.3,125.23,114.33,123.48,114.33z
			 M124.27,108.43c-0.22,0.03-1.51,0.28-1.91,1.86c-0.29,1.14-0.21,2.14,0.21,2.69c0.21,0.28,0.51,0.42,0.88,0.43
			c1.19,0.03,2.14-1.51,2.19-2.51C125.72,109.4,125.67,108.52,124.27,108.43z"/>
	</g>
</g>
</svg>
