<?xml version="1.0" encoding="utf-8"?>
<!-- Generator: Adobe Illustrator 25.4.1, SVG Export Plug-In . SVG Version: 6.00 Build 0)  -->
<svg version="1.1" xmlns="http://www.w3.org/2000/svg" xmlns:xlink="http://www.w3.org/1999/xlink" x="0px" y="0px"
	 viewBox="0 0 200 211.37" style="enable-background:new 0 0 200 211.37;" xml:space="preserve">
<style type="text/css">
	.st0{display:none;}
	.st1{display:inline;opacity:0.8;}
	.st2{fill-rule:evenodd;clip-rule:evenodd;}
	.st3{opacity:0.8;}
	.st4{display:inline;}
	.st5{opacity:0.8;fill-rule:evenodd;clip-rule:evenodd;}
	.st6{clip-path:url(#SVGID_00000036218251354007007920000000736816660045596319_);}
	.st7{clip-path:url(#SVGID_00000124880644374188244240000006497750254196810426_);}
	.st8{fill:#333333;}
	.st9{fill:#DBDBDB;}
	.st10{fill:#3F3F3F;}
	.st11{fill:#FFFFFA;}
	.st12{fill:#DEDEDE;}
	.st13{fill:#979797;}
	.st14{fill:#484848;}
	.st15{fill:#4D4D4D;}
	.st16{fill:#6F6F6F;}
	.st17{fill:none;stroke:#000000;stroke-width:2;stroke-miterlimit:3.8637;}
	.st18{display:inline;opacity:0.8;fill-rule:evenodd;clip-rule:evenodd;}
	.st19{fill-rule:evenodd;clip-rule:evenodd;fill:none;stroke:#000000;stroke-miterlimit:10;}
	.st20{fill:#1D1D1B;}
	.st21{fill:#FFE13A;}
	.st22{fill:#009EE2;}
	.st23{fill-rule:evenodd;clip-rule:evenodd;fill:#009EE2;}
	.st24{fill:#0D2B60;}
	.st25{fill:#D6430D;}
	.st26{fill:#F5A300;}
	.st27{fill:#AABC14;}
	.st28{fill:#CCA857;}
	.st29{fill:#791525;}
	.st30{fill:none;stroke:#791525;stroke-width:0.0496;}
	.st31{fill:#00A651;}
	.st32{fill:#005E9E;}
	.st33{fill:#FFCB05;}
	.st34{fill:#ED1C24;}
	.st35{fill-rule:evenodd;clip-rule:evenodd;fill:#ED1C24;}
	.st36{fill-rule:evenodd;clip-rule:evenodd;fill:#00A651;}
	.st37{opacity:0.8;fill:#FFE13A;}
	.st38{fill:#9E250E;}
	.st39{fill:#312C63;}
	.st40{fill-rule:evenodd;clip-rule:evenodd;fill:#312C63;}
	.st41{fill:none;stroke:#7F1313;stroke-width:2;stroke-miterlimit:3.8637;}
	.st42{fill-rule:evenodd;clip-rule:evenodd;fill:#083D79;}
	.st43{fill-rule:evenodd;clip-rule:evenodd;fill:#00168D;}
	.st44{fill:#00168D;}
	.st45{fill:#00376F;}
	.st46{fill:#04A359;}
	.st47{fill-rule:evenodd;clip-rule:evenodd;fill:#113A60;}
	.st48{fill:#113A60;}
	.st49{opacity:0.8;fill-rule:evenodd;clip-rule:evenodd;fill:#027CA9;}
	.st50{opacity:0.8;fill:#027CA9;}
	.st51{fill:#184287;}
	.st52{fill:#1A4486;}
	.st53{fill:#F8D800;}
	.st54{fill:#E50402;}
	.st55{fill:#F3FF1B;}
	.st56{fill:#0C790D;}
	.st57{fill:#FFFFFF;}
	.st58{fill:#FCDD09;}
	.st59{fill:#EB7711;}
	.st60{fill:#DA121A;}
	.st61{fill:#742C64;}
	.st62{fill:#0F47AF;}
	.st63{fill:#078930;}
	.st64{fill:none;}
</style>
<g id="Capa_1" class="st0">
	<g class="st1">
		<path class="st3" d="M72.45,78.97l-0.52-0.18c0.08-0.08,0.15-0.16,0.23-0.23L72.45,78.97z"/>
		<path d="M187.2,5.22H14.34c-4.71,0-8.53,3.82-8.53,8.53v107.22c0,0,21.23-10.37,51.89-16.15c0.46-0.09,0.92-0.18,1.39-0.26
			c0.23-0.04,0.46-0.08,0.7-0.12c0.23-0.05,0.46-0.09,0.7-0.13c0.02-0.29,0.04-0.58,0.07-0.86c0.39-4.32,1.45-8.44,3.08-12.25
			c0.23-0.54,0.47-1.06,0.72-1.58c1.92-4.02,4.49-7.68,7.57-10.83c0.08-0.08,0.15-0.16,0.23-0.23c7.35-7.42,17.53-12.02,28.77-12.02
			c16.35,0,30.46,9.71,36.89,23.67c0.14,0.31,0.28,0.63,0.42,0.95l3.02,0.1l48.91,1.68l0.04,0.41l-46.13,9.77
			c0.08,0.85,0.13,1.72,0.16,2.59c25.74,4.72,44.87,11.65,51.49,14.24V13.75C195.73,9.04,191.91,5.22,187.2,5.22z M57.84,102.87
			l-44.97-9.52l0.04-0.41l47.72-1.63C59.19,94.95,58.24,98.83,57.84,102.87z M62.03,88.11L21.45,61.8l0.18-0.36l47.45,16.37
			C66.26,80.87,63.88,84.33,62.03,88.11z M70.56,76.27L41.55,34.9l0.31-0.27l39.11,34.05C77.13,70.69,73.62,73.25,70.56,76.27z
			 M81.89,68.21l-14.34-49.9l0.37-0.16l26.59,46.12C90.05,64.93,85.8,66.28,81.89,68.21z M100.93,63.79c-2.05,0-4.06,0.14-6.04,0.42
			l6.45-52.81h0.4l6.47,53C105.84,64,103.41,63.79,100.93,63.79z M108.46,64.44l26.7-46.29l0.37,0.16l-14.49,50.44
			C117.16,66.7,112.93,65.23,108.46,64.44z M121.64,69.07l39.58-34.44l0.31,0.27l-29.51,42.08
			C128.99,73.85,125.49,71.18,121.64,69.07z M140.15,88.7c-1.83-3.87-4.22-7.44-7.06-10.58l48.36-16.68l0.18,0.36L140.15,88.7z"/>
		<path d="M60.49,104.31v0.01c-0.24,0.04-0.47,0.08-0.7,0.12C60.02,104.39,60.25,104.35,60.49,104.31z"/>
		<path d="M144.24,105.71c-0.92-0.17-1.85-0.34-2.78-0.5c-0.02-0.51-0.06-1.02-0.1-1.52c-0.37-4.42-1.45-8.63-3.12-12.53l3.02,0.1
			c1.47,3.73,2.44,7.71,2.82,11.86C144.16,103.97,144.21,104.84,144.24,105.71z"/>
		<path d="M144.24,105.71v0.01c-0.46-0.08-0.92-0.17-1.39-0.25c-0.46-0.08-0.92-0.16-1.39-0.25v-0.01
			C142.39,105.37,143.32,105.54,144.24,105.71z"/>
		<g>
			<path d="M42.04,134.4h-1.29c-0.03-1.34-0.12-2.15-0.27-2.43c-0.08-0.14-0.27-0.24-0.58-0.31c-0.79-0.14-2.05-0.21-3.76-0.21
				c-0.25,0-0.67,0.01-1.29,0.02v1.78c0,2.54,0.03,4.32,0.08,5.35c0.06,1.02,0.15,1.61,0.26,1.78c0.07,0.12,0.21,0.21,0.4,0.29
				c0.19,0.06,1.03,0.15,2.52,0.26v1.27l-6.3-0.11c-0.91,0-2.35,0.04-4.32,0.11v-1.33c1.23-0.02,1.94-0.07,2.14-0.14
				c0.1-0.03,0.18-0.09,0.24-0.18c0.1-0.13,0.17-0.41,0.22-0.84c0.03-0.25,0.07-1.02,0.13-2.31c0.05-1.31,0.08-2.24,0.08-2.81v-6.65
				c0-0.15-0.05-1.65-0.14-4.5c-0.02-0.82-0.08-1.41-0.18-1.75c-0.03-0.12-0.09-0.2-0.16-0.26c-0.06-0.06-0.21-0.12-0.45-0.18
				c-0.22-0.05-0.85-0.11-1.88-0.18v-1.35l5.7,0.1l7.73-0.13c1.08,0,2.1,0.05,3.07,0.16l0.14,0.22c-0.12,0.61-0.22,1.39-0.31,2.33
				c-0.09,0.94-0.13,1.77-0.14,2.47h-1.32c0-0.26-0.03-0.84-0.08-1.74c-0.02-0.47-0.05-0.75-0.1-0.85
				c-0.03-0.07-0.08-0.13-0.14-0.16c-0.19-0.13-0.64-0.25-1.35-0.37c-0.7-0.13-1.52-0.19-2.46-0.19c-0.18,0-0.69,0.02-1.53,0.05
				c-0.83,0.03-1.39,0.06-1.69,0.08c-0.12,1.07-0.18,3-0.18,5.8v2.25c1.37,0.04,2.3,0.06,2.78,0.06c1.39,0,2.27-0.06,2.64-0.19
				c0.14-0.04,0.24-0.17,0.31-0.37c0.1-0.27,0.16-0.88,0.18-1.83h1.4C42.08,129.24,42.04,131.57,42.04,134.4L42.04,134.4z"/>
			<path d="M47.76,120.98v-1.33l5.21,0.1l2.16-0.03l2.16-0.05l0.59-0.02v1.33c-1.15,0-1.89,0.1-2.2,0.3
				c-0.16,0.1-0.27,0.28-0.32,0.56c-0.15,0.66-0.22,2.12-0.22,4.37v3.72l0.02,1.87c0,1.95,0.02,3.16,0.06,3.62
				c0.1,1,0.35,1.82,0.75,2.44c0.41,0.61,1.02,1.11,1.86,1.49c0.84,0.37,1.91,0.56,3.2,0.56c1.48,0,2.66-0.25,3.54-0.75
				c0.89-0.51,1.52-1.17,1.89-1.99c0.37-0.81,0.56-2.35,0.56-4.63v-3.27c0-2.82-0.01-4.54-0.02-5.16c-0.03-1.35-0.11-2.16-0.22-2.44
				c-0.08-0.17-0.2-0.3-0.37-0.38c-0.35-0.18-1.12-0.29-2.31-0.32v-1.33c1.93,0.08,3.08,0.11,3.44,0.11c0.1,0,0.24-0.01,0.43-0.02
				l3.56-0.1v1.33c-0.99,0-1.62,0.08-1.87,0.24c-0.13,0.09-0.24,0.25-0.32,0.5c-0.07,0.24-0.15,1.31-0.22,3.24
				c-0.08,1.92-0.11,3.44-0.11,4.55v3.77c0,0.96-0.07,1.96-0.21,2.98c-0.14,1.03-0.42,1.9-0.85,2.63c-0.42,0.73-1.01,1.38-1.78,1.97
				c-0.77,0.59-1.68,1.03-2.74,1.33c-1.06,0.3-2.28,0.45-3.67,0.45c-1.62,0-3.14-0.22-4.55-0.66c-1.03-0.32-1.86-0.75-2.52-1.28
				c-0.65-0.54-1.15-1.15-1.49-1.81c-0.34-0.67-0.55-1.32-0.62-1.94c-0.05-0.38-0.08-1.42-0.08-3.11l0.02-3.08v-4.07
				c0-1.5-0.03-2.84-0.1-4.04c-0.03-0.47-0.1-0.81-0.19-1.03c-0.05-0.12-0.19-0.26-0.4-0.42L47.76,120.98L47.76,120.98z"/>
			<path d="M79.7,142.06v-1.31c1.28-0.04,2.04-0.13,2.28-0.26c0.25-0.13,0.41-0.34,0.5-0.64c0.12-0.46,0.18-1.84,0.18-4.15v-9.6
				c0-2.62-0.02-4.08-0.05-4.39h-2.29c-1.15,0-2.17,0.04-3.04,0.11c-0.35,0.03-0.56,0.08-0.61,0.13c-0.08,0.06-0.14,0.25-0.19,0.56
				c-0.14,0.75-0.22,1.59-0.24,2.52h-1.33c-0.04-2.19-0.07-3.42-0.08-3.7c-0.03-0.47-0.09-0.98-0.16-1.52l0.14-0.16
				c0.5,0.05,1.04,0.09,1.6,0.11c0.92,0.03,2.69,0.05,5.3,0.05h6.47c2.69,0,4.49-0.02,5.4-0.05c0.49-0.02,0.99-0.06,1.49-0.11
				l0.16,0.16c-0.1,0.65-0.16,1.22-0.18,1.71c-0.01,0.09-0.03,1.26-0.06,3.51h-1.33c-0.02-0.83-0.09-1.63-0.21-2.39
				c-0.06-0.38-0.13-0.61-0.21-0.69c-0.06-0.05-0.24-0.09-0.51-0.11c-0.88-0.09-1.93-0.13-3.16-0.13h-2.29
				c-0.03,0.37-0.05,1.84-0.05,4.39v9.6c0,2.31,0.06,3.7,0.18,4.17c0.07,0.28,0.23,0.49,0.48,0.62c0.25,0.13,1.01,0.21,2.29,0.26
				v1.31c-2.07-0.1-3.82-0.14-5.24-0.14C83.42,141.92,81.67,141.97,79.7,142.06L79.7,142.06z"/>
			<path d="M98.22,120.98v-1.33l5.21,0.1l2.16-0.03l2.16-0.05l0.59-0.02v1.33c-1.15,0-1.89,0.1-2.2,0.3
				c-0.16,0.1-0.27,0.28-0.32,0.56c-0.15,0.66-0.22,2.12-0.22,4.37v3.72l0.02,1.87c0,1.95,0.02,3.16,0.06,3.62
				c0.1,1,0.35,1.82,0.75,2.44c0.41,0.61,1.02,1.11,1.86,1.49c0.84,0.37,1.91,0.56,3.2,0.56c1.48,0,2.66-0.25,3.54-0.75
				c0.89-0.51,1.52-1.17,1.89-1.99c0.37-0.81,0.56-2.35,0.56-4.63v-3.27c0-2.82-0.01-4.54-0.02-5.16c-0.03-1.35-0.11-2.16-0.22-2.44
				c-0.08-0.17-0.2-0.3-0.37-0.38c-0.35-0.18-1.12-0.29-2.31-0.32v-1.33c1.93,0.08,3.08,0.11,3.44,0.11c0.1,0,0.24-0.01,0.43-0.02
				l3.56-0.1v1.33c-0.99,0-1.62,0.08-1.87,0.24c-0.13,0.09-0.24,0.25-0.32,0.5c-0.08,0.24-0.15,1.31-0.22,3.24
				c-0.08,1.92-0.11,3.44-0.11,4.55v3.77c0,0.96-0.07,1.96-0.21,2.98c-0.14,1.03-0.42,1.9-0.85,2.63c-0.42,0.73-1.01,1.38-1.78,1.97
				c-0.77,0.59-1.68,1.03-2.74,1.33c-1.06,0.3-2.28,0.45-3.67,0.45c-1.62,0-3.14-0.22-4.55-0.66c-1.03-0.32-1.86-0.75-2.52-1.28
				c-0.65-0.54-1.15-1.15-1.49-1.81c-0.34-0.67-0.55-1.32-0.63-1.94c-0.05-0.38-0.08-1.42-0.08-3.11l0.02-3.08v-4.07
				c0-1.5-0.03-2.84-0.1-4.04c-0.03-0.47-0.1-0.81-0.19-1.03c-0.05-0.12-0.19-0.26-0.4-0.42L98.22,120.98L98.22,120.98z"/>
			<path d="M125.69,120.98v-1.31c0.25,0,1.1,0.02,2.56,0.06c0.72,0.02,1.73,0.03,3.04,0.03c1.12,0,2.08-0.02,2.88-0.06
				c1.32-0.05,2.42-0.08,3.28-0.08c1.68,0,2.93,0.12,3.77,0.37c0.83,0.24,1.54,0.73,2.13,1.49c0.59,0.76,0.88,1.68,0.88,2.77
				c0,1.29-0.4,2.47-1.2,3.52c-0.8,1.06-2.03,1.9-3.7,2.52c0.27,0.48,0.57,0.97,0.91,1.47c0.34,0.5,0.54,0.81,0.59,0.91
				c0.06,0.11,0.13,0.21,0.19,0.3l2.48,3.73c0.66,0.99,1.02,1.53,1.07,1.6c0.8,1.07,1.29,1.7,1.47,1.89
				c0.18,0.19,0.36,0.33,0.53,0.4c0.17,0.08,0.51,0.12,1.01,0.13v1.33c-1.65-0.04-2.84-0.06-3.57-0.06c-0.85,0-1.7,0.02-2.55,0.06
				c-0.05-0.23-0.18-0.54-0.38-0.91l-3.43-5.66c-0.98-1.62-1.82-2.9-2.5-3.83c-0.34-0.47-0.67-0.82-0.99-1.06l0.18-0.53
				c1.28,0.04,2.25-0.09,2.9-0.38c0.65-0.31,1.2-0.85,1.65-1.63c0.45-0.79,0.67-1.67,0.67-2.64c0-0.98-0.24-1.8-0.7-2.45
				c-0.47-0.65-1.05-1.11-1.75-1.36c-0.45-0.16-1.25-0.24-2.4-0.24c-0.51,0-1.02,0.04-1.52,0.13c-0.03,0.38-0.06,1.25-0.1,2.6
				c-0.06,3.02-0.1,5.04-0.1,6.06c0,1.6,0.02,3.3,0.05,5.1c0.04,2.2,0.07,3.45,0.1,3.75c0.03,0.6,0.09,0.99,0.18,1.17
				c0.04,0.09,0.11,0.17,0.21,0.24c0.1,0.06,0.25,0.12,0.46,0.16c0.21,0.04,0.83,0.07,1.86,0.1v1.41c-1.83-0.06-3.67-0.1-5.54-0.1
				c-1.67,0-3.21,0.03-4.63,0.1v-1.41c1.22-0.04,1.94-0.1,2.16-0.18c0.13-0.03,0.22-0.09,0.27-0.16c0.06-0.07,0.11-0.22,0.14-0.45
				c0.07-0.42,0.13-1.05,0.16-1.89l0.13-4.68v-5.94l-0.06-3.38c-0.02-1.33-0.09-2.14-0.19-2.4c-0.05-0.12-0.13-0.21-0.24-0.27
				C127.81,121.17,127.02,121.06,125.69,120.98L125.69,120.98z"/>
			<path class="st2" d="M151.33,131.12c0-1.95,0.29-3.66,0.88-5.11c0.6-1.45,1.45-2.69,2.55-3.7c1.1-1.01,2.3-1.75,3.59-2.2
				c1.66-0.57,3.46-0.85,5.42-0.85c1.94,0,3.71,0.27,5.29,0.82c1.17,0.42,2.21,1.02,3.11,1.81c0.91,0.78,1.6,1.58,2.07,2.4
				c0.47,0.82,0.82,1.73,1.06,2.71c0.25,0.98,0.37,2.07,0.37,3.25c0,2.01-0.35,3.87-1.04,5.59c-0.51,1.28-1.27,2.42-2.26,3.41
				c-0.98,0.99-2.1,1.76-3.36,2.29c-1.73,0.72-3.71,1.07-5.93,1.07c-2.4,0-4.47-0.43-6.2-1.3c-1.72-0.88-3.07-2.16-4.05-3.86
				C151.82,135.77,151.33,133.65,151.33,131.12L151.33,131.12z M156.26,130.17c0,2.49,0.34,4.55,1.03,6.18
				c0.68,1.62,1.56,2.77,2.63,3.45c1.07,0.67,2.33,1.01,3.78,1.01c1.35,0,2.55-0.32,3.61-0.96c1.07-0.64,1.9-1.72,2.5-3.25
				c0.61-1.53,0.91-3.38,0.91-5.56c0-1.5-0.17-2.86-0.5-4.1c-0.32-1.24-0.78-2.29-1.39-3.16c-0.61-0.88-1.33-1.54-2.16-2
				c-0.82-0.46-1.92-0.69-3.28-0.69c-1.56,0-2.89,0.37-3.99,1.11c-1.09,0.73-1.89,1.81-2.39,3.24
				C156.51,126.86,156.26,128.44,156.26,130.17L156.26,130.17z"/>
		</g>
		<path class="st2" d="M9.67,168.98v-0.53c0.06-0.04,0.16-0.1,0.31-0.18c0.28-0.15,0.54-0.32,0.77-0.49
			c0.08-0.98,0.12-2.58,0.12-4.8v-1.81c0-0.97-0.02-2.39-0.06-4.27c-0.02-1.04-0.07-1.7-0.14-1.98c-0.02-0.07-0.05-0.12-0.09-0.15
			c-0.06-0.06-0.15-0.1-0.28-0.13c-0.13-0.03-0.59-0.1-1.39-0.2v-0.89l4,0.07c0.47,0,1.36-0.02,2.66-0.06
			c0.94-0.02,1.69-0.03,2.26-0.03c1.3,0,2.34,0.08,3.12,0.24c0.79,0.15,1.47,0.41,2.05,0.76c0.58,0.35,1.07,0.76,1.47,1.23
			c0.4,0.48,0.71,0.99,0.92,1.54c0.35,0.93,0.52,1.94,0.52,3.04c0,1.4-0.26,2.66-0.77,3.76c-0.51,1.1-1.22,2.03-2.13,2.77
			c-0.9,0.74-1.87,1.28-2.92,1.61c-1.05,0.32-2.32,0.49-3.8,0.49l-3.27-0.07L9.67,168.98L9.67,168.98z M14.08,167.63
			c0.68,0.1,1.34,0.15,1.96,0.15c0.98,0,1.84-0.1,2.6-0.31c0.56-0.15,1.05-0.38,1.47-0.67c0.42-0.29,0.82-0.73,1.2-1.3
			c0.39-0.57,0.69-1.26,0.9-2.05c0.21-0.79,0.32-1.65,0.32-2.57c0-0.84-0.11-1.65-0.32-2.43c-0.21-0.79-0.56-1.47-1.05-2.06
			c-0.49-0.59-1.1-1.01-1.84-1.28c-0.74-0.26-1.87-0.4-3.37-0.4c-0.57,0-1.19,0.05-1.87,0.14c-0.07,1.04-0.11,3.01-0.11,5.9v2.54
			C13.97,165.49,14,166.93,14.08,167.63L14.08,167.63z"/>
		<path d="M29.43,168.98v-0.6c0.44-0.21,0.8-0.42,1.08-0.64c0.04-0.31,0.08-0.81,0.11-1.5c0.06-1.26,0.09-2.18,0.09-2.76v-4.96
			c0-0.19-0.01-0.91-0.03-2.15c-0.02-0.83-0.07-1.34-0.15-1.52c-0.04-0.07-0.09-0.13-0.17-0.17c-0.2-0.09-0.73-0.15-1.59-0.2v-0.94
			l2.56,0.06c0.51,0.01,0.99,0.01,1.46,0.01c1.01,0,2.13-0.01,3.36-0.03l2.24-0.06c0.26,0,0.8,0.01,1.61,0.04
			c0.07,0,0.19,0.02,0.36,0.07l0.08,0.14l-0.21,1.59c-0.01,0.11-0.04,0.64-0.11,1.59h-0.86c-0.01-0.87-0.05-1.4-0.1-1.6
			c-0.03-0.1-0.07-0.18-0.13-0.22c-0.1-0.07-0.39-0.12-0.88-0.18c-0.73-0.08-1.44-0.12-2.14-0.12c-0.65,0-1.32,0.03-2.01,0.08
			c-0.1,0.83-0.15,1.89-0.15,3.16v2.26c0.5,0.04,1.02,0.06,1.57,0.06c0.17,0,0.78-0.01,1.83-0.04c0.4-0.01,0.63-0.03,0.69-0.08
			c0.07-0.04,0.13-0.12,0.17-0.23c0.09-0.28,0.14-0.75,0.15-1.4h0.89l-0.04,2.43l0.04,2.41H38.2c0.01-0.85-0.05-1.38-0.17-1.58
			c-0.09-0.15-0.25-0.24-0.47-0.28c-0.51-0.08-1.16-0.12-1.95-0.12c-0.71,0-1.3,0.02-1.76,0.07v4.68c0,0.52,0.01,0.97,0.03,1.35
			c0.6,0.04,1.3,0.07,2.12,0.07c0.79,0,1.52-0.03,2.19-0.08c0.68-0.05,1.09-0.12,1.25-0.22c0.05-0.03,0.1-0.1,0.14-0.2
			c0.13-0.35,0.27-1.02,0.42-2.01h0.9c-0.16,1.46-0.24,2.65-0.24,3.59l-0.14,0.14c-0.47,0.05-1.14,0.08-2.01,0.08l-1.78-0.03
			c-1.75-0.02-2.96-0.03-3.62-0.03C32.94,168.91,31.71,168.93,29.43,168.98L29.43,168.98z"/>
		<g>
			<path class="st2" d="M50.63,168.12v-0.72c0.54-0.32,0.99-0.63,1.35-0.95c0.06-0.5,0.1-1.11,0.12-1.84
				c0.04-1.49,0.06-4.21,0.06-8.15c0-1.05-0.03-2.69-0.08-4.92c-0.03-1.72-0.09-2.7-0.17-2.95c-0.05-0.15-0.13-0.26-0.23-0.32
				c-0.21-0.14-0.98-0.26-2.3-0.34v-1.27c0.23,0,0.46,0.01,0.71,0.02l2.12,0.06c0.7,0.01,1.56,0.02,2.59,0.02
				c1.02,0,1.83-0.01,2.41-0.03c1.47-0.06,2.43-0.09,2.88-0.09c1.69,0,2.99,0.17,3.9,0.52c0.92,0.35,1.59,0.85,2.01,1.52
				c0.43,0.65,0.64,1.39,0.64,2.21c0,0.88-0.25,1.7-0.74,2.45c-0.48,0.76-1.1,1.35-1.86,1.76c-0.45,0.26-1.45,0.6-3.01,1.03
				c1.86,0.23,3.15,0.52,3.88,0.89c0.74,0.37,1.32,0.95,1.76,1.73c0.44,0.78,0.66,1.65,0.66,2.61c0,1.01-0.23,1.93-0.68,2.76
				c-0.45,0.82-1.03,1.52-1.75,2.1c-0.71,0.58-1.52,1.05-2.44,1.4c-0.92,0.34-2.07,0.51-3.45,0.51l-5.15-0.09
				C53.05,168.03,51.97,168.06,50.63,168.12L50.63,168.12z M56.44,155.51l0.89,0.02c0.69,0,1.34-0.06,1.93-0.17
				c0.59-0.11,1.07-0.31,1.44-0.58c0.37-0.29,0.68-0.71,0.92-1.26c0.26-0.56,0.38-1.21,0.38-1.93c0-0.74-0.14-1.36-0.43-1.87
				c-0.29-0.52-0.66-0.89-1.12-1.1c-0.46-0.22-1.15-0.34-2.07-0.34c-0.66,0-1.27,0.04-1.81,0.12c-0.06,0.74-0.1,1.59-0.11,2.55
				l-0.03,2.38V155.51L56.44,155.51z M56.51,166.4c0.34,0.07,0.97,0.11,1.9,0.11c1.27,0,2.29-0.41,3.07-1.24
				c0.79-0.84,1.18-2.03,1.18-3.59c0-1.1-0.2-2-0.61-2.68c-0.41-0.69-0.95-1.17-1.63-1.44c-0.67-0.29-1.61-0.43-2.79-0.43
				c-0.42,0-0.81,0.02-1.18,0.06v7l0.03,1.83C56.47,166.05,56.48,166.19,56.51,166.4L56.51,166.4z"/>
			<path class="st2" d="M72.98,157.8c0-1.84,0.28-3.45,0.83-4.82c0.56-1.37,1.36-2.53,2.4-3.49c1.04-0.96,2.16-1.65,3.38-2.07
				c1.56-0.53,3.26-0.8,5.1-0.8c1.83,0,3.49,0.26,4.98,0.77c1.11,0.39,2.08,0.96,2.93,1.71c0.86,0.74,1.51,1.49,1.95,2.27
				c0.44,0.78,0.78,1.63,1,2.55c0.23,0.93,0.35,1.95,0.35,3.07c0,1.89-0.33,3.65-0.98,5.27c-0.48,1.21-1.19,2.28-2.13,3.22
				c-0.93,0.94-1.98,1.66-3.17,2.16c-1.63,0.67-3.49,1.01-5.59,1.01c-2.27,0-4.21-0.41-5.84-1.22c-1.62-0.83-2.9-2.04-3.82-3.64
				C73.44,162.18,72.98,160.19,72.98,157.8L72.98,157.8z M77.63,156.91c0,2.35,0.32,4.29,0.97,5.83c0.64,1.53,1.47,2.61,2.48,3.25
				c1.01,0.63,2.19,0.95,3.56,0.95c1.27,0,2.4-0.3,3.4-0.91c1.01-0.6,1.79-1.63,2.36-3.07c0.57-1.44,0.86-3.19,0.86-5.24
				c0-1.41-0.16-2.7-0.47-3.87c-0.3-1.17-0.74-2.16-1.31-2.98c-0.57-0.83-1.25-1.45-2.04-1.89c-0.78-0.43-1.81-0.65-3.1-0.65
				c-1.47,0-2.72,0.35-3.76,1.04c-1.03,0.69-1.78,1.7-2.25,3.05C77.86,153.79,77.63,155.28,77.63,156.91L77.63,156.91z"/>
			<path d="M100.61,168.12v-0.77c0.26-0.11,0.63-0.31,1.1-0.59c0.21-0.12,0.35-0.22,0.41-0.3c0.04-0.05,0.07-0.11,0.08-0.17
				c0.05-0.25,0.1-1.15,0.14-2.69c0.04-1.55,0.06-3.41,0.06-5.57c0-3.18-0.01-5.15-0.03-5.89c-0.04-1.89-0.11-2.97-0.2-3.25
				c-0.04-0.12-0.12-0.21-0.23-0.27c-0.23-0.15-1-0.25-2.31-0.3v-1.33c1.28,0.06,2.74,0.09,4.38,0.09c1.83,0,3.57-0.03,5.21-0.09
				v1.33c-1.14,0.05-1.83,0.14-2.08,0.27c-0.11,0.06-0.19,0.16-0.24,0.3c-0.05,0.13-0.1,0.75-0.15,1.86
				c-0.04,1.11-0.06,2.51-0.06,4.2c0,0.18,0,1.64,0.02,4.36c0.01,1.44,0.01,2.87,0.02,4.29c0.01,1.41,0.02,2.27,0.03,2.57
				c1.39,0.06,2.34,0.09,2.84,0.09c1.53,0,2.86-0.09,4-0.27c0.41-0.06,0.66-0.13,0.74-0.2c0.08-0.07,0.17-0.26,0.26-0.56
				c0.2-0.77,0.4-1.64,0.59-2.63h1.25c-0.03,0.28-0.05,0.45-0.05,0.5l-0.38,3.05c-0.08,0.96-0.13,1.53-0.14,1.72
				c-0.29,0.08-0.58,0.14-0.88,0.17c-0.61,0.05-1.57,0.08-2.85,0.08c-0.18,0-1.36-0.02-3.55-0.08c-1.66-0.04-2.82-0.06-3.47-0.06
				C104.13,167.98,102.63,168.03,100.61,168.12L100.61,168.12z"/>
			<path d="M129.93,146.99v1.33c-1.02,0.03-1.62,0.07-1.81,0.12c-0.19,0.04-0.33,0.1-0.41,0.17c-0.08,0.06-0.14,0.14-0.17,0.24
				c-0.07,0.17-0.12,0.5-0.15,0.98c-0.02,0.26-0.04,0.76-0.05,1.48c-0.04,2.48-0.06,3.81-0.06,4v6.09l0.05,2.76
				c0,1.04,0.05,1.71,0.15,2.02c0.04,0.14,0.11,0.25,0.2,0.33c0.1,0.07,0.25,0.13,0.45,0.18c0.21,0.04,0.81,0.07,1.8,0.09v1.33
				c-1.64-0.06-3.39-0.09-5.26-0.09c-1.62,0-3.07,0.03-4.33,0.09v-1.33c1.05-0.04,1.65-0.07,1.81-0.11c0.21-0.04,0.35-0.1,0.42-0.17
				c0.08-0.07,0.13-0.15,0.15-0.24c0.03-0.12,0.07-0.59,0.12-1.42c0.08-1.21,0.12-2.33,0.12-3.35v-6.31c0-2-0.01-3.29-0.03-3.87
				c-0.05-1.28-0.11-2.08-0.18-2.4c-0.03-0.13-0.08-0.23-0.15-0.3c-0.06-0.07-0.18-0.13-0.36-0.17c-0.17-0.05-0.81-0.1-1.9-0.14
				v-1.33c1.27,0.06,2.72,0.09,4.36,0.09C126.54,147.08,128.29,147.05,129.93,146.99L129.93,146.99z"/>
			<path d="M143.56,168.22c-0.86-2.11-1.68-4.12-2.46-6.03l-2.14-5.12c-1.68-4.02-2.72-6.41-3.11-7.17
				c-0.38-0.78-0.67-1.22-0.88-1.33c-0.3-0.16-0.93-0.25-1.87-0.27v-1.31c2.42,0.07,3.89,0.11,4.41,0.11l5.42-0.11v1.31
				c-0.85,0.01-1.46,0.06-1.84,0.15c-0.22,0.05-0.38,0.13-0.47,0.23c-0.08,0.09-0.12,0.21-0.12,0.36c0,0.3,0.33,1.26,1,2.87
				c0.38,0.93,0.58,1.43,0.6,1.51c0.03,0.07,0.07,0.16,0.11,0.27l3.82,9.32l3.35-8.31c0.08-0.19,0.44-1.14,1.07-2.85
				c0.45-1.21,0.73-2.02,0.83-2.43c0.02-0.12,0.03-0.24,0.03-0.36c0-0.17-0.03-0.3-0.09-0.38c-0.05-0.09-0.12-0.16-0.21-0.2
				c-0.07-0.03-0.25-0.06-0.54-0.08c-0.65-0.06-1.21-0.1-1.66-0.11v-1.31l3.84,0.09l3.26-0.09v1.31c-0.98,0.09-1.55,0.2-1.71,0.32
				c-0.27,0.21-0.84,1.35-1.71,3.43l-1.07,2.51l-2.04,4.86c-1.73,4.15-2.9,7.08-3.52,8.81H143.56L143.56,168.22z"/>
			<path d="M168.89,146.99v1.33c-1.02,0.03-1.62,0.07-1.81,0.12c-0.19,0.04-0.33,0.1-0.41,0.17c-0.08,0.06-0.14,0.14-0.17,0.24
				c-0.07,0.17-0.12,0.5-0.15,0.98c-0.02,0.26-0.04,0.76-0.05,1.48c-0.04,2.48-0.06,3.81-0.06,4v6.09l0.05,2.76
				c0,1.04,0.05,1.71,0.15,2.02c0.04,0.14,0.11,0.25,0.2,0.33c0.1,0.07,0.25,0.13,0.45,0.18c0.21,0.04,0.81,0.07,1.8,0.09v1.33
				c-1.64-0.06-3.39-0.09-5.26-0.09c-1.62,0-3.07,0.03-4.33,0.09v-1.33c1.05-0.04,1.65-0.07,1.81-0.11c0.21-0.04,0.35-0.1,0.42-0.17
				c0.08-0.07,0.13-0.15,0.15-0.24c0.03-0.12,0.07-0.59,0.12-1.42c0.08-1.21,0.12-2.33,0.12-3.35v-6.31c0-2-0.01-3.29-0.03-3.87
				c-0.05-1.28-0.11-2.08-0.18-2.4c-0.03-0.13-0.08-0.23-0.15-0.3c-0.06-0.07-0.18-0.13-0.36-0.17c-0.17-0.05-0.81-0.1-1.9-0.14
				v-1.33c1.27,0.06,2.72,0.09,4.36,0.09C165.51,147.08,167.25,147.05,168.89,146.99L168.89,146.99z"/>
			<path class="st2" d="M172.05,168.12v-1.25c0.82-0.06,1.3-0.11,1.45-0.15c0.16-0.05,0.3-0.12,0.41-0.21
				c0.11-0.1,0.22-0.25,0.33-0.45c0.12-0.21,0.47-0.98,1.04-2.31c0.26-0.62,0.77-1.86,1.51-3.7l3.94-9.73l1.33-3.43h2.14l6.75,15.77
				l0.94,2.07l0.6,1.39c0.1,0.18,0.2,0.31,0.29,0.39c0.09,0.08,0.19,0.14,0.3,0.18c0.12,0.04,0.42,0.08,0.89,0.11
				c0.15,0.02,0.37,0.05,0.66,0.08v1.25l-4.2-0.09l-5.3,0.09v-1.25c1.22-0.05,1.9-0.12,2.05-0.2c0.16-0.09,0.24-0.24,0.24-0.44
				c0-0.25-0.12-0.66-0.35-1.24l-1.3-3.32h-7.76l-0.66,1.81c-0.5,1.39-0.76,2.26-0.76,2.6c0,0.24,0.08,0.41,0.24,0.51
				c0.24,0.14,0.96,0.23,2.16,0.27v1.25l-3.49-0.09L172.05,168.12L172.05,168.12z M178.72,159.95c0.95,0.03,2.02,0.05,3.22,0.05
				c1.16,0,2.19-0.02,3.11-0.05l-3.23-7.79L178.72,159.95L178.72,159.95z"/>
		</g>
		<line class="st17" x1="8.79" y1="174.67" x2="195.74" y2="174.67"/>
		<path class="st2" d="M61.17,209.95v-1.73c1.12-0.08,1.79-0.15,2-0.21c0.22-0.07,0.41-0.17,0.56-0.29c0.15-0.14,0.3-0.35,0.46-0.62
			c0.17-0.29,0.64-1.35,1.44-3.18c0.36-0.86,1.05-2.56,2.08-5.1l5.43-13.4l1.83-4.72h2.95l9.3,21.72l1.29,2.85l0.83,1.91
			c0.14,0.25,0.27,0.43,0.39,0.54c0.12,0.11,0.26,0.19,0.42,0.25c0.17,0.06,0.58,0.1,1.23,0.15c0.21,0.03,0.51,0.06,0.92,0.1v1.73
			l-5.78-0.12l-7.3,0.12v-1.73c1.68-0.07,2.62-0.16,2.83-0.27c0.22-0.12,0.33-0.33,0.33-0.6c0-0.35-0.16-0.91-0.48-1.71l-1.79-4.58
			H69.41l-0.92,2.5c-0.69,1.91-1.04,3.11-1.04,3.58c0,0.33,0.11,0.57,0.33,0.71c0.33,0.19,1.32,0.32,2.98,0.37v1.73l-4.81-0.12
			L61.17,209.95L61.17,209.95z M70.36,198.69c1.3,0.04,2.78,0.06,4.43,0.06c1.6,0,3.02-0.02,4.29-0.06l-4.45-10.74L70.36,198.69
			L70.36,198.69z"/>
		<path d="M114.05,199.83h-1.66c-0.04-1.73-0.16-2.78-0.35-3.14c-0.1-0.18-0.35-0.31-0.75-0.4c-1.03-0.18-2.65-0.27-4.87-0.27
			c-0.32,0-0.87,0.01-1.66,0.02v2.31c0,3.29,0.03,5.6,0.1,6.93c0.08,1.32,0.19,2.09,0.33,2.31c0.1,0.15,0.27,0.28,0.52,0.37
			c0.25,0.08,1.34,0.19,3.27,0.33v1.64l-8.16-0.15c-1.18,0-3.04,0.05-5.6,0.15v-1.73c1.6-0.03,2.52-0.09,2.77-0.19
			c0.12-0.04,0.23-0.12,0.31-0.23c0.12-0.17,0.22-0.53,0.29-1.08c0.04-0.32,0.1-1.32,0.17-3c0.07-1.69,0.1-2.91,0.1-3.64v-8.61
			c0-0.19-0.06-2.14-0.19-5.83c-0.03-1.07-0.1-1.82-0.23-2.27c-0.04-0.15-0.11-0.26-0.21-0.33c-0.08-0.08-0.28-0.16-0.58-0.23
			c-0.29-0.07-1.1-0.14-2.43-0.23v-1.75l7.39,0.12l10.01-0.17c1.4,0,2.72,0.07,3.97,0.21l0.19,0.29c-0.15,0.79-0.28,1.8-0.4,3.02
			c-0.11,1.22-0.17,2.29-0.19,3.2h-1.71c0-0.33-0.03-1.08-0.1-2.25c-0.03-0.61-0.07-0.98-0.12-1.1c-0.04-0.1-0.1-0.17-0.19-0.21
			c-0.25-0.17-0.83-0.33-1.75-0.48c-0.9-0.17-1.96-0.25-3.18-0.25c-0.24,0-0.89,0.02-1.98,0.06c-1.07,0.04-1.8,0.08-2.18,0.1
			c-0.15,1.39-0.23,3.89-0.23,7.51v2.91c1.77,0.06,2.97,0.08,3.6,0.08c1.8,0,2.94-0.08,3.41-0.25c0.18-0.06,0.31-0.21,0.4-0.48
			c0.12-0.35,0.2-1.14,0.23-2.37h1.81C114.1,193.16,114.05,196.17,114.05,199.83L114.05,199.83z"/>
		<path d="M121.29,182.56v-1.73l6.16,0.15l9.3-0.19c1.82,0,3.25,0.19,4.31,0.56c1.05,0.37,1.95,1.05,2.7,2.04
			c0.76,0.98,1.14,2.26,1.14,3.83c0,1.57-0.37,3.02-1.1,4.37c-0.72,1.35-1.86,2.46-3.41,3.33c-1.54,0.86-3.19,1.29-4.95,1.29
			c-0.44,0-0.88-0.02-1.31-0.06c-0.42-0.06-0.83-0.13-1.25-0.23c-0.14-0.39-0.39-0.88-0.75-1.48l0.44-0.46
			c0.3,0.1,0.59,0.17,0.85,0.23c0.28,0.04,0.53,0.06,0.75,0.06c1.35,0,2.45-0.47,3.33-1.42c0.87-0.96,1.31-2.34,1.31-4.16
			c0-1.9-0.46-3.33-1.37-4.29c-0.92-0.96-2.19-1.44-3.83-1.44c-0.78,0-1.64,0.09-2.6,0.27c-0.07,0.86-0.11,2.12-0.12,3.79
			l-0.06,4.08V199c0,1.94,0.03,3.95,0.08,6.03c0.04,1.21,0.12,1.97,0.23,2.29c0.06,0.14,0.15,0.26,0.27,0.37
			c0.14,0.1,0.38,0.17,0.73,0.23l2.81,0.19v1.83c-3.55-0.08-6.22-0.12-8.01-0.12c-1.97,0-3.85,0.04-5.64,0.12v-1.83
			c1.54-0.03,2.51-0.15,2.91-0.35c0.12-0.07,0.22-0.17,0.29-0.31c0.1-0.19,0.17-0.7,0.23-1.52c0.15-2.22,0.23-4.69,0.23-7.41v-7.34
			l-0.08-3.91c-0.03-1.68-0.06-2.73-0.1-3.14c-0.03-0.42-0.09-0.71-0.19-0.89c-0.06-0.11-0.15-0.21-0.29-0.29
			c-0.12-0.08-0.36-0.16-0.71-0.23L121.29,182.56L121.29,182.56z"/>
	</g>
</g>
<g id="Capa_2">
	<path class="st21" d="M144.24,105.71c1.81,0.33,3.59,0.67,5.33,1.03c-52.29-10.18-94.67-2.44-119.53,5.02
		c7.8-2.45,17.18-4.96,27.66-6.94c0.46-0.09,0.92-0.18,1.39-0.26c0.23-0.04,0.46-0.08,0.7-0.12c0.23-0.05,0.46-0.09,0.7-0.13
		c0.02-0.29,0.04-0.58,0.07-0.86c0.39-4.32,1.45-8.44,3.08-12.25c0.23-0.54,0.47-1.06,0.72-1.58c1.92-4.02,4.49-7.68,7.57-10.83
		c0.08-0.08,0.15-0.16,0.23-0.23c7.35-7.42,17.53-12.02,28.77-12.02c16.35,0,30.46,9.71,36.89,23.67c0.14,0.31,0.28,0.63,0.42,0.95
		l3.02,0.1l48.91,1.68l0.04,0.41l-46.13,9.77C144.16,103.97,144.21,104.84,144.24,105.71z"/>
	<path class="st37" d="M72.45,78.97l-0.52-0.18c0.08-0.08,0.15-0.16,0.23-0.23L72.45,78.97z"/>
	<path class="st38" d="M187.2,5.22H14.34c-4.71,0-8.53,3.82-8.53,8.53v107.22c0,0,0.08-0.04,0.25-0.12c0.1-0.05,0.22-0.1,0.37-0.18
		c2.29-1.06,10.8-4.88,23.48-8.87c0.04-0.01,0.08-0.03,0.13-0.04c7.8-2.45,17.18-4.96,27.66-6.94c0.46-0.09,0.92-0.18,1.39-0.26
		c0.23-0.04,0.46-0.08,0.7-0.12c0.23-0.05,0.46-0.09,0.7-0.13c0.02-0.29,0.04-0.58,0.07-0.86c0.39-4.32,1.45-8.44,3.08-12.25
		c0.23-0.54,0.47-1.06,0.72-1.58c1.92-4.02,4.49-7.68,7.57-10.83c0.08-0.08,0.15-0.16,0.23-0.23c7.35-7.42,17.53-12.02,28.77-12.02
		c16.35,0,30.46,9.71,36.89,23.67c0.14,0.31,0.28,0.63,0.42,0.95l3.02,0.1l48.91,1.68l0.04,0.41l-46.13,9.77
		c0.08,0.85,0.13,1.72,0.16,2.59c1.81,0.33,3.59,0.67,5.33,1.03c12.05,2.43,22.42,5.27,30.48,7.78c0.71,0.22,1.42,0.44,2.13,0.67
		c0.35,0.11,0.7,0.21,1.04,0.33c0.63,0.2,1.24,0.4,1.83,0.6c4.82,1.61,8.46,2.96,10.68,3.83V13.75
		C195.73,9.04,191.91,5.22,187.2,5.22z M57.84,102.87l-44.97-9.52l0.04-0.41l47.72-1.63C59.19,94.95,58.24,98.83,57.84,102.87z
		 M62.03,88.11L21.45,61.8l0.18-0.36l47.45,16.37C66.26,80.87,63.88,84.33,62.03,88.11z M70.56,76.27L41.55,34.9l0.31-0.27
		l39.11,34.05C77.13,70.69,73.62,73.25,70.56,76.27z M81.89,68.21l-14.34-49.9l0.37-0.16l26.59,46.12
		C90.05,64.93,85.8,66.28,81.89,68.21z M100.93,63.79c-2.05,0-4.06,0.14-6.04,0.42l6.29-51.48l0.16-1.33h0.4l0.16,1.3l6.31,51.7
		C105.84,64,103.41,63.79,100.93,63.79z M108.46,64.44l26.7-46.29l0.37,0.16l-14.49,50.44C117.16,66.7,112.93,65.23,108.46,64.44z
		 M121.64,69.07l39.58-34.44l0.31,0.27l-29.51,42.08C128.99,73.85,125.49,71.18,121.64,69.07z M140.15,88.7
		c-1.83-3.87-4.22-7.44-7.06-10.58l48.36-16.68l0.18,0.36L140.15,88.7z"/>
	<path class="st21" d="M80.97,68.68c-3.84,2.01-7.35,4.57-10.41,7.59L41.55,34.9l0.31-0.27L80.97,68.68z"/>
	<path class="st21" d="M181.63,61.8l-41.48,26.9c-1.83-3.87-4.22-7.44-7.06-10.58l48.36-16.68L181.63,61.8z"/>
	<path class="st21" d="M161.53,34.9l-29.51,42.08c-3.03-3.13-6.53-5.8-10.38-7.91l39.58-34.44L161.53,34.9z"/>
	<path class="st21" d="M135.53,18.31l-14.49,50.44c-3.88-2.05-8.11-3.52-12.58-4.31l26.7-46.29L135.53,18.31z"/>
	<path class="st21" d="M108.21,64.4c-2.37-0.4-4.8-0.61-7.28-0.61c-2.05,0-4.06,0.14-6.04,0.42l6.45-52.81h0.4L108.21,64.4z"/>
	<path class="st21" d="M94.51,64.27c-4.46,0.66-8.71,2.01-12.62,3.94l-14.34-49.9l0.37-0.16L94.51,64.27z"/>
	<path class="st21" d="M69.08,77.81c-2.82,3.06-5.2,6.52-7.05,10.3L21.45,61.8l0.18-0.36L69.08,77.81z"/>
	<path class="st21" d="M60.63,91.31c-1.44,3.64-2.39,7.52-2.79,11.56l-44.97-9.52l0.04-0.41L60.63,91.31z"/>
	<path class="st21" d="M60.49,104.31v0.01c-0.24,0.04-0.47,0.08-0.7,0.12C60.02,104.39,60.25,104.35,60.49,104.31z"/>
	<path class="st38" d="M144.24,105.71c-0.92-0.17-1.85-0.34-2.78-0.5c-0.02-0.51-0.06-1.02-0.1-1.52
		c-0.37-4.42-1.45-8.63-3.12-12.53l3.02,0.1c1.47,3.73,2.44,7.71,2.82,11.86C144.16,103.97,144.21,104.84,144.24,105.71z"/>
	<path class="st21" d="M144.24,105.71v0.01c-0.46-0.08-0.92-0.17-1.39-0.25c-0.46-0.08-0.92-0.16-1.39-0.25v-0.01
		C142.39,105.37,143.32,105.54,144.24,105.71z"/>
	<g>
		<path class="st39" d="M42.04,134.4h-1.29c-0.03-1.34-0.12-2.15-0.27-2.43c-0.08-0.14-0.27-0.24-0.58-0.31
			c-0.79-0.14-2.05-0.21-3.76-0.21c-0.25,0-0.67,0.01-1.29,0.02v1.78c0,2.54,0.03,4.32,0.08,5.35c0.06,1.02,0.15,1.61,0.26,1.78
			c0.07,0.12,0.21,0.21,0.4,0.29c0.19,0.06,1.03,0.15,2.52,0.26v1.27l-6.3-0.11c-0.91,0-2.35,0.04-4.32,0.11v-1.33
			c1.23-0.02,1.94-0.07,2.14-0.14c0.1-0.03,0.18-0.09,0.24-0.18c0.1-0.13,0.17-0.41,0.22-0.84c0.03-0.25,0.07-1.02,0.13-2.31
			c0.05-1.31,0.08-2.24,0.08-2.81v-6.65c0-0.15-0.05-1.65-0.14-4.5c-0.02-0.82-0.08-1.41-0.18-1.75c-0.03-0.12-0.09-0.2-0.16-0.26
			c-0.06-0.06-0.21-0.12-0.45-0.18c-0.22-0.05-0.85-0.11-1.88-0.18v-1.35l5.7,0.1l7.73-0.13c1.08,0,2.1,0.05,3.07,0.16l0.14,0.22
			c-0.12,0.61-0.22,1.39-0.31,2.33c-0.09,0.94-0.13,1.77-0.14,2.47h-1.32c0-0.26-0.03-0.84-0.08-1.74c-0.02-0.47-0.05-0.75-0.1-0.85
			c-0.03-0.07-0.08-0.13-0.14-0.16c-0.19-0.13-0.64-0.25-1.35-0.37c-0.7-0.13-1.52-0.19-2.46-0.19c-0.18,0-0.69,0.02-1.53,0.05
			c-0.83,0.03-1.39,0.06-1.69,0.08c-0.12,1.07-0.18,3-0.18,5.8v2.25c1.37,0.04,2.3,0.06,2.78,0.06c1.39,0,2.27-0.06,2.64-0.19
			c0.14-0.04,0.24-0.17,0.31-0.37c0.1-0.27,0.16-0.88,0.18-1.83h1.4C42.08,129.24,42.04,131.57,42.04,134.4L42.04,134.4z"/>
		<path class="st39" d="M47.76,120.98v-1.33l5.21,0.1l2.16-0.03l2.16-0.05l0.59-0.02v1.33c-1.15,0-1.89,0.1-2.2,0.3
			c-0.16,0.1-0.27,0.28-0.32,0.56c-0.15,0.66-0.22,2.12-0.22,4.37v3.72l0.02,1.87c0,1.95,0.02,3.16,0.06,3.62
			c0.1,1,0.35,1.82,0.75,2.44c0.41,0.61,1.02,1.11,1.86,1.49c0.84,0.37,1.91,0.56,3.2,0.56c1.48,0,2.66-0.25,3.54-0.75
			c0.89-0.51,1.52-1.17,1.89-1.99c0.37-0.81,0.56-2.35,0.56-4.63v-3.27c0-2.82-0.01-4.54-0.02-5.16c-0.03-1.35-0.11-2.16-0.22-2.44
			c-0.08-0.17-0.2-0.3-0.37-0.38c-0.35-0.18-1.12-0.29-2.31-0.32v-1.33c1.93,0.08,3.08,0.11,3.44,0.11c0.1,0,0.24-0.01,0.43-0.02
			l3.56-0.1v1.33c-0.99,0-1.62,0.08-1.87,0.24c-0.13,0.09-0.24,0.25-0.32,0.5c-0.07,0.24-0.15,1.31-0.22,3.24
			c-0.08,1.92-0.11,3.44-0.11,4.55v3.77c0,0.96-0.07,1.96-0.21,2.98c-0.14,1.03-0.42,1.9-0.85,2.63c-0.42,0.73-1.01,1.38-1.78,1.97
			c-0.77,0.59-1.68,1.03-2.74,1.33c-1.06,0.3-2.28,0.45-3.67,0.45c-1.62,0-3.14-0.22-4.55-0.66c-1.03-0.32-1.86-0.75-2.52-1.28
			c-0.65-0.54-1.15-1.15-1.49-1.81c-0.34-0.67-0.55-1.32-0.62-1.94c-0.05-0.38-0.08-1.42-0.08-3.11l0.02-3.08v-4.07
			c0-1.5-0.03-2.84-0.1-4.04c-0.03-0.47-0.1-0.81-0.19-1.03c-0.05-0.12-0.19-0.26-0.4-0.42L47.76,120.98L47.76,120.98z"/>
		<path class="st39" d="M79.7,142.06v-1.31c1.28-0.04,2.04-0.13,2.28-0.26c0.25-0.13,0.41-0.34,0.5-0.64
			c0.12-0.46,0.18-1.84,0.18-4.15v-9.6c0-2.62-0.02-4.08-0.05-4.39h-2.29c-1.15,0-2.17,0.04-3.04,0.11
			c-0.35,0.03-0.56,0.08-0.61,0.13c-0.08,0.06-0.14,0.25-0.19,0.56c-0.14,0.75-0.22,1.59-0.24,2.52h-1.33
			c-0.04-2.19-0.07-3.42-0.08-3.7c-0.03-0.47-0.09-0.98-0.16-1.52l0.14-0.16c0.5,0.05,1.04,0.09,1.6,0.11
			c0.92,0.03,2.69,0.05,5.3,0.05h6.47c2.69,0,4.49-0.02,5.4-0.05c0.49-0.02,0.99-0.06,1.49-0.11l0.16,0.16
			c-0.1,0.65-0.16,1.22-0.18,1.71c-0.01,0.09-0.03,1.26-0.06,3.51h-1.33c-0.02-0.83-0.09-1.63-0.21-2.39
			c-0.06-0.38-0.13-0.61-0.21-0.69c-0.06-0.05-0.24-0.09-0.51-0.11c-0.88-0.09-1.93-0.13-3.16-0.13h-2.29
			c-0.03,0.37-0.05,1.84-0.05,4.39v9.6c0,2.31,0.06,3.7,0.18,4.17c0.07,0.28,0.23,0.49,0.48,0.62c0.25,0.13,1.01,0.21,2.29,0.26
			v1.31c-2.07-0.1-3.82-0.14-5.24-0.14C83.42,141.92,81.67,141.97,79.7,142.06L79.7,142.06z"/>
		<path class="st39" d="M98.22,120.98v-1.33l5.21,0.1l2.16-0.03l2.16-0.05l0.59-0.02v1.33c-1.15,0-1.89,0.1-2.2,0.3
			c-0.16,0.1-0.27,0.28-0.32,0.56c-0.15,0.66-0.22,2.12-0.22,4.37v3.72l0.02,1.87c0,1.95,0.02,3.16,0.06,3.62
			c0.1,1,0.35,1.82,0.75,2.44c0.41,0.61,1.02,1.11,1.86,1.49c0.84,0.37,1.91,0.56,3.2,0.56c1.48,0,2.66-0.25,3.54-0.75
			c0.89-0.51,1.52-1.17,1.89-1.99c0.37-0.81,0.56-2.35,0.56-4.63v-3.27c0-2.82-0.01-4.54-0.02-5.16c-0.03-1.35-0.11-2.16-0.22-2.44
			c-0.08-0.17-0.2-0.3-0.37-0.38c-0.35-0.18-1.12-0.29-2.31-0.32v-1.33c1.93,0.08,3.08,0.11,3.44,0.11c0.1,0,0.24-0.01,0.43-0.02
			l3.56-0.1v1.33c-0.99,0-1.62,0.08-1.87,0.24c-0.13,0.09-0.24,0.25-0.32,0.5c-0.08,0.24-0.15,1.31-0.22,3.24
			c-0.08,1.92-0.11,3.44-0.11,4.55v3.77c0,0.96-0.07,1.96-0.21,2.98c-0.14,1.03-0.42,1.9-0.85,2.63c-0.42,0.73-1.01,1.38-1.78,1.97
			c-0.77,0.59-1.68,1.03-2.74,1.33c-1.06,0.3-2.28,0.45-3.67,0.45c-1.62,0-3.14-0.22-4.55-0.66c-1.03-0.32-1.86-0.75-2.52-1.28
			c-0.65-0.54-1.15-1.15-1.49-1.81c-0.34-0.67-0.55-1.32-0.63-1.94c-0.05-0.38-0.08-1.42-0.08-3.11l0.02-3.08v-4.07
			c0-1.5-0.03-2.84-0.1-4.04c-0.03-0.47-0.1-0.81-0.19-1.03c-0.05-0.12-0.19-0.26-0.4-0.42L98.22,120.98L98.22,120.98z"/>
		<path class="st39" d="M125.69,120.98v-1.31c0.25,0,1.1,0.02,2.56,0.06c0.72,0.02,1.73,0.03,3.04,0.03c1.12,0,2.08-0.02,2.88-0.06
			c1.32-0.05,2.42-0.08,3.28-0.08c1.68,0,2.93,0.12,3.77,0.37c0.83,0.24,1.54,0.73,2.13,1.49c0.59,0.76,0.88,1.68,0.88,2.77
			c0,1.29-0.4,2.47-1.2,3.52c-0.8,1.06-2.03,1.9-3.7,2.52c0.27,0.48,0.57,0.97,0.91,1.47c0.34,0.5,0.54,0.81,0.59,0.91
			c0.06,0.11,0.13,0.21,0.19,0.3l2.48,3.73c0.66,0.99,1.02,1.53,1.07,1.6c0.8,1.07,1.29,1.7,1.47,1.89c0.18,0.19,0.36,0.33,0.53,0.4
			c0.17,0.08,0.51,0.12,1.01,0.13v1.33c-1.65-0.04-2.84-0.06-3.57-0.06c-0.85,0-1.7,0.02-2.55,0.06c-0.05-0.23-0.18-0.54-0.38-0.91
			l-3.43-5.66c-0.98-1.62-1.82-2.9-2.5-3.83c-0.34-0.47-0.67-0.82-0.99-1.06l0.18-0.53c1.28,0.04,2.25-0.09,2.9-0.38
			c0.65-0.31,1.2-0.85,1.65-1.63c0.45-0.79,0.67-1.67,0.67-2.64c0-0.98-0.24-1.8-0.7-2.45c-0.47-0.65-1.05-1.11-1.75-1.36
			c-0.45-0.16-1.25-0.24-2.4-0.24c-0.51,0-1.02,0.04-1.52,0.13c-0.03,0.38-0.06,1.25-0.1,2.6c-0.06,3.02-0.1,5.04-0.1,6.06
			c0,1.6,0.02,3.3,0.05,5.1c0.04,2.2,0.07,3.45,0.1,3.75c0.03,0.6,0.09,0.99,0.18,1.17c0.04,0.09,0.11,0.17,0.21,0.24
			c0.1,0.06,0.25,0.12,0.46,0.16c0.21,0.04,0.83,0.07,1.86,0.1v1.41c-1.83-0.06-3.67-0.1-5.54-0.1c-1.67,0-3.21,0.03-4.63,0.1v-1.41
			c1.22-0.04,1.94-0.1,2.16-0.18c0.13-0.03,0.22-0.09,0.27-0.16c0.06-0.07,0.11-0.22,0.14-0.45c0.07-0.42,0.13-1.05,0.16-1.89
			l0.13-4.68v-5.94l-0.06-3.38c-0.02-1.33-0.09-2.14-0.19-2.4c-0.05-0.12-0.13-0.21-0.24-0.27
			C127.81,121.17,127.02,121.06,125.69,120.98L125.69,120.98z"/>
		<path class="st40" d="M151.33,131.12c0-1.95,0.29-3.66,0.88-5.11c0.6-1.45,1.45-2.69,2.55-3.7c1.1-1.01,2.3-1.75,3.59-2.2
			c1.66-0.57,3.46-0.85,5.42-0.85c1.94,0,3.71,0.27,5.29,0.82c1.17,0.42,2.21,1.02,3.11,1.81c0.91,0.78,1.6,1.58,2.07,2.4
			c0.47,0.82,0.82,1.73,1.06,2.71c0.25,0.98,0.37,2.07,0.37,3.25c0,2.01-0.35,3.87-1.04,5.59c-0.51,1.28-1.27,2.42-2.26,3.41
			c-0.98,0.99-2.1,1.76-3.36,2.29c-1.73,0.72-3.71,1.07-5.93,1.07c-2.4,0-4.47-0.43-6.2-1.3c-1.72-0.88-3.07-2.16-4.05-3.86
			C151.82,135.77,151.33,133.65,151.33,131.12L151.33,131.12z M156.26,130.17c0,2.49,0.34,4.55,1.03,6.18
			c0.68,1.62,1.56,2.77,2.63,3.45c1.07,0.67,2.33,1.01,3.78,1.01c1.35,0,2.55-0.32,3.61-0.96c1.07-0.64,1.9-1.72,2.5-3.25
			c0.61-1.53,0.91-3.38,0.91-5.56c0-1.5-0.17-2.86-0.5-4.1c-0.32-1.24-0.78-2.29-1.39-3.16c-0.61-0.88-1.33-1.54-2.16-2
			c-0.82-0.46-1.92-0.69-3.28-0.69c-1.56,0-2.89,0.37-3.99,1.11c-1.09,0.73-1.89,1.81-2.39,3.24
			C156.51,126.86,156.26,128.44,156.26,130.17L156.26,130.17z"/>
	</g>
	<path class="st40" d="M9.67,168.98v-0.53c0.06-0.04,0.16-0.1,0.31-0.18c0.28-0.15,0.54-0.32,0.77-0.49
		c0.08-0.98,0.12-2.58,0.12-4.8v-1.81c0-0.97-0.02-2.39-0.06-4.27c-0.02-1.04-0.07-1.7-0.14-1.98c-0.02-0.07-0.05-0.12-0.09-0.15
		c-0.06-0.06-0.15-0.1-0.28-0.13c-0.13-0.03-0.59-0.1-1.39-0.2v-0.89l4,0.07c0.47,0,1.36-0.02,2.66-0.06
		c0.94-0.02,1.69-0.03,2.26-0.03c1.3,0,2.34,0.08,3.12,0.24c0.79,0.15,1.47,0.41,2.05,0.76c0.58,0.35,1.07,0.76,1.47,1.23
		c0.4,0.48,0.71,0.99,0.92,1.54c0.35,0.93,0.52,1.94,0.52,3.04c0,1.4-0.26,2.66-0.77,3.76c-0.51,1.1-1.22,2.03-2.13,2.77
		c-0.9,0.74-1.87,1.28-2.92,1.61c-1.05,0.32-2.32,0.49-3.8,0.49l-3.27-0.07L9.67,168.98L9.67,168.98z M14.08,167.63
		c0.68,0.1,1.34,0.15,1.96,0.15c0.98,0,1.84-0.1,2.6-0.31c0.56-0.15,1.05-0.38,1.47-0.67c0.42-0.29,0.82-0.73,1.2-1.3
		c0.39-0.57,0.69-1.26,0.9-2.05c0.21-0.79,0.32-1.65,0.32-2.57c0-0.84-0.11-1.65-0.32-2.43c-0.21-0.79-0.56-1.47-1.05-2.06
		c-0.49-0.59-1.1-1.01-1.84-1.28c-0.74-0.26-1.87-0.4-3.37-0.4c-0.57,0-1.19,0.05-1.87,0.14c-0.07,1.04-0.11,3.01-0.11,5.9v2.54
		C13.97,165.49,14,166.93,14.08,167.63L14.08,167.63z"/>
	<path class="st39" d="M29.43,168.98v-0.6c0.44-0.21,0.8-0.42,1.08-0.64c0.04-0.31,0.08-0.81,0.11-1.5
		c0.06-1.26,0.09-2.18,0.09-2.76v-4.96c0-0.19-0.01-0.91-0.03-2.15c-0.02-0.83-0.07-1.34-0.15-1.52c-0.04-0.07-0.09-0.13-0.17-0.17
		c-0.2-0.09-0.73-0.15-1.59-0.2v-0.94l2.56,0.06c0.51,0.01,0.99,0.01,1.46,0.01c1.01,0,2.13-0.01,3.36-0.03l2.24-0.06
		c0.26,0,0.8,0.01,1.61,0.04c0.07,0,0.19,0.02,0.36,0.07l0.08,0.14l-0.21,1.59c-0.01,0.11-0.04,0.64-0.11,1.59h-0.86
		c-0.01-0.87-0.05-1.4-0.1-1.6c-0.03-0.1-0.07-0.18-0.13-0.22c-0.1-0.07-0.39-0.12-0.88-0.18c-0.73-0.08-1.44-0.12-2.14-0.12
		c-0.65,0-1.32,0.03-2.01,0.08c-0.1,0.83-0.15,1.89-0.15,3.16v2.26c0.5,0.04,1.02,0.06,1.57,0.06c0.17,0,0.78-0.01,1.83-0.04
		c0.4-0.01,0.63-0.03,0.69-0.08c0.07-0.04,0.13-0.12,0.17-0.23c0.09-0.28,0.14-0.75,0.15-1.4h0.89l-0.04,2.43l0.04,2.41H38.2
		c0.01-0.85-0.05-1.38-0.17-1.58c-0.09-0.15-0.25-0.24-0.47-0.28c-0.51-0.08-1.16-0.12-1.95-0.12c-0.71,0-1.3,0.02-1.76,0.07v4.68
		c0,0.52,0.01,0.97,0.03,1.35c0.6,0.04,1.3,0.07,2.12,0.07c0.79,0,1.52-0.03,2.19-0.08c0.68-0.05,1.09-0.12,1.25-0.22
		c0.05-0.03,0.1-0.1,0.14-0.2c0.13-0.35,0.27-1.02,0.42-2.01h0.9c-0.16,1.46-0.24,2.65-0.24,3.59l-0.14,0.14
		c-0.47,0.05-1.14,0.08-2.01,0.08l-1.78-0.03c-1.75-0.02-2.96-0.03-3.62-0.03C32.94,168.91,31.71,168.93,29.43,168.98L29.43,168.98z
		"/>
	<g>
		<path class="st40" d="M50.63,168.12v-0.72c0.54-0.32,0.99-0.63,1.35-0.95c0.06-0.5,0.1-1.11,0.12-1.84
			c0.04-1.49,0.06-4.21,0.06-8.15c0-1.05-0.03-2.69-0.08-4.92c-0.03-1.72-0.09-2.7-0.17-2.95c-0.05-0.15-0.13-0.26-0.23-0.32
			c-0.21-0.14-0.98-0.26-2.3-0.34v-1.27c0.23,0,0.46,0.01,0.71,0.02l2.12,0.06c0.7,0.01,1.56,0.02,2.59,0.02
			c1.02,0,1.83-0.01,2.41-0.03c1.47-0.06,2.43-0.09,2.88-0.09c1.69,0,2.99,0.17,3.9,0.52c0.92,0.35,1.59,0.85,2.01,1.52
			c0.43,0.65,0.64,1.39,0.64,2.21c0,0.88-0.25,1.7-0.74,2.45c-0.48,0.76-1.1,1.35-1.86,1.76c-0.45,0.26-1.45,0.6-3.01,1.03
			c1.86,0.23,3.15,0.52,3.88,0.89c0.74,0.37,1.32,0.95,1.76,1.73c0.44,0.78,0.66,1.65,0.66,2.61c0,1.01-0.23,1.93-0.68,2.76
			c-0.45,0.82-1.03,1.52-1.75,2.1c-0.71,0.58-1.52,1.05-2.44,1.4c-0.92,0.34-2.07,0.51-3.45,0.51l-5.15-0.09
			C53.05,168.03,51.97,168.06,50.63,168.12L50.63,168.12z M56.44,155.51l0.89,0.02c0.69,0,1.34-0.06,1.93-0.17
			c0.59-0.11,1.07-0.31,1.44-0.58c0.37-0.29,0.68-0.71,0.92-1.26c0.26-0.56,0.38-1.21,0.38-1.93c0-0.74-0.14-1.36-0.43-1.87
			c-0.29-0.52-0.66-0.89-1.12-1.1c-0.46-0.22-1.15-0.34-2.07-0.34c-0.66,0-1.27,0.04-1.81,0.12c-0.06,0.74-0.1,1.59-0.11,2.55
			l-0.03,2.38V155.51L56.44,155.51z M56.51,166.4c0.34,0.07,0.97,0.11,1.9,0.11c1.27,0,2.29-0.41,3.07-1.24
			c0.79-0.84,1.18-2.03,1.18-3.59c0-1.1-0.2-2-0.61-2.68c-0.41-0.69-0.95-1.17-1.63-1.44c-0.67-0.29-1.61-0.43-2.79-0.43
			c-0.42,0-0.81,0.02-1.18,0.06v7l0.03,1.83C56.47,166.05,56.48,166.19,56.51,166.4L56.51,166.4z"/>
		<path class="st40" d="M72.98,157.8c0-1.84,0.28-3.45,0.83-4.82c0.56-1.37,1.36-2.53,2.4-3.49c1.04-0.96,2.16-1.65,3.38-2.07
			c1.56-0.53,3.26-0.8,5.1-0.8c1.83,0,3.49,0.26,4.98,0.77c1.11,0.39,2.08,0.96,2.93,1.71c0.86,0.74,1.51,1.49,1.95,2.27
			c0.44,0.78,0.78,1.63,1,2.55c0.23,0.93,0.35,1.95,0.35,3.07c0,1.89-0.33,3.65-0.98,5.27c-0.48,1.21-1.19,2.28-2.13,3.22
			c-0.93,0.94-1.98,1.66-3.17,2.16c-1.63,0.67-3.49,1.01-5.59,1.01c-2.27,0-4.21-0.41-5.84-1.22c-1.62-0.83-2.9-2.04-3.82-3.64
			C73.44,162.18,72.98,160.19,72.98,157.8L72.98,157.8z M77.63,156.91c0,2.35,0.32,4.29,0.97,5.83c0.64,1.53,1.47,2.61,2.48,3.25
			c1.01,0.63,2.19,0.95,3.56,0.95c1.27,0,2.4-0.3,3.4-0.91c1.01-0.6,1.79-1.63,2.36-3.07c0.57-1.44,0.86-3.19,0.86-5.24
			c0-1.41-0.16-2.7-0.47-3.87c-0.3-1.17-0.74-2.16-1.31-2.98c-0.57-0.83-1.25-1.45-2.04-1.89c-0.78-0.43-1.81-0.65-3.1-0.65
			c-1.47,0-2.72,0.35-3.76,1.04c-1.03,0.69-1.78,1.7-2.25,3.05C77.86,153.79,77.63,155.28,77.63,156.91L77.63,156.91z"/>
		<path class="st39" d="M100.61,168.12v-0.77c0.26-0.11,0.63-0.31,1.1-0.59c0.21-0.12,0.35-0.22,0.41-0.3
			c0.04-0.05,0.07-0.11,0.08-0.17c0.05-0.25,0.1-1.15,0.14-2.69c0.04-1.55,0.06-3.41,0.06-5.57c0-3.18-0.01-5.15-0.03-5.89
			c-0.04-1.89-0.11-2.97-0.2-3.25c-0.04-0.12-0.12-0.21-0.23-0.27c-0.23-0.15-1-0.25-2.31-0.3v-1.33c1.28,0.06,2.74,0.09,4.38,0.09
			c1.83,0,3.57-0.03,5.21-0.09v1.33c-1.14,0.05-1.83,0.14-2.08,0.27c-0.11,0.06-0.19,0.16-0.24,0.3c-0.05,0.13-0.1,0.75-0.15,1.86
			c-0.04,1.11-0.06,2.51-0.06,4.2c0,0.18,0,1.64,0.02,4.36c0.01,1.44,0.01,2.87,0.02,4.29c0.01,1.41,0.02,2.27,0.03,2.57
			c1.39,0.06,2.34,0.09,2.84,0.09c1.53,0,2.86-0.09,4-0.27c0.41-0.06,0.66-0.13,0.74-0.2c0.08-0.07,0.17-0.26,0.26-0.56
			c0.2-0.77,0.4-1.64,0.59-2.63h1.25c-0.03,0.28-0.05,0.45-0.05,0.5l-0.38,3.05c-0.08,0.96-0.13,1.53-0.14,1.72
			c-0.29,0.08-0.58,0.14-0.88,0.17c-0.61,0.05-1.57,0.08-2.85,0.08c-0.18,0-1.36-0.02-3.55-0.08c-1.66-0.04-2.82-0.06-3.47-0.06
			C104.13,167.98,102.63,168.03,100.61,168.12L100.61,168.12z"/>
		<path class="st39" d="M129.93,146.99v1.33c-1.02,0.03-1.62,0.07-1.81,0.12c-0.19,0.04-0.33,0.1-0.41,0.17
			c-0.08,0.06-0.14,0.14-0.17,0.24c-0.07,0.17-0.12,0.5-0.15,0.98c-0.02,0.26-0.04,0.76-0.05,1.48c-0.04,2.48-0.06,3.81-0.06,4v6.09
			l0.05,2.76c0,1.04,0.05,1.71,0.15,2.02c0.04,0.14,0.11,0.25,0.2,0.33c0.1,0.07,0.25,0.13,0.45,0.18c0.21,0.04,0.81,0.07,1.8,0.09
			v1.33c-1.64-0.06-3.39-0.09-5.26-0.09c-1.62,0-3.07,0.03-4.33,0.09v-1.33c1.05-0.04,1.65-0.07,1.81-0.11
			c0.21-0.04,0.35-0.1,0.42-0.17c0.08-0.07,0.13-0.15,0.15-0.24c0.03-0.12,0.07-0.59,0.12-1.42c0.08-1.21,0.12-2.33,0.12-3.35v-6.31
			c0-2-0.01-3.29-0.03-3.87c-0.05-1.28-0.11-2.08-0.18-2.4c-0.03-0.13-0.08-0.23-0.15-0.3c-0.06-0.07-0.18-0.13-0.36-0.17
			c-0.17-0.05-0.81-0.1-1.9-0.14v-1.33c1.27,0.06,2.72,0.09,4.36,0.09C126.54,147.08,128.29,147.05,129.93,146.99L129.93,146.99z"/>
		<path class="st39" d="M143.56,168.22c-0.86-2.11-1.68-4.12-2.46-6.03l-2.14-5.12c-1.68-4.02-2.72-6.41-3.11-7.17
			c-0.38-0.78-0.67-1.22-0.88-1.33c-0.3-0.16-0.93-0.25-1.87-0.27v-1.31c2.42,0.07,3.89,0.11,4.41,0.11l5.42-0.11v1.31
			c-0.85,0.01-1.46,0.06-1.84,0.15c-0.22,0.05-0.38,0.13-0.47,0.23c-0.08,0.09-0.12,0.21-0.12,0.36c0,0.3,0.33,1.26,1,2.87
			c0.38,0.93,0.58,1.43,0.6,1.51c0.03,0.07,0.07,0.16,0.11,0.27l3.82,9.32l3.35-8.31c0.08-0.19,0.44-1.14,1.07-2.85
			c0.45-1.21,0.73-2.02,0.83-2.43c0.02-0.12,0.03-0.24,0.03-0.36c0-0.17-0.03-0.3-0.09-0.38c-0.05-0.09-0.12-0.16-0.21-0.2
			c-0.07-0.03-0.25-0.06-0.54-0.08c-0.65-0.06-1.21-0.1-1.66-0.11v-1.31l3.84,0.09l3.26-0.09v1.31c-0.98,0.09-1.55,0.2-1.71,0.32
			c-0.27,0.21-0.84,1.35-1.71,3.43l-1.07,2.51l-2.04,4.86c-1.73,4.15-2.9,7.08-3.52,8.81H143.56L143.56,168.22z"/>
		<path class="st39" d="M168.89,146.99v1.33c-1.02,0.03-1.62,0.07-1.81,0.12c-0.19,0.04-0.33,0.1-0.41,0.17
			c-0.08,0.06-0.14,0.14-0.17,0.24c-0.07,0.17-0.12,0.5-0.15,0.98c-0.02,0.26-0.04,0.76-0.05,1.48c-0.04,2.48-0.06,3.81-0.06,4v6.09
			l0.05,2.76c0,1.04,0.05,1.71,0.15,2.02c0.04,0.14,0.11,0.25,0.2,0.33c0.1,0.07,0.25,0.13,0.45,0.18c0.21,0.04,0.81,0.07,1.8,0.09
			v1.33c-1.64-0.06-3.39-0.09-5.26-0.09c-1.62,0-3.07,0.03-4.33,0.09v-1.33c1.05-0.04,1.65-0.07,1.81-0.11
			c0.21-0.04,0.35-0.1,0.42-0.17c0.08-0.07,0.13-0.15,0.15-0.24c0.03-0.12,0.07-0.59,0.12-1.42c0.08-1.21,0.12-2.33,0.12-3.35v-6.31
			c0-2-0.01-3.29-0.03-3.87c-0.05-1.28-0.11-2.08-0.18-2.4c-0.03-0.13-0.08-0.23-0.15-0.3c-0.06-0.07-0.18-0.13-0.36-0.17
			c-0.17-0.05-0.81-0.1-1.9-0.14v-1.33c1.27,0.06,2.72,0.09,4.36,0.09C165.51,147.08,167.25,147.05,168.89,146.99L168.89,146.99z"/>
		<path class="st40" d="M172.05,168.12v-1.25c0.82-0.06,1.3-0.11,1.45-0.15c0.16-0.05,0.3-0.12,0.41-0.21
			c0.11-0.1,0.22-0.25,0.33-0.45c0.12-0.21,0.47-0.98,1.04-2.31c0.26-0.62,0.77-1.86,1.51-3.7l3.94-9.73l1.33-3.43h2.14l6.75,15.77
			l0.94,2.07l0.6,1.39c0.1,0.18,0.2,0.31,0.29,0.39c0.09,0.08,0.19,0.14,0.3,0.18c0.12,0.04,0.42,0.08,0.89,0.11
			c0.15,0.02,0.37,0.05,0.66,0.08v1.25l-4.2-0.09l-5.3,0.09v-1.25c1.22-0.05,1.9-0.12,2.05-0.2c0.16-0.09,0.24-0.24,0.24-0.44
			c0-0.25-0.12-0.66-0.35-1.24l-1.3-3.32h-7.76l-0.66,1.81c-0.5,1.39-0.76,2.26-0.76,2.6c0,0.24,0.08,0.41,0.24,0.51
			c0.24,0.14,0.96,0.23,2.16,0.27v1.25l-3.49-0.09L172.05,168.12L172.05,168.12z M178.72,159.95c0.95,0.03,2.02,0.05,3.22,0.05
			c1.16,0,2.19-0.02,3.11-0.05l-3.23-7.79L178.72,159.95L178.72,159.95z"/>
	</g>
	<line class="st41" x1="8.79" y1="174.67" x2="195.74" y2="174.67"/>
	<path class="st40" d="M61.17,209.95v-1.73c1.12-0.08,1.79-0.15,2-0.21c0.22-0.07,0.41-0.17,0.56-0.29c0.15-0.14,0.3-0.35,0.46-0.62
		c0.17-0.29,0.64-1.35,1.44-3.18c0.36-0.86,1.05-2.56,2.08-5.1l5.43-13.4l1.83-4.72h2.95l9.3,21.72l1.29,2.85l0.83,1.91
		c0.14,0.25,0.27,0.43,0.39,0.54c0.12,0.11,0.26,0.19,0.42,0.25c0.17,0.06,0.58,0.1,1.23,0.15c0.21,0.03,0.51,0.06,0.92,0.1v1.73
		l-5.78-0.12l-7.3,0.12v-1.73c1.68-0.07,2.62-0.16,2.83-0.27c0.22-0.12,0.33-0.33,0.33-0.6c0-0.35-0.16-0.91-0.48-1.71l-1.79-4.58
		H69.41l-0.92,2.5c-0.69,1.91-1.04,3.11-1.04,3.58c0,0.33,0.11,0.57,0.33,0.71c0.33,0.19,1.32,0.32,2.98,0.37v1.73l-4.81-0.12
		L61.17,209.95L61.17,209.95z M70.36,198.69c1.3,0.04,2.78,0.06,4.43,0.06c1.6,0,3.02-0.02,4.29-0.06l-4.45-10.74L70.36,198.69
		L70.36,198.69z"/>
	<path class="st39" d="M114.05,199.83h-1.66c-0.04-1.73-0.16-2.78-0.35-3.14c-0.1-0.18-0.35-0.31-0.75-0.4
		c-1.03-0.18-2.65-0.27-4.87-0.27c-0.32,0-0.87,0.01-1.66,0.02v2.31c0,3.29,0.03,5.6,0.1,6.93c0.08,1.32,0.19,2.09,0.33,2.31
		c0.1,0.15,0.27,0.28,0.52,0.37c0.25,0.08,1.34,0.19,3.27,0.33v1.64l-8.16-0.15c-1.18,0-3.04,0.05-5.6,0.15v-1.73
		c1.6-0.03,2.52-0.09,2.77-0.19c0.12-0.04,0.23-0.12,0.31-0.23c0.12-0.17,0.22-0.53,0.29-1.08c0.04-0.32,0.1-1.32,0.17-3
		c0.07-1.69,0.1-2.91,0.1-3.64v-8.61c0-0.19-0.06-2.14-0.19-5.83c-0.03-1.07-0.1-1.82-0.23-2.27c-0.04-0.15-0.11-0.26-0.21-0.33
		c-0.08-0.08-0.28-0.16-0.58-0.23c-0.29-0.07-1.1-0.14-2.43-0.23v-1.75l7.39,0.12l10.01-0.17c1.4,0,2.72,0.07,3.97,0.21l0.19,0.29
		c-0.15,0.79-0.28,1.8-0.4,3.02c-0.11,1.22-0.17,2.29-0.19,3.2h-1.71c0-0.33-0.03-1.08-0.1-2.25c-0.03-0.61-0.07-0.98-0.12-1.1
		c-0.04-0.1-0.1-0.17-0.19-0.21c-0.25-0.17-0.83-0.33-1.75-0.48c-0.9-0.17-1.96-0.25-3.18-0.25c-0.24,0-0.89,0.02-1.98,0.06
		c-1.07,0.04-1.8,0.08-2.18,0.1c-0.15,1.39-0.23,3.89-0.23,7.51v2.91c1.77,0.06,2.97,0.08,3.6,0.08c1.8,0,2.94-0.08,3.41-0.25
		c0.18-0.06,0.31-0.21,0.4-0.48c0.12-0.35,0.2-1.14,0.23-2.37h1.81C114.1,193.16,114.05,196.17,114.05,199.83L114.05,199.83z"/>
	<path class="st39" d="M121.29,182.56v-1.73l6.16,0.15l9.3-0.19c1.82,0,3.25,0.19,4.31,0.56c1.05,0.37,1.95,1.05,2.7,2.04
		c0.76,0.98,1.14,2.26,1.14,3.83c0,1.57-0.37,3.02-1.1,4.37c-0.72,1.35-1.86,2.46-3.41,3.33c-1.54,0.86-3.19,1.29-4.95,1.29
		c-0.44,0-0.88-0.02-1.31-0.06c-0.42-0.06-0.83-0.13-1.25-0.23c-0.14-0.39-0.39-0.88-0.75-1.48l0.44-0.46
		c0.3,0.1,0.59,0.17,0.85,0.23c0.28,0.04,0.53,0.06,0.75,0.06c1.35,0,2.45-0.47,3.33-1.42c0.87-0.96,1.31-2.34,1.31-4.16
		c0-1.9-0.46-3.33-1.37-4.29c-0.92-0.96-2.19-1.44-3.83-1.44c-0.78,0-1.64,0.09-2.6,0.27c-0.07,0.86-0.11,2.12-0.12,3.79l-0.06,4.08
		V199c0,1.94,0.03,3.95,0.08,6.03c0.04,1.21,0.12,1.97,0.23,2.29c0.06,0.14,0.15,0.26,0.27,0.37c0.14,0.1,0.38,0.17,0.73,0.23
		l2.81,0.19v1.83c-3.55-0.08-6.22-0.12-8.01-0.12c-1.97,0-3.85,0.04-5.64,0.12v-1.83c1.54-0.03,2.51-0.15,2.91-0.35
		c0.12-0.07,0.22-0.17,0.29-0.31c0.1-0.19,0.17-0.7,0.23-1.52c0.15-2.22,0.23-4.69,0.23-7.41v-7.34l-0.08-3.91
		c-0.03-1.68-0.06-2.73-0.1-3.14c-0.03-0.42-0.09-0.71-0.19-0.89c-0.06-0.11-0.15-0.21-0.29-0.29c-0.12-0.08-0.36-0.16-0.71-0.23
		L121.29,182.56L121.29,182.56z"/>
</g>
</svg>
