<?xml version="1.0" encoding="utf-8"?>
<!-- Generator: Adobe Illustrator 25.4.1, SVG Export Plug-In . SVG Version: 6.00 Build 0)  -->
<svg version="1.1" xmlns="http://www.w3.org/2000/svg" xmlns:xlink="http://www.w3.org/1999/xlink" x="0px" y="0px"
	 viewBox="0 0 200 139.56" style="enable-background:new 0 0 200 139.56;" xml:space="preserve">
<style type="text/css">
	.st0{display:none;}
	.st1{display:inline;opacity:0.8;}
	.st2{fill-rule:evenodd;clip-rule:evenodd;}
	.st3{opacity:0.8;}
	.st4{display:inline;}
	.st5{opacity:0.8;fill-rule:evenodd;clip-rule:evenodd;}
	.st6{clip-path:url(#SVGID_00000119839261750647434310000017851643107908129665_);}
	.st7{clip-path:url(#SVGID_00000111170506593129269290000004322184902857232574_);}
	.st8{fill:#333333;}
	.st9{fill:#DBDBDB;}
	.st10{fill:#3F3F3F;}
	.st11{fill:#FFFFFA;}
	.st12{fill:#DEDEDE;}
	.st13{fill:#979797;}
	.st14{fill:#484848;}
	.st15{fill:#4D4D4D;}
	.st16{fill:#6F6F6F;}
	.st17{fill:none;stroke:#000000;stroke-width:2;stroke-miterlimit:3.8637;}
	.st18{display:inline;opacity:0.8;fill-rule:evenodd;clip-rule:evenodd;}
	.st19{fill-rule:evenodd;clip-rule:evenodd;fill:none;stroke:#000000;stroke-miterlimit:10;}
	.st20{fill:#1D1D1B;}
	.st21{fill:#FFE13A;}
	.st22{fill:#009EE2;}
	.st23{fill-rule:evenodd;clip-rule:evenodd;fill:#009EE2;}
	.st24{fill:#0D2B60;}
	.st25{fill:#D6430D;}
	.st26{fill:#F5A300;}
	.st27{fill:#AABC14;}
	.st28{fill:#CCA857;}
	.st29{fill:#791525;}
	.st30{fill:none;stroke:#791525;stroke-width:0.0496;}
	.st31{fill:#00A651;}
	.st32{fill:#005E9E;}
	.st33{fill:#FFCB05;}
	.st34{fill:#ED1C24;}
	.st35{fill-rule:evenodd;clip-rule:evenodd;fill:#ED1C24;}
	.st36{fill-rule:evenodd;clip-rule:evenodd;fill:#00A651;}
	.st37{opacity:0.8;fill:#FFE13A;}
	.st38{fill:#9E250E;}
	.st39{fill:#312C63;}
	.st40{fill-rule:evenodd;clip-rule:evenodd;fill:#312C63;}
	.st41{fill:none;stroke:#7F1313;stroke-width:2;stroke-miterlimit:3.8637;}
	.st42{fill-rule:evenodd;clip-rule:evenodd;fill:#083D79;}
	.st43{fill-rule:evenodd;clip-rule:evenodd;fill:#00168D;}
	.st44{fill:#00168D;}
	.st45{fill:#00376F;}
	.st46{fill:#04A359;}
	.st47{fill-rule:evenodd;clip-rule:evenodd;fill:#113A60;}
	.st48{fill:#113A60;}
	.st49{opacity:0.8;fill-rule:evenodd;clip-rule:evenodd;fill:#027CA9;}
	.st50{opacity:0.8;fill:#027CA9;}
	.st51{fill:#184287;}
	.st52{fill:#1A4486;}
	.st53{fill:#F8D800;}
	.st54{fill:#E50402;}
	.st55{fill:#F3FF1B;}
	.st56{fill:#0C790D;}
	.st57{fill:#FFFFFF;}
	.st58{fill:#FCDD09;}
	.st59{fill:#EB7711;}
	.st60{fill:#DA121A;}
	.st61{fill:#742C64;}
	.st62{fill:#0F47AF;}
	.st63{fill:#078930;}
	.st64{fill:none;}
</style>
<g id="Capa_1" class="st0">
	<g class="st1">
		<path d="M42.34,122.74c-0.9,3.26-6.03,13.04-19.15,13.04C10.96,135.78,2,126.81,2,114.18c0-12.63,8.96-21.59,21.18-21.59
			c11.41,0,20.37,8.96,20.37,20.78c0,1.22-0.16,2.2-0.24,2.93l-0.16,1.14H12.19c0.89,5.79,5.21,9.78,11,9.78
			c4.65,0,7.55-2.59,8.47-4.31c0.06-0.11,0.16-0.17,0.29-0.17L42.34,122.74z M32.94,110.51c0.22,0,0.4-0.21,0.35-0.43
			c-1.01-5.08-4.48-8.94-10.11-8.94c-6.19,0-9.78,4.07-11,9.37L32.94,110.51z M48.39,93.4h8.32l0.81,4.07h0.41
			c0.73-0.9,1.71-1.71,2.77-2.44c1.87-1.22,4.73-2.44,8.64-2.44c9.37,0,16.29,6.93,16.29,17.52v24.85H75.45l0-23.8
			c0-5-4.01-9.22-9.01-9.2c-5.27,0.02-8.92,3.68-8.92,8.96v24.04H47.34V94.45C47.34,93.87,47.81,93.4,48.39,93.4z M103.55,89.01
			v-7.42h-9.34c-0.46,0-0.84,0.38-0.84,0.84V93.4h-6.52v9.78h6.52v22c0,6.19,3.66,9.78,10.59,9.78h8.96V126h-6.51
			c-1.58,0-2.85-1.28-2.85-2.85v-19.96h9.37V93.4h-6.93h-2.44h-3.67l3.16-3.16C103.37,89.92,103.55,89.47,103.55,89.01z
			 M154.47,122.74c-0.89,3.26-6.03,13.04-19.15,13.04c-12.22,0-21.19-8.97-21.19-21.59c0-12.63,8.96-21.59,21.19-21.59
			c11.4,0,20.36,8.96,20.36,20.78c0,1.22-0.16,2.2-0.24,2.93l-0.17,1.14h-30.96c0.9,5.79,5.21,9.78,11,9.78
			c4.65,0,7.54-2.59,8.46-4.31c0.06-0.11,0.16-0.17,0.29-0.17L154.47,122.74z M145.08,110.51c0.22,0,0.4-0.21,0.35-0.43
			c-1.01-5.08-4.48-8.94-10.1-8.94c-6.2,0-9.78,4.07-11,9.37L145.08,110.51z M160.98,82.35l9.13,0.01v40.78
			c0,1.35,1.09,2.44,2.44,2.44h6.11v9.37h-8.56c-6.51,0-10.18-3.58-10.18-9.78V83.4C159.93,82.82,160.4,82.35,160.98,82.35z"/>
		<g>
			<g>
				<path d="M193,4.77c-3.04-2.95-7.53-4.17-12.9-1.19c-3.28,1.81-7.14,4-10.85,7.2c-6.38,5.5-13.32,11.95-18.16,17.52
					c-8.16,9.4-25.28,21.41-29,13.7c-2.13-4.42-0.45-7.35,0.63-8.2c0.54-0.42,1.35-0.7,1.96-0.54c-4.68-2.02-9.65,7.84-11.24,16.88
					c-1.72,9.78-0.54,19.12,0.99,23.14c1.69,4.47,6.77,4.58,8.64,0.07c1.18-2.84,2.34-6.59,4.28-9.73l0,0
					c3.61-6.26,5.01-8.32,8.78-12.2c7.36-7.57,15.61-10.98,27.45-15.56C185.7,27.32,197.95,10.71,193,4.77z"/>
				<path class="st2" d="M124.4,34.66c-0.9,0.7-1.99,2.17-0.4,5.36c3.1,6.23,17.27-3.93,24.02-11.03c4.22-4.44,8.9-9.61,14.37-13.85
					c-6.83,4.97-13.53,11.58-22.23,18.03c-6.84,5.07-11.33,3.24-13.15,1.65c-0.32-0.28-0.64-0.47-0.97-0.61
					C125.52,34.08,124.85,34.31,124.4,34.66z"/>
				<path class="st2" d="M142.26,50.84c16.87-11.15,30.86-6.43,47.7-21.84c8.61-7.88,9.87-18.69,5.35-23.23
					c5.37,6.51-9.54,23.65-30.48,31.79c-11.29,4.39-18.2,7.17-25.69,14.13c-3.77,3.51-5.4,5.41-8.94,11.31l0,0
					C132.87,58.84,136.58,54.6,142.26,50.84z"/>
			</g>
		</g>
	</g>
</g>
<g id="Capa_2">
	<g>
		<path class="st22" d="M42.36,122.97c-0.91,3.28-6.08,13.13-19.29,13.13c-12.31,0-21.33-9.03-21.33-21.75
			c0-12.72,9.03-21.75,21.33-21.75c11.49,0,20.52,9.03,20.52,20.92c0,1.23-0.16,2.22-0.24,2.96l-0.16,1.15H11.99
			c0.9,5.83,5.25,9.85,11.07,9.85c4.68,0,7.6-2.61,8.53-4.34c0.06-0.11,0.17-0.17,0.29-0.17L42.36,122.97z M32.9,110.66
			c0.22,0,0.4-0.21,0.36-0.43c-1.02-5.12-4.51-9-10.18-9c-6.23,0-9.85,4.1-11.07,9.44L32.9,110.66z M48.45,93.42h8.38l0.82,4.1h0.41
			c0.74-0.9,1.72-1.72,2.79-2.46c1.89-1.23,4.76-2.46,8.7-2.46c9.44,0,16.41,6.97,16.41,17.64v25.03H75.71l0-23.97
			c0-5.04-4.03-9.28-9.07-9.26c-5.31,0.02-8.98,3.71-8.98,9.03v24.21H47.4v-40.8C47.4,93.9,47.87,93.42,48.45,93.42z M104.01,89
			v-7.47H94.6c-0.47,0-0.85,0.38-0.85,0.85v11.05h-6.57v9.85h6.57v22.16c0,6.24,3.69,9.85,10.66,9.85h9.03v-9.03h-6.56
			c-1.59,0-2.88-1.29-2.88-2.88v-20.1h9.44v-9.85h-6.98h-2.46h-3.69l3.18-3.18C103.82,89.91,104.01,89.47,104.01,89z M155.29,122.97
			c-0.9,3.28-6.07,13.13-19.28,13.13c-12.31,0-21.34-9.03-21.34-21.75c0-12.72,9.03-21.75,21.34-21.75
			c11.48,0,20.51,9.03,20.51,20.92c0,1.23-0.16,2.22-0.24,2.96l-0.17,1.15h-31.18c0.9,5.83,5.25,9.85,11.08,9.85
			c4.68,0,7.6-2.61,8.53-4.34c0.06-0.11,0.17-0.17,0.29-0.17L155.29,122.97z M145.83,110.66c0.22,0,0.4-0.21,0.36-0.43
			c-1.02-5.12-4.51-9-10.18-9c-6.24,0-9.85,4.1-11.08,9.44L145.83,110.66z M161.85,82.29l9.2,0.01v41.07c0,1.36,1.1,2.46,2.46,2.46
			h6.16v9.44h-8.62c-6.56,0-10.26-3.61-10.26-9.85V83.35C160.79,82.77,161.26,82.29,161.85,82.29z"/>
		<g>
			<g>
				<path class="st22" d="M194.1,4.15c-3.07-2.97-7.58-4.2-13-1.2c-3.3,1.82-7.19,4.02-10.93,7.25
					c-6.43,5.54-13.42,12.04-18.29,17.65c-8.22,9.46-25.46,21.56-29.2,13.8c-2.15-4.45-0.45-7.4,0.64-8.26
					c0.54-0.43,1.36-0.71,1.97-0.54c-4.72-2.03-9.72,7.9-11.32,17c-1.73,9.85-0.54,19.26,0.99,23.31c1.7,4.5,6.82,4.61,8.7,0.07
					c1.19-2.86,2.36-6.64,4.31-9.8l0,0c3.63-6.3,5.05-8.38,8.84-12.29c7.41-7.62,15.72-11.06,27.65-15.67
					C186.74,26.86,199.08,10.14,194.1,4.15z"/>
				<path class="st23" d="M125.01,34.26c-0.91,0.7-2,2.19-0.4,5.4c3.12,6.28,17.39-3.96,24.19-11.11
					c4.25-4.48,8.97-9.68,14.47-13.95c-6.88,5.01-13.62,11.66-22.39,18.16c-6.88,5.11-11.41,3.26-13.25,1.66
					c-0.32-0.28-0.65-0.47-0.97-0.61C126.14,33.67,125.46,33.91,125.01,34.26z"/>
				<path class="st23" d="M142.99,50.56c16.99-11.23,31.08-6.47,48.04-21.99c8.67-7.94,9.94-18.82,5.39-23.39
					c5.41,6.56-9.6,23.82-30.69,32.02c-11.37,4.42-18.33,7.22-25.87,14.23c-3.8,3.53-5.44,5.44-9.01,11.39l0,0
					C133.53,58.61,137.27,54.34,142.99,50.56z"/>
			</g>
		</g>
	</g>
</g>
</svg>
