<?xml version="1.0" encoding="utf-8"?>
<!-- Generator: Adobe Illustrator 25.4.1, SVG Export Plug-In . SVG Version: 6.00 Build 0)  -->
<svg version="1.1" xmlns="http://www.w3.org/2000/svg" xmlns:xlink="http://www.w3.org/1999/xlink" x="0px" y="0px"
	 viewBox="0 0 200 196.69" style="enable-background:new 0 0 200 196.69;" xml:space="preserve">
<style type="text/css">
	.st0{display:none;}
	.st1{display:inline;opacity:0.8;}
	.st2{fill-rule:evenodd;clip-rule:evenodd;}
	.st3{opacity:0.8;}
	.st4{display:inline;}
	.st5{opacity:0.8;fill-rule:evenodd;clip-rule:evenodd;}
	.st6{clip-path:url(#SVGID_00000034807938030833618720000017748458906882623108_);}
	.st7{clip-path:url(#SVGID_00000132785460115679902150000001908800040762211723_);}
	.st8{fill:#333333;}
	.st9{fill:#DBDBDB;}
	.st10{fill:#3F3F3F;}
	.st11{fill:#FFFFFA;}
	.st12{fill:#DEDEDE;}
	.st13{fill:#979797;}
	.st14{fill:#484848;}
	.st15{fill:#4D4D4D;}
	.st16{fill:#6F6F6F;}
	.st17{fill:none;stroke:#000000;stroke-width:2;stroke-miterlimit:3.8637;}
	.st18{display:inline;opacity:0.8;fill-rule:evenodd;clip-rule:evenodd;}
	.st19{fill-rule:evenodd;clip-rule:evenodd;fill:none;stroke:#000000;stroke-miterlimit:10;}
	.st20{fill:#1D1D1B;}
	.st21{fill:#FFE13A;}
	.st22{fill:#009EE2;}
	.st23{fill-rule:evenodd;clip-rule:evenodd;fill:#009EE2;}
	.st24{fill:#0D2B60;}
	.st25{fill:#D6430D;}
	.st26{fill:#F5A300;}
	.st27{fill:#AABC14;}
	.st28{fill:#CCA857;}
	.st29{fill:#791525;}
	.st30{fill:none;stroke:#791525;stroke-width:0.0496;}
	.st31{fill:#00A651;}
	.st32{fill:#005E9E;}
	.st33{fill:#FFCB05;}
	.st34{fill:#ED1C24;}
	.st35{fill-rule:evenodd;clip-rule:evenodd;fill:#ED1C24;}
	.st36{fill-rule:evenodd;clip-rule:evenodd;fill:#00A651;}
	.st37{opacity:0.8;fill:#FFE13A;}
	.st38{fill:#9E250E;}
	.st39{fill:#312C63;}
	.st40{fill-rule:evenodd;clip-rule:evenodd;fill:#312C63;}
	.st41{fill:none;stroke:#7F1313;stroke-width:2;stroke-miterlimit:3.8637;}
	.st42{fill-rule:evenodd;clip-rule:evenodd;fill:#083D79;}
	.st43{fill-rule:evenodd;clip-rule:evenodd;fill:#00168D;}
	.st44{fill:#00168D;}
	.st45{fill:#00376F;}
	.st46{fill:#04A359;}
	.st47{fill-rule:evenodd;clip-rule:evenodd;fill:#113A60;}
	.st48{fill:#113A60;}
	.st49{opacity:0.8;fill-rule:evenodd;clip-rule:evenodd;fill:#027CA9;}
	.st50{opacity:0.8;fill:#027CA9;}
	.st51{fill:#184287;}
	.st52{fill:#1A4486;}
	.st53{fill:#F8D800;}
	.st54{fill:#E50402;}
	.st55{fill:#F3FF1B;}
	.st56{fill:#0C790D;}
	.st57{fill:#FFFFFF;}
	.st58{fill:#FCDD09;}
	.st59{fill:#EB7711;}
	.st60{fill:#DA121A;}
	.st61{fill:#742C64;}
	.st62{fill:#0F47AF;}
	.st63{fill:#078930;}
	.st64{fill:none;}
</style>
<g id="Capa_1" class="st0">
	<g class="st1">
		<path class="st3" d="M197.29,97.9c0-53.17-43.39-96.43-96.71-96.43C47.27,1.47,3.9,44.72,3.9,97.9
			c0,53.15,43.37,96.38,96.69,96.38C153.91,194.28,197.29,151.04,197.29,97.9z M100.58,190.91c-51.45,0-93.3-41.73-93.3-93.01
			c0-51.32,41.85-93.05,93.3-93.05c51.46,0,93.33,41.72,93.33,93.05C193.91,149.17,152.04,190.91,100.58,190.91z"/>
		<path class="st3" d="M197.29,97.9c0-53.17-43.39-96.43-96.71-96.43C47.27,1.47,3.9,44.72,3.9,97.9
			c0,53.15,43.37,96.38,96.69,96.38C153.91,194.28,197.29,151.04,197.29,97.9z M100.58,190.91c-51.45,0-93.3-41.73-93.3-93.01
			c0-51.32,41.85-93.05,93.3-93.05c51.46,0,93.33,41.72,93.33,93.05C193.91,149.17,152.04,190.91,100.58,190.91z"/>
		<path d="M34.66,97.9c0-37.14,29.57-67.36,65.92-67.36c36.35,0,65.92,30.22,65.92,67.36c0,37.11-29.58,67.31-65.92,67.31
			C64.23,165.21,34.66,135.01,34.66,97.9z M32.02,97.9c0,38.58,30.76,69.96,68.56,69.96c37.81,0,68.56-31.39,68.56-69.96
			c0-38.61-30.76-70-68.56-70C62.78,27.89,32.02,59.29,32.02,97.9z"/>
		<polygon class="st3" points="24.57,77.27 22.93,81.07 22.91,81.06 21.02,77.36 16.87,76.98 16.85,76.95 19.83,74.15 18.86,70.13 
			18.91,70.11 22.56,72.12 26.2,69.94 26.22,69.96 25.52,74.06 28.6,76.68 28.59,76.71 		"/>
		<polygon class="st3" points="24.57,77.27 22.93,81.07 22.91,81.06 21.02,77.36 16.87,76.98 16.85,76.95 19.83,74.15 18.86,70.13 
			18.91,70.11 22.56,72.12 26.2,69.94 26.22,69.96 25.52,74.06 28.6,76.68 28.59,76.71 		"/>
		<polygon class="st3" points="23.41,113.44 23.64,117.63 23.61,117.63 20.25,115.1 16.38,116.69 16.34,116.68 17.75,112.78 
			15.08,109.66 15.1,109.64 19.31,109.75 21.55,106.22 21.57,106.22 22.81,110.16 26.73,111.18 26.73,111.21 		"/>
		<polygon class="st3" points="23.41,113.44 23.64,117.63 23.61,117.63 20.25,115.1 16.38,116.69 16.34,116.68 17.75,112.78 
			15.08,109.66 15.1,109.64 19.31,109.75 21.55,106.22 21.57,106.22 22.81,110.16 26.73,111.18 26.73,111.21 		"/>
		<polygon class="st3" points="38.58,146.41 40.77,150.02 40.75,150.02 36.55,149.32 33.87,152.43 33.82,152.43 33.24,148.37 
			29.54,146.75 29.54,146.72 33.25,144.96 33.74,140.76 33.76,140.75 36.58,143.75 40.59,142.86 40.63,142.89 		"/>
		<polygon class="st3" points="38.58,146.41 40.77,150.02 40.75,150.02 36.55,149.32 33.87,152.43 33.82,152.43 33.24,148.37 
			29.54,146.75 29.54,146.72 33.25,144.96 33.74,140.76 33.76,140.75 36.58,143.75 40.59,142.86 40.63,142.89 		"/>
		<polygon class="st3" points="67.15,169.03 70.63,171.26 70.62,171.28 66.63,172.52 65.56,176.53 65.51,176.53 63.24,173.16 
			59.13,173.38 59.11,173.33 61.73,170.1 60.2,166.14 60.21,166.13 64.17,167.53 67.27,164.97 67.29,164.97 		"/>
		<polygon class="st3" points="67.15,169.03 70.63,171.26 70.62,171.28 66.63,172.52 65.56,176.53 65.51,176.53 63.24,173.16 
			59.13,173.38 59.11,173.33 61.73,170.1 60.2,166.14 60.21,166.13 64.17,167.53 67.27,164.97 67.29,164.97 		"/>
		<polygon class="st3" points="102.75,176.31 106.91,176.83 106.91,176.85 103.85,179.69 104.74,183.79 104.72,183.83 
			101.13,181.76 97.58,183.87 97.55,183.84 98.39,179.72 95.28,176.93 95.28,176.9 99.4,176.33 101.06,172.69 101.1,172.69 		"/>
		<polygon class="st3" points="102.75,176.31 106.91,176.83 106.91,176.85 103.85,179.69 104.74,183.79 104.72,183.83 
			101.13,181.76 97.58,183.87 97.55,183.84 98.39,179.72 95.28,176.93 95.28,176.9 99.4,176.33 101.06,172.69 101.1,172.69 		"/>
		<polygon class="st3" points="137.91,167.07 141.85,165.57 141.88,165.6 140.42,169.58 143.06,172.76 143.06,172.81 138.92,172.65 
			136.7,176.06 136.66,176.03 135.56,172.05 131.51,170.91 131.5,170.87 134.95,168.58 134.76,164.51 134.79,164.49 		"/>
		<polygon class="st3" points="137.91,167.07 141.85,165.57 141.88,165.6 140.42,169.58 143.06,172.76 143.06,172.81 138.92,172.65 
			136.7,176.06 136.66,176.03 135.56,172.05 131.51,170.91 131.5,170.87 134.95,168.58 134.76,164.51 134.79,164.49 		"/>
		<polygon class="st3" points="165.16,142.9 167.99,139.85 168,139.87 168.56,144.02 172.29,145.73 172.29,145.78 168.59,147.44 
			168.08,151.5 168.04,151.5 165.31,148.41 161.12,149.2 161.1,149.2 163.21,145.59 161.15,142.06 161.17,142.03 		"/>
		<polygon class="st3" points="165.16,142.9 167.99,139.85 168,139.87 168.56,144.02 172.29,145.73 172.29,145.78 168.59,147.44 
			168.08,151.5 168.04,151.5 165.31,148.41 161.12,149.2 161.1,149.2 163.21,145.59 161.15,142.06 161.17,142.03 		"/>
		<polygon class="st3" points="178.49,109.18 179.68,105.19 179.71,105.19 182.02,108.65 186.21,108.51 186.23,108.55 
			183.59,111.69 185.05,115.56 185.03,115.58 181.11,114.03 177.82,116.63 177.78,116.63 177.94,112.46 174.61,110.23 174.61,110.2 
					"/>
		<polygon class="st3" points="178.49,109.18 179.68,105.19 179.71,105.19 182.02,108.65 186.21,108.51 186.23,108.55 
			183.59,111.69 185.05,115.56 185.03,115.58 181.11,114.03 177.82,116.63 177.78,116.63 177.94,112.46 174.61,110.23 174.61,110.2 
					"/>
		<polygon class="st3" points="175.32,73.12 174.57,68.98 174.61,68.97 178.23,71.11 181.89,69.03 181.93,69.05 181.02,73.11 
			184.03,75.86 184.01,75.89 179.85,76.33 178.03,80.05 178,80.05 176.32,76.33 172.29,75.76 172.28,75.73 		"/>
		<polygon class="st3" points="175.32,73.12 174.57,68.98 174.61,68.97 178.23,71.11 181.89,69.03 181.93,69.05 181.02,73.11 
			184.03,75.86 184.01,75.89 179.85,76.33 178.03,80.05 178,80.05 176.32,76.33 172.29,75.76 172.28,75.73 		"/>
		<path class="st3" d="M45.35,38.71c0.3-1.14,0.06-2.01-0.74-2.76c-1.32-1.29-3.19-1-4.91,0.75c-0.78,0.81-2.14,2.26-2.34,2.9
			c-0.14,0.58,0.17,0.84,0.43,0.95l0.15,0.09l0.14-0.13l0.89-0.71l6.21,6.01l-0.42,0.71c-0.13,0.24-0.17,0.49-0.09,0.72
			c0.06,0.21,0.21,0.37,0.4,0.46l0.19,0.1l0.15-0.16c0.75-0.82,0.85-0.92,1.71-1.8l0.02-0.03c0.37-0.37,0.58-0.57,0.79-0.75
			c0.21-0.2,0.43-0.37,0.77-0.73c1.64-1.69,1.71-3.75,0.14-5.28C47.99,38.2,46.63,38.09,45.35,38.71z M40.26,38.09
			c1.15-1.06,2.3-1.26,3.11-0.47c0.39,0.37,0.6,0.82,0.62,1.28c0,0.42-0.17,0.79-0.51,1.11c0,0.02-0.36,0.39-0.6,0.64L40.26,38.09z
			 M46.66,44.31l-2.8-2.71c0.88-0.84,1.73-1.29,2.48-1.31c0.5,0,0.94,0.18,1.3,0.54c0.78,0.74,0.65,1.91,0.04,2.53
			C47.25,43.82,46.95,44.1,46.66,44.31z"/>
		<path class="st3" d="M45.35,38.71c0.3-1.14,0.06-2.01-0.74-2.76c-1.32-1.29-3.19-1-4.91,0.75c-0.78,0.81-2.14,2.26-2.34,2.9
			c-0.14,0.58,0.17,0.84,0.43,0.95l0.15,0.09l0.14-0.13l0.89-0.71l6.21,6.01l-0.42,0.71c-0.13,0.24-0.17,0.49-0.09,0.72
			c0.06,0.21,0.21,0.37,0.4,0.46l0.19,0.1l0.15-0.16c0.75-0.82,0.85-0.92,1.71-1.8l0.02-0.03c0.37-0.37,0.58-0.57,0.79-0.75
			c0.21-0.2,0.43-0.37,0.77-0.73c1.64-1.69,1.71-3.75,0.14-5.28C47.99,38.2,46.63,38.09,45.35,38.71z M40.26,38.09
			c1.15-1.06,2.3-1.26,3.11-0.47c0.39,0.37,0.6,0.82,0.62,1.28c0,0.42-0.17,0.79-0.51,1.11c0,0.02-0.36,0.39-0.6,0.64L40.26,38.09z
			 M46.66,44.31l-2.8-2.71c0.88-0.84,1.73-1.29,2.48-1.31c0.5,0,0.94,0.18,1.3,0.54c0.78,0.74,0.65,1.91,0.04,2.53
			C47.25,43.82,46.95,44.1,46.66,44.31z"/>
		<path class="st3" d="M59.59,21.45c-3.09,1.71-3.86,5.21-1.91,8.67c0.88,1.55,2,2.56,3.29,2.91c1.12,0.32,2.32,0.14,3.55-0.54
			c3.27-1.83,4.06-5.19,2.05-8.78C64.87,20.69,62.4,19.88,59.59,21.45z M65.72,28.92c-0.21,0.77-0.71,1.36-1.5,1.8
			c-1.83,1.02-3.62,0.16-5.06-2.4c-1.26-2.24-0.97-4.17,0.77-5.14c0.8-0.46,1.59-0.57,2.33-0.36c1,0.28,1.96,1.19,2.76,2.6
			C65.76,26.74,66,27.95,65.72,28.92z"/>
		<path class="st3" d="M59.59,21.45c-3.09,1.71-3.86,5.21-1.91,8.67c0.88,1.55,2,2.56,3.29,2.91c1.12,0.32,2.32,0.14,3.55-0.54
			c3.27-1.83,4.06-5.19,2.05-8.78C64.87,20.69,62.4,19.88,59.59,21.45z M65.72,28.92c-0.21,0.77-0.71,1.36-1.5,1.8
			c-1.83,1.02-3.62,0.16-5.06-2.4c-1.26-2.24-0.97-4.17,0.77-5.14c0.8-0.46,1.59-0.57,2.33-0.36c1,0.28,1.96,1.19,2.76,2.6
			C65.76,26.74,66,27.95,65.72,28.92z"/>
		<path class="st3" d="M88.29,20.66v-0.22l-0.21-0.04c-0.28-0.07-0.57-0.03-0.81,0.12c-0.25,0.17-0.42,0.45-0.47,0.79
			c0-0.01-0.14,0.85-0.2,1.24l-3.59,0.61l-1.85-8.3l0.71-0.22c0.26-0.09,1.05-0.35,0.74-1.3l-0.08-0.24l-0.25,0.06l-3.58,0.79
			c-0.46,0.1-0.76,0.28-0.9,0.57c-0.07,0.14-0.13,0.4,0.02,0.76l0.08,0.19l0.21-0.02l0.99-0.15l1.9,8.52l-0.67,0.35
			c-0.23,0.13-0.38,0.31-0.42,0.52c-0.04,0.21,0.01,0.45,0.13,0.63l0.12,0.15l0.19-0.04l7.74-1.72l0.22-0.05v-0.23L88.29,20.66z"/>
		<path class="st3" d="M88.29,20.66v-0.22l-0.21-0.04c-0.28-0.07-0.57-0.03-0.81,0.12c-0.25,0.17-0.42,0.45-0.47,0.79
			c0-0.01-0.14,0.85-0.2,1.24l-3.59,0.61l-1.85-8.3l0.71-0.22c0.26-0.09,1.05-0.35,0.74-1.3l-0.08-0.24l-0.25,0.06l-3.58,0.79
			c-0.46,0.1-0.76,0.28-0.9,0.57c-0.07,0.14-0.13,0.4,0.02,0.76l0.08,0.19l0.21-0.02l0.99-0.15l1.9,8.52l-0.67,0.35
			c-0.23,0.13-0.38,0.31-0.42,0.52c-0.04,0.21,0.01,0.45,0.13,0.63l0.12,0.15l0.19-0.04l7.74-1.72l0.22-0.05v-0.23L88.29,20.66z"/>
		<path class="st3" d="M104.16,12.67c0.26-0.02,0.58-0.07,0.79-0.31c0.2-0.23,0.19-0.54,0.17-0.77l-0.02-0.23l-0.24-0.02l-3.48-0.09
			c-0.48-0.02-0.81,0.09-1.01,0.34c-0.1,0.11-0.22,0.35-0.16,0.71l0.03,0.2l0.21,0.03l1.06,0.13l-0.26,8.7l-0.81,0.15
			c-0.34,0.07-0.58,0.22-0.71,0.42c-0.07,0.14-0.14,0.35-0.03,0.65l0.07,0.21l0.21-0.02c0.46-0.02,1.22,0.01,1.94,0.04h0.08h0.06
			c0.72,0.02,1.35,0.04,1.79,0.08c0.31,0.03,0.61-0.06,0.81-0.23c0.19-0.17,0.28-0.41,0.29-0.68l0.01-0.24l-0.23-0.04l-1.35-0.28
			l0.24-8.71L104.16,12.67z"/>
		<path class="st3" d="M104.16,12.67c0.26-0.02,0.58-0.07,0.79-0.31c0.2-0.23,0.19-0.54,0.17-0.77l-0.02-0.23l-0.24-0.02l-3.48-0.09
			c-0.48-0.02-0.81,0.09-1.01,0.34c-0.1,0.11-0.22,0.35-0.16,0.71l0.03,0.2l0.21,0.03l1.06,0.13l-0.26,8.7l-0.81,0.15
			c-0.34,0.07-0.58,0.22-0.71,0.42c-0.07,0.14-0.14,0.35-0.03,0.65l0.07,0.21l0.21-0.02c0.46-0.02,1.22,0.01,1.94,0.04h0.08h0.06
			c0.72,0.02,1.35,0.04,1.79,0.08c0.31,0.03,0.61-0.06,0.81-0.23c0.19-0.17,0.28-0.41,0.29-0.68l0.01-0.24l-0.23-0.04l-1.35-0.28
			l0.24-8.71L104.16,12.67z"/>
		<path class="st3" d="M125.61,15.16c-0.37-0.11-0.7-0.07-0.95,0.1c-0.2,0.14-0.32,0.36-0.33,0.63l0,0.18l0.17,0.08l0.91,0.44
			l-3.98,6l-0.4-7.25l0.57,0.11c0.81,0.15,1.24-0.34,1.38-0.77l0.08-0.27l-0.27-0.08l-3.5-1.02c-0.39-0.1-0.77-0.07-1.04,0.13
			c-0.22,0.15-0.35,0.37-0.38,0.66l-0.01,0.2l0.17,0.08l0.81,0.37l0.53,10.82l0.01,0.25l0.24,0.02c0.99,0.12,1.74-0.22,2.34-1.09
			c0,0,4.34-6.32,5.11-7.45c0.51,0.18,0.93,0.18,1.24,0.01c0.3-0.16,0.5-0.48,0.6-0.92l0.05-0.26l-0.25-0.07L125.61,15.16z"/>
		<path class="st3" d="M125.61,15.16c-0.37-0.11-0.7-0.07-0.95,0.1c-0.2,0.14-0.32,0.36-0.33,0.63l0,0.18l0.17,0.08l0.91,0.44
			l-3.98,6l-0.4-7.25l0.57,0.11c0.81,0.15,1.24-0.34,1.38-0.77l0.08-0.27l-0.27-0.08l-3.5-1.02c-0.39-0.1-0.77-0.07-1.04,0.13
			c-0.22,0.15-0.35,0.37-0.38,0.66l-0.01,0.2l0.17,0.08l0.81,0.37l0.53,10.82l0.01,0.25l0.24,0.02c0.99,0.12,1.74-0.22,2.34-1.09
			c0,0,4.34-6.32,5.11-7.45c0.51,0.18,0.93,0.18,1.24,0.01c0.3-0.16,0.5-0.48,0.6-0.92l0.05-0.26l-0.25-0.07L125.61,15.16z"/>
		<path class="st3" d="M142.2,22.51c-0.38-0.24-0.74-0.31-1.02-0.2c-0.15,0.06-0.37,0.2-0.49,0.55l-0.08,0.2l0.17,0.11l0.87,0.64
			l-4.5,7.46l-0.79-0.25c-0.33-0.12-0.61-0.1-0.82,0.02c-0.13,0.08-0.3,0.23-0.35,0.54l-0.05,0.21l0.19,0.1
			c0.44,0.22,1.17,0.66,1.76,1.02c0.62,0.35,1.2,0.71,1.56,0.97c0.26,0.18,0.55,0.25,0.81,0.19c0.25-0.04,0.46-0.21,0.6-0.44
			l0.12-0.2L140,33.26l-1.05-0.91l4.5-7.47l0.52,0.23c0.24,0.11,0.54,0.22,0.83,0.12c0.28-0.1,0.43-0.38,0.53-0.58l0.1-0.22
			l-0.21-0.13L142.2,22.51z"/>
		<path class="st3" d="M142.2,22.51c-0.38-0.24-0.74-0.31-1.02-0.2c-0.15,0.06-0.37,0.2-0.49,0.55l-0.08,0.2l0.17,0.11l0.87,0.64
			l-4.5,7.46l-0.79-0.25c-0.33-0.12-0.61-0.1-0.82,0.02c-0.13,0.08-0.3,0.23-0.35,0.54l-0.05,0.21l0.19,0.1
			c0.44,0.22,1.17,0.66,1.76,1.02c0.62,0.35,1.2,0.71,1.56,0.97c0.26,0.18,0.55,0.25,0.81,0.19c0.25-0.04,0.46-0.21,0.6-0.44
			l0.12-0.2L140,33.26l-1.05-0.91l4.5-7.47l0.52,0.23c0.24,0.11,0.54,0.22,0.83,0.12c0.28-0.1,0.43-0.38,0.53-0.58l0.1-0.22
			l-0.21-0.13L142.2,22.51z"/>
		<path class="st3" d="M161.24,37.41l-0.09-0.13c-0.16-0.25-0.29-0.4-0.48-0.6c-0.59-0.62-1.2-0.45-1.62-0.25
			c0,0-7.99,3.59-9.11,4.09l-0.65-0.39c-0.19-0.11-0.4-0.13-0.61-0.07c-0.22,0.07-0.39,0.24-0.5,0.45l-0.09,0.19l0.16,0.15
			c0.33,0.29,0.75,0.71,1.13,1.12c0.37,0.37,0.78,0.83,1.24,1.32c0.36,0.4,0.86,0.48,1.3,0.16l0.23-0.17l-0.16-0.21l-0.78-1.15
			l2.68-1.3l2.29,2.38l-1.34,2.62l-0.85-0.55c-0.2-0.11-0.41-0.13-0.63-0.07c-0.2,0.06-0.37,0.21-0.47,0.4l-0.08,0.19l0.15,0.15
			c0.33,0.29,0.82,0.77,1.36,1.33c0.66,0.69,1.19,1.27,1.39,1.49c0.37,0.42,0.92,0.48,1.32,0.16l0.2-0.16l-0.13-0.22l-0.63-1.01
			l4.67-9.76L161.24,37.41z M155.3,39.92l3.29-1.59l-1.68,3.25L155.3,39.92z"/>
		<path class="st3" d="M161.24,37.41l-0.09-0.13c-0.16-0.25-0.29-0.4-0.48-0.6c-0.59-0.62-1.2-0.45-1.62-0.25
			c0,0-7.99,3.59-9.11,4.09l-0.65-0.39c-0.19-0.11-0.4-0.13-0.61-0.07c-0.22,0.07-0.39,0.24-0.5,0.45l-0.09,0.19l0.16,0.15
			c0.33,0.29,0.75,0.71,1.13,1.12c0.37,0.37,0.78,0.83,1.24,1.32c0.36,0.4,0.86,0.48,1.3,0.16l0.23-0.17l-0.16-0.21l-0.78-1.15
			l2.68-1.3l2.29,2.38l-1.34,2.62l-0.85-0.55c-0.2-0.11-0.41-0.13-0.63-0.07c-0.2,0.06-0.37,0.21-0.47,0.4l-0.08,0.19l0.15,0.15
			c0.33,0.29,0.82,0.77,1.36,1.33c0.66,0.69,1.19,1.27,1.39,1.49c0.37,0.42,0.92,0.48,1.32,0.16l0.2-0.16l-0.13-0.22l-0.63-1.01
			l4.67-9.76L161.24,37.41z M155.3,39.92l3.29-1.59l-1.68,3.25L155.3,39.92z"/>
		<path class="st3" d="M112.49,148.12c-0.33-0.02-1.48-0.03-2.36-0.03c-0.92,0-2.12,0-2.62,0.03c-0.09-0.26,0.05-0.6,0.62-0.73
			l1.44-0.32v-6.66c-0.37,0.02-1.1,0.04-1.55,0.04c-0.51,0-0.68-0.18-0.6-0.72c0.68-0.11,3.32-0.77,3.82-0.95v8.29l2.14,0.37
			C113.32,147.86,113.01,148.16,112.49,148.12z"/>
		<path class="st3" d="M112.49,148.12c-0.33-0.02-1.48-0.03-2.36-0.03c-0.92,0-2.12,0-2.62,0.03c-0.09-0.26,0.05-0.6,0.62-0.73
			l1.44-0.32v-6.66c-0.37,0.02-1.1,0.04-1.55,0.04c-0.51,0-0.68-0.18-0.6-0.72c0.68-0.11,3.32-0.77,3.82-0.95v8.29l2.14,0.37
			C113.32,147.86,113.01,148.16,112.49,148.12z"/>
		<path class="st3" d="M118.76,148.31c-1.26,0-2.29-0.58-2.29-1.59c0-0.38,0.27-0.62,0.64-0.7c0.27,0.78,0.75,1.13,1.83,1.13
			c1.3,0,2.04-0.81,2.21-2.95c-0.45,0.29-1.12,0.48-1.98,0.48c-1.5,0-2.66-0.99-2.66-2.78c0-1.73,1.52-3.15,3.2-3.15
			c1.97,0,3.23,1.44,3.23,4.32C122.95,146.41,121.61,148.31,118.76,148.31z M121.19,143.17c0.02-1.73-0.57-3.38-1.76-3.38
			c-0.75,0-1.19,0.83-1.19,1.68c0,1.39,0.55,2.17,1.62,2.17c0.48,0,0.88-0.07,1.33-0.24V143.17z"/>
		<path class="st3" d="M118.76,148.31c-1.26,0-2.29-0.58-2.29-1.59c0-0.38,0.27-0.62,0.64-0.7c0.27,0.78,0.75,1.13,1.83,1.13
			c1.3,0,2.04-0.81,2.21-2.95c-0.45,0.29-1.12,0.48-1.98,0.48c-1.5,0-2.66-0.99-2.66-2.78c0-1.73,1.52-3.15,3.2-3.15
			c1.97,0,3.23,1.44,3.23,4.32C122.95,146.41,121.61,148.31,118.76,148.31z M121.19,143.17c0.02-1.73-0.57-3.38-1.76-3.38
			c-0.75,0-1.19,0.83-1.19,1.68c0,1.39,0.55,2.17,1.62,2.17c0.48,0,0.88-0.07,1.33-0.24V143.17z"/>
		<path class="st3" d="M128.91,148.29c-1.62,0-2.97-1.54-2.97-4.65c0-2.61,1.52-4.84,3.56-4.84c2.09,0,3.21,1.55,3.21,4.5
			C132.71,146.37,131.04,148.29,128.91,148.29z M129.12,140.03c-0.86,0-1.46,1.06-1.46,3.43c0,2.72,0.79,3.6,1.81,3.6
			c0.93,0,1.5-0.96,1.5-3.43C130.97,140.97,130.18,140.03,129.12,140.03z"/>
		<path class="st3" d="M128.91,148.29c-1.62,0-2.97-1.54-2.97-4.65c0-2.61,1.52-4.84,3.56-4.84c2.09,0,3.21,1.55,3.21,4.5
			C132.71,146.37,131.04,148.29,128.91,148.29z M129.12,140.03c-0.86,0-1.46,1.06-1.46,3.43c0,2.72,0.79,3.6,1.81,3.6
			c0.93,0,1.5-0.96,1.5-3.43C130.97,140.97,130.18,140.03,129.12,140.03z"/>
		<path class="st3" d="M140.19,140.56c-0.76,0-1.36-0.07-2.25-0.24l-0.08,1.95c2.61-0.16,4,1.04,4,2.78c0,2.13-1.71,3.26-3.81,3.26
			c-1.38,0-2.38-0.68-2.38-1.87c0-0.33,0.24-0.64,0.7-0.72c0.28,0.78,0.82,1.51,1.92,1.51c1.2,0,1.74-0.77,1.74-1.79
			c0-1.64-1.43-2.33-3.59-1.95l0.27-4.44c1.52,0.07,3.96,0.07,4.98-0.1C142.03,139.75,141.59,140.56,140.19,140.56z"/>
		<path class="st3" d="M140.19,140.56c-0.76,0-1.36-0.07-2.25-0.24l-0.08,1.95c2.61-0.16,4,1.04,4,2.78c0,2.13-1.71,3.26-3.81,3.26
			c-1.38,0-2.38-0.68-2.38-1.87c0-0.33,0.24-0.64,0.7-0.72c0.28,0.78,0.82,1.51,1.92,1.51c1.2,0,1.74-0.77,1.74-1.79
			c0-1.64-1.43-2.33-3.59-1.95l0.27-4.44c1.52,0.07,3.96,0.07,4.98-0.1C142.03,139.75,141.59,140.56,140.19,140.56z"/>
		<path class="st3" d="M86.76,116.21c-0.13,4.12-0.34,8.25,2.01,13.46c0.61,1.38-0.72,0.93-0.72,0.93
			c-3.31-0.92-5.59-4.31-6.81-7.98c-0.52-1.59-1.17-4.8-1.04-8.27c0.21-6.22,1.9-13.77,1.9-13.77c2.33-10.32,8.68-26.72,8.68-26.72
			c0.26-0.66-0.01-0.84-0.29-0.72c-0.28,0.13-0.6,0.57-0.6,0.57c-12.17,17.91-20.27,31.25-20.27,31.25
			c-1.01,1.47-1.44-0.11-1.44-0.11c0.12-6.56,1.05-30.94,1.05-30.94c0.04-0.63-0.08-0.81-0.22-0.84c-0.37-0.03-0.57,0.62-0.57,0.62
			c-0.32,0.64-7.41,20.18-12.24,32.64c-3.61,9.29-5.36,12.48-5.36,12.48c-1.12,1.79-2.66,2.42-4.25,2.89
			c-2.83,0.88-4.61,0.5-4.61,0.5c-1.23-0.23-0.41-1.18-0.41-1.18c4.12-2.76,9.74-11.92,14.27-21.86
			C62.9,83.67,68.11,67.3,68.11,67.3c0.41-1.42,0.44-2.31,0.22-2.79c-0.31-0.67-1.16-0.66-1.16-0.66c-8.49,0-13.42,9.83-13.42,9.83
			c-3.56,7.05-0.7,12.43-0.7,12.43c0.36,0.98-0.61,0.69-0.61,0.69c-7.41-2.82-4.59-11.7-4.59-11.7s3.3-15.37,28.92-13.49
			c0,0,0.44,0.06,0.43,0.6c0,0-1.34,21.97-1.37,26.92c0,0,0.26,1.41,0.92,0.2c0,0,12.59-18.79,18.56-27.04c0,0,0.22-0.52,0.96-0.52
			c0,0,4.64-0.17,9.4-0.03c0,0,0.67,0.1,0.63,0.51c0,0.19-0.07,0.43-0.57,0.71c0,0-1.95,0.62-4.37,4.24
			c-0.99,1.49-1.85,3.22-2.99,6.1c0,0-6.61,16.82-9.86,30.21C88.52,103.5,86.99,109.76,86.76,116.21z"/>
		<path class="st3" d="M86.76,116.21c-0.13,4.12-0.34,8.25,2.01,13.46c0.61,1.38-0.72,0.93-0.72,0.93
			c-3.31-0.92-5.59-4.31-6.81-7.98c-0.52-1.59-1.17-4.8-1.04-8.27c0.21-6.22,1.9-13.77,1.9-13.77c2.33-10.32,8.68-26.72,8.68-26.72
			c0.26-0.66-0.01-0.84-0.29-0.72c-0.28,0.13-0.6,0.57-0.6,0.57c-12.17,17.91-20.27,31.25-20.27,31.25
			c-1.01,1.47-1.44-0.11-1.44-0.11c0.12-6.56,1.05-30.94,1.05-30.94c0.04-0.63-0.08-0.81-0.22-0.84c-0.37-0.03-0.57,0.62-0.57,0.62
			c-0.32,0.64-7.41,20.18-12.24,32.64c-3.61,9.29-5.36,12.48-5.36,12.48c-1.12,1.79-2.66,2.42-4.25,2.89
			c-2.83,0.88-4.61,0.5-4.61,0.5c-1.23-0.23-0.41-1.18-0.41-1.18c4.12-2.76,9.74-11.92,14.27-21.86
			C62.9,83.67,68.11,67.3,68.11,67.3c0.41-1.42,0.44-2.31,0.22-2.79c-0.31-0.67-1.16-0.66-1.16-0.66c-8.49,0-13.42,9.83-13.42,9.83
			c-3.56,7.05-0.7,12.43-0.7,12.43c0.36,0.98-0.61,0.69-0.61,0.69c-7.41-2.82-4.59-11.7-4.59-11.7s3.3-15.37,28.92-13.49
			c0,0,0.44,0.06,0.43,0.6c0,0-1.34,21.97-1.37,26.92c0,0,0.26,1.41,0.92,0.2c0,0,12.59-18.79,18.56-27.04c0,0,0.22-0.52,0.96-0.52
			c0,0,4.64-0.17,9.4-0.03c0,0,0.67,0.1,0.63,0.51c0,0.19-0.07,0.43-0.57,0.71c0,0-1.95,0.62-4.37,4.24
			c-0.99,1.49-1.85,3.22-2.99,6.1c0,0-6.61,16.82-9.86,30.21C88.52,103.5,86.99,109.76,86.76,116.21z"/>
		<path class="st3" d="M70.52,123.13c0.42-6.02,3.68-9.85,6.68-12.23c4.67-3.73,10.63-3.29,10.63-3.29
			c3.13,0.02,5.27,0.66,6.92,1.51c3.83,1.94,4.56,5.07,4.56,5.07c0.57,2.02,0.35,3.98-0.07,5.34c-1.19,3.8-4.81,4.73-4.81,4.73
			c-1.51,0.5-0.5-0.83-0.5-0.83c0.91-1.96,1.3-3.95,1.31-5.49c0.03-6.78-5.22-7.93-5.22-7.93c-2.59-0.69-5.37-0.29-7.26,0.39
			c-6.88,2.44-7.37,10.92-7.37,10.92c-1.37,11.7,8.14,15.15,8.14,15.15c11.15,4.2,20.01-4.13,20.01-4.13
			c7.74-7.27,4.62-16.27,4.62-16.27c-1.02-3.9-6.61-12.61-6.61-12.61c-2.63-3.74-4.2-6.99-4.85-9.48
			c-0.93-3.65-0.48-7.42,0.82-10.29c1.76-3.91,5.75-8.73,14.37-10.06c0,0,7.01-1.14,11.51,0.95c0,0,0.43,0.29,0.26,0.79
			c0,0-2.42,4.79-3.52,7.97c0,0-0.17,0.48-0.56,0.65c-0.36,0.14-1.08,0.1-1.02-0.78c0,0,0.88-8.31-6.39-7.34
			c0,0-5.83,0.39-8.24,6.08c-0.56,1.32-1.73,4.98-0.27,9.03c0.81,2.25,2.79,6.05,5.11,9.3c0,0,6.71,9.54,7.12,14.94
			c0,0,2.42,14.19-13.67,21.92c0,0-12.8,6.25-24.28-0.1C77.95,137.04,69.82,133.27,70.52,123.13z"/>
		<path class="st3" d="M70.52,123.13c0.42-6.02,3.68-9.85,6.68-12.23c4.67-3.73,10.63-3.29,10.63-3.29
			c3.13,0.02,5.27,0.66,6.92,1.51c3.83,1.94,4.56,5.07,4.56,5.07c0.57,2.02,0.35,3.98-0.07,5.34c-1.19,3.8-4.81,4.73-4.81,4.73
			c-1.51,0.5-0.5-0.83-0.5-0.83c0.91-1.96,1.3-3.95,1.31-5.49c0.03-6.78-5.22-7.93-5.22-7.93c-2.59-0.69-5.37-0.29-7.26,0.39
			c-6.88,2.44-7.37,10.92-7.37,10.92c-1.37,11.7,8.14,15.15,8.14,15.15c11.15,4.2,20.01-4.13,20.01-4.13
			c7.74-7.27,4.62-16.27,4.62-16.27c-1.02-3.9-6.61-12.61-6.61-12.61c-2.63-3.74-4.2-6.99-4.85-9.48
			c-0.93-3.65-0.48-7.42,0.82-10.29c1.76-3.91,5.75-8.73,14.37-10.06c0,0,7.01-1.14,11.51,0.95c0,0,0.43,0.29,0.26,0.79
			c0,0-2.42,4.79-3.52,7.97c0,0-0.17,0.48-0.56,0.65c-0.36,0.14-1.08,0.1-1.02-0.78c0,0,0.88-8.31-6.39-7.34
			c0,0-5.83,0.39-8.24,6.08c-0.56,1.32-1.73,4.98-0.27,9.03c0.81,2.25,2.79,6.05,5.11,9.3c0,0,6.71,9.54,7.12,14.94
			c0,0,2.42,14.19-13.67,21.92c0,0-12.8,6.25-24.28-0.1C77.95,137.04,69.82,133.27,70.52,123.13z"/>
		<path class="st3" d="M130.43,121.9c-8.63,0.17-11.92-5.49-12.75-12c-1.21-9.38,3.4-21.64,3.4-21.64s7.58-28.17,26.78-26.86
			c0,0,4.98,0.44,7.68,2.09c0,0,0.54,0.35,0.34,0.95c0,0-4.13,9.26-4.36,12.86c0,0-0.17,0.64-0.99,0.37
			c-3.03-1.04-4.61-4.37-3.41-7.59c0.38-1.05,0.74-1.97,1.22-3.27c0.56-1.44,0.65-2.15,0.63-2.42c-0.01-0.35-0.33-0.55-0.33-0.55
			c-0.67-0.29-1.64-0.35-2.4-0.31c-2.39,0.14-4.18,1.48-4.18,1.48c-7.83,5.41-14.13,27.01-14.13,27.01s-8.82,26.75,2.16,27.6
			c0,0,6.99,1.63,12.36-9.53c0,0,3.52-6.67,4.51-14.52c0,0,0.07-0.78,0.55-0.91c0.33-0.08,0.64,0.22,0.91,1.05
			c0,0,3.39,7.36-1.74,16.49C146.67,112.2,142.57,121.64,130.43,121.9z"/>
		<path class="st3" d="M130.43,121.9c-8.63,0.17-11.92-5.49-12.75-12c-1.21-9.38,3.4-21.64,3.4-21.64s7.58-28.17,26.78-26.86
			c0,0,4.98,0.44,7.68,2.09c0,0,0.54,0.35,0.34,0.95c0,0-4.13,9.26-4.36,12.86c0,0-0.17,0.64-0.99,0.37
			c-3.03-1.04-4.61-4.37-3.41-7.59c0.38-1.05,0.74-1.97,1.22-3.27c0.56-1.44,0.65-2.15,0.63-2.42c-0.01-0.35-0.33-0.55-0.33-0.55
			c-0.67-0.29-1.64-0.35-2.4-0.31c-2.39,0.14-4.18,1.48-4.18,1.48c-7.83,5.41-14.13,27.01-14.13,27.01s-8.82,26.75,2.16,27.6
			c0,0,6.99,1.63,12.36-9.53c0,0,3.52-6.67,4.51-14.52c0,0,0.07-0.78,0.55-0.91c0.33-0.08,0.64,0.22,0.91,1.05
			c0,0,3.39,7.36-1.74,16.49C146.67,112.2,142.57,121.64,130.43,121.9z"/>
	</g>
</g>
<g id="Capa_2">
	<path class="st28" d="M4.19,97.87c0-52.55,42.74-95.15,95.44-95.15s95.44,42.6,95.44,95.15c0,52.54-42.73,95.15-95.44,95.15
		S4.19,150.41,4.19,97.87z"/>
	<path class="st29" d="M197.84,97.89c0-54.01-44.07-97.94-98.22-97.94c-54.15,0-98.2,43.93-98.2,97.94
		c0,53.98,44.05,97.89,98.2,97.89C153.77,195.78,197.84,151.86,197.84,97.89z M99.62,192.35c-52.25,0-94.76-42.39-94.76-94.47
		c0-52.13,42.51-94.5,94.76-94.5c52.26,0,94.79,42.38,94.79,94.5C194.4,149.97,151.88,192.35,99.62,192.35z"/>
	<path class="st30" d="M197.84,97.89c0-54.01-44.07-97.94-98.22-97.94c-54.15,0-98.2,43.93-98.2,97.94
		c0,53.98,44.05,97.89,98.2,97.89C153.77,195.78,197.84,151.86,197.84,97.89z M99.62,192.35c-52.25,0-94.76-42.39-94.76-94.47
		c0-52.13,42.51-94.5,94.76-94.5c52.26,0,94.79,42.38,94.79,94.5C194.4,149.97,151.88,192.35,99.62,192.35z"/>
	<path class="st29" d="M32.66,97.89c0-37.72,30.03-68.41,66.95-68.41c36.91,0,66.95,30.69,66.95,68.41
		c0,37.69-30.04,68.37-66.95,68.37C62.7,166.25,32.66,135.58,32.66,97.89z M29.98,97.89c0,39.18,31.24,71.06,69.63,71.06
		c38.4,0,69.64-31.88,69.64-71.06c0-39.21-31.24-71.1-69.64-71.1C61.22,26.79,29.98,58.68,29.98,97.89z"/>
	<polygon class="st29" points="22.41,76.93 20.75,80.79 20.72,80.78 18.81,77.03 14.59,76.64 14.58,76.61 17.6,73.77 16.61,69.69 
		16.66,69.66 20.37,71.71 24.07,69.49 24.09,69.51 23.38,73.67 26.51,76.34 26.5,76.36 	"/>
	<polygon class="st30" points="22.41,76.93 20.75,80.79 20.72,80.78 18.81,77.03 14.59,76.64 14.58,76.61 17.6,73.77 16.61,69.69 
		16.66,69.66 20.37,71.71 24.07,69.49 24.09,69.51 23.38,73.67 26.51,76.34 26.5,76.36 	"/>
	<polygon class="st29" points="21.23,113.67 21.47,117.93 21.43,117.93 18.03,115.36 14.09,116.97 14.06,116.96 15.49,113 
		12.78,109.84 12.79,109.81 17.07,109.92 19.35,106.34 19.37,106.34 20.62,110.34 24.6,111.37 24.6,111.41 	"/>
	<polygon class="st30" points="21.23,113.67 21.47,117.93 21.43,117.93 18.03,115.36 14.09,116.97 14.06,116.96 15.49,113 
		12.78,109.84 12.79,109.81 17.07,109.92 19.35,106.34 19.37,106.34 20.62,110.34 24.6,111.37 24.6,111.41 	"/>
	<polygon class="st29" points="36.65,147.16 38.87,150.82 38.84,150.83 34.58,150.11 31.86,153.28 31.81,153.28 31.22,149.15 
		27.46,147.5 27.46,147.47 31.23,145.69 31.73,141.42 31.75,141.41 34.61,144.46 38.69,143.55 38.72,143.58 	"/>
	<polygon class="st30" points="36.65,147.16 38.87,150.82 38.84,150.83 34.58,150.11 31.86,153.28 31.81,153.28 31.22,149.15 
		27.46,147.5 27.46,147.47 31.23,145.69 31.73,141.42 31.75,141.41 34.61,144.46 38.69,143.55 38.72,143.58 	"/>
	<polygon class="st29" points="65.66,170.13 69.19,172.4 69.18,172.42 65.13,173.68 64.04,177.75 63.99,177.75 61.69,174.32 
		57.51,174.55 57.5,174.5 60.16,171.22 58.6,167.2 58.61,167.19 62.63,168.61 65.78,166 65.8,166 	"/>
	<polygon class="st30" points="65.66,170.13 69.19,172.4 69.18,172.42 65.13,173.68 64.04,177.75 63.99,177.75 61.69,174.32 
		57.51,174.55 57.5,174.5 60.16,171.22 58.6,167.2 58.61,167.19 62.63,168.61 65.78,166 65.8,166 	"/>
	<polygon class="st29" points="101.81,177.53 106.04,178.05 106.04,178.08 102.94,180.96 103.84,185.13 103.81,185.16 
		100.17,183.06 96.57,185.2 96.53,185.17 97.39,180.99 94.23,178.15 94.23,178.13 98.42,177.55 100.11,173.85 100.14,173.85 	"/>
	<polygon class="st30" points="101.81,177.53 106.04,178.05 106.04,178.08 102.94,180.96 103.84,185.13 103.81,185.16 
		100.17,183.06 96.57,185.2 96.53,185.17 97.39,180.99 94.23,178.15 94.23,178.13 98.42,177.55 100.11,173.85 100.14,173.85 	"/>
	<polygon class="st29" points="137.53,168.14 141.53,166.62 141.56,166.65 140.07,170.69 142.75,173.92 142.75,173.97 
		138.55,173.81 136.3,177.27 136.26,177.24 135.14,173.2 131.03,172.04 131.02,172 134.52,169.67 134.33,165.54 134.36,165.52 	"/>
	<polygon class="st30" points="137.53,168.14 141.53,166.62 141.56,166.65 140.07,170.69 142.75,173.92 142.75,173.97 
		138.55,173.81 136.3,177.27 136.26,177.24 135.14,173.2 131.03,172.04 131.02,172 134.52,169.67 134.33,165.54 134.36,165.52 	"/>
	<polygon class="st29" points="165.21,143.59 168.08,140.49 168.09,140.52 168.66,144.73 172.45,146.47 172.45,146.52 168.68,148.2 
		168.17,152.33 168.13,152.33 165.36,149.19 161.1,149.99 161.08,149.99 163.23,146.32 161.13,142.74 161.15,142.71 	"/>
	<polygon class="st30" points="165.21,143.59 168.08,140.49 168.09,140.52 168.66,144.73 172.45,146.47 172.45,146.52 168.68,148.2 
		168.17,152.33 168.13,152.33 165.36,149.19 161.1,149.99 161.08,149.99 163.23,146.32 161.13,142.74 161.15,142.71 	"/>
	<polygon class="st29" points="178.74,109.34 179.95,105.29 179.98,105.29 182.32,108.81 186.58,108.66 186.6,108.71 183.93,111.89 
		185.4,115.82 185.38,115.85 181.4,114.27 178.06,116.91 178.02,116.91 178.19,112.67 174.8,110.42 174.8,110.39 	"/>
	<polygon class="st30" points="178.74,109.34 179.95,105.29 179.98,105.29 182.32,108.81 186.58,108.66 186.6,108.71 183.93,111.89 
		185.4,115.82 185.38,115.85 181.4,114.27 178.06,116.91 178.02,116.91 178.19,112.67 174.8,110.42 174.8,110.39 	"/>
	<polygon class="st29" points="175.53,72.72 174.76,68.51 174.8,68.5 178.47,70.68 182.2,68.57 182.23,68.59 181.31,72.71 
		184.37,75.5 184.34,75.53 180.12,75.98 178.28,79.76 178.24,79.76 176.54,75.99 172.45,75.4 172.43,75.37 	"/>
	<polygon class="st30" points="175.53,72.72 174.76,68.51 174.8,68.5 178.47,70.68 182.2,68.57 182.23,68.59 181.31,72.71 
		184.37,75.5 184.34,75.53 180.12,75.98 178.28,79.76 178.24,79.76 176.54,75.99 172.45,75.4 172.43,75.37 	"/>
	<path class="st29" d="M43.52,37.77c0.3-1.16,0.06-2.04-0.75-2.81c-1.34-1.31-3.24-1.01-4.98,0.76c-0.79,0.83-2.18,2.3-2.38,2.94
		c-0.14,0.59,0.17,0.85,0.44,0.97l0.16,0.1l0.14-0.13l0.91-0.72l6.31,6.11l-0.42,0.72c-0.13,0.25-0.17,0.5-0.09,0.73
		c0.06,0.22,0.21,0.38,0.41,0.46l0.19,0.1l0.15-0.16c0.76-0.84,0.86-0.93,1.74-1.83l0.02-0.03c0.38-0.38,0.59-0.58,0.81-0.76
		c0.21-0.2,0.44-0.38,0.78-0.74c1.66-1.72,1.74-3.81,0.15-5.36C46.2,37.26,44.82,37.15,43.52,37.77z M38.35,37.15
		c1.17-1.08,2.33-1.28,3.16-0.47c0.4,0.38,0.61,0.83,0.63,1.3c0,0.43-0.18,0.81-0.52,1.13c0,0.02-0.37,0.4-0.61,0.64L38.35,37.15z
		 M44.85,43.46L42,40.71c0.9-0.85,1.76-1.31,2.52-1.33c0.51,0,0.96,0.18,1.32,0.55c0.79,0.75,0.66,1.94,0.04,2.57
		C45.45,42.96,45.15,43.25,44.85,43.46z"/>
	<path class="st30" d="M43.52,37.77c0.3-1.16,0.06-2.04-0.75-2.81c-1.34-1.31-3.24-1.01-4.98,0.76c-0.79,0.83-2.18,2.3-2.38,2.94
		c-0.14,0.59,0.17,0.85,0.44,0.97l0.16,0.1l0.14-0.13l0.91-0.72l6.31,6.11l-0.42,0.72c-0.13,0.25-0.17,0.5-0.09,0.73
		c0.06,0.22,0.21,0.38,0.41,0.46l0.19,0.1l0.15-0.16c0.76-0.84,0.86-0.93,1.74-1.83l0.02-0.03c0.38-0.38,0.59-0.58,0.81-0.76
		c0.21-0.2,0.44-0.38,0.78-0.74c1.66-1.72,1.74-3.81,0.15-5.36C46.2,37.26,44.82,37.15,43.52,37.77z M38.35,37.15
		c1.17-1.08,2.33-1.28,3.16-0.47c0.4,0.38,0.61,0.83,0.63,1.3c0,0.43-0.18,0.81-0.52,1.13c0,0.02-0.37,0.4-0.61,0.64L38.35,37.15z
		 M44.85,43.46L42,40.71c0.9-0.85,1.76-1.31,2.52-1.33c0.51,0,0.96,0.18,1.32,0.55c0.79,0.75,0.66,1.94,0.04,2.57
		C45.45,42.96,45.15,43.25,44.85,43.46z"/>
	<path class="st29" d="M57.98,20.24c-3.14,1.74-3.92,5.29-1.94,8.8c0.9,1.58,2.03,2.6,3.34,2.96c1.14,0.32,2.36,0.14,3.6-0.55
		c3.32-1.86,4.13-5.27,2.08-8.92C63.35,19.47,60.83,18.65,57.98,20.24z M64.21,27.83c-0.21,0.78-0.73,1.38-1.52,1.83
		c-1.85,1.03-3.68,0.16-5.14-2.44c-1.28-2.28-0.99-4.24,0.78-5.22c0.81-0.46,1.62-0.58,2.37-0.37c1.01,0.28,1.99,1.21,2.8,2.64
		C64.24,25.61,64.49,26.85,64.21,27.83z"/>
	<path class="st30" d="M57.98,20.24c-3.14,1.74-3.92,5.29-1.94,8.8c0.9,1.58,2.03,2.6,3.34,2.96c1.14,0.32,2.36,0.14,3.6-0.55
		c3.32-1.86,4.13-5.27,2.08-8.92C63.35,19.47,60.83,18.65,57.98,20.24z M64.21,27.83c-0.21,0.78-0.73,1.38-1.52,1.83
		c-1.85,1.03-3.68,0.16-5.14-2.44c-1.28-2.28-0.99-4.24,0.78-5.22c0.81-0.46,1.62-0.58,2.37-0.37c1.01,0.28,1.99,1.21,2.8,2.64
		C64.24,25.61,64.49,26.85,64.21,27.83z"/>
	<path class="st29" d="M87.14,19.44v-0.23l-0.21-0.04c-0.29-0.08-0.58-0.03-0.82,0.12c-0.26,0.17-0.43,0.46-0.47,0.81
		c0-0.01-0.14,0.86-0.2,1.26l-3.64,0.62l-1.88-8.43l0.72-0.23c0.27-0.1,1.07-0.35,0.75-1.32l-0.09-0.25l-0.26,0.06l-3.63,0.81
		c-0.46,0.1-0.77,0.28-0.91,0.58c-0.07,0.14-0.13,0.41,0.02,0.77l0.09,0.19l0.21-0.02l1.01-0.15l1.93,8.65l-0.68,0.36
		c-0.23,0.13-0.38,0.31-0.43,0.53c-0.04,0.22,0.01,0.46,0.14,0.64l0.12,0.15l0.19-0.04l7.86-1.75l0.22-0.05v-0.24L87.14,19.44z"/>
	<path class="st30" d="M87.14,19.44v-0.23l-0.21-0.04c-0.29-0.08-0.58-0.03-0.82,0.12c-0.26,0.17-0.43,0.46-0.47,0.81
		c0-0.01-0.14,0.86-0.2,1.26l-3.64,0.62l-1.88-8.43l0.72-0.23c0.27-0.1,1.07-0.35,0.75-1.32l-0.09-0.25l-0.26,0.06l-3.63,0.81
		c-0.46,0.1-0.77,0.28-0.91,0.58c-0.07,0.14-0.13,0.41,0.02,0.77l0.09,0.19l0.21-0.02l1.01-0.15l1.93,8.65l-0.68,0.36
		c-0.23,0.13-0.38,0.31-0.43,0.53c-0.04,0.22,0.01,0.46,0.14,0.64l0.12,0.15l0.19-0.04l7.86-1.75l0.22-0.05v-0.24L87.14,19.44z"/>
	<path class="st29" d="M103.25,11.33c0.26-0.02,0.59-0.07,0.8-0.31c0.2-0.24,0.19-0.55,0.17-0.78L104.2,10l-0.25-0.02l-3.54-0.1
		c-0.48-0.02-0.83,0.1-1.03,0.34c-0.1,0.11-0.23,0.35-0.16,0.72l0.03,0.21l0.21,0.03l1.08,0.13l-0.26,8.84l-0.82,0.15
		c-0.35,0.07-0.59,0.22-0.72,0.43c-0.07,0.14-0.14,0.36-0.03,0.66l0.07,0.21L99,21.59c0.47-0.02,1.24,0.01,1.97,0.04h0.08h0.06
		c0.74,0.02,1.38,0.04,1.82,0.09c0.32,0.03,0.62-0.06,0.82-0.24c0.19-0.17,0.29-0.42,0.3-0.69l0.01-0.25l-0.24-0.04l-1.37-0.28
		l0.24-8.85L103.25,11.33z"/>
	<path class="st30" d="M103.25,11.33c0.26-0.02,0.59-0.07,0.8-0.31c0.2-0.24,0.19-0.55,0.17-0.78L104.2,10l-0.25-0.02l-3.54-0.1
		c-0.48-0.02-0.83,0.1-1.03,0.34c-0.1,0.11-0.23,0.35-0.16,0.72l0.03,0.21l0.21,0.03l1.08,0.13l-0.26,8.84l-0.82,0.15
		c-0.35,0.07-0.59,0.22-0.72,0.43c-0.07,0.14-0.14,0.36-0.03,0.66l0.07,0.21L99,21.59c0.47-0.02,1.24,0.01,1.97,0.04h0.08h0.06
		c0.74,0.02,1.38,0.04,1.82,0.09c0.32,0.03,0.62-0.06,0.82-0.24c0.19-0.17,0.29-0.42,0.3-0.69l0.01-0.25l-0.24-0.04l-1.37-0.28
		l0.24-8.85L103.25,11.33z"/>
	<path class="st29" d="M125.04,13.85c-0.37-0.11-0.71-0.08-0.97,0.1c-0.2,0.14-0.32,0.37-0.34,0.64l0,0.18l0.17,0.09l0.92,0.45
		l-4.05,6.1l-0.41-7.36l0.58,0.11c0.82,0.15,1.26-0.34,1.4-0.79l0.08-0.27l-0.27-0.09l-3.56-1.03c-0.4-0.1-0.78-0.08-1.06,0.13
		c-0.22,0.15-0.36,0.38-0.38,0.67l-0.01,0.2l0.18,0.08l0.82,0.38l0.54,10.99l0.01,0.26l0.25,0.02c1.01,0.12,1.77-0.23,2.38-1.11
		c0,0,4.41-6.42,5.19-7.57c0.52,0.18,0.95,0.18,1.26,0.01c0.31-0.16,0.51-0.48,0.61-0.94l0.05-0.27l-0.26-0.08L125.04,13.85z"/>
	<path class="st30" d="M125.04,13.85c-0.37-0.11-0.71-0.08-0.97,0.1c-0.2,0.14-0.32,0.37-0.34,0.64l0,0.18l0.17,0.09l0.92,0.45
		l-4.05,6.1l-0.41-7.36l0.58,0.11c0.82,0.15,1.26-0.34,1.4-0.79l0.08-0.27l-0.27-0.09l-3.56-1.03c-0.4-0.1-0.78-0.08-1.06,0.13
		c-0.22,0.15-0.36,0.38-0.38,0.67l-0.01,0.2l0.18,0.08l0.82,0.38l0.54,10.99l0.01,0.26l0.25,0.02c1.01,0.12,1.77-0.23,2.38-1.11
		c0,0,4.41-6.42,5.19-7.57c0.52,0.18,0.95,0.18,1.26,0.01c0.31-0.16,0.51-0.48,0.61-0.94l0.05-0.27l-0.26-0.08L125.04,13.85z"/>
	<path class="st29" d="M141.89,21.32c-0.39-0.25-0.75-0.31-1.04-0.21c-0.16,0.06-0.37,0.2-0.5,0.56l-0.08,0.2l0.17,0.11l0.89,0.65
		l-4.57,7.58l-0.8-0.26c-0.33-0.12-0.62-0.1-0.83,0.02c-0.13,0.08-0.3,0.24-0.36,0.55l-0.05,0.21l0.19,0.1
		c0.45,0.23,1.19,0.67,1.79,1.03c0.63,0.36,1.21,0.72,1.59,0.99c0.26,0.18,0.56,0.26,0.82,0.19c0.25-0.04,0.46-0.21,0.61-0.45
		l0.12-0.2l-0.18-0.17l-1.07-0.92l4.57-7.59l0.53,0.24c0.25,0.11,0.55,0.23,0.84,0.12c0.28-0.1,0.44-0.39,0.54-0.59l0.1-0.22
		l-0.21-0.13L141.89,21.32z"/>
	<path class="st30" d="M141.89,21.32c-0.39-0.25-0.75-0.31-1.04-0.21c-0.16,0.06-0.37,0.2-0.5,0.56l-0.08,0.2l0.17,0.11l0.89,0.65
		l-4.57,7.58l-0.8-0.26c-0.33-0.12-0.62-0.1-0.83,0.02c-0.13,0.08-0.3,0.24-0.36,0.55l-0.05,0.21l0.19,0.1
		c0.45,0.23,1.19,0.67,1.79,1.03c0.63,0.36,1.21,0.72,1.59,0.99c0.26,0.18,0.56,0.26,0.82,0.19c0.25-0.04,0.46-0.21,0.61-0.45
		l0.12-0.2l-0.18-0.17l-1.07-0.92l4.57-7.59l0.53,0.24c0.25,0.11,0.55,0.23,0.84,0.12c0.28-0.1,0.44-0.39,0.54-0.59l0.1-0.22
		l-0.21-0.13L141.89,21.32z"/>
	<path class="st29" d="M161.22,36.45l-0.09-0.13c-0.17-0.26-0.29-0.41-0.49-0.61c-0.6-0.63-1.22-0.46-1.64-0.26
		c0,0-8.12,3.64-9.25,4.15l-0.66-0.4c-0.19-0.11-0.4-0.13-0.62-0.08c-0.22,0.08-0.4,0.25-0.5,0.46l-0.09,0.19l0.16,0.15
		c0.33,0.29,0.76,0.72,1.15,1.14c0.38,0.38,0.8,0.84,1.26,1.34c0.37,0.41,0.88,0.48,1.32,0.16l0.24-0.17l-0.17-0.22l-0.79-1.17
		l2.72-1.32l2.33,2.42l-1.36,2.67l-0.86-0.56c-0.2-0.11-0.42-0.13-0.64-0.08c-0.2,0.06-0.37,0.21-0.47,0.41l-0.09,0.19l0.16,0.15
		c0.34,0.29,0.83,0.79,1.38,1.36c0.67,0.7,1.21,1.29,1.41,1.51c0.38,0.43,0.93,0.48,1.34,0.16l0.2-0.16l-0.13-0.22l-0.64-1.02
		l4.75-9.91L161.22,36.45z M155.19,39l3.34-1.61l-1.71,3.3L155.19,39z"/>
	<path class="st30" d="M161.22,36.45l-0.09-0.13c-0.17-0.26-0.29-0.41-0.49-0.61c-0.6-0.63-1.22-0.46-1.64-0.26
		c0,0-8.12,3.64-9.25,4.15l-0.66-0.4c-0.19-0.11-0.4-0.13-0.62-0.08c-0.22,0.08-0.4,0.25-0.5,0.46l-0.09,0.19l0.16,0.15
		c0.33,0.29,0.76,0.72,1.15,1.14c0.38,0.38,0.8,0.84,1.26,1.34c0.37,0.41,0.88,0.48,1.32,0.16l0.24-0.17l-0.17-0.22l-0.79-1.17
		l2.72-1.32l2.33,2.42l-1.36,2.67l-0.86-0.56c-0.2-0.11-0.42-0.13-0.64-0.08c-0.2,0.06-0.37,0.21-0.47,0.41l-0.09,0.19l0.16,0.15
		c0.34,0.29,0.83,0.79,1.38,1.36c0.67,0.7,1.21,1.29,1.41,1.51c0.38,0.43,0.93,0.48,1.34,0.16l0.2-0.16l-0.13-0.22l-0.64-1.02
		l4.75-9.91L161.22,36.45z M155.19,39l3.34-1.61l-1.71,3.3L155.19,39z"/>
	<path class="st29" d="M111.71,148.89c-0.34-0.02-1.5-0.03-2.4-0.03c-0.93,0-2.15,0-2.66,0.03c-0.09-0.27,0.05-0.61,0.63-0.74
		l1.46-0.32v-6.76c-0.37,0.02-1.12,0.04-1.58,0.04c-0.52,0-0.69-0.18-0.61-0.73c0.69-0.11,3.37-0.78,3.88-0.97v8.42l2.18,0.38
		C112.55,148.63,112.24,148.93,111.71,148.89z"/>
	<path class="st30" d="M111.71,148.89c-0.34-0.02-1.5-0.03-2.4-0.03c-0.93,0-2.15,0-2.66,0.03c-0.09-0.27,0.05-0.61,0.63-0.74
		l1.46-0.32v-6.76c-0.37,0.02-1.12,0.04-1.58,0.04c-0.52,0-0.69-0.18-0.61-0.73c0.69-0.11,3.37-0.78,3.88-0.97v8.42l2.18,0.38
		C112.55,148.63,112.24,148.93,111.71,148.89z"/>
	<path class="st29" d="M118.07,149.08c-1.28,0-2.33-0.59-2.33-1.61c0-0.39,0.27-0.63,0.65-0.71c0.27,0.8,0.76,1.15,1.86,1.15
		c1.32,0,2.07-0.82,2.25-3c-0.46,0.29-1.13,0.48-2.01,0.48c-1.53,0-2.7-1.01-2.7-2.83c0-1.75,1.54-3.2,3.25-3.2
		c2,0,3.28,1.46,3.28,4.39C122.33,147.16,120.97,149.08,118.07,149.08z M120.54,143.87c0.02-1.76-0.58-3.43-1.79-3.43
		c-0.76,0-1.21,0.84-1.21,1.71c0,1.41,0.56,2.2,1.64,2.2c0.49,0,0.89-0.08,1.36-0.25V143.87z"/>
	<path class="st30" d="M118.07,149.08c-1.28,0-2.33-0.59-2.33-1.61c0-0.39,0.27-0.63,0.65-0.71c0.27,0.8,0.76,1.15,1.86,1.15
		c1.32,0,2.07-0.82,2.25-3c-0.46,0.29-1.13,0.48-2.01,0.48c-1.53,0-2.7-1.01-2.7-2.83c0-1.75,1.54-3.2,3.25-3.2
		c2,0,3.28,1.46,3.28,4.39C122.33,147.16,120.97,149.08,118.07,149.08z M120.54,143.87c0.02-1.76-0.58-3.43-1.79-3.43
		c-0.76,0-1.21,0.84-1.21,1.71c0,1.41,0.56,2.2,1.64,2.2c0.49,0,0.89-0.08,1.36-0.25V143.87z"/>
	<path class="st29" d="M128.38,149.07c-1.65,0-3.02-1.57-3.02-4.72c0-2.66,1.54-4.91,3.62-4.91c2.12,0,3.26,1.57,3.26,4.57
		C132.24,147.12,130.55,149.07,128.38,149.07z M128.6,140.68c-0.88,0-1.48,1.08-1.48,3.48c0,2.76,0.81,3.66,1.84,3.66
		c0.95,0,1.52-0.98,1.52-3.48C130.48,141.63,129.67,140.68,128.6,140.68z"/>
	<path class="st30" d="M128.38,149.07c-1.65,0-3.02-1.57-3.02-4.72c0-2.66,1.54-4.91,3.62-4.91c2.12,0,3.26,1.57,3.26,4.57
		C132.24,147.12,130.55,149.07,128.38,149.07z M128.6,140.68c-0.88,0-1.48,1.08-1.48,3.48c0,2.76,0.81,3.66,1.84,3.66
		c0.95,0,1.52-0.98,1.52-3.48C130.48,141.63,129.67,140.68,128.6,140.68z"/>
	<path class="st29" d="M139.85,141.21c-0.77,0-1.38-0.07-2.28-0.25l-0.08,1.98c2.65-0.16,4.06,1.05,4.06,2.83
		c0,2.16-1.74,3.31-3.87,3.31c-1.4,0-2.42-0.69-2.42-1.9c0-0.33,0.24-0.65,0.71-0.73c0.28,0.8,0.83,1.54,1.95,1.54
		c1.22,0,1.76-0.78,1.76-1.82c0-1.67-1.45-2.37-3.64-1.98l0.27-4.51c1.55,0.07,4.03,0.08,5.06-0.1
		C141.71,140.4,141.26,141.21,139.85,141.21z"/>
	<path class="st30" d="M139.85,141.21c-0.77,0-1.38-0.07-2.28-0.25l-0.08,1.98c2.65-0.16,4.06,1.05,4.06,2.83
		c0,2.16-1.74,3.31-3.87,3.31c-1.4,0-2.42-0.69-2.42-1.9c0-0.33,0.24-0.65,0.71-0.73c0.28,0.8,0.83,1.54,1.95,1.54
		c1.22,0,1.76-0.78,1.76-1.82c0-1.67-1.45-2.37-3.64-1.98l0.27-4.51c1.55,0.07,4.03,0.08,5.06-0.1
		C141.71,140.4,141.26,141.21,139.85,141.21z"/>
	<path class="st29" d="M85.58,116.49c-0.13,4.18-0.35,8.37,2.04,13.67c0.62,1.4-0.74,0.95-0.74,0.95c-3.36-0.93-5.68-4.37-6.92-8.1
		c-0.53-1.61-1.19-4.88-1.05-8.4c0.21-6.32,1.93-13.99,1.93-13.99c2.37-10.48,8.81-27.14,8.81-27.14c0.27-0.67-0.01-0.85-0.29-0.73
		c-0.28,0.13-0.61,0.58-0.61,0.58c-12.36,18.19-20.59,31.74-20.59,31.74c-1.03,1.49-1.47-0.11-1.47-0.11
		c0.12-6.66,1.06-31.42,1.06-31.42c0.04-0.64-0.08-0.82-0.22-0.85c-0.37-0.03-0.58,0.63-0.58,0.63c-0.33,0.65-7.53,20.5-12.43,33.15
		c-3.67,9.44-5.44,12.67-5.44,12.67c-1.13,1.82-2.7,2.46-4.32,2.94c-2.88,0.89-4.68,0.5-4.68,0.5c-1.25-0.24-0.41-1.2-0.41-1.2
		c4.18-2.81,9.89-12.1,14.49-22.2c7.18-15.73,12.47-32.34,12.47-32.34c0.42-1.44,0.45-2.34,0.23-2.84
		c-0.31-0.68-1.18-0.67-1.18-0.67c-8.63,0-13.63,9.99-13.63,9.99c-3.61,7.16-0.71,12.62-0.71,12.62c0.37,1-0.62,0.7-0.62,0.7
		c-7.53-2.86-4.66-11.88-4.66-11.88s3.35-15.61,29.37-13.71c0,0,0.45,0.06,0.44,0.61c0,0-1.36,22.32-1.39,27.34
		c0,0,0.26,1.43,0.94,0.2c0,0,12.79-19.08,18.85-27.47c0,0,0.23-0.53,0.98-0.53c0,0,4.71-0.17,9.55-0.03c0,0,0.68,0.1,0.64,0.52
		c0,0.19-0.07,0.44-0.58,0.72c0,0-1.98,0.63-4.44,4.31c-1.01,1.51-1.88,3.27-3.04,6.19c0,0-6.72,17.08-10.01,30.68
		C87.36,103.58,85.81,109.93,85.58,116.49z"/>
	<path class="st30" d="M85.58,116.49c-0.13,4.18-0.35,8.37,2.04,13.67c0.62,1.4-0.74,0.95-0.74,0.95c-3.36-0.93-5.68-4.37-6.92-8.1
		c-0.53-1.61-1.19-4.88-1.05-8.4c0.21-6.32,1.93-13.99,1.93-13.99c2.37-10.48,8.81-27.14,8.81-27.14c0.27-0.67-0.01-0.85-0.29-0.73
		c-0.28,0.13-0.61,0.58-0.61,0.58c-12.36,18.19-20.59,31.74-20.59,31.74c-1.03,1.49-1.47-0.11-1.47-0.11
		c0.12-6.66,1.06-31.42,1.06-31.42c0.04-0.64-0.08-0.82-0.22-0.85c-0.37-0.03-0.58,0.63-0.58,0.63c-0.33,0.65-7.53,20.5-12.43,33.15
		c-3.67,9.44-5.44,12.67-5.44,12.67c-1.13,1.82-2.7,2.46-4.32,2.94c-2.88,0.89-4.68,0.5-4.68,0.5c-1.25-0.24-0.41-1.2-0.41-1.2
		c4.18-2.81,9.89-12.1,14.49-22.2c7.18-15.73,12.47-32.34,12.47-32.34c0.42-1.44,0.45-2.34,0.23-2.84
		c-0.31-0.68-1.18-0.67-1.18-0.67c-8.63,0-13.63,9.99-13.63,9.99c-3.61,7.16-0.71,12.62-0.71,12.62c0.37,1-0.62,0.7-0.62,0.7
		c-7.53-2.86-4.66-11.88-4.66-11.88s3.35-15.61,29.37-13.71c0,0,0.45,0.06,0.44,0.61c0,0-1.36,22.32-1.39,27.34
		c0,0,0.26,1.43,0.94,0.2c0,0,12.79-19.08,18.85-27.47c0,0,0.23-0.53,0.98-0.53c0,0,4.71-0.17,9.55-0.03c0,0,0.68,0.1,0.64,0.52
		c0,0.19-0.07,0.44-0.58,0.72c0,0-1.98,0.63-4.44,4.31c-1.01,1.51-1.88,3.27-3.04,6.19c0,0-6.72,17.08-10.01,30.68
		C87.36,103.58,85.81,109.93,85.58,116.49z"/>
	<path class="st29" d="M69.09,123.51c0.42-6.12,3.74-10.01,6.79-12.42c4.75-3.78,10.79-3.34,10.79-3.34
		c3.18,0.02,5.35,0.67,7.03,1.54c3.89,1.97,4.63,5.15,4.63,5.15c0.58,2.05,0.36,4.04-0.08,5.43c-1.2,3.86-4.88,4.8-4.88,4.8
		c-1.54,0.51-0.5-0.84-0.5-0.84c0.92-1.99,1.32-4.01,1.33-5.58c0.03-6.89-5.3-8.05-5.3-8.05c-2.63-0.7-5.46-0.29-7.37,0.4
		c-6.99,2.47-7.49,11.09-7.49,11.09c-1.39,11.88,8.27,15.38,8.27,15.38c11.32,4.27,20.32-4.19,20.32-4.19
		c7.86-7.38,4.69-16.52,4.69-16.52c-1.04-3.96-6.71-12.8-6.71-12.8c-2.67-3.79-4.26-7.09-4.92-9.63c-0.95-3.71-0.49-7.54,0.83-10.45
		c1.79-3.97,5.84-8.87,14.59-10.22c0,0,7.12-1.16,11.69,0.97c0,0,0.44,0.29,0.27,0.81c0,0-2.46,4.87-3.58,8.09
		c0,0-0.17,0.48-0.56,0.66c-0.37,0.14-1.1,0.1-1.04-0.8c0,0,0.9-8.44-6.49-7.46c0,0-5.92,0.4-8.37,6.17
		c-0.57,1.34-1.76,5.06-0.27,9.17c0.82,2.29,2.83,6.15,5.19,9.45c0,0,6.82,9.69,7.23,15.18c0,0,2.46,14.41-13.89,22.26
		c0,0-13,6.35-24.66-0.1C76.63,137.65,68.37,133.81,69.09,123.51z"/>
	<path class="st30" d="M69.09,123.51c0.42-6.12,3.74-10.01,6.79-12.42c4.75-3.78,10.79-3.34,10.79-3.34
		c3.18,0.02,5.35,0.67,7.03,1.54c3.89,1.97,4.63,5.15,4.63,5.15c0.58,2.05,0.36,4.04-0.08,5.43c-1.2,3.86-4.88,4.8-4.88,4.8
		c-1.54,0.51-0.5-0.84-0.5-0.84c0.92-1.99,1.32-4.01,1.33-5.58c0.03-6.89-5.3-8.05-5.3-8.05c-2.63-0.7-5.46-0.29-7.37,0.4
		c-6.99,2.47-7.49,11.09-7.49,11.09c-1.39,11.88,8.27,15.38,8.27,15.38c11.32,4.27,20.32-4.19,20.32-4.19
		c7.86-7.38,4.69-16.52,4.69-16.52c-1.04-3.96-6.71-12.8-6.71-12.8c-2.67-3.79-4.26-7.09-4.92-9.63c-0.95-3.71-0.49-7.54,0.83-10.45
		c1.79-3.97,5.84-8.87,14.59-10.22c0,0,7.12-1.16,11.69,0.97c0,0,0.44,0.29,0.27,0.81c0,0-2.46,4.87-3.58,8.09
		c0,0-0.17,0.48-0.56,0.66c-0.37,0.14-1.1,0.1-1.04-0.8c0,0,0.9-8.44-6.49-7.46c0,0-5.92,0.4-8.37,6.17
		c-0.57,1.34-1.76,5.06-0.27,9.17c0.82,2.29,2.83,6.15,5.19,9.45c0,0,6.82,9.69,7.23,15.18c0,0,2.46,14.41-13.89,22.26
		c0,0-13,6.35-24.66-0.1C76.63,137.65,68.37,133.81,69.09,123.51z"/>
	<path class="st29" d="M129.93,122.26c-8.77,0.17-12.1-5.58-12.95-12.19c-1.23-9.53,3.46-21.98,3.46-21.98s7.7-28.62,27.2-27.28
		c0,0,5.06,0.45,7.8,2.13c0,0,0.55,0.36,0.35,0.97c0,0-4.2,9.41-4.43,13.06c0,0-0.17,0.65-1.01,0.38c-3.08-1.05-4.69-4.44-3.47-7.71
		c0.39-1.07,0.75-2,1.24-3.32c0.57-1.46,0.66-2.18,0.64-2.46c-0.01-0.36-0.33-0.56-0.33-0.56c-0.68-0.29-1.66-0.36-2.44-0.31
		c-2.42,0.14-4.25,1.5-4.25,1.5c-7.96,5.49-14.35,27.43-14.35,27.43s-8.95,27.16,2.19,28.03c0,0,7.1,1.66,12.56-9.67
		c0,0,3.58-6.77,4.59-14.75c0,0,0.08-0.79,0.56-0.92c0.34-0.08,0.65,0.23,0.92,1.06c0,0,3.45,7.47-1.76,16.75
		C146.43,112.42,142.26,122.01,129.93,122.26z"/>
	<path class="st30" d="M129.93,122.26c-8.77,0.17-12.1-5.58-12.95-12.19c-1.23-9.53,3.46-21.98,3.46-21.98s7.7-28.62,27.2-27.28
		c0,0,5.06,0.45,7.8,2.13c0,0,0.55,0.36,0.35,0.97c0,0-4.2,9.41-4.43,13.06c0,0-0.17,0.65-1.01,0.38c-3.08-1.05-4.69-4.44-3.47-7.71
		c0.39-1.07,0.75-2,1.24-3.32c0.57-1.46,0.66-2.18,0.64-2.46c-0.01-0.36-0.33-0.56-0.33-0.56c-0.68-0.29-1.66-0.36-2.44-0.31
		c-2.42,0.14-4.25,1.5-4.25,1.5c-7.96,5.49-14.35,27.43-14.35,27.43s-8.95,27.16,2.19,28.03c0,0,7.1,1.66,12.56-9.67
		c0,0,3.58-6.77,4.59-14.75c0,0,0.08-0.79,0.56-0.92c0.34-0.08,0.65,0.23,0.92,1.06c0,0,3.45,7.47-1.76,16.75
		C146.43,112.42,142.26,122.01,129.93,122.26z"/>
</g>
</svg>
