<?xml version="1.0" encoding="utf-8"?>
<!-- Generator: Adobe Illustrator 25.4.1, SVG Export Plug-In . SVG Version: 6.00 Build 0)  -->
<svg version="1.1" xmlns="http://www.w3.org/2000/svg" xmlns:xlink="http://www.w3.org/1999/xlink" x="0px" y="0px"
	 viewBox="0 0 200 113.77" style="enable-background:new 0 0 200 113.77;" xml:space="preserve">
<style type="text/css">
	.st0{display:none;}
	.st1{display:inline;opacity:0.8;}
	.st2{fill-rule:evenodd;clip-rule:evenodd;}
	.st3{opacity:0.8;}
	.st4{display:inline;}
	.st5{opacity:0.8;fill-rule:evenodd;clip-rule:evenodd;}
	.st6{clip-path:url(#SVGID_00000132071136365377254990000003957887442364676543_);}
	.st7{clip-path:url(#SVGID_00000119091748557701509020000015470109389540186276_);}
	.st8{fill:#333333;}
	.st9{fill:#DBDBDB;}
	.st10{fill:#3F3F3F;}
	.st11{fill:#FFFFFA;}
	.st12{fill:#DEDEDE;}
	.st13{fill:#979797;}
	.st14{fill:#484848;}
	.st15{fill:#4D4D4D;}
	.st16{fill:#6F6F6F;}
	.st17{fill:none;stroke:#000000;stroke-width:2;stroke-miterlimit:3.8637;}
	.st18{display:inline;opacity:0.8;fill-rule:evenodd;clip-rule:evenodd;}
	.st19{fill-rule:evenodd;clip-rule:evenodd;fill:none;stroke:#000000;stroke-miterlimit:10;}
	.st20{fill:#1D1D1B;}
	.st21{fill:#FFE13A;}
	.st22{fill:#009EE2;}
	.st23{fill-rule:evenodd;clip-rule:evenodd;fill:#009EE2;}
	.st24{fill:#0D2B60;}
	.st25{fill:#D6430D;}
	.st26{fill:#F5A300;}
	.st27{fill:#AABC14;}
	.st28{fill:#CCA857;}
	.st29{fill:#791525;}
	.st30{fill:none;stroke:#791525;stroke-width:0.0496;}
	.st31{fill:#00A651;}
	.st32{fill:#005E9E;}
	.st33{fill:#FFCB05;}
	.st34{fill:#ED1C24;}
	.st35{fill-rule:evenodd;clip-rule:evenodd;fill:#ED1C24;}
	.st36{fill-rule:evenodd;clip-rule:evenodd;fill:#00A651;}
	.st37{opacity:0.8;fill:#FFE13A;}
	.st38{fill:#9E250E;}
	.st39{fill:#312C63;}
	.st40{fill-rule:evenodd;clip-rule:evenodd;fill:#312C63;}
	.st41{fill:none;stroke:#7F1313;stroke-width:2;stroke-miterlimit:3.8637;}
	.st42{fill-rule:evenodd;clip-rule:evenodd;fill:#083D79;}
	.st43{fill-rule:evenodd;clip-rule:evenodd;fill:#00168D;}
	.st44{fill:#00168D;}
	.st45{fill:#00376F;}
	.st46{fill:#04A359;}
	.st47{fill-rule:evenodd;clip-rule:evenodd;fill:#113A60;}
	.st48{fill:#113A60;}
	.st49{opacity:0.8;fill-rule:evenodd;clip-rule:evenodd;fill:#027CA9;}
	.st50{opacity:0.8;fill:#027CA9;}
	.st51{fill:#184287;}
	.st52{fill:#1A4486;}
	.st53{fill:#F8D800;}
	.st54{fill:#E50402;}
	.st55{fill:#F3FF1B;}
	.st56{fill:#0C790D;}
	.st57{fill:#FFFFFF;}
	.st58{fill:#FCDD09;}
	.st59{fill:#EB7711;}
	.st60{fill:#DA121A;}
	.st61{fill:#742C64;}
	.st62{fill:#0F47AF;}
	.st63{fill:#078930;}
	.st64{fill:none;}
</style>
<g id="Capa_1" class="st0">
	<path class="st1" d="M112.35,65.96c-0.72-5.47-12.39-5.51-18.16-5.2c-6.74,0.36-13.44,1.66-16.73,5.68
		c-1.51,1.85-2.24,4.34-3.47,7.26c-1.01,2.37-2.65,5.32-2.21,7.58c0.87,4.55,9.04,4.89,14.84,4.89c6.58,0,12.69-0.85,16.57-3.16
		c3.73-2.2,4.91-5.47,6.79-9.78C110.9,71.13,112.69,68.52,112.35,65.96z M101.46,72.75c-1.53,3.57-2.33,6.85-5.21,8.69
		c-3.38,2.15-13.45,3.39-16.58-0.48c-0.12-2.7,1.36-5.13,2.37-7.42c1-2.26,1.71-4.79,3.16-6.47c2.15-2.5,6.22-3.6,10.89-3.63
		c2.57-0.02,6.92,0.31,7.58,2.52C104.25,67.92,102.21,70.99,101.46,72.75z"/>
	<path class="st1" d="M73.83,54.6c-0.53-4.15-7.39-5.9-9.16-6c-9.73-0.58-23.34-0.81-34.57-0.63c-0.12,0.82-0.75,1.14-0.79,2.05
		c0.97,0.06,3.01-0.14,3.32,1.26c0.23,1.06-1.09,3.22-1.58,4.42c-4.15,10.16-8.72,21.07-12.48,30.47
		c16.45-0.24,41.43,2.27,49.26-7.73c1.01-1.29,1.99-3.13,2.21-5.06c0.66-5.85-4.61-5.89-9-6.94c4.28-0.97,8.84-3.06,11.05-6.32
		C73.05,58.72,74.07,56.49,73.83,54.6z M61.2,72.91c0.4,3.46-2.83,6.92-5.21,8.37c-6.37,3.88-18.6,2.03-28.1,2.52
		c2.31-5.21,4.28-10.77,6.79-15.78C39.87,68.33,60.33,65.46,61.2,72.91z M59.62,63.28c-5.58,3.22-16.64,2.45-24,2.53
		c1.91-5.31,4.11-10.32,6.16-15.47c0.12-0.15,0.29-0.24,0.48-0.32c4.18,0.1,8.36-0.13,12.94,0c3.69,0.1,8.69,0.59,9.63,3.16
		C66.35,57.36,62.19,61.8,59.62,63.28z"/>
	<path class="st1" d="M154.17,86.26c0,0-2.15-17.92-2.53-21.05c-1.19-9.89-1.75-15.74-2.67-16.93c-3.18-0.66-7.52-0.16-11.21-0.32
		c-0.33,0.79-2.15,1.55-1.58,2.21c0.5-0.09,2.15-0.35,2.53,0.47c-0.56,1.97-2.16,3.46-3.47,4.89c-8.64,9.44-17.38,18.8-26.05,28.57
		c-0.66,0.74-1.72,1.42-1.58,2.05c1.68,0,3.37,0,5.05,0c4.66-5.03,26.46-29.24,29.21-31.73c0.41,4.12,3.95,31.73,3.95,31.73
		L154.17,86.26z"/>
	<path class="st1" d="M182.09,4.03c0,0-5.19,1.75-8.77,8c-3.4,5.94-10.24,24.63-12.14,32.63c-1.33,5.62-5.96,12.4-7.26,14.98
		c-6,11.89-12,13.75-14.28,13.86c-6.52,0.32-9.72-4.21-9.72-4.21l3.72-0.32c0,0,2.7,2.55,6.7,0.18c4.49-2.67,7.86-10.59,10.38-16.91
		c3.59-8.98,7.29-23.31,9.05-26.8c7.72-15.3,10.8-16.9,14.52-19.15C178.13,3.96,182.09,4.03,182.09,4.03z"/>
	<path class="st1" d="M178.62,7.12c-1.86,1.3-4.28,4.39-4.28,4.39s4.12-6.91,8.59-6.28c6,0.84,9.47,12.63,9.47,12.63
		s-4.43-6.82-8.21-9.93C182.66,6.66,180.18,6.03,178.62,7.12z"/>
	<path class="st1" d="M186.58,18.66c0,0-5.82,0.7-9.4,6.95c-3.4,5.94-4.98,8.45-8.63,15.79c-2.57,5.17-8.17,17.87-9.47,20.45
		c-6,11.89-11.26,13.22-13.54,13.33c-6.52,0.32-10.45-3.68-10.45-3.68l3.72-0.32c0,0,2.74,2.19,6.21-0.63
		c6.74-5.47,10.72-18.85,15.12-27.47c2.46-4.81,5.81-11.18,8.1-14.35c4-5.51,7.75-8.64,12.24-9.89
		C182.86,18.17,186.58,18.66,186.58,18.66z"/>
	<path class="st1" d="M178.62,24.59c0,0,3.55-5.5,8-4.75c5.5,0.93,9.19,13.56,9.19,13.56s-5.8-10.37-10.45-12.35
		C182.62,19.88,178.62,24.59,178.62,24.59z"/>
	<path class="st1" d="M181.67,40.65c0,0-5.19,0.63-8.21,5.54c-1.8,2.93-8.67,14.87-8.67,14.87s-5.14,7.26-6.91,9.54
		c-2.46,3.16-6.81,5.82-9.09,5.93c-6.03,0.28-8.17-3.19-8.17-3.19l2.77-0.21c0,0,2.7,1.47,5.16,0.14c3.56-1.93,7.71-9.09,9.82-12.42
		c1.85-2.91,5.34-8.3,7.58-11.51c2.11-3.02,6.47-7.24,10.95-8.56C178.72,40.26,181.67,40.65,181.67,40.65z"/>
	<path class="st1" d="M175.61,44.47c0,0,2.85-3.28,5.39-2.89c4.03,0.6,5.89,9.31,5.89,9.31s-3.05-6.95-6.21-8.42
		C178.83,41.6,175.61,44.47,175.61,44.47z"/>
	<path class="st1" d="M145.66,97.86c-2.51,3.12-5.14,6.13-7.74,9.16c-0.84,0-1.68,0-2.53,0c0.19-3.02,0.4-6.02,0.63-9
		c0.63,0,1.26,0,1.89,0c-0.08,2.5-0.4,4.75-0.47,7.26c2-1.95,4.19-5.07,6.31-7.42C144.4,97.86,145.03,97.86,145.66,97.86z"/>
	<path class="st1" d="M191.28,98.01c2.04-0.49,5.92-0.93,6.47,0.95c0.66,2.25-2.87,6.02-2.84,8.05c-0.68,0-1.37,0-2.05,0
		c0.39-1.32,0.82-2.35,1.42-3.79c0.63-1.5,2.56-4.19,0.16-4.74c-4.85-1.1-5.18,5.85-6.95,8.53c-0.63,0-1.26,0-1.89,0
		c1.3-3.18,2.6-6.35,3.95-9.47c0.53,0,1.05,0,1.58,0C191.73,97.51,191.19,97.67,191.28,98.01z"/>
	<path class="st1" d="M185.92,98.8c-0.49-1.11-2.94-1.34-4.27-1.26c-4.95,0.29-6.09,4.05-6.78,8.21c1.98,1.93,6.55,1.68,8.52-0.16
		C184.4,104.65,186.54,100.23,185.92,98.8z M177.08,105.59c-0.13-3.65,2.46-8.78,6.79-6.47C183.4,102.82,181.61,107.5,177.08,105.59
		z"/>
	<path class="st1" d="M175.81,97.54c-1.12,3.3-2.6,6.24-3.79,9.47c-0.68,0-1.37,0-2.05,0c1.36-3.12,2.68-6.27,3.95-9.47
		C174.55,97.54,175.18,97.54,175.81,97.54z"/>
	<path class="st1" d="M171.39,100.07c-0.63,0-1.26,0-1.89,0c-0.55,0.08,0.16-1.09-0.47-1.26c-3.32-1.19-4.83,0.79-5.84,3.16
		c-0.42,0.99-1.29,2.44-1.11,3.16c0.48,1.84,4.88,1.02,5.37-0.63c0.63,0,1.26,0,1.89,0c-0.6,2.9-7.29,3.42-9.16,1.26
		c0.67-4.01,1.85-8.03,6.95-8.21C168.95,97.48,172.09,97.66,171.39,100.07z"/>
	<path class="st1" d="M157.03,107.01c-0.74,0-1.47,0-2.21,0c0.76-1.71,1.43-3.51,2.21-5.21c-5.53-1.88-9.36,5.82-2.68,3.95
		c-0.67,2.41-5.51,1.15-5.68-0.32c-0.41-3.62,4.31-5.05,8.68-4.58c0.26-0.47,0.52-0.99,0.32-1.58c-0.76-2.26-5.01,1.17-5.21-1.11
		c2.22-0.62,6.89-1.35,7.42,0.95C160.41,101.45,157,104.82,157.03,107.01z"/>
	<path class="st1" d="M149.45,97.54c-1.32,3.16-2.62,6.33-3.95,9.47c-0.63,0-1.26,0-1.89,0c1.24-3.24,2.57-6.37,3.95-9.47
		C148.19,97.54,148.82,97.54,149.45,97.54z"/>
	<path class="st1" d="M174.87,95.49c0.85,0.22,0.95-0.03,1.89,0.16c-0.13,0.4-0.43,0.62-0.47,1.11c-0.68,0-1.37,0-2.05,0
		C174.44,96.33,174.66,95.91,174.87,95.49z"/>
	<path class="st1" d="M148.34,95.49c0.59,0.14,1.32,0.13,1.74,0c0.45,0.36-0.26,0.89-0.32,1.26c-0.63,0-1.26,0-1.89,0
		C147.97,96.27,148.21,95.93,148.34,95.49z"/>
	<path class="st1" d="M127.98,96.12c0.38,0.1,1.14-0.2,1.26,0.16c-2.38,3.82-5.39,7.03-7.89,10.73h2.05
		c0.88-0.82,1.26-2.88,2.69-3.31c1.23-0.38,2.85,0.13,4.42,0.16c-0.02,1.08,0.08,2.29-0.16,3.15h2.05
		c0.07-3.77,0.19-7.49,0.32-11.21C131.86,95.25,128.33,94.76,127.98,96.12z M130.51,102.43h-3.64c1.08-1.82,2.51-3.27,3.64-5.05
		C130.85,98.78,130.65,101,130.51,102.43z"/>
	<path class="st1" d="M185.92,95.17c0,0.16,0,0.32,0,0.47c-0.79,0.9-2.47,0.89-3.47,1.58C182.53,96.19,184.77,95.15,185.92,95.17z"
		/>
	<path class="st1" d="M46.52,97.81c-2.46,3.17-5.12,6.14-7.74,9.16c-0.82-0.08-1.96,0.17-2.53-0.16c0.26-2.89,0.48-5.84,0.63-8.84
		c0.63,0,1.26,0,1.89,0c-0.06,2.52-0.29,4.86-0.47,7.26c2.11-1.89,4.17-5.19,6.47-7.42C45.36,97.81,45.94,97.81,46.52,97.81z"/>
	<path class="st1" d="M79.98,106.97c-0.74,0-1.47,0-2.21,0c0.73-1.74,1.44-3.5,2.21-5.21c-3.63-0.41-6.65,0.59-6.31,3.63
		c0.49,0.94,2.7,0.71,3.63,0.32c-0.62,2.37-5.52,1.18-5.68-0.32c-0.39-3.53,4.2-5.06,8.52-4.58c0.46-0.29,0.68-0.97,0.47-1.58
		c-0.75-2.24-5.02,1.16-5.21-1.11c2.37-0.67,7-1.3,7.42,1.11C83.22,101.48,80.04,104.65,79.98,106.97z"/>
	<path class="st1" d="M64.83,97.97c2.03-0.52,5.91-0.92,6.47,0.95c0.69,2.29-2.82,6.06-2.84,8.05c-0.68,0-1.37,0-2.05,0
		c0.65-2.78,2.65-5.02,2.68-7.89c-5.5-2.57-6.31,4.64-8.05,7.89c-0.63,0-1.26,0-1.89,0c1.34-3.14,2.62-6.33,3.95-9.47
		c0.53,0,1.05,0,1.58,0C65.2,97.39,64.92,97.82,64.83,97.97z"/>
	<path class="st1" d="M56.93,106.97c-0.68,0-1.37,0-2.05,0c0.64-1.73,1.41-3.33,2.05-5.05c-5.24-2.33-9.35,5.7-2.53,3.79
		c-0.69,2.31-5.31,1.23-5.68-0.16c-0.28-1.06,0.6-2.69,1.26-3.32c1.45-1.38,4.57-1.5,7.26-1.42c2.02-2.56-2.85-2.89-4.1-1.58
		c0.04-0.62-0.67-0.48-0.63-1.11c2.19-0.57,6.41-1.28,7.26,0.63C60.76,100.97,57.01,104.95,56.93,106.97z"/>
	<path class="st1" d="M49.36,97.5c-1.09,3.33-2.59,6.25-3.79,9.47c-0.63,0-1.26,0-1.89,0c1.1-3.32,2.62-6.22,3.79-9.47
		C48.09,97.5,48.73,97.5,49.36,97.5z"/>
	<path class="st1" d="M35.31,97.5c-1.07,3.35-2.58,6.26-3.79,9.47c-0.63,0-1.26,0-1.89,0c1.11-3.31,2.65-6.19,3.79-9.47
		C34.04,97.5,34.68,97.5,35.31,97.5z"/>
	<path class="st1" d="M22.05,97.66c-1.79,0.11-3.1,0.35-4.1,1.26c-0.78,0.7-3.09,5.16-2.69,6.63c0.74,2.67,7.36,1.24,8.68-0.16
		c0.47-0.49,1.25-2.19,1.58-3C27.02,98.78,26.16,97.4,22.05,97.66z M17.31,105.39c0.16-3.37,2.57-8.68,6.95-6.31
		C23.75,102.44,21.9,107.95,17.31,105.39z"/>
	<path class="st1" d="M48.41,95.45c0.65,0.22,0.97-0.03,1.89,0c-0.02,0.56-0.45,0.71-0.47,1.26c-0.63,0-1.26,0-1.89,0
		C47.9,96.09,48.27,95.89,48.41,95.45z"/>
	<path class="st1" d="M36.1,95.45c0.35,0.26-0.22,0.93-0.32,1.26c-0.63,0-1.26,0-1.89,0c0.03-0.45,0.29-0.66,0.32-1.11
		C34.94,95.33,35.37,95.73,36.1,95.45z"/>
	<path class="st1" d="M15.89,96.71c-0.71-2.49-6.88-1.11-9.63-1.26c-0.03,0.12,0,0.31-0.16,0.31c-0.07,0.65,1.12,0.05,1.11,0.63
		c-1.34,3.6-2.88,7.01-4.26,10.58c5.56,0.09,11.45,0.51,11.52-4.89c-0.1-0.64-0.77-0.7-0.95-1.27
		C14.91,100.16,16.35,98.3,15.89,96.71z M5.32,105.71c0.43-1.51,1.04-2.86,1.73-4.11c2.08,0.08,4.69-0.37,5.53,0.95
		C12.41,105.85,8.83,105.74,5.32,105.71z M7.53,100.34c0.37-1.36,1.11-2.36,1.42-3.79c1.84,0.11,4.29-0.4,5.05,0.79
		C13.99,100.49,10.85,100.51,7.53,100.34z"/>
	<path class="st1" d="M31.99,94.81c0.27-0.06,0.3,0.12,0.32,0.32c-1.76,3.81-3.38,7.77-4.89,11.84c-0.68,0-1.37,0-2.05,0
		c1.51-3.91,3.17-7.67,4.74-11.52C30.57,95.08,31.57,95.24,31.99,94.81z"/>
	<path class="st1" d="M113.14,102.75c0.29-1.65,1.75-2.88,0.79-4.26c-1.22-1.74-6.74-0.98-8.37,0.63c-0.67,0.67-2.79,5.04-2.53,6.32
		c0.59,2.81,9.29,1.88,9.32-1.11h-1.9c-0.5,1.53-3.91,2.5-5.37,1.11c-0.23-0.88,0.27-2.08,0.79-2.69H113.14z M112.03,99.12
		c0.17,1.28-0.42,1.79-0.63,2.68h-5.21C106.38,99.26,109.68,97.54,112.03,99.12z"/>
	<path class="st1" d="M102.24,95.33c-0.43,0.67-0.57,1.64-1.1,2.21c-2.57,0.13-5.53-0.31-7.42,1.58c-0.85,0.85-2.89,5.16-2.53,6.47
		c0.5,1.83,4.36,1.65,6.32,0.95c-0.59,0.82,1.27,0.35,1.89,0.47c1.58-3.99,3.73-8.26,4.9-12.15
		C103.7,95.1,103.01,95.26,102.24,95.33z M93.24,105.59c0.45-3.83,1.77-8.11,7.58-7.1C99.43,101.74,98.51,107.77,93.24,105.59z"/>
</g>
<g id="Capa_2">
	<path class="st24" d="M112.35,65.96c-0.72-5.47-12.39-5.51-18.16-5.2c-6.74,0.36-13.44,1.66-16.73,5.68
		c-1.51,1.85-2.24,4.34-3.47,7.26c-1.01,2.37-2.65,5.32-2.21,7.58c0.87,4.55,9.04,4.89,14.84,4.89c6.58,0,12.69-0.85,16.57-3.16
		c3.73-2.2,4.91-5.47,6.79-9.78C110.9,71.13,112.69,68.52,112.35,65.96z M101.46,72.75c-1.53,3.57-2.33,6.85-5.21,8.69
		c-3.38,2.15-13.45,3.39-16.58-0.48c-0.12-2.7,1.36-5.13,2.37-7.42c1-2.26,1.71-4.79,3.16-6.47c2.15-2.5,6.22-3.6,10.89-3.63
		c2.57-0.02,6.92,0.31,7.58,2.52C104.25,67.92,102.21,70.99,101.46,72.75z"/>
	<path class="st24" d="M73.83,54.6c-0.53-4.15-7.39-5.9-9.16-6c-9.73-0.58-23.34-0.81-34.57-0.63c-0.12,0.82-0.75,1.14-0.79,2.05
		c0.97,0.06,3.01-0.14,3.32,1.26c0.23,1.06-1.09,3.22-1.58,4.42c-4.15,10.16-8.72,21.07-12.48,30.47
		c16.45-0.24,41.43,2.27,49.26-7.73c1.01-1.29,1.99-3.13,2.21-5.06c0.66-5.85-4.61-5.89-9-6.94c4.28-0.97,8.84-3.06,11.05-6.32
		C73.05,58.72,74.07,56.49,73.83,54.6z M61.2,72.91c0.4,3.46-2.83,6.92-5.21,8.37c-6.37,3.88-18.6,2.03-28.1,2.52
		c2.31-5.21,4.28-10.77,6.79-15.78C39.87,68.33,60.33,65.46,61.2,72.91z M59.62,63.28c-5.58,3.22-16.64,2.45-24,2.53
		c1.91-5.31,4.11-10.32,6.16-15.47c0.12-0.15,0.29-0.24,0.48-0.32c4.18,0.1,8.36-0.13,12.94,0c3.69,0.1,8.69,0.59,9.63,3.16
		C66.35,57.36,62.19,61.8,59.62,63.28z"/>
	<path class="st24" d="M154.17,86.26c0,0-2.15-17.92-2.53-21.05c-1.19-9.89-1.75-15.74-2.67-16.93c-3.18-0.66-7.52-0.16-11.21-0.32
		c-0.33,0.79-2.15,1.55-1.58,2.21c0.5-0.09,2.15-0.35,2.53,0.47c-0.56,1.97-2.16,3.46-3.47,4.89c-8.64,9.44-17.38,18.8-26.05,28.57
		c-0.66,0.74-1.72,1.42-1.58,2.05c1.68,0,3.37,0,5.05,0c4.66-5.03,26.46-29.24,29.21-31.73c0.41,4.12,3.95,31.73,3.95,31.73
		L154.17,86.26z"/>
	<path class="st25" d="M182.09,4.03c0,0-5.19,1.75-8.77,8c-3.4,5.94-10.24,24.63-12.14,32.63c-1.33,5.62-5.96,12.4-7.26,14.98
		c-6,11.89-12,13.75-14.28,13.86c-6.52,0.32-9.72-4.21-9.72-4.21l3.72-0.32c0,0,2.7,2.55,6.7,0.18c4.49-2.67,7.86-10.59,10.38-16.91
		c3.59-8.98,7.29-23.31,9.05-26.8c7.72-15.3,10.8-16.9,14.52-19.15C178.13,3.96,182.09,4.03,182.09,4.03z"/>
	<path class="st25" d="M178.62,7.12c-1.86,1.3-4.28,4.39-4.28,4.39s4.12-6.91,8.59-6.28c6,0.84,9.47,12.63,9.47,12.63
		s-4.43-6.82-8.21-9.93C182.66,6.66,180.18,6.03,178.62,7.12z"/>
	<path class="st26" d="M186.58,18.66c0,0-5.82,0.7-9.4,6.95c-3.4,5.94-4.98,8.45-8.63,15.79c-2.57,5.17-8.17,17.87-9.47,20.45
		c-6,11.89-11.26,13.22-13.54,13.33c-6.52,0.32-10.45-3.68-10.45-3.68l3.72-0.32c0,0,2.74,2.19,6.21-0.63
		c6.74-5.47,10.72-18.85,15.12-27.47c2.46-4.81,5.81-11.18,8.1-14.35c4-5.51,7.75-8.64,12.24-9.89
		C182.86,18.17,186.58,18.66,186.58,18.66z"/>
	<path class="st26" d="M178.62,24.59c0,0,3.55-5.5,8-4.75c5.5,0.93,9.19,13.56,9.19,13.56s-5.8-10.37-10.45-12.35
		C182.62,19.88,178.62,24.59,178.62,24.59z"/>
	<path class="st27" d="M181.67,40.65c0,0-5.19,0.63-8.21,5.54c-1.8,2.93-8.67,14.87-8.67,14.87s-5.14,7.26-6.91,9.54
		c-2.46,3.16-6.81,5.82-9.09,5.93c-6.03,0.28-8.17-3.19-8.17-3.19l2.77-0.21c0,0,2.7,1.47,5.16,0.14c3.56-1.93,7.71-9.09,9.82-12.42
		c1.85-2.91,5.34-8.3,7.58-11.51c2.11-3.02,6.47-7.24,10.95-8.56C178.72,40.26,181.67,40.65,181.67,40.65z"/>
	<path class="st27" d="M175.61,44.47c0,0,2.85-3.28,5.39-2.89c4.03,0.6,5.89,9.31,5.89,9.31s-3.05-6.95-6.21-8.42
		C178.83,41.6,175.61,44.47,175.61,44.47z"/>
	<path class="st24" d="M145.66,97.86c-2.51,3.12-5.14,6.13-7.74,9.16c-0.84,0-1.68,0-2.53,0c0.19-3.02,0.4-6.02,0.63-9
		c0.63,0,1.26,0,1.89,0c-0.08,2.5-0.4,4.75-0.47,7.26c2-1.95,4.19-5.07,6.31-7.42C144.4,97.86,145.03,97.86,145.66,97.86z"/>
	<path class="st24" d="M191.28,98.01c2.04-0.49,5.92-0.93,6.47,0.95c0.66,2.25-2.87,6.02-2.84,8.05c-0.68,0-1.37,0-2.05,0
		c0.39-1.32,0.82-2.35,1.42-3.79c0.63-1.5,2.56-4.19,0.16-4.74c-4.85-1.1-5.18,5.85-6.95,8.53c-0.63,0-1.26,0-1.89,0
		c1.3-3.18,2.6-6.35,3.95-9.47c0.53,0,1.05,0,1.58,0C191.73,97.51,191.19,97.67,191.28,98.01z"/>
	<path class="st24" d="M185.92,98.8c-0.49-1.11-2.94-1.34-4.27-1.26c-4.95,0.29-6.09,4.05-6.78,8.21c1.98,1.93,6.55,1.68,8.52-0.16
		C184.4,104.65,186.54,100.23,185.92,98.8z M177.08,105.59c-0.13-3.65,2.46-8.78,6.79-6.47C183.4,102.82,181.61,107.5,177.08,105.59
		z"/>
	<path class="st24" d="M175.81,97.54c-1.12,3.3-2.6,6.24-3.79,9.47c-0.68,0-1.37,0-2.05,0c1.36-3.12,2.68-6.27,3.95-9.47
		C174.55,97.54,175.18,97.54,175.81,97.54z"/>
	<path class="st24" d="M171.39,100.07c-0.63,0-1.26,0-1.89,0c-0.55,0.08,0.16-1.09-0.47-1.26c-3.32-1.19-4.83,0.79-5.84,3.16
		c-0.42,0.99-1.29,2.44-1.11,3.16c0.48,1.84,4.88,1.02,5.37-0.63c0.63,0,1.26,0,1.89,0c-0.6,2.9-7.29,3.42-9.16,1.26
		c0.67-4.01,1.85-8.03,6.95-8.21C168.95,97.48,172.09,97.66,171.39,100.07z"/>
	<path class="st24" d="M157.03,107.01c-0.74,0-1.47,0-2.21,0c0.76-1.71,1.43-3.51,2.21-5.21c-5.53-1.88-9.36,5.82-2.68,3.95
		c-0.67,2.41-5.51,1.15-5.68-0.32c-0.41-3.62,4.31-5.05,8.68-4.58c0.26-0.47,0.52-0.99,0.32-1.58c-0.76-2.26-5.01,1.17-5.21-1.11
		c2.22-0.62,6.89-1.35,7.42,0.95C160.41,101.45,157,104.82,157.03,107.01z"/>
	<path class="st24" d="M149.45,97.54c-1.32,3.16-2.62,6.33-3.95,9.47c-0.63,0-1.26,0-1.89,0c1.24-3.24,2.57-6.37,3.95-9.47
		C148.19,97.54,148.82,97.54,149.45,97.54z"/>
	<path class="st24" d="M174.87,95.49c0.85,0.22,0.95-0.03,1.89,0.16c-0.13,0.4-0.43,0.62-0.47,1.11c-0.68,0-1.37,0-2.05,0
		C174.44,96.33,174.66,95.91,174.87,95.49z"/>
	<path class="st24" d="M148.34,95.49c0.59,0.14,1.32,0.13,1.74,0c0.45,0.36-0.26,0.89-0.32,1.26c-0.63,0-1.26,0-1.89,0
		C147.97,96.27,148.21,95.93,148.34,95.49z"/>
	<path class="st24" d="M127.98,96.12c0.38,0.1,1.14-0.2,1.26,0.16c-2.38,3.82-5.39,7.03-7.89,10.73h2.05
		c0.88-0.82,1.26-2.88,2.69-3.31c1.23-0.38,2.85,0.13,4.42,0.16c-0.02,1.08,0.08,2.29-0.16,3.15h2.05
		c0.07-3.77,0.19-7.49,0.32-11.21C131.86,95.25,128.33,94.76,127.98,96.12z M130.51,102.43h-3.64c1.08-1.82,2.51-3.27,3.64-5.05
		C130.85,98.78,130.65,101,130.51,102.43z"/>
	<path class="st24" d="M185.92,95.17c0,0.16,0,0.32,0,0.47c-0.79,0.9-2.47,0.89-3.47,1.58C182.53,96.19,184.77,95.15,185.92,95.17z"
		/>
	<path class="st24" d="M46.52,97.81c-2.46,3.17-5.12,6.14-7.74,9.16c-0.82-0.08-1.96,0.17-2.53-0.16c0.26-2.89,0.48-5.84,0.63-8.84
		c0.63,0,1.26,0,1.89,0c-0.06,2.52-0.29,4.86-0.47,7.26c2.11-1.89,4.17-5.19,6.47-7.42C45.36,97.81,45.94,97.81,46.52,97.81z"/>
	<path class="st24" d="M79.98,106.97c-0.74,0-1.47,0-2.21,0c0.73-1.74,1.44-3.5,2.21-5.21c-3.63-0.41-6.65,0.59-6.31,3.63
		c0.49,0.94,2.7,0.71,3.63,0.32c-0.62,2.37-5.52,1.18-5.68-0.32c-0.39-3.53,4.2-5.06,8.52-4.58c0.46-0.29,0.68-0.97,0.47-1.58
		c-0.75-2.24-5.02,1.16-5.21-1.11c2.37-0.67,7-1.3,7.42,1.11C83.22,101.48,80.04,104.65,79.98,106.97z"/>
	<path class="st24" d="M64.83,97.97c2.03-0.52,5.91-0.92,6.47,0.95c0.69,2.29-2.82,6.06-2.84,8.05c-0.68,0-1.37,0-2.05,0
		c0.65-2.78,2.65-5.02,2.68-7.89c-5.5-2.57-6.31,4.64-8.05,7.89c-0.63,0-1.26,0-1.89,0c1.34-3.14,2.62-6.33,3.95-9.47
		c0.53,0,1.05,0,1.58,0C65.2,97.39,64.92,97.82,64.83,97.97z"/>
	<path class="st24" d="M56.93,106.97c-0.68,0-1.37,0-2.05,0c0.64-1.73,1.41-3.33,2.05-5.05c-5.24-2.33-9.35,5.7-2.53,3.79
		c-0.69,2.31-5.31,1.23-5.68-0.16c-0.28-1.06,0.6-2.69,1.26-3.32c1.45-1.38,4.57-1.5,7.26-1.42c2.02-2.56-2.85-2.89-4.1-1.58
		c0.04-0.62-0.67-0.48-0.63-1.11c2.19-0.57,6.41-1.28,7.26,0.63C60.76,100.97,57.01,104.95,56.93,106.97z"/>
	<path class="st24" d="M49.36,97.5c-1.09,3.33-2.59,6.25-3.79,9.47c-0.63,0-1.26,0-1.89,0c1.1-3.32,2.62-6.22,3.79-9.47
		C48.09,97.5,48.73,97.5,49.36,97.5z"/>
	<path class="st24" d="M35.31,97.5c-1.07,3.35-2.58,6.26-3.79,9.47c-0.63,0-1.26,0-1.89,0c1.11-3.31,2.65-6.19,3.79-9.47
		C34.04,97.5,34.68,97.5,35.31,97.5z"/>
	<path class="st24" d="M22.05,97.66c-1.79,0.11-3.1,0.35-4.1,1.26c-0.78,0.7-3.09,5.16-2.69,6.63c0.74,2.67,7.36,1.24,8.68-0.16
		c0.47-0.49,1.25-2.19,1.58-3C27.02,98.78,26.16,97.4,22.05,97.66z M17.31,105.39c0.16-3.37,2.57-8.68,6.95-6.31
		C23.75,102.44,21.9,107.95,17.31,105.39z"/>
	<path class="st24" d="M48.41,95.45c0.65,0.22,0.97-0.03,1.89,0c-0.02,0.56-0.45,0.71-0.47,1.26c-0.63,0-1.26,0-1.89,0
		C47.9,96.09,48.27,95.89,48.41,95.45z"/>
	<path class="st24" d="M36.1,95.45c0.35,0.26-0.22,0.93-0.32,1.26c-0.63,0-1.26,0-1.89,0c0.03-0.45,0.29-0.66,0.32-1.11
		C34.94,95.33,35.37,95.73,36.1,95.45z"/>
	<path class="st24" d="M15.89,96.71c-0.71-2.49-6.88-1.11-9.63-1.26c-0.03,0.12,0,0.31-0.16,0.31c-0.07,0.65,1.12,0.05,1.11,0.63
		c-1.34,3.6-2.88,7.01-4.26,10.58c5.56,0.09,11.45,0.51,11.52-4.89c-0.1-0.64-0.77-0.7-0.95-1.27
		C14.91,100.16,16.35,98.3,15.89,96.71z M5.32,105.71c0.43-1.51,1.04-2.86,1.73-4.11c2.08,0.08,4.69-0.37,5.53,0.95
		C12.41,105.85,8.83,105.74,5.32,105.71z M7.53,100.34c0.37-1.36,1.11-2.36,1.42-3.79c1.84,0.11,4.29-0.4,5.05,0.79
		C13.99,100.49,10.85,100.51,7.53,100.34z"/>
	<path class="st24" d="M31.99,94.81c0.27-0.06,0.3,0.12,0.32,0.32c-1.76,3.81-3.38,7.77-4.89,11.84c-0.68,0-1.37,0-2.05,0
		c1.51-3.91,3.17-7.67,4.74-11.52C30.57,95.08,31.57,95.24,31.99,94.81z"/>
	<path class="st24" d="M113.14,102.75c0.29-1.65,1.75-2.88,0.79-4.26c-1.22-1.74-6.74-0.98-8.37,0.63
		c-0.67,0.67-2.79,5.04-2.53,6.32c0.59,2.81,9.29,1.88,9.32-1.11h-1.9c-0.5,1.53-3.91,2.5-5.37,1.11c-0.23-0.88,0.27-2.08,0.79-2.69
		H113.14z M112.03,99.12c0.17,1.28-0.42,1.79-0.63,2.68h-5.21C106.38,99.26,109.68,97.54,112.03,99.12z"/>
	<path class="st24" d="M102.24,95.33c-0.43,0.67-0.57,1.64-1.1,2.21c-2.57,0.13-5.53-0.31-7.42,1.58c-0.85,0.85-2.89,5.16-2.53,6.47
		c0.5,1.83,4.36,1.65,6.32,0.95c-0.59,0.82,1.27,0.35,1.89,0.47c1.58-3.99,3.73-8.26,4.9-12.15
		C103.7,95.1,103.01,95.26,102.24,95.33z M93.24,105.59c0.45-3.83,1.77-8.11,7.58-7.1C99.43,101.74,98.51,107.77,93.24,105.59z"/>
</g>
</svg>
