<?xml version="1.0" encoding="utf-8"?>
<!-- Generator: Adobe Illustrator 25.4.1, SVG Export Plug-In . SVG Version: 6.00 Build 0)  -->
<svg version="1.1" xmlns="http://www.w3.org/2000/svg" xmlns:xlink="http://www.w3.org/1999/xlink" x="0px" y="0px"
	 viewBox="0 0 200 110.91" style="enable-background:new 0 0 200 110.91;" xml:space="preserve">
<style type="text/css">
	.st0{display:none;}
	.st1{display:inline;opacity:0.8;}
	.st2{fill-rule:evenodd;clip-rule:evenodd;}
	.st3{opacity:0.8;}
	.st4{display:inline;}
	.st5{opacity:0.8;fill-rule:evenodd;clip-rule:evenodd;}
	.st6{clip-path:url(#SVGID_00000165228705778595484490000012000213611372948108_);}
	.st7{clip-path:url(#SVGID_00000181072561738900633650000017887121804328883590_);}
	.st8{fill:#333333;}
	.st9{fill:#DBDBDB;}
	.st10{fill:#3F3F3F;}
	.st11{fill:#FFFFFA;}
	.st12{fill:#DEDEDE;}
	.st13{fill:#979797;}
	.st14{fill:#484848;}
	.st15{fill:#4D4D4D;}
	.st16{fill:#6F6F6F;}
	.st17{fill:none;stroke:#000000;stroke-width:2;stroke-miterlimit:3.8637;}
	.st18{display:inline;opacity:0.8;fill-rule:evenodd;clip-rule:evenodd;}
	.st19{fill-rule:evenodd;clip-rule:evenodd;fill:none;stroke:#000000;stroke-miterlimit:10;}
	.st20{fill:#1D1D1B;}
	.st21{fill:#FFE13A;}
	.st22{fill:#009EE2;}
	.st23{fill-rule:evenodd;clip-rule:evenodd;fill:#009EE2;}
	.st24{fill:#0D2B60;}
	.st25{fill:#D6430D;}
	.st26{fill:#F5A300;}
	.st27{fill:#AABC14;}
	.st28{fill:#CCA857;}
	.st29{fill:#791525;}
	.st30{fill:none;stroke:#791525;stroke-width:0.0496;}
	.st31{fill:#00A651;}
	.st32{fill:#005E9E;}
	.st33{fill:#FFCB05;}
	.st34{fill:#ED1C24;}
	.st35{fill-rule:evenodd;clip-rule:evenodd;fill:#ED1C24;}
	.st36{fill-rule:evenodd;clip-rule:evenodd;fill:#00A651;}
	.st37{opacity:0.8;fill:#FFE13A;}
	.st38{fill:#9E250E;}
	.st39{fill:#312C63;}
	.st40{fill-rule:evenodd;clip-rule:evenodd;fill:#312C63;}
	.st41{fill:none;stroke:#7F1313;stroke-width:2;stroke-miterlimit:3.8637;}
	.st42{fill-rule:evenodd;clip-rule:evenodd;fill:#083D79;}
	.st43{fill-rule:evenodd;clip-rule:evenodd;fill:#00168D;}
	.st44{fill:#00168D;}
	.st45{fill:#00376F;}
	.st46{fill:#04A359;}
	.st47{fill-rule:evenodd;clip-rule:evenodd;fill:#113A60;}
	.st48{fill:#113A60;}
	.st49{opacity:0.8;fill-rule:evenodd;clip-rule:evenodd;fill:#027CA9;}
	.st50{opacity:0.8;fill:#027CA9;}
	.st51{fill:#184287;}
	.st52{fill:#1A4486;}
	.st53{fill:#F8D800;}
	.st54{fill:#E50402;}
	.st55{fill:#F3FF1B;}
	.st56{fill:#0C790D;}
	.st57{fill:#FFFFFF;}
	.st58{fill:#FCDD09;}
	.st59{fill:#EB7711;}
	.st60{fill:#DA121A;}
	.st61{fill:#742C64;}
	.st62{fill:#0F47AF;}
	.st63{fill:#078930;}
	.st64{fill:none;}
</style>
<g id="Capa_1" class="st0">
	<g class="st4">
		<g>
			<g id="XMLID_00000114056199260327828080000004544215503317239976_" class="st3">
				<path id="XMLID_00000099633471750605655030000004656896199733123215_" d="M91.94,38.33c-2.35,1.03-4.7,2.06-6.91,2.94
					c-5,2.2-9.84,4.55-14.69,7.05c-0.29,0.15-0.59,0.15-0.88,0.15c-1.32,0.15-2.79,0.29-4.11,0.44c-2.79,0.44-5.44,0.73-8.23,1.32
					c-4.26,0.73-8.52,1.47-12.78,2.35c-6.46,1.47-12.93,2.94-19.54,4.55c-0.29,0-0.44,0.15-0.73,0.15
					c-0.88,0.15-1.47-0.15-1.76-1.03c-0.29-0.88-0.15-1.62,0.73-2.06c1.18-0.59,2.35-1.03,3.53-1.47
					c8.52-3.23,17.19-6.17,26.01-8.67c6.32-1.76,12.78-3.23,19.25-4.26c4.11-0.73,8.23-1.18,12.34-1.47c2.5-0.15,5-0.15,7.49-0.29
					C91.64,38.19,91.79,38.19,91.94,38.33C91.94,38.19,91.94,38.33,91.94,38.33z"/>
				<path id="XMLID_00000132089628212071113210000008821323491873108645_" d="M143.07,51.26c-1.32-0.29-2.64-0.44-3.97-0.73
					c-5.44-0.88-10.87-1.76-16.46-2.5c-2.79-0.44-5.73-0.44-8.67-0.73c-0.73,0-0.59-0.15-0.73-0.29c-1.62-2.35-3.23-4.55-4.85-6.91
					c-0.15-0.15-0.29-0.59-0.44-0.88c12.05,2.79,23.95,6.61,35.11,11.9C143.07,51.26,143.07,51.26,143.07,51.26z"/>
				<path id="XMLID_00000052814927126126240630000001832890573678203804_" d="M100.75,42.45c1.03,1.47,2.06,2.79,3.23,4.26
					c-4.11,0-8.52,0-12.64,0l0.29-0.15C94.58,45.24,97.67,43.77,100.75,42.45z"/>
			</g>
			<g id="XMLID_00000042713419614962221810000012044533794992660868_" class="st3">
				<path id="XMLID_00000034092237744066592770000004065677360180096678_" d="M100.6,42.45c2.5-1.03,5-2.06,7.49-2.94
					c1.18,1.76,2.35,3.38,3.53,5c4.26,5.88,7.35,12.34,10.14,18.95c2.2,5.14,3.82,10.28,5.29,15.57c0,0.15,0.15,0.29,0.15,0.59
					c0.15,0.88-0.15,1.62-1.03,1.91c-0.88,0.29-1.62,0.15-2.06-0.73c-0.73-1.32-1.32-2.79-2.06-4.26
					c-5-10.28-10.87-20.13-17.78-29.24c-1.18-1.47-2.2-2.94-3.38-4.41C100.9,42.74,100.75,42.74,100.6,42.45z"/>
				<path id="XMLID_00000121978963339180537120000003720515556557229955_" d="M100.6,30.4c-1.76-0.15-3.53-0.44-5.29-0.59
					c-1.76-0.15-3.53-0.29-5.29-0.44c-0.44,0-0.73-0.15-1.03-0.44c-2.5-2.5-5-5.14-7.64-7.64c-5.73-5.58-11.9-10.87-18.07-15.87
					c-0.29-0.15-0.59-0.44-0.73-0.73c-0.59-0.73-0.59-1.47,0-2.06c0.59-0.73,1.32-0.88,2.2-0.44c0.73,0.44,1.47,0.88,2.2,1.32
					c6.76,4.55,13.52,9.26,19.98,14.4c4.41,3.53,8.67,7.35,12.49,11.31C99.87,29.67,100.16,30.11,100.6,30.4z"/>
			</g>
			<g id="XMLID_00000078767589990251183040000012357427739556975279_" class="st3">
				<path id="XMLID_00000160895469645456305040000013661397632315975602_" d="M108.83,39.36c-1.62,0.59-4.55,1.76-6.17,2.5
					C89.44,47,77.1,53.76,65.05,61.4c-8.96,5.73-17.78,11.9-26.3,18.51c-7.05,5.58-14.1,11.31-21.16,16.9
					c-4.26,3.53-8.37,7.2-12.64,10.73c-0.29,0.29-0.73,0.44-1.18,0.59c-0.73,0.29-1.32,0-1.76-0.59s-0.44-1.18,0-1.76
					c0.59-0.73,1.32-1.47,2.06-2.2c6.61-7.2,13.22-14.4,20.42-21.16C35.96,71.54,48.15,61.7,61.52,53.32
					c9.11-5.73,18.95-10.43,28.94-14.4c1.18-0.44,2.35-1.03,3.53-1.32c0.29-0.15,1.91-0.59,2.06-0.59c3.67,0.59,6.17,1.18,9.99,1.91
					C106.48,38.92,108.39,39.36,108.83,39.36z"/>
				<path id="XMLID_00000134942515564125942450000007883005719109056678_" d="M109.42,33.05c1.32-0.29,2.79-0.88,3.97-1.18
					c4.41-1.03,8.82-2.06,13.22-2.94c3.82-0.73,7.64-1.32,11.46-1.91c0.44,0,0.88,0,1.32,0c0.73,0.15,1.32,0.59,1.32,1.32
					c0.15,0.73-0.15,1.32-0.88,1.62c-1.32,0.44-2.5,0.73-3.82,1.03c-5.29,1.47-10.73,2.94-16.01,4.41c-0.73,0.15-1.32,0.15-1.91,0
					c-2.64-0.88-5.29-1.47-7.79-2.35C110.15,33.19,109.71,33.19,109.42,33.05z"/>
			</g>
			<g id="XMLID_00000068668886811551363710000007486214860115009455_" class="st3">
				<path id="XMLID_00000176732758077333317550000003308843150816131002_" d="M61.08,34.22c-3.09,0-6.32,0-9.4,0
					c-0.29,0-0.73,0-1.03-0.15c-0.59-0.15-1.03-0.59-1.18-1.32c-0.15-0.73,0.15-1.32,0.88-1.62c0.59-0.15,1.18-0.29,1.76-0.44
					c2.5-0.29,5.14-0.73,7.64-0.88c2.06-0.29,4.26-0.44,6.32-0.59c2.79-0.15,5.58-0.44,8.37-0.59c3.38-0.15,6.91-0.15,10.28,0
					c3.23,0.15,6.32,0.44,9.4,0.73c3.97,0.44,7.93,1.03,11.9,1.91c4.26,0.88,8.23,2.2,12.34,3.67c5.58,2.06,11.02,4.7,16.16,7.79
					c2.94,1.76,5.73,3.53,8.52,5.29c0.15,0.15,0.29,0.29,0.44,0.29c0.59,0.59,0.73,1.18,0.44,1.91c-0.29,0.73-0.73,1.03-1.62,0.88
					c-0.44,0-0.88-0.15-1.18-0.29c-5.58-2.79-11.46-5-17.34-7.05c-5.58-1.91-11.17-3.53-16.9-4.85c-3.82-0.88-7.49-1.47-11.31-2.2
					c-2.64-0.44-5.44-0.88-8.23-1.18c-2.2-0.29-4.26-0.44-6.46-0.59c-2.79-0.29-5.58-0.44-8.23-0.59c-3.38-0.15-6.61-0.15-9.99-0.29
					C62.4,34.22,61.82,34.22,61.08,34.22L61.08,34.22z"/>
			</g>
		</g>
		<g id="XMLID_00000000181738474347838350000012181060838435359360_" class="st3">
			<path id="XMLID_00000018951019569453735780000004647018921194285458_" d="M154.4,99.21h0.68l-0.9,4.3h2.45l-0.11,0.57h-3.13
				L154.4,99.21z"/>
			<path id="XMLID_00000071523502224716540580000005311259759225096079_" d="M158.32,99.21H159l-1.02,4.86h-0.68L158.32,99.21z
				 M159.64,97.89l-1.09,0.94h-0.45l0.79-0.94H159.64z"/>
			<path id="XMLID_00000114059348358975196980000007130054612907232402_" d="M160.05,99.21h0.79l1.62,3.96l0.83-3.96h0.64
				l-1.02,4.86h-0.75l-1.66-3.96l-0.83,3.96h-0.64L160.05,99.21z"/>
			<path id="XMLID_00000108266686869952389890000008790074131355766942_" d="M165.03,99.21h3.54l-0.11,0.6h-2.9l-0.3,1.47h2.68
				l-0.11,0.57h-2.68l-0.34,1.66h2.94l-0.11,0.57h-3.62L165.03,99.21z"/>
			<path id="XMLID_00000121246965018650268510000007532573434765222333_" d="M170.91,99.21h0.75l0.72,4.86h-0.72l-0.19-1.47h-1.92
				l-0.83,1.47h-0.68L170.91,99.21z M171.4,102.08l-0.26-2.15l-1.24,2.15H171.4z"/>
			<path id="XMLID_00000098189672301196849230000005273361938627008402_" d="M176.6,99.21h0.75l0.72,4.86h-0.72l-0.19-1.47h-1.92
				l-0.83,1.47h-0.68L176.6,99.21z M177.05,102.08l-0.26-2.15l-1.24,2.15H177.05z"/>
			<path id="XMLID_00000148637045769239020720000011505234518211854495_" d="M179.76,99.21h3.54l-0.11,0.6h-2.9l-0.3,1.47h2.68
				l-0.11,0.57h-2.68l-0.34,1.66h2.94l-0.11,0.57h-3.62L179.76,99.21z M182.55,97.86l-0.98,0.94h-0.45l0.68-0.94H182.55z"/>
			<path id="XMLID_00000011027557252929310270000016140383361325659811_" d="M184.32,99.21h2.26c0.38,0,0.68,0.04,0.87,0.15
				c0.41,0.23,0.57,0.6,0.45,1.17c-0.08,0.3-0.19,0.53-0.34,0.72s-0.38,0.34-0.6,0.45c0.19,0.08,0.3,0.19,0.38,0.3
				s0.08,0.34,0.04,0.6l-0.11,0.64c-0.04,0.19-0.04,0.34-0.04,0.41c0,0.15,0.04,0.26,0.15,0.3l-0.04,0.11h-0.79
				c0-0.04-0.04-0.11-0.04-0.15c0-0.08,0-0.19,0.04-0.38l0.15-0.83c0.04-0.3-0.04-0.53-0.23-0.64c-0.11-0.08-0.3-0.08-0.57-0.08
				h-1.51l-0.45,2.07h-0.68L184.32,99.21z M186.02,101.44c0.3,0,0.57-0.08,0.79-0.19c0.19-0.11,0.34-0.34,0.41-0.68
				s0-0.57-0.23-0.72c-0.11-0.08-0.3-0.11-0.53-0.11h-1.62l-0.34,1.66h1.51V101.44z"/>
			<path id="XMLID_00000145777692039682916440000000219466265160890511_" d="M189.19,99.21h3.54l-0.11,0.6h-2.9l-0.3,1.47h2.68
				l-0.11,0.57h-2.68l-0.34,1.66h2.94l-0.11,0.57h-3.62L189.19,99.21z"/>
			<path id="XMLID_00000012463599066834388000000001632751427066641061_" d="M195.06,99.21h0.75l0.72,4.86h-0.72l-0.19-1.47h-1.92
				l-0.83,1.47h-0.68L195.06,99.21z M195.55,102.08l-0.26-2.15l-1.24,2.15H195.55z"/>
		</g>
		<path id="XMLID_00000126294346182586179670000005259875869038897555_" class="st5" d="M96.32,88.31l-1.55,8.11H91.6l1.67-8.61
			c0.94-4.83-6.38-4.83-7.33,0l-1.67,8.61h-3.16l1.67-8.61c0.94-4.83-6.38-4.83-7.33,0l-1.67,8.61h-3.16l1.55-8.11
			c1.39-7.11,10.16-8.61,12.94-4.5C89.49,79.7,97.71,81.2,96.32,88.31L96.32,88.31z"/>
		<path id="XMLID_00000073702589315031690890000018348773874113925560_" class="st5" d="M121.75,85.31
			c-0.61-0.94-1.89-1.39-3.16-1.33c-1.22,0.06-2.89,0.17-3.16,1.33c-0.11,0.61,0.33,1.11,1,1.44c1.5,0.83,3.28,0.89,5,1.22
			c1.89,0.39,3.72,2,3.28,4.16c-0.61,3.16-5.39,4.61-7.99,4.55c-2.72-0.06-5.94-1.28-6.11-3.94h3.44c0.61,0.94,2.17,1.28,3.39,1.28
			c1.89,0,3.61-0.61,3.83-1.78c0.28-1.44-1.39-1.89-3.55-2.33c-2.78-0.61-6.38-0.44-5.33-4.94c0.56-2.39,4.44-3.72,6.88-3.66
			c2.72,0.06,5.27,1.39,5.89,4H121.75L121.75,85.31z"/>
		<path id="XMLID_00000085957256501822888920000001868511320104960944_" class="st5" d="M101.87,85.03
			c1.17-0.78,3.16-1.17,4.28-1.05c1.83,0.22,2.44,1.17,2.22,2.39c-0.22,1.05-6.11,1.44-7.05,1.61c-2.05,0.39-4.5,2-4.89,4.16
			c-0.61,3.16,2.39,4.55,4.94,4.55c4.16-0.06,8.05-2.22,9.16-6.33c0.56-2,0.83-4.39,1-5.39c0.33-2.39-2.66-3.72-5.11-3.66
			c-1.33,0-2.72,0.22-4,0.78L101.87,85.03L101.87,85.03z M102.26,94.08c-1.89,0.06-2.72-0.83-2.5-2.05
			c0.22-1.17,1.33-1.55,2.94-1.83c1.72-0.28,3.33-0.22,5.05-1C107.2,91.92,106.37,93.97,102.26,94.08L102.26,94.08z"/>
		<path id="XMLID_00000092416054514361419280000009037962347692241807_" class="st5" d="M62.45,85.03c1.17-0.78,3.16-1.17,4.28-1.05
			c1.83,0.22,2.44,1.17,2.22,2.39c-0.22,1.05-6.11,1.44-7.05,1.61c-2.05,0.39-4.5,2-4.89,4.16c-0.61,3.16,2.39,4.55,4.94,4.55
			c4.16-0.06,8.05-2.22,9.16-6.33c0.56-2,0.83-4.39,1-5.39c0.39-2.39-2.66-3.72-5.11-3.66c-1.33,0-2.72,0.22-4,0.78L62.45,85.03
			L62.45,85.03z M62.84,94.08c-1.89,0.06-2.72-0.83-2.5-2.05c0.22-1.17,1.33-1.55,2.94-1.83c1.72-0.28,3.33-0.22,5.05-1
			C67.84,91.92,66.95,93.97,62.84,94.08L62.84,94.08z"/>
		<path id="XMLID_00000098201501610355436970000012059067127260844717_" class="st5" d="M168.72,88.31l-1.55,8.11H164l1.67-8.61
			c0.94-4.83-6.38-4.83-7.33,0l-1.67,8.61h-3.16l1.55-8.11C156.84,79.31,170.5,79.31,168.72,88.31L168.72,88.31z"/>
		<path id="XMLID_00000012462781299434152110000013411288841073061801_" class="st5" d="M144.73,96.52c-4.44,0-7.33-3.39-6.55-7.5
			c0.78-4.16,5.05-7.5,9.44-7.5c4.44,0,7.33,3.39,6.55,7.5C153.4,93.14,149.18,96.52,144.73,96.52L144.73,96.52z M145.29,93.8
			c-2.61,0-4.33-2.17-3.83-4.77c0.5-2.66,3.05-4.77,5.66-4.77c2.61,0,4.33,2.17,3.83,4.77C150.45,91.64,147.9,93.8,145.29,93.8
			L145.29,93.8z"/>
		<polygon id="XMLID_00000061468190329748722850000014996989575655976347_" class="st5" points="137.35,93.86 128.47,93.86 
			140.68,83.09 140.52,81.59 127.52,81.59 127.02,84.2 135.85,84.2 123.64,94.91 123.8,96.41 138.46,96.41 		"/>
		<path id="XMLID_00000083808429659396413180000015339113232333415856_" class="st5" d="M194.15,85.31
			c-0.61-0.94-1.89-1.39-3.16-1.33c-1.22,0.06-2.89,0.17-3.16,1.33c-0.11,0.61,0.33,1.11,1,1.44c1.5,0.83,3.28,0.89,5,1.22
			c1.89,0.39,3.72,2,3.28,4.16c-0.61,3.16-5.39,4.61-7.99,4.55c-2.72-0.06-5.94-1.28-6.11-3.94h3.44c0.61,0.94,2.17,1.28,3.39,1.28
			c1.89,0,3.61-0.61,3.83-1.78c0.28-1.44-1.39-1.89-3.55-2.33c-2.78-0.61-6.38-0.44-5.33-4.94c0.56-2.39,4.44-3.72,6.88-3.66
			c2.72,0.06,5.27,1.39,5.89,4H194.15L194.15,85.31z"/>
		<path id="XMLID_00000028289992346707995710000014732713473274693560_" class="st5" d="M174.27,85.03
			c1.17-0.78,3.16-1.17,4.28-1.05c1.83,0.22,2.44,1.17,2.22,2.39c-0.22,1.05-6.11,1.44-7.05,1.61c-2.05,0.39-4.5,2-4.89,4.16
			c-0.61,3.16,2.39,4.55,4.94,4.55c4.16-0.06,8.05-2.22,9.16-6.33c0.56-2,0.83-4.39,1-5.39c0.33-2.39-2.66-3.72-5.11-3.66
			c-1.33,0-2.72,0.22-4,0.78L174.27,85.03L174.27,85.03z M174.66,94.08c-1.89,0.06-2.72-0.83-2.5-2.05
			c0.22-1.17,1.33-1.55,2.94-1.83c1.72-0.28,3.33-0.22,5.05-1C179.66,91.92,178.77,93.97,174.66,94.08L174.66,94.08z"/>
	</g>
</g>
<g id="Capa_2">
	<g id="XMLID_00000099627645444972364180000006544765294105473952_">
		<path id="XMLID_00000044873098882504854380000004400908806534319745_" class="st31" d="M91.94,38.33
			c-2.35,1.03-4.7,2.06-6.91,2.94c-5,2.2-9.84,4.55-14.69,7.05c-0.29,0.15-0.59,0.15-0.88,0.15c-1.32,0.15-2.79,0.29-4.11,0.44
			c-2.79,0.44-5.44,0.73-8.23,1.32c-4.26,0.73-8.52,1.47-12.78,2.35c-6.46,1.47-12.93,2.94-19.54,4.55c-0.29,0-0.44,0.15-0.73,0.15
			c-0.88,0.15-1.47-0.15-1.76-1.03c-0.29-0.88-0.15-1.62,0.73-2.06c1.18-0.59,2.35-1.03,3.53-1.47c8.52-3.23,17.19-6.17,26.01-8.67
			c6.32-1.76,12.78-3.23,19.25-4.26c4.11-0.73,8.23-1.18,12.34-1.47c2.5-0.15,5-0.15,7.49-0.29C91.64,38.19,91.79,38.19,91.94,38.33
			C91.94,38.19,91.94,38.33,91.94,38.33z"/>
		<path id="XMLID_00000034064755426897379790000007245135915888214164_" class="st31" d="M143.07,51.26
			c-1.32-0.29-2.64-0.44-3.97-0.73c-5.44-0.88-10.87-1.76-16.46-2.5c-2.79-0.44-5.73-0.44-8.67-0.73c-0.73,0-0.59-0.15-0.73-0.29
			c-1.62-2.35-3.23-4.55-4.85-6.91c-0.15-0.15-0.29-0.59-0.44-0.88c12.05,2.79,23.95,6.61,35.11,11.9
			C143.07,51.26,143.07,51.26,143.07,51.26z"/>
		<path id="XMLID_00000136388404632684127130000007815456736998936712_" class="st31" d="M100.75,42.45
			c1.03,1.47,2.06,2.79,3.23,4.26c-4.11,0-8.52,0-12.64,0l0.29-0.15C94.58,45.24,97.67,43.77,100.75,42.45z"/>
	</g>
	<g id="XMLID_00000075867709217306215110000010360058975188152741_">
		<path id="XMLID_00000096744137985428447610000018026824494811644316_" class="st32" d="M100.6,42.45c2.5-1.03,5-2.06,7.49-2.94
			c1.18,1.76,2.35,3.38,3.53,5c4.26,5.88,7.35,12.34,10.14,18.95c2.2,5.14,3.82,10.28,5.29,15.57c0,0.15,0.15,0.29,0.15,0.59
			c0.15,0.88-0.15,1.62-1.03,1.91c-0.88,0.29-1.62,0.15-2.06-0.73c-0.73-1.32-1.32-2.79-2.06-4.26c-5-10.28-10.87-20.13-17.78-29.24
			c-1.18-1.47-2.2-2.94-3.38-4.41C100.9,42.74,100.75,42.74,100.6,42.45z"/>
		<path id="XMLID_00000042009766528758216500000001227654457761510577_" class="st32" d="M100.6,30.4
			c-1.76-0.15-3.53-0.44-5.29-0.59c-1.76-0.15-3.53-0.29-5.29-0.44c-0.44,0-0.73-0.15-1.03-0.44c-2.5-2.5-5-5.14-7.64-7.64
			c-5.73-5.58-11.9-10.87-18.07-15.87c-0.29-0.15-0.59-0.44-0.73-0.73c-0.59-0.73-0.59-1.47,0-2.06c0.59-0.73,1.32-0.88,2.2-0.44
			c0.73,0.44,1.47,0.88,2.2,1.32c6.76,4.55,13.52,9.26,19.98,14.4c4.41,3.53,8.67,7.35,12.49,11.31
			C99.87,29.67,100.16,30.11,100.6,30.4z"/>
	</g>
	<g id="XMLID_00000155842508421340783450000007588560139322445715_">
		<path id="XMLID_00000081628208761791153930000017165243142903492542_" class="st33" d="M108.83,39.36
			c-1.62,0.59-4.55,1.76-6.17,2.5C89.44,47,77.1,53.76,65.05,61.4c-8.96,5.73-17.78,11.9-26.3,18.51
			c-7.05,5.58-14.1,11.31-21.16,16.9c-4.26,3.53-8.37,7.2-12.64,10.73c-0.29,0.29-0.73,0.44-1.18,0.59c-0.73,0.29-1.32,0-1.76-0.59
			s-0.44-1.18,0-1.76c0.59-0.73,1.32-1.47,2.06-2.2c6.61-7.2,13.22-14.4,20.42-21.16C35.96,71.54,48.15,61.7,61.52,53.32
			c9.11-5.73,18.95-10.43,28.94-14.4c1.18-0.44,2.35-1.03,3.53-1.32c0.29-0.15,1.91-0.59,2.06-0.59c3.67,0.59,6.17,1.18,9.99,1.91
			C106.48,38.92,108.39,39.36,108.83,39.36z"/>
		<path id="XMLID_00000177483666326085127990000007865280402188607394_" class="st33" d="M109.42,33.05
			c1.32-0.29,2.79-0.88,3.97-1.18c4.41-1.03,8.82-2.06,13.22-2.94c3.82-0.73,7.64-1.32,11.46-1.91c0.44,0,0.88,0,1.32,0
			c0.73,0.15,1.32,0.59,1.32,1.32c0.15,0.73-0.15,1.32-0.88,1.62c-1.32,0.44-2.5,0.73-3.82,1.03c-5.29,1.47-10.73,2.94-16.01,4.41
			c-0.73,0.15-1.32,0.15-1.91,0c-2.64-0.88-5.29-1.47-7.79-2.35C110.15,33.19,109.71,33.19,109.42,33.05z"/>
	</g>
	<g id="XMLID_00000031908829906476585250000008617672234509715109_">
		<path id="XMLID_00000138569962650688116000000003595545466572507015_" class="st34" d="M61.08,34.22c-3.09,0-6.32,0-9.4,0
			c-0.29,0-0.73,0-1.03-0.15c-0.59-0.15-1.03-0.59-1.18-1.32c-0.15-0.73,0.15-1.32,0.88-1.62c0.59-0.15,1.18-0.29,1.76-0.44
			c2.5-0.29,5.14-0.73,7.64-0.88c2.06-0.29,4.26-0.44,6.32-0.59c2.79-0.15,5.58-0.44,8.37-0.59c3.38-0.15,6.91-0.15,10.28,0
			c3.23,0.15,6.32,0.44,9.4,0.73c3.97,0.44,7.93,1.03,11.9,1.91c4.26,0.88,8.23,2.2,12.34,3.67c5.58,2.06,11.02,4.7,16.16,7.79
			c2.94,1.76,5.73,3.53,8.52,5.29c0.15,0.15,0.29,0.29,0.44,0.29c0.59,0.59,0.73,1.18,0.44,1.91c-0.29,0.73-0.73,1.03-1.62,0.88
			c-0.44,0-0.88-0.15-1.18-0.29c-5.58-2.79-11.46-5-17.34-7.05c-5.58-1.91-11.17-3.53-16.9-4.85c-3.82-0.88-7.49-1.47-11.31-2.2
			c-2.64-0.44-5.44-0.88-8.23-1.18c-2.2-0.29-4.26-0.44-6.46-0.59c-2.79-0.29-5.58-0.44-8.23-0.59c-3.38-0.15-6.61-0.15-9.99-0.29
			C62.4,34.22,61.82,34.22,61.08,34.22L61.08,34.22z"/>
	</g>
	<g id="XMLID_00000173129183662753228870000007992013496657933978_">
		<path id="XMLID_00000139990780355679557950000004888253880961705895_" class="st32" d="M154.4,99.21h0.68l-0.9,4.3h2.45
			l-0.11,0.57h-3.13L154.4,99.21z"/>
		<path id="XMLID_00000042010672633889856840000016567432087736037781_" class="st32" d="M158.32,99.21H159l-1.02,4.86h-0.68
			L158.32,99.21z M159.64,97.89l-1.09,0.94h-0.45l0.79-0.94H159.64z"/>
		<path id="XMLID_00000080203970226731238120000012652489863931837582_" class="st32" d="M160.05,99.21h0.79l1.62,3.96l0.83-3.96
			h0.64l-1.02,4.86h-0.75l-1.66-3.96l-0.83,3.96h-0.64L160.05,99.21z"/>
		<path id="XMLID_00000020369812006681873160000008557291520736546700_" class="st32" d="M165.03,99.21h3.54l-0.11,0.6h-2.9
			l-0.3,1.47h2.68l-0.11,0.57h-2.68l-0.34,1.66h2.94l-0.11,0.57h-3.62L165.03,99.21z"/>
		<path id="XMLID_00000080917309454485504980000006255577772735311488_" class="st32" d="M170.91,99.21h0.75l0.72,4.86h-0.72
			l-0.19-1.47h-1.92l-0.83,1.47h-0.68L170.91,99.21z M171.4,102.08l-0.26-2.15l-1.24,2.15H171.4z"/>
		<path id="XMLID_00000115507496906477850950000010200858165189741715_" class="st32" d="M176.6,99.21h0.75l0.72,4.86h-0.72
			l-0.19-1.47h-1.92l-0.83,1.47h-0.68L176.6,99.21z M177.05,102.08l-0.26-2.15l-1.24,2.15H177.05z"/>
		<path id="XMLID_00000014628062147997889140000007723541014011753915_" class="st32" d="M179.76,99.21h3.54l-0.11,0.6h-2.9
			l-0.3,1.47h2.68l-0.11,0.57h-2.68l-0.34,1.66h2.94l-0.11,0.57h-3.62L179.76,99.21z M182.55,97.86l-0.98,0.94h-0.45l0.68-0.94
			H182.55z"/>
		<path id="XMLID_00000011738295168449301060000013949671454233098632_" class="st32" d="M184.32,99.21h2.26
			c0.38,0,0.68,0.04,0.87,0.15c0.41,0.23,0.57,0.6,0.45,1.17c-0.08,0.3-0.19,0.53-0.34,0.72s-0.38,0.34-0.6,0.45
			c0.19,0.08,0.3,0.19,0.38,0.3s0.08,0.34,0.04,0.6l-0.11,0.64c-0.04,0.19-0.04,0.34-0.04,0.41c0,0.15,0.04,0.26,0.15,0.3
			l-0.04,0.11h-0.79c0-0.04-0.04-0.11-0.04-0.15c0-0.08,0-0.19,0.04-0.38l0.15-0.83c0.04-0.3-0.04-0.53-0.23-0.64
			c-0.11-0.08-0.3-0.08-0.57-0.08h-1.51l-0.45,2.07h-0.68L184.32,99.21z M186.02,101.44c0.3,0,0.57-0.08,0.79-0.19
			c0.19-0.11,0.34-0.34,0.41-0.68s0-0.57-0.23-0.72c-0.11-0.08-0.3-0.11-0.53-0.11h-1.62l-0.34,1.66h1.51V101.44z"/>
		<path id="XMLID_00000026883053697677742100000009303184780321177228_" class="st32" d="M189.19,99.21h3.54l-0.11,0.6h-2.9
			l-0.3,1.47h2.68l-0.11,0.57h-2.68l-0.34,1.66h2.94l-0.11,0.57h-3.62L189.19,99.21z"/>
		<path id="XMLID_00000043438989494449525630000003296184584303028361_" class="st32" d="M195.06,99.21h0.75l0.72,4.86h-0.72
			l-0.19-1.47h-1.92l-0.83,1.47h-0.68L195.06,99.21z M195.55,102.08l-0.26-2.15l-1.24,2.15H195.55z"/>
	</g>
	<path id="XMLID_00000022555469796603681250000016465229192188686518_" class="st35" d="M96.32,88.31l-1.55,8.11H91.6l1.67-8.61
		c0.94-4.83-6.38-4.83-7.33,0l-1.67,8.61h-3.16l1.67-8.61c0.94-4.83-6.38-4.83-7.33,0l-1.67,8.61h-3.16l1.55-8.11
		c1.39-7.11,10.16-8.61,12.94-4.5C89.49,79.7,97.71,81.2,96.32,88.31L96.32,88.31z"/>
	<path id="XMLID_00000170264227468422977720000007682425628619191485_" class="st35" d="M121.75,85.31
		c-0.61-0.94-1.89-1.39-3.16-1.33c-1.22,0.06-2.89,0.17-3.16,1.33c-0.11,0.61,0.33,1.11,1,1.44c1.5,0.83,3.28,0.89,5,1.22
		c1.89,0.39,3.72,2,3.28,4.16c-0.61,3.16-5.39,4.61-7.99,4.55c-2.72-0.06-5.94-1.28-6.11-3.94h3.44c0.61,0.94,2.17,1.28,3.39,1.28
		c1.89,0,3.61-0.61,3.83-1.78c0.28-1.44-1.39-1.89-3.55-2.33c-2.78-0.61-6.38-0.44-5.33-4.94c0.56-2.39,4.44-3.72,6.88-3.66
		c2.72,0.06,5.27,1.39,5.89,4H121.75L121.75,85.31z"/>
	<path id="XMLID_00000006694590799593566930000016007163374683092402_" class="st35" d="M101.87,85.03
		c1.17-0.78,3.16-1.17,4.28-1.05c1.83,0.22,2.44,1.17,2.22,2.39c-0.22,1.05-6.11,1.44-7.05,1.61c-2.05,0.39-4.5,2-4.89,4.16
		c-0.61,3.16,2.39,4.55,4.94,4.55c4.16-0.06,8.05-2.22,9.16-6.33c0.56-2,0.83-4.39,1-5.39c0.33-2.39-2.66-3.72-5.11-3.66
		c-1.33,0-2.72,0.22-4,0.78L101.87,85.03L101.87,85.03z M102.26,94.08c-1.89,0.06-2.72-0.83-2.5-2.05c0.22-1.17,1.33-1.55,2.94-1.83
		c1.72-0.28,3.33-0.22,5.05-1C107.2,91.92,106.37,93.97,102.26,94.08L102.26,94.08z"/>
	<path id="XMLID_00000176019141456682297120000007442971435707102344_" class="st35" d="M62.45,85.03c1.17-0.78,3.16-1.17,4.28-1.05
		c1.83,0.22,2.44,1.17,2.22,2.39c-0.22,1.05-6.11,1.44-7.05,1.61c-2.05,0.39-4.5,2-4.89,4.16c-0.61,3.16,2.39,4.55,4.94,4.55
		c4.16-0.06,8.05-2.22,9.16-6.33c0.56-2,0.83-4.39,1-5.39c0.39-2.39-2.66-3.72-5.11-3.66c-1.33,0-2.72,0.22-4,0.78L62.45,85.03
		L62.45,85.03z M62.84,94.08c-1.89,0.06-2.72-0.83-2.5-2.05c0.22-1.17,1.33-1.55,2.94-1.83c1.72-0.28,3.33-0.22,5.05-1
		C67.84,91.92,66.95,93.97,62.84,94.08L62.84,94.08z"/>
	<path id="XMLID_00000108309078661848206880000013722470152111616924_" class="st36" d="M168.72,88.31l-1.55,8.11H164l1.67-8.61
		c0.94-4.83-6.38-4.83-7.33,0l-1.67,8.61h-3.16l1.55-8.11C156.84,79.31,170.5,79.31,168.72,88.31L168.72,88.31z"/>
	<path id="XMLID_00000044859236044858672220000002317947672331627929_" class="st36" d="M144.73,96.52c-4.44,0-7.33-3.39-6.55-7.5
		c0.78-4.16,5.05-7.5,9.44-7.5c4.44,0,7.33,3.39,6.55,7.5C153.4,93.14,149.18,96.52,144.73,96.52L144.73,96.52z M145.29,93.8
		c-2.61,0-4.33-2.17-3.83-4.77c0.5-2.66,3.05-4.77,5.66-4.77c2.61,0,4.33,2.17,3.83,4.77C150.45,91.64,147.9,93.8,145.29,93.8
		L145.29,93.8z"/>
	<polygon id="XMLID_00000052088314185096262240000000937918034129560968_" class="st36" points="137.35,93.86 128.47,93.86 
		140.68,83.09 140.52,81.59 127.52,81.59 127.02,84.2 135.85,84.2 123.64,94.91 123.8,96.41 138.46,96.41 	"/>
	<path id="XMLID_00000054245692488687463370000014297651514126048653_" class="st36" d="M194.15,85.31
		c-0.61-0.94-1.89-1.39-3.16-1.33c-1.22,0.06-2.89,0.17-3.16,1.33c-0.11,0.61,0.33,1.11,1,1.44c1.5,0.83,3.28,0.89,5,1.22
		c1.89,0.39,3.72,2,3.28,4.16c-0.61,3.16-5.39,4.61-7.99,4.55c-2.72-0.06-5.94-1.28-6.11-3.94h3.44c0.61,0.94,2.17,1.28,3.39,1.28
		c1.89,0,3.61-0.61,3.83-1.78c0.28-1.44-1.39-1.89-3.55-2.33c-2.78-0.61-6.38-0.44-5.33-4.94c0.56-2.39,4.44-3.72,6.88-3.66
		c2.72,0.06,5.27,1.39,5.89,4H194.15L194.15,85.31z"/>
	<path id="XMLID_00000132768524895372817540000016821685047677496760_" class="st36" d="M174.27,85.03
		c1.17-0.78,3.16-1.17,4.28-1.05c1.83,0.22,2.44,1.17,2.22,2.39c-0.22,1.05-6.11,1.44-7.05,1.61c-2.05,0.39-4.5,2-4.89,4.16
		c-0.61,3.16,2.39,4.55,4.94,4.55c4.16-0.06,8.05-2.22,9.16-6.33c0.56-2,0.83-4.39,1-5.39c0.33-2.39-2.66-3.72-5.11-3.66
		c-1.33,0-2.72,0.22-4,0.78L174.27,85.03L174.27,85.03z M174.66,94.08c-1.89,0.06-2.72-0.83-2.5-2.05c0.22-1.17,1.33-1.55,2.94-1.83
		c1.72-0.28,3.33-0.22,5.05-1C179.66,91.92,178.77,93.97,174.66,94.08L174.66,94.08z"/>
</g>
</svg>
