<?xml version="1.0" encoding="utf-8"?>
<!-- Generator: Adobe Illustrator 25.4.1, SVG Export Plug-In . SVG Version: 6.00 Build 0)  -->
<svg version="1.1" xmlns="http://www.w3.org/2000/svg" xmlns:xlink="http://www.w3.org/1999/xlink" x="0px" y="0px"
	 viewBox="0 0 200 159.75" style="enable-background:new 0 0 200 159.75;" xml:space="preserve">
<style type="text/css">
	.st0{display:none;}
	.st1{display:inline;opacity:0.8;}
	.st2{fill-rule:evenodd;clip-rule:evenodd;}
	.st3{opacity:0.8;}
	.st4{display:inline;}
	.st5{opacity:0.8;fill-rule:evenodd;clip-rule:evenodd;}
	.st6{clip-path:url(#SVGID_00000105403993441361452760000002259233901287800511_);}
	.st7{clip-path:url(#SVGID_00000100360589856076792540000017352055706864977033_);}
	.st8{fill:#333333;}
	.st9{fill:#DBDBDB;}
	.st10{fill:#3F3F3F;}
	.st11{fill:#FFFFFA;}
	.st12{fill:#DEDEDE;}
	.st13{fill:#979797;}
	.st14{fill:#484848;}
	.st15{fill:#4D4D4D;}
	.st16{fill:#6F6F6F;}
	.st17{fill:none;stroke:#000000;stroke-width:2;stroke-miterlimit:3.8637;}
	.st18{display:inline;opacity:0.8;fill-rule:evenodd;clip-rule:evenodd;}
	.st19{fill-rule:evenodd;clip-rule:evenodd;fill:none;stroke:#000000;stroke-miterlimit:10;}
	.st20{fill:#1D1D1B;}
	.st21{fill:#FFE13A;}
	.st22{fill:#009EE2;}
	.st23{fill-rule:evenodd;clip-rule:evenodd;fill:#009EE2;}
	.st24{fill:#0D2B60;}
	.st25{fill:#D6430D;}
	.st26{fill:#F5A300;}
	.st27{fill:#AABC14;}
	.st28{fill:#CCA857;}
	.st29{fill:#791525;}
	.st30{fill:none;stroke:#791525;stroke-width:0.0496;}
	.st31{fill:#00A651;}
	.st32{fill:#005E9E;}
	.st33{fill:#FFCB05;}
	.st34{fill:#ED1C24;}
	.st35{fill-rule:evenodd;clip-rule:evenodd;fill:#ED1C24;}
	.st36{fill-rule:evenodd;clip-rule:evenodd;fill:#00A651;}
	.st37{opacity:0.8;fill:#FFE13A;}
	.st38{fill:#9E250E;}
	.st39{fill:#312C63;}
	.st40{fill-rule:evenodd;clip-rule:evenodd;fill:#312C63;}
	.st41{fill:none;stroke:#7F1313;stroke-width:2;stroke-miterlimit:3.8637;}
	.st42{fill-rule:evenodd;clip-rule:evenodd;fill:#083D79;}
	.st43{fill-rule:evenodd;clip-rule:evenodd;fill:#00168D;}
	.st44{fill:#00168D;}
	.st45{fill:#00376F;}
	.st46{fill:#04A359;}
	.st47{fill-rule:evenodd;clip-rule:evenodd;fill:#113A60;}
	.st48{fill:#113A60;}
	.st49{opacity:0.8;fill-rule:evenodd;clip-rule:evenodd;fill:#027CA9;}
	.st50{opacity:0.8;fill:#027CA9;}
	.st51{fill:#184287;}
	.st52{fill:#1A4486;}
	.st53{fill:#F8D800;}
	.st54{fill:#E50402;}
	.st55{fill:#F3FF1B;}
	.st56{fill:#0C790D;}
	.st57{fill:#FFFFFF;}
	.st58{fill:#FCDD09;}
	.st59{fill:#EB7711;}
	.st60{fill:#DA121A;}
	.st61{fill:#742C64;}
	.st62{fill:#0F47AF;}
	.st63{fill:#078930;}
	.st64{fill:none;}
</style>
<g id="Capa_1" class="st0">
	<g class="st4">
		<path class="st5" d="M100.86,2.65c-32.52,0-58.88,26.36-58.88,58.88c0,32.52,26.36,58.88,58.88,58.88s58.88-26.36,58.88-58.88
			C159.74,29.01,133.39,2.65,100.86,2.65z M101.71,101.18c-21.92,0-39.65-17.73-39.65-39.65c0-11.36,4.75-21.57,12.4-28.79
			c0.69-0.66,1.4-1.29,2.14-1.89c0.75-0.61,1.53-1.2,2.32-1.75c6.43-4.55,14.28-7.22,22.79-7.22c21.92,0,39.65,17.73,39.65,39.65
			c0,6.03-1.34,11.77-3.77,16.88c-0.41,0.87-0.85,1.73-1.32,2.57c-0.47,0.83-0.97,1.65-1.49,2.44
			C127.69,94.12,115.53,101.18,101.71,101.18z"/>
		<path class="st5" d="M119.87,59.16c0,1.38-0.15,2.71-0.43,4c-0.42,1.99-1.16,3.86-2.15,5.57c-3.29,5.64-9.41,9.43-16.42,9.43
			c-10.5,0-19-8.51-19-19c0-5.83,2.62-11.04,6.75-14.53c1.52-1.28,3.24-2.32,5.11-3.09c2.2-0.89,4.61-1.39,7.14-1.39
			C111.36,40.15,119.87,48.66,119.87,59.16z"/>
		<path class="st3" d="M93.72,41.54c-1.87,0.76-3.59,1.81-5.11,3.09L74.46,32.74c0.69-0.66,1.4-1.29,2.14-1.89
			c0.75-0.61,1.53-1.2,2.32-1.75L93.72,41.54z"/>
		<path class="st3" d="M137.59,78.42c-0.41,0.87-0.85,1.73-1.32,2.57c-0.47,0.83-0.97,1.65-1.49,2.44l-17.49-14.7
			c0.99-1.71,1.73-3.58,2.15-5.57L137.59,78.42z"/>
		<path class="st3" d="M15.47,156.76C9.14,156.76,4,151.61,4,145.29c0-6.33,5.15-11.48,11.48-11.48c6.33,0,11.48,5.15,11.48,11.48
			C26.95,151.61,21.8,156.76,15.47,156.76z M15.47,135.9c-5.18,0-9.39,4.21-9.39,9.39s4.21,9.39,9.39,9.39s9.39-4.21,9.39-9.39
			S20.65,135.9,15.47,135.9z"/>
		
			<rect x="17.73" y="143.69" transform="matrix(0.791 -0.6119 0.6119 0.791 -87.2979 42.6547)" class="st3" width="2.09" height="10.8"/>
		<path class="st3" d="M50.54,155.16c-6.52,0-8.71-3.83-9.43-6.11c-0.24-0.76-0.36-1.57-0.36-2.5v-12.73h2.09v12.73
			c0,0.71,0.08,1.32,0.26,1.87c0.67,2.12,2.5,4.65,7.44,4.65c3.35,0,5.77-1.19,7.19-3.55c0.64-1.05,0.97-2.35,0.97-3.76v-11.93h2.09
			v11.93c0,1.79-0.44,3.47-1.27,4.84C58.27,152.69,55.69,155.16,50.54,155.16z"/>
		<rect x="82.42" y="133.83" class="st3" width="2.09" height="21.13"/>
		<path class="st3" d="M105.4,154.12h-2.09v-10.35h11.48c0.32-0.04,4.03-0.54,4.03-4.78c0-0.05,0.03-1.47-0.89-2.43
			c-0.61-0.63-1.54-0.95-2.76-0.95h-11.56v-2.09h11.56c1.82,0,3.26,0.54,4.28,1.6c1.54,1.61,1.47,3.81,1.46,3.9
			c0,4.95-3.94,6.63-6.02,6.82l-9.48,0V154.12z"/>
		<path class="st3" d="M151.47,155.16c-6.25,0-9.05-4.27-9.96-6.1c-0.32-0.64-0.48-1.34-0.48-2.07v-13.16h2.09v13.16
			c0,0.4,0.09,0.79,0.26,1.14c0.92,1.85,3.19,4.94,8.09,4.94c4.18,0,6.44-2.49,7.59-4.58c0.44-0.8,0.67-1.73,0.67-2.69v-11.98h2.09
			v11.98c0,1.31-0.32,2.59-0.93,3.7C159.72,151.62,156.95,155.16,151.47,155.16z"/>
		<path class="st3" d="M192.12,155.16h-12.08v-2.09h11.84c0.55-0.15,3.2-1.05,3.16-4.05c-0.05-3.07-3.14-3.61-3.59-3.67l-7.35-0.02
			c-1.76-0.36-5.09-2.01-5.09-5.66c0-3.66,3.43-5.26,5.24-5.6l0.19-0.02h11.65v2.09h-11.54c-0.54,0.12-3.45,0.91-3.45,3.53
			c0,2.62,2.78,3.45,3.34,3.59l7.2,0.01c1.88,0.21,5.44,1.67,5.5,5.72c0.06,3.99-3.17,5.76-4.89,6.14L192.12,155.16z"/>
	</g>
</g>
<g id="Capa_2">
	<g>
		<g>
			<path class="st49" d="M100.86,2.65c-32.52,0-58.88,26.36-58.88,58.88c0,32.52,26.36,58.88,58.88,58.88s58.88-26.36,58.88-58.88
				C159.74,29.01,133.39,2.65,100.86,2.65z M101.71,101.18c-21.92,0-39.65-17.73-39.65-39.65c0-11.36,4.75-21.57,12.4-28.79
				c0.69-0.66,1.4-1.29,2.14-1.89c0.75-0.61,1.53-1.2,2.32-1.75c6.43-4.55,14.28-7.22,22.79-7.22c21.92,0,39.65,17.73,39.65,39.65
				c0,6.03-1.34,11.77-3.77,16.88c-0.41,0.87-0.85,1.73-1.32,2.57c-0.47,0.83-0.97,1.65-1.49,2.44
				C127.69,94.12,115.53,101.18,101.71,101.18z"/>
			<path class="st49" d="M119.87,59.16c0,1.38-0.15,2.71-0.43,4c-0.42,1.99-1.16,3.86-2.15,5.57c-3.29,5.64-9.41,9.43-16.42,9.43
				c-10.5,0-19-8.51-19-19c0-5.83,2.62-11.04,6.75-14.53c1.52-1.28,3.24-2.32,5.11-3.09c2.2-0.89,4.61-1.39,7.14-1.39
				C111.36,40.15,119.87,48.66,119.87,59.16z"/>
			<path class="st50" d="M93.72,41.54c-1.87,0.76-3.59,1.81-5.11,3.09L74.46,32.74c0.69-0.66,1.4-1.29,2.14-1.89
				c0.75-0.61,1.53-1.2,2.32-1.75L93.72,41.54z"/>
			<path class="st50" d="M137.59,78.42c-0.41,0.87-0.85,1.73-1.32,2.57c-0.47,0.83-0.97,1.65-1.49,2.44l-17.49-14.7
				c0.99-1.71,1.73-3.58,2.15-5.57L137.59,78.42z"/>
			<path class="st50" d="M15.47,156.76C9.14,156.76,4,151.61,4,145.29c0-6.33,5.15-11.48,11.48-11.48c6.33,0,11.48,5.15,11.48,11.48
				C26.95,151.61,21.8,156.76,15.47,156.76z M15.47,135.9c-5.18,0-9.39,4.21-9.39,9.39s4.21,9.39,9.39,9.39s9.39-4.21,9.39-9.39
				S20.65,135.9,15.47,135.9z"/>
			
				<rect x="17.73" y="143.69" transform="matrix(0.791 -0.6119 0.6119 0.791 -87.2979 42.6547)" class="st50" width="2.09" height="10.8"/>
			<path class="st50" d="M50.54,155.16c-6.52,0-8.71-3.83-9.43-6.11c-0.24-0.76-0.36-1.57-0.36-2.5v-12.73h2.09v12.73
				c0,0.71,0.08,1.32,0.26,1.87c0.67,2.12,2.5,4.65,7.44,4.65c3.35,0,5.77-1.19,7.19-3.55c0.64-1.05,0.97-2.35,0.97-3.76v-11.93
				h2.09v11.93c0,1.79-0.44,3.47-1.27,4.84C58.27,152.69,55.69,155.16,50.54,155.16z"/>
			<rect x="82.42" y="133.83" class="st50" width="2.09" height="21.13"/>
			<path class="st50" d="M105.4,154.12h-2.09v-10.35h11.48c0.32-0.04,4.03-0.54,4.03-4.78c0-0.05,0.03-1.47-0.89-2.43
				c-0.61-0.63-1.54-0.95-2.76-0.95h-11.56v-2.09h11.56c1.82,0,3.26,0.54,4.28,1.6c1.54,1.61,1.47,3.81,1.46,3.9
				c0,4.95-3.94,6.63-6.02,6.82l-9.48,0V154.12z"/>
			<path class="st50" d="M151.47,155.16c-6.25,0-9.05-4.27-9.96-6.1c-0.32-0.64-0.48-1.34-0.48-2.07v-13.16h2.09v13.16
				c0,0.4,0.09,0.79,0.26,1.14c0.92,1.85,3.19,4.94,8.09,4.94c4.18,0,6.44-2.49,7.59-4.58c0.44-0.8,0.67-1.73,0.67-2.69v-11.98h2.09
				v11.98c0,1.31-0.32,2.59-0.93,3.7C159.72,151.62,156.95,155.16,151.47,155.16z"/>
			<path class="st50" d="M192.12,155.16h-12.08v-2.09h11.84c0.55-0.15,3.2-1.05,3.16-4.05c-0.05-3.07-3.14-3.61-3.59-3.67
				l-7.35-0.02c-1.76-0.36-5.09-2.01-5.09-5.66c0-3.66,3.43-5.26,5.24-5.6l0.19-0.02h11.65v2.09h-11.54
				c-0.54,0.12-3.45,0.91-3.45,3.53c0,2.62,2.78,3.45,3.34,3.59l7.2,0.01c1.88,0.21,5.44,1.67,5.5,5.72
				c0.06,3.99-3.17,5.76-4.89,6.14L192.12,155.16z"/>
		</g>
	</g>
</g>
</svg>
