<?xml version="1.0" encoding="utf-8"?>
<!-- Generator: Adobe Illustrator 24.1.2, SVG Export Plug-In . SVG Version: 6.00 Build 0)  -->
<svg version="1.1" id="Capa_1" xmlns="http://www.w3.org/2000/svg" xmlns:xlink="http://www.w3.org/1999/xlink" x="0px" y="0px"
	 viewBox="0 0 200 200" style="enable-background:new 0 0 200 200;" xml:space="preserve">
<style type="text/css">
	.st0{fill:#083D79;}
	.st1{fill-rule:evenodd;clip-rule:evenodd;fill:#FBBA00;}
	.st2{fill-rule:evenodd;clip-rule:evenodd;fill:#FFFFFF;}
</style>
<rect x="-0.21" class="st0" width="200.21" height="200"/>
<ellipse transform="matrix(0.7071 -0.7071 0.7071 0.7071 -41.1213 100.2898)" class="st1" cx="100.5" cy="99.78" rx="47.96" ry="47.96"/>
<g>
	<path class="st2" d="M196.39,103.23c-1.13,0.1-2.26,0.25-3.39,0.25c-1.13,0-2.26-0.15-3.39-0.25v37.3c1.13-0.1,2.26-0.24,3.39-0.24
		c1.13,0,2.26,0.15,3.39,0.24V103.23z"/>
	<path class="st2" d="M172.5,116.29c-7.51,0-11.98,5.15-11.98,12.86c0,7.27,4.66,11.83,11.93,11.83c7.71,0,12.12-5.45,12.12-12.91
		C184.57,120.8,179.91,116.29,172.5,116.29z M172.45,138.77c-4.27,0-4.66-6.63-4.66-9.77c0-5.79,1.03-10.5,5.01-10.5
		c3.29,0,4.51,4.02,4.51,8.79C177.31,132.68,176.23,138.67,172.45,138.77z"/>
	<path class="st2" d="M154.19,113.2c0.49-1.67,0.98-3.29,1.57-4.86c-1.08-1.03-4.22-2.36-7.75-2.36c-7.46,0-11.34,4.66-11.34,10.31
		c0,11.83,14.63,8.98,14.63,16.84c0,3.39-2.7,5.1-5.74,5.1c-3.39,0-6.04-2.01-6.77-5.4h-0.93c-0.29,2.11-0.83,4.17-1.42,6.23
		c2.31,1.47,5.2,2.11,7.9,2.11c7.61,0,13.01-4.52,13.01-10.8c0-11.24-14.92-10.02-14.92-16.64c0-2.8,1.52-4.81,5.4-4.81
		c2.8,0,4.66,1.67,5.64,4.27H154.19z"/>
	<path class="st2" d="M120.68,116.29c-7.51,0-11.98,5.15-11.98,12.86c0,7.27,4.66,11.83,11.93,11.83c7.71,0,12.13-5.45,12.13-12.91
		C132.75,120.8,128.09,116.29,120.68,116.29z M120.63,138.77c-4.27,0-4.66-6.63-4.66-9.77c0-5.79,1.03-10.5,5.01-10.5
		c3.29,0,4.52,4.02,4.52,8.79C125.49,132.68,124.41,138.67,120.63,138.77z"/>
	<path class="st2" d="M106.09,118.5c-2.31-1.52-5.65-2.21-8.44-2.21c-7.71,0-12.91,4.96-12.91,12.76c0,7.71,5.25,11.93,12.86,11.93
		c1.77,0,5.25-0.64,6.63-1.87l1.18-2.95l-0.84-0.69c-1.18,1.42-3.29,2.31-5.1,2.31c-5.35,0-7.46-3.78-7.46-9.67
		c0-3.63,1.42-9.62,6.04-9.62c2.9,0,4.66,2.4,5.01,5.1h1.18L106.09,118.5z"/>
	<path class="st2" d="M57.96,140.53c1.13-0.1,2.26-0.24,3.39-0.24c1.13,0,2.26,0.15,3.39,0.24v-11.29c0-3.09,0-8.84,4.27-8.84
		c3.44,0,4.03,3.34,4.03,7.9v12.22c1.13-0.1,2.26-0.24,3.39-0.24c1.13,0,2.26,0.15,3.39,0.24v-14.38c0-5.89-1.57-9.87-7.75-9.87
		c-3.04,0-5.6,1.77-7.56,4.07v-3.63c-1.08,0.1-2.16,0.25-3.24,0.25c-1.13,0-2.21-0.15-3.29-0.25V140.53z"/>
	<g>
		<g>
			<path class="st2" d="M51.96,136.22v-13.35c0-4.91-5.2-6.58-9.33-6.58c-3.09,0-6.77,1.13-9.08,3.29l0.64,2.95h0.34
				c0.3-0.89,2.85-3.04,5.99-3.04c2.26,0,4.66,1.96,4.66,4.32c0,0.74-0.15,1.37-0.74,1.91c-1.08,0.69-2.36,0.98-3.58,1.28
				c-6.13,1.47-8.98,2.85-8.98,7.51c0,4.27,2.99,6.48,7.02,6.48c2.55,0,5.01-1.33,6.28-3.58c0.79,2.16,2.55,3.58,4.86,3.58
				c1.37,0,3.24-0.79,4.42-1.33v-1.13C52.5,138.62,51.96,138.03,51.96,136.22z M45.19,132.44c-0.1,2.45-0.74,5.35-3.73,5.35
				c-2.11,0-2.7-2.11-2.7-3.93c0-1.57,0.29-3.04,1.57-4.07c1.42-1.13,3.63-1.57,4.86-2.11V132.44z"/>
		</g>
	</g>
	<g>
		<g>
			<path class="st2" d="M18.99,122.57v-0.44c4.17-0.59,8.05-3.24,8.05-7.85c0-5.74-4.81-7.41-9.77-7.41H4.61v33.43h11.34
				c5.79,0,11.88-2.85,11.88-9.62C27.83,124.58,22.62,122.91,18.99,122.57z M11.97,109.71c0.98-0.15,1.72-0.2,2.5-0.2
				c3.24,0,5.25,1.91,5.25,5.45c0,1.92-0.59,3.83-2.11,5.1c-1.67,1.42-3.53,1.23-5.65,1.23V109.71z M14.43,137.44h-2.45v-13.3
				c5.25-0.39,8.25,1.47,8.25,6.87C20.22,135.09,17.13,137.44,14.43,137.44z"/>
		</g>
	</g>
</g>
</svg>
