<?xml version="1.0" encoding="utf-8"?>
<!-- Generator: Adobe Illustrator 25.4.1, SVG Export Plug-In . SVG Version: 6.00 Build 0)  -->
<svg version="1.1" xmlns="http://www.w3.org/2000/svg" xmlns:xlink="http://www.w3.org/1999/xlink" x="0px" y="0px"
	 viewBox="0 0 200 190.91" style="enable-background:new 0 0 200 190.91;" xml:space="preserve">
<style type="text/css">
	.st0{display:none;}
	.st1{display:inline;opacity:0.8;}
	.st2{fill-rule:evenodd;clip-rule:evenodd;}
	.st3{opacity:0.8;}
	.st4{display:inline;}
	.st5{opacity:0.8;fill-rule:evenodd;clip-rule:evenodd;}
	.st6{clip-path:url(#SVGID_00000057855825107585465090000005586266520872124326_);}
	.st7{clip-path:url(#SVGID_00000024687973474748945050000008997346008112440762_);}
	.st8{fill:#333333;}
	.st9{fill:#DBDBDB;}
	.st10{fill:#3F3F3F;}
	.st11{fill:#FFFFFA;}
	.st12{fill:#DEDEDE;}
	.st13{fill:#979797;}
	.st14{fill:#484848;}
	.st15{fill:#4D4D4D;}
	.st16{fill:#6F6F6F;}
	.st17{fill:none;stroke:#000000;stroke-width:2;stroke-miterlimit:3.8637;}
	.st18{display:inline;opacity:0.8;fill-rule:evenodd;clip-rule:evenodd;}
	.st19{fill-rule:evenodd;clip-rule:evenodd;fill:none;stroke:#000000;stroke-miterlimit:10;}
	.st20{fill:#1D1D1B;}
	.st21{fill:#FFE13A;}
	.st22{fill:#009EE2;}
	.st23{fill-rule:evenodd;clip-rule:evenodd;fill:#009EE2;}
	.st24{fill:#0D2B60;}
	.st25{fill:#D6430D;}
	.st26{fill:#F5A300;}
	.st27{fill:#AABC14;}
	.st28{fill:#CCA857;}
	.st29{fill:#791525;}
	.st30{fill:none;stroke:#791525;stroke-width:0.0496;}
	.st31{fill:#00A651;}
	.st32{fill:#005E9E;}
	.st33{fill:#FFCB05;}
	.st34{fill:#ED1C24;}
	.st35{fill-rule:evenodd;clip-rule:evenodd;fill:#ED1C24;}
	.st36{fill-rule:evenodd;clip-rule:evenodd;fill:#00A651;}
	.st37{opacity:0.8;fill:#FFE13A;}
	.st38{fill:#9E250E;}
	.st39{fill:#312C63;}
	.st40{fill-rule:evenodd;clip-rule:evenodd;fill:#312C63;}
	.st41{fill:none;stroke:#7F1313;stroke-width:2;stroke-miterlimit:3.8637;}
	.st42{fill-rule:evenodd;clip-rule:evenodd;fill:#083D79;}
	.st43{fill-rule:evenodd;clip-rule:evenodd;fill:#00168D;}
	.st44{fill:#00168D;}
	.st45{fill:#00376F;}
	.st46{fill:#04A359;}
	.st47{fill-rule:evenodd;clip-rule:evenodd;fill:#113A60;}
	.st48{fill:#113A60;}
	.st49{opacity:0.8;fill-rule:evenodd;clip-rule:evenodd;fill:#027CA9;}
	.st50{opacity:0.8;fill:#027CA9;}
	.st51{fill:#184287;}
	.st52{fill:#1A4486;}
	.st53{fill:#F8D800;}
	.st54{fill:#E50402;}
	.st55{fill:#F3FF1B;}
	.st56{fill:#0C790D;}
	.st57{fill:#FFFFFF;}
	.st58{fill:#FCDD09;}
	.st59{fill:#EB7711;}
	.st60{fill:#DA121A;}
	.st61{fill:#742C64;}
	.st62{fill:#0F47AF;}
	.st63{fill:#078930;}
	.st64{fill:none;}
</style>
<g id="Capa_1" class="st0">
	<g class="st4">
		<g>
			<path class="st3" d="M92.65,86.63c0-12.89,0-25.74,0-38.65c0.35-0.02,0.66-0.04,0.96-0.04c4.09,0,8.18-0.04,12.26,0.01
				c2.23,0.03,4.46,0.24,6.54,1.16c4.41,1.94,6.09,5.6,5.74,10.22c-0.22,2.91-1.43,5.29-3.92,7.05c0.16,0.12,0.26,0.23,0.39,0.29
				c2.99,1.46,4.46,3.96,4.72,7.19c0.23,2.9-0.08,5.73-1.88,8.16c-2.07,2.8-5.01,4.32-8.36,4.49c-5.39,0.28-10.81,0.16-16.21,0.21
				C92.82,86.73,92.77,86.68,92.65,86.63z M101.7,78.62c1.82,0,3.58,0.13,5.31-0.04c1.51-0.14,2.68-1.44,2.9-2.96
				c0.24-1.66,0.04-3.23-1.44-4.32c-0.37-0.27-0.85-0.53-1.28-0.54c-1.81-0.06-3.63-0.03-5.5-0.03
				C101.7,73.36,101.7,75.93,101.7,78.62z M101.65,63.04c1.66,0,3.19,0.11,4.7-0.03c1.41-0.13,2.33-1.23,2.49-2.65
				c0.05-0.5,0.06-1,0.02-1.5c-0.12-1.63-1.21-2.76-2.83-2.84c-1.25-0.07-2.51-0.05-3.77,0c-0.21,0.01-0.58,0.37-0.59,0.57
				C101.63,58.72,101.65,60.86,101.65,63.04z"/>
			<path class="st3" d="M90.02,86.74c-3.09,0-6.08,0-9.14,0c-0.89-2.86-1.78-5.73-2.7-8.67c-0.64,0-1.26,0-1.89,0
				c-3.05,0-6.1,0.02-9.15-0.01c-0.62-0.01-0.95,0.13-1.14,0.78c-0.67,2.32-1.43,4.61-2.1,6.93c-0.21,0.73-0.52,1.04-1.35,1.02
				c-2.67-0.07-5.34-0.02-8.17-0.02c0.53-1.6,1.04-3.12,1.55-4.65c2.53-7.52,5.05-15.04,7.58-22.56c1.22-3.62,2.46-7.24,3.64-10.88
				c0.19-0.59,0.52-0.67,1.03-0.67c2.67,0.01,5.35,0.03,8.02-0.01c0.65-0.01,0.91,0.2,1.12,0.82c2.11,6.34,4.25,12.67,6.38,19.01
				c2.06,6.12,4.11,12.25,6.16,18.37C89.91,86.34,89.95,86.49,90.02,86.74z M75.82,70.32c-1.18-4.08-2.34-8.05-3.49-12.03
				c-0.08,0-0.16,0.01-0.24,0.01c-1.15,3.98-2.3,7.96-3.48,12.01C71.04,70.32,73.35,70.32,75.82,70.32z"/>
			<path class="st3" d="M151.26,51.17c-0.81,2.61-1.61,5.18-2.41,7.75c-1.3-0.61-2.52-1.32-3.83-1.77
				c-7.99-2.73-14.78,2.44-14.33,10.96c0.22,4.29,2.08,7.74,6.19,9.44c3.51,1.45,7.02,0.89,10.36-0.81c0.56-0.28,1.09-0.62,1.73-1
				c0.61,1.96,1.19,3.89,1.81,5.81c0.72,2.24,0.75,2.27-1.4,3.33c-7.37,3.62-19.96,2.84-25.51-7.52
				c-4.55-8.49-3.15-21.44,7.15-26.99c6.47-3.49,13.12-3.39,19.61,0.29c0.16,0.09,0.32,0.2,0.47,0.31
				C151.14,51.01,151.18,51.07,151.26,51.17z"/>
			<path class="st3" d="M128.66,163.39c0.21-0.11,0.29-0.15,0.37-0.19c1.37-0.67,1.87-1.56,1.69-3.03
				c-0.14-1.21-0.89-2.09-2.31-2.22c-1.76-0.15-3.54-0.03-5.32-0.03v9.68h1.4v-2.37c0-1.9,0-1.93,1.87-1.77
				c0.32,0.03,0.69,0.26,0.9,0.52c0.68,0.86,1.38,1.73,1.9,2.69c0.58,1.04,1.38,1.09,2.45,0.89
				C130.61,166.14,129.64,164.78,128.66,163.39z M124.53,162.13v-3.03c1.25,0.05,2.46,0.02,3.66,0.19c0.82,0.11,1.16,0.78,1.05,1.62
				c-0.1,0.78-0.61,1.17-1.33,1.2C126.81,162.16,125.72,162.13,124.53,162.13z"/>
			<path class="st3" d="M90.98,163.41c0.2-0.11,0.28-0.16,0.36-0.2c1.37-0.71,1.89-1.63,1.69-3.04c-0.17-1.24-0.93-2.11-2.4-2.24
				c-1.7-0.15-3.43-0.03-5.17-0.03v9.68h1.37v-4.02c1.49-0.32,2.65-0.24,3.35,1.23c0.33,0.7,0.98,1.25,1.34,1.94
				c0.54,1.02,1.33,1.02,2.37,0.8C92.89,166.11,91.94,164.77,90.98,163.41z M89.98,162.12c-1,0.02-2,0.01-3.15,0.01
				c0-0.89-0.04-1.66,0.02-2.43c0.02-0.21,0.35-0.53,0.54-0.54c0.94-0.04,1.88-0.04,2.81,0.05c0.94,0.1,1.45,0.74,1.39,1.57
				C91.53,161.61,90.95,162.11,89.98,162.12z"/>
			<path class="st3" d="M80.59,163.42c0.16-0.1,0.23-0.16,0.3-0.2c1.43-0.73,1.94-1.65,1.72-3.1c-0.18-1.22-0.96-2.08-2.45-2.21
				c-1.67-0.15-3.37-0.03-5.12-0.03v9.71h1.36c0-1.16-0.01-2.23,0.01-3.3c0-0.26,0.04-0.61,0.21-0.77c0.35-0.34,2.2-0.01,2.5,0.4
				c0.67,0.92,1.41,1.79,1.96,2.77c0.56,1,1.32,1.09,2.39,0.84C82.49,166.13,81.55,164.78,80.59,163.42z M76.41,162.13
				c0-0.88-0.03-1.69,0.02-2.49c0.02-0.18,0.33-0.47,0.51-0.48c0.94-0.03,1.88-0.04,2.81,0.05c0.93,0.09,1.49,0.74,1.46,1.53
				c-0.04,0.82-0.69,1.37-1.69,1.39C78.53,162.14,77.53,162.13,76.41,162.13z"/>
			<path class="st3" d="M59.89,149.92c0.21-0.19,0.38-0.33,0.52-0.49c0.58-0.66,0.63-1.44,0.37-2.21c-0.26-0.77-0.88-1.29-1.68-1.32
				c-1.63-0.07-3.26-0.02-4.95-0.02v9.02c1.81,0,3.58,0.11,5.32-0.03c1.49-0.12,2.21-1.18,2.17-2.68
				C61.61,151.03,60.9,150.4,59.89,149.92z M57.36,147.01c0.2,0.01,0.68-0.02,1.14,0.08c0.62,0.13,1.07,0.49,1.06,1.22
				c-0.01,0.73-0.47,1.1-1.11,1.16c-0.84,0.09-1.68,0.08-2.52,0.04c-0.18-0.01-0.34-0.32-0.5-0.51c-0.03-0.03-0.01-0.12-0.01-0.18
				C55.42,146.58,55.28,147.07,57.36,147.01z M58.75,153.67c-0.25,0.02-0.5,0.08-0.75,0.09c-2.72,0.13-2.9-0.09-2.47-3.01
				c1.1,0,2.17-0.05,3.22,0.02c0.89,0.06,1.46,0.68,1.42,1.45C60.13,153.11,59.62,153.58,58.75,153.67z"/>
			<path class="st3" d="M117.1,152.19c0-2.09,0-4.17,0-6.31c0.49,0,0.85,0,1.28,0c0,3.01,0,6.01,0,9.04
				c-0.76,0.23-1.27-0.03-1.74-0.66c-1.47-1.95-2.99-3.86-4.71-5.73c0,2.1,0,4.21,0,6.38c-0.49,0-0.85,0-1.29,0
				c0-2.96,0-5.93,0-8.97c0.64-0.25,1.16-0.16,1.64,0.48c1.3,1.74,2.65,3.43,3.99,5.14c0.19,0.24,0.4,0.47,0.6,0.7
				C116.94,152.24,117.02,152.22,117.1,152.19z"/>
			<path class="st3" d="M67.94,145.65c-2.74-0.02-4.76,1.93-4.78,4.61c-0.02,2.83,1.89,4.85,4.61,4.87c2.79,0.01,4.77-1.93,4.78-4.7
				C72.56,147.67,70.63,145.67,67.94,145.65z M67.85,153.88c-1.88-0.01-3.25-1.5-3.23-3.52c0.01-2.02,1.42-3.49,3.3-3.45
				c1.83,0.04,3.23,1.54,3.23,3.47C71.14,152.36,69.71,153.88,67.85,153.88z"/>
			<path class="st3" d="M101.69,163.07c-1.48,0-2.88,0-4.37,0c0,1.09,0,2.1,0,3.21c1.87,0,3.71,0,5.59,0c0,0.49,0,0.88,0,1.32
				c-2.35,0-4.66,0-7.05,0c0-3.26,0-6.48,0-9.76c2.26,0,4.53,0,6.85,0c0,0.39,0,0.76,0,1.28c-1.35,0-2.69,0-4.03,0
				c-1.68,0.01-1.42-0.1-1.45,1.48c-0.01,0.34,0,0.67,0,1.11c1.54,0,2.97,0,4.45,0C101.69,162.19,101.69,162.55,101.69,163.07z"/>
			<path class="st3" d="M139.46,146.13c-1.61-0.4-3.34-0.29-5.08-0.41v9.19c1.45,0,2.87,0.12,4.26-0.03
				c2.23-0.23,3.77-1.89,3.95-4.01C142.79,148.59,141.7,146.68,139.46,146.13z M141.22,150.64c-0.16,1.74-1.27,2.84-3.04,3
				c-0.77,0.07-1.54,0.09-2.43,0.14c0-2.21-0.01-4.27,0.02-6.33c0.01-0.15,0.32-0.41,0.48-0.41c0.81,0.01,1.65-0.02,2.43,0.15
				C140.38,147.57,141.38,149,141.22,150.64z"/>
			<path class="st3" d="M119.89,161.7c0,0.53,0,0.89,0,1.36c-1.47,0-2.9,0-4.4,0c0,1.1,0,2.08,0,3.2c1.82,0,3.65,0,5.54,0
				c0,0.49,0,0.85,0,1.3c-2.31,0-4.61,0-7,0c0-3.22,0-6.44,0-9.72c2.25,0,4.5,0,6.81,0c0,0.38,0,0.77,0,1.29c-1.79,0-3.56,0-5.37,0
				c0,0.91,0,1.68,0,2.56C116.94,161.7,118.37,161.7,119.89,161.7z"/>
			<path class="st3" d="M142.25,166.81c-1.19-2.75-2.4-5.5-3.58-8.27c-0.22-0.52-0.45-0.79-1.07-0.79c-0.63,0-0.87,0.27-1.07,0.8
				c-0.27,0.73-0.62,1.43-0.93,2.15c-0.99,2.26-1.97,4.52-3.02,6.95c0.81-0.11,1.6,0.38,1.82-0.62c0.36-1.64,1.39-2.12,2.93-1.86
				c0.37,0.06,0.76,0.06,1.13-0.01c1.16-0.2,1.75,0.29,2.12,1.39c0.43,1.28,0.55,1.27,1.95,0.95
				C142.44,167.27,142.35,167.04,142.25,166.81z M135.73,163.89c0.6-1.41,1.17-2.71,1.84-4.28c0.68,1.54,1.26,2.85,1.88,4.28H135.73
				z"/>
			<path class="st3" d="M73.02,167.02c-1.22-2.81-2.45-5.63-3.67-8.45c-0.21-0.47-0.39-0.83-1.06-0.83c-0.69,0-0.92,0.31-1.12,0.86
				c-0.27,0.7-0.61,1.38-0.91,2.07c-0.98,2.26-1.96,4.53-2.94,6.8c0.08,0.11,0.16,0.22,0.23,0.32c0.49-0.2,1.33-0.32,1.4-0.62
				c0.46-1.89,1.68-2.27,3.36-2c0.21,0.03,0.44,0.04,0.65,0c1.27-0.25,1.95,0.28,2.33,1.5c0.36,1.16,0.56,1.18,1.85,0.79
				C73.1,167.32,73.08,167.16,73.02,167.02z M66.39,163.87c0.61-1.41,1.17-2.69,1.85-4.26c0.67,1.52,1.24,2.83,1.86,4.26H66.39z"/>
			<path class="st3" d="M143.56,165.61c1.47,0.33,2.67,0.64,3.89,0.85c0.37,0.06,0.88-0.02,1.17-0.24c0.41-0.31,0.93-0.8,0.94-1.22
				c0.01-0.42-0.47-1.03-0.89-1.24c-0.83-0.42-1.78-0.59-2.66-0.92c-0.88-0.34-1.79-0.67-2.07-1.74c-0.4-1.55,0.38-2.99,2.01-3.25
				c1.09-0.17,2.26-0.11,3.34,0.11c1.34,0.27,1.33,0.4,1.17,1.61c-1.19-0.17-2.38-0.4-3.57-0.48c-0.73-0.05-1.41,0.28-1.52,1.11
				c-0.1,0.78,0.53,1.07,1.14,1.29c0.97,0.35,1.97,0.63,2.93,1.02c1.13,0.46,1.72,1.32,1.7,2.57c-0.02,1.12-0.7,2.07-1.87,2.46
				c-1.72,0.58-3.44,0.45-5.02-0.42C143.85,166.9,143.78,166.12,143.56,165.61z"/>
			<path class="st3" d="M108.73,154.34c-1.15-2.64-2.32-5.27-3.45-7.92c-0.21-0.5-0.44-0.74-1.02-0.73
				c-0.54,0.02-0.77,0.25-0.94,0.72c-0.15,0.47-0.39,0.92-0.59,1.38c-1.02,2.35-2.03,4.7-3.12,7.22c0.7-0.12,1.46,0.37,1.67-0.57
				c0.37-1.69,1.48-2.02,2.97-1.78c0.27,0.04,0.57,0.05,0.84,0c1.14-0.21,1.76,0.28,2.02,1.36c0.23,0.99,0.86,1.18,1.8,0.87
				C108.84,154.69,108.8,154.51,108.73,154.34z M102.58,151.38c0.56-1.28,1.08-2.47,1.7-3.91c0.62,1.39,1.15,2.59,1.74,3.91H102.58z
				"/>
			<path class="st3" d="M125.45,146.06c-0.07-0.15-0.3-0.31-0.47-0.33c-0.52-0.06-0.99-0.09-1.27,0.6c-1.2,2.87-2.46,5.72-3.69,8.56
				c1.2,0.43,1.71-0.21,1.94-1.15c0.23-0.91,0.76-1.18,1.64-1.09c0.68,0.07,1.39,0.09,2.07,0c0.94-0.12,1.45,0.25,1.69,1.15
				c0.24,0.92,0.75,1.49,1.95,1.08C128.01,151.9,126.74,148.97,125.45,146.06z M122.94,151.38c0.56-1.28,1.07-2.47,1.7-3.93
				c0.63,1.43,1.15,2.62,1.72,3.93H122.94z"/>
			<path class="st3" d="M144.75,145.88c2.16,0,4.25,0,6.41,0c0,0.38,0,0.7,0,1.14c-1.41,0-2.79,0.08-4.15-0.02
				c-1.17-0.08-0.95,0.64-0.98,1.32c-0.04,0.75,0.01,1.28,1.02,1.18c0.99-0.1,2-0.02,3.07-0.02c0,0.41,0,0.76,0,1.22
				c-1.33,0-2.64,0-4.08,0c0,0.94-0.04,1.78,0.03,2.61c0.02,0.18,0.47,0.43,0.73,0.44c1.13,0.05,2.26,0.02,3.39,0.03
				c0.34,0,0.68,0,1.06,0c0,0.44,0,0.77,0,1.17c-2.15,0-4.3,0-6.51,0C144.75,151.92,144.75,148.95,144.75,145.88z"/>
			<path class="st3" d="M62.04,165.8c0.16,1.43,0.12,1.48-1.16,1.83c-2.43,0.66-4.87-0.17-6.07-2.08c-1.18-1.88-0.97-4.57,0.51-6.24
				c1.4-1.58,4.16-2.2,6.05-1.24c0.37,0.19,0.49,0.88,0.61,1.43c-2.28-0.71-4.34-0.99-5.84,1.22c-0.85,1.26-0.8,3.11,0.13,4.26
				C57.91,167,59.95,166.75,62.04,165.8z"/>
			<path class="st3" d="M85.82,145.93c0.98-0.29,1.54-0.09,1.9,0.93c0.61,1.74,1.4,3.42,2.11,5.12c0.13,0.3,0.29,0.6,0.53,1.1
				c0.64-1.5,1.19-2.81,1.75-4.13c0.29-0.69,0.65-1.37,0.86-2.09c0.29-1.01,0.88-1.27,1.89-0.93c-1.04,2.45-2.08,4.89-3.12,7.34
				c-0.16,0.37-0.36,0.74-0.48,1.12c-0.15,0.49-0.4,0.69-0.95,0.69c-0.55,0-0.76-0.24-0.95-0.7c-1.08-2.57-2.19-5.12-3.28-7.69
				C85.98,146.45,85.91,146.19,85.82,145.93z"/>
			<path class="st3" d="M108.85,167.59c-0.52,0-0.94,0-1.47,0c0-2.8,0-5.55,0-8.43c-1.12,0-2.14,0-3.21,0c0-0.51,0-0.9,0-1.33
				c2.64,0,5.27,0,7.95,0c0,0.39,0,0.75,0,1.3c-0.76,0-1.57,0.04-2.36-0.01c-0.7-0.04-0.93,0.21-0.92,0.91
				c0.04,2.17,0.01,4.33,0.01,6.5C108.85,166.87,108.85,167.21,108.85,167.59z"/>
			<path class="st3" d="M76.81,142.45c-0.34,0-0.58,0-0.91,0c0-1.65,0-3.26,0-4.88c-0.07-0.03-0.13-0.06-0.2-0.09
				c-0.48,0.63-0.95,1.26-1.44,1.88c-0.53,0.68-0.84,0.67-1.37-0.02c-0.45-0.59-0.9-1.19-1.56-1.75c0,1.59,0,3.19,0,4.84
				c-0.41,0-0.67,0-0.97,0c0-2.25,0-4.47,0-6.66c0.73-0.24,1.14,0.05,1.51,0.63c0.5,0.79,1.08,1.53,1.64,2.31
				c1.3-0.8,1.38-2.85,3.29-3.08C76.81,137.98,76.81,140.17,76.81,142.45z"/>
			<path class="st3" d="M124.39,135.87c-1.07-0.19-2.17-0.16-3.33-0.24v6.82c1.09,0,2.14,0.1,3.16-0.02c1.69-0.2,2.8-1.53,2.85-3.22
				C127.12,137.49,126.13,136.18,124.39,135.87z M125.62,140.57c-0.92,1.24-2.23,1.01-3.56,0.97v-4.87c1.38-0.12,2.7-0.22,3.61,1.06
				C126.23,138.52,126.21,139.78,125.62,140.57z"/>
			<path class="st3" d="M66.27,135.97c-1.22-0.26-2.51-0.25-3.8-0.36v6.82c1.14,0,2.24,0.11,3.31-0.03
				c1.62-0.22,2.63-1.47,2.75-3.12C68.63,137.8,67.71,136.29,66.27,135.97z M67.21,140.35c-0.57,1.04-1.57,1.37-3.69,1.16v-4.82
				c1.26-0.15,2.49-0.24,3.45,0.84C67.6,138.24,67.69,139.48,67.21,140.35z"/>
			<path class="st3" d="M141.26,139.59c1.25-0.75,1.56-1.34,1.36-2.4c-0.19-1.02-0.95-1.39-1.84-1.45
				c-1.11-0.08-2.24-0.02-3.39-0.02v6.77c0.33-0.01,0.6-0.03,0.98-0.04v-2.75c1.05-0.2,1.88-0.15,2.38,0.87
				c0.22,0.44,0.61,0.8,0.85,1.24c0.34,0.61,0.81,0.84,1.62,0.58C142.53,141.41,141.9,140.5,141.26,139.59z M140.63,138.7
				c-0.71,0.06-1.43,0.02-2.21,0.02v-2.1c0.76,0,1.48-0.04,2.18,0.01c0.63,0.05,1.08,0.38,1.07,1.08
				C141.66,138.37,141.2,138.66,140.63,138.7z"/>
			<path class="st3" d="M86.86,135.73c0.4,0,0.64,0,0.94,0c0,2.24,0,4.46,0,6.98c-0.51-0.31-0.97-0.47-1.24-0.79
				c-0.95-1.13-1.83-2.31-2.75-3.47c-0.18-0.24-0.38-0.46-0.76-0.9c0,1.79,0,3.31,0,4.89c-0.38,0.02-0.65,0.04-0.97,0.06
				c0-2.27,0-4.48,0-6.99c0.49,0.28,0.96,0.42,1.22,0.73c0.95,1.13,1.83,2.32,2.73,3.48c0.2,0.26,0.41,0.5,0.81,0.68
				C86.86,138.87,86.86,137.35,86.86,135.73z"/>
			<path class="st3" d="M132.11,135.57c-1.96-0.02-3.47,1.54-3.45,3.57c0.01,2.06,1.47,3.52,3.49,3.49
				c2.01-0.02,3.45-1.54,3.41-3.59C135.52,137.06,134.07,135.59,132.11,135.57z M132.14,141.72c-1.38,0.02-2.53-1.18-2.5-2.63
				c0.02-1.44,1.1-2.55,2.47-2.55c1.38,0.01,2.44,1.11,2.45,2.57C134.57,140.53,133.48,141.7,132.14,141.72z"/>
			<path class="st3" d="M109.71,139.58c1.27-0.78,1.59-1.35,1.36-2.42c-0.21-0.93-0.93-1.35-1.78-1.41
				c-1.12-0.08-2.24-0.02-3.41-0.02v6.71h0.89v-2.68c1.13-0.35,1.92-0.15,2.44,0.87c0.21,0.41,0.57,0.75,0.8,1.15
				c0.36,0.63,0.84,0.89,1.62,0.61C110.99,141.44,110.35,140.51,109.71,139.58z M109.14,138.7c-0.74,0.05-1.49,0.01-2.33,0.01v-2.07
				c0.81,0,1.61-0.11,2.34,0.04c0.38,0.08,0.85,0.58,0.93,0.97C110.21,138.23,109.73,138.65,109.14,138.7z"/>
			<path class="st3" d="M74.72,145.88c0.43,0,0.79,0,1.28,0c0,1.61,0,3.17,0,4.73c0,0.79,0.03,1.57-0.01,2.36
				c-0.04,0.64,0.24,0.81,0.83,0.8c1.31-0.03,2.63-0.01,4.03-0.01c0.02,0.41,0.03,0.74,0.05,1.15c-2.08,0-4.1,0-6.18,0
				C74.72,151.92,74.72,148.95,74.72,145.88z"/>
			<path class="st3" d="M116.83,136.24c-0.11-0.25-0.47-0.46-0.75-0.52c-0.18-0.04-0.54,0.18-0.62,0.37
				c-0.94,2.08-1.84,4.18-2.75,6.27c0.07,0.09,0.14,0.18,0.21,0.26c0.34-0.23,0.89-0.39,0.99-0.7c0.31-1,0.93-1.29,1.89-1.15
				c0.31,0.04,0.63,0.04,0.94,0c0.74-0.1,1.19,0.13,1.38,0.9c0.16,0.65,0.56,1.04,1.39,0.72
				C118.61,140.3,117.74,138.26,116.83,136.24z M114.82,139.85c0.41-0.96,0.78-1.81,1.27-2.92c0.47,1.08,0.85,1.93,1.29,2.92H114.82
				z"/>
			<path class="st3" d="M60.64,141.68c-0.78-1.82-1.55-3.63-2.36-5.43c-0.11-0.23-0.39-0.47-0.64-0.53
				c-0.2-0.06-0.62,0.08-0.69,0.24c-0.96,2.13-1.88,4.28-2.81,6.44c0.67,0.19,1.12,0.14,1.3-0.57c0.2-0.86,0.76-1.21,1.64-1.06
				c0.28,0.04,0.57,0.04,0.85,0c0.9-0.15,1.5,0.14,1.73,1.08c0.16,0.67,0.62,0.79,1.26,0.53C60.82,142.13,60.74,141.9,60.64,141.68z
				 M56.27,139.87c0.41-0.94,0.78-1.82,1.26-2.94c0.48,1.1,0.86,1.96,1.3,2.94H56.27z"/>
			<path class="st3" d="M148.29,136.04c-0.08-0.18-0.44-0.36-0.63-0.33c-0.25,0.04-0.58,0.25-0.68,0.46
				c-0.91,2.03-1.78,4.07-2.67,6.11c0.07,0.11,0.13,0.23,0.2,0.34c0.32-0.21,0.87-0.36,0.94-0.64c0.3-1.14,1.05-1.34,2.05-1.21
				c0.25,0.03,0.51,0.04,0.75,0c0.84-0.16,1.31,0.24,1.5,1.01c0.18,0.74,0.64,0.83,1.34,0.62
				C150.15,140.26,149.24,138.14,148.29,136.04z M146.37,139.86c0.43-0.97,0.81-1.83,1.29-2.92c0.47,1.08,0.85,1.94,1.28,2.92
				H146.37z"/>
			<path class="st3" d="M92.68,141.05c0.61,0.21,1.15,0.49,1.73,0.57c0.54,0.08,1.13,0.03,1.64-0.13c0.28-0.09,0.62-0.51,0.63-0.8
				c0.01-0.28-0.29-0.71-0.56-0.85c-0.55-0.29-1.17-0.42-1.77-0.62c-1.23-0.4-1.7-0.98-1.61-1.99c0.09-0.9,0.7-1.47,1.92-1.58
				c0.64-0.06,1.3,0.08,1.94,0.18c0.68,0.1,0.86,0.52,0.66,1.03c-0.85-0.11-1.65-0.3-2.44-0.26c-0.37,0.02-0.72,0.47-1.07,0.72
				c0.27,0.31,0.48,0.72,0.81,0.89c0.61,0.31,1.3,0.44,1.94,0.7c0.8,0.32,1.27,0.92,1.25,1.81c-0.02,0.91-0.56,1.58-1.38,1.68
				c-0.99,0.13-2.03,0-3.04-0.12C92.69,142.2,92.47,141.72,92.68,141.05z"/>
			<path class="st3" d="M96.66,145.89c0.44,0,0.83,0,1.27,0c0,3.03,0,6.01,0,9.03c-0.45,0-0.83,0-1.27,0
				C96.66,151.88,96.66,148.91,96.66,145.89z"/>
			<path class="st3" d="M83.95,154.94c-0.43,0-0.79,0-1.22,0c0-3.04,0-6.02,0-9.06c0.42,0,0.79,0,1.22,0
				C83.95,148.88,83.95,151.85,83.95,154.94z"/>
			<path class="st3" d="M104.25,135.75c0.01,0.25,0.02,0.49,0.04,0.85c-0.74,0-1.44,0-2.24,0c0,1.98,0,3.85,0,5.8
				c-0.34,0.03-0.6,0.06-1,0.1c0-1.98,0-3.88,0-5.87c-0.8,0-1.48,0-2.2,0c0-0.34,0-0.58,0-0.87
				C100.63,135.75,102.41,135.75,104.25,135.75z"/>
			<path class="st3" d="M90.01,135.74c0.32,0,0.56,0,0.84,0c0,2.23,0,4.41,0,6.67c-0.26,0.03-0.52,0.05-0.84,0.08
				C90.01,140.22,90.01,138.01,90.01,135.74z"/>
			<path class="st3" d="M79.9,142.46c-0.31,0-0.55,0-0.85,0c0-2.24,0-4.45,0-6.71c0.29,0,0.55,0,0.85,0
				C79.9,137.98,79.9,140.16,79.9,142.46z"/>
			<path class="st3" d="M171.06,22.16c-4.31,0.39-8.63,0.75-12.94,1.17c-6.75,0.66-13.48,1.47-20.19,2.43
				c-8.44,1.2-16.81,2.7-25.05,4.9c-4.74,1.26-9.42,2.72-13.81,4.96c-2.22,1.13-4.4,2.34-5.88,4.44c-0.63,0.89-1.09,1.85-0.63,2.99
				c0.15,0.38,0.01,0.52-0.37,0.51c-0.19,0-0.38,0.01-0.57,0.01c-7.45,0-14.9,0-22.36,0c-1.24,0-1.42-0.27-0.95-1.45
				c0.85-2.13,2.57-3.45,4.41-4.62c4.91-3.11,10.39-4.86,15.95-6.4c7.88-2.18,15.93-3.59,24.02-4.72c5.41-0.76,10.84-1.38,16.28-1.9
				c6.75-0.65,13.52-1.14,20.29-1.55c5.08-0.3,10.17-0.52,15.25-0.74C166.71,22.09,168.9,21.98,171.06,22.16z"/>
			<path class="st3" d="M179.84,22.66c-0.76,0.14-1.51,0.29-2.27,0.41c-4.83,0.8-9.68,1.53-14.5,2.41
				c-10.91,1.99-21.86,3.81-32.48,7.12c-3.24,1.01-6.46,2.11-9.2,4.22c-1.05,0.81-1.9,1.77-1.72,3.25c0.14,1.14,0.87,1.92,1.67,2.65
				c0.22,0.2,0.67,0.33,0.55,0.67c-0.12,0.34-0.56,0.17-0.85,0.17c-7.42,0.01-14.84,0.01-22.27,0.01c-1.11,0-1.2-0.13-0.97-1.21
				c0.19-0.92,0.67-1.68,1.29-2.37c1.81-2,4.1-3.28,6.5-4.4c5.58-2.6,11.49-4.22,17.46-5.62c6.64-1.56,13.36-2.73,20.11-3.72
				c6.43-0.94,12.88-1.73,19.35-2.42c4.71-0.5,9.44-0.88,14.15-1.38c1.04-0.11,2.11-0.02,3.16-0.02
				C179.84,22.5,179.84,22.58,179.84,22.66z"/>
			<g>
				<defs>
					<rect id="SVGID_1_" x="38.15" y="93.98" width="130.07" height="35.48"/>
				</defs>
				<clipPath id="SVGID_00000020388202367168799530000007581589998126514852_">
					<use xlink:href="#SVGID_1_"  style="overflow:visible;"/>
				</clipPath>
				<g style="clip-path:url(#SVGID_00000020388202367168799530000007581589998126514852_);">
					<defs>
						<rect id="SVGID_00000173842835165423908450000005751212447528650656_" x="9.82" y="87.79" width="186.72" height="44.66"/>
					</defs>
					<clipPath id="SVGID_00000124125073611501746300000010132813020284276402_">
						<use xlink:href="#SVGID_00000173842835165423908450000005751212447528650656_"  style="overflow:visible;"/>
					</clipPath>
					<g style="clip-path:url(#SVGID_00000124125073611501746300000010132813020284276402_);">
						<path class="st8" d="M200.07,110.9l-42.82-0.56l-33.68,4.03l-2.55-0.86c0.72-0.42,1.13-0.67,1.13-0.67l-3.46-7.34
							c54.13-5.35,90.86,3.53,90.86,3.53l-0.29,3.1L200.07,110.9z"/>
						<g>
							<g>
								<path class="st9" d="M209.14,113.33c-1.3-0.25-13.41-2.5-33.59-2.74c-21.38-0.25-56.45,7.4-61.35,8.92l-0.9-1.58
									c5-2.79,8.85-5.09,8.85-5.09l-0.48-1.03c5.8-1.57,30.62-4.61,51.45-4.36c20.09,0.24,34.57,3.22,36.24,3.58l-0.51,5.41
									L209.14,113.33z"/>
							</g>
						</g>
						<g>
							<path class="st10" d="M114.29,119.38c4.9-1.53,39.97-9.19,61.35-8.93c20.18,0.24,32.37,2.65,33.68,2.91l-0.29,3.11
								c0,0-12.33-2.51-33.71-2.77c-21.38-0.25-70.79,13.36-75.7,14.39c-2.57,0.54-3.76,1.12-3.99,0.43
								c-0.15-0.45,0.51-1.77,3.63-3.19c4.37-1.98,9.75-4.87,14.22-7.37L114.29,119.38z"/>
							<path class="st10" d="M9.74,112.58l42.82,0.56l33.68-4.03l2.55,0.86c-0.72,0.42-1.13,0.67-1.13,0.67l3.46,7.34
								c-54.13,5.35-90.86-3.53-90.86-3.53l0.29-3.1L9.74,112.58z"/>
							<g>
								<path class="st9" d="M0.67,110.15c1.3,0.25,13.41,2.5,33.59,2.74c21.38,0.25,75.02-16.39,79.92-17.92l0.92,4.65
									c-5,2.79-27.43,11.02-27.43,11.02l0.48,1.03c-5.8,1.57-30.62,4.61-51.45,4.36c-20.09-0.24-34.57-3.22-36.24-3.58l0.51-5.41
									L0.67,110.15z"/>
							</g>
							<path class="st8" d="M95.42,103.94c-4.9,1.53-39.97,9.18-61.35,8.92c-20.18-0.24-32.29-2.49-33.59-2.74l0.29-3.11
								c0,0,12.33,2.51,33.71,2.77c21.38,0.25,70.79-13.36,75.7-14.39c2.57-0.54,3.76-1.12,3.99-0.43c0.15,0.45-0.51,1.77-3.63,3.19
								c-4.37,1.98-9.75,4.87-14.22,7.37L95.42,103.94z"/>
							<g>
								<path class="st11" d="M120.08,117.78c-0.14,0.06-0.28,0.12-0.43,0.18l-1.2-2.62l4.15-1.83l0.24,0.69
									C122.85,114.19,123,116.55,120.08,117.78z"/>
								<polygon class="st12" points="122.6,113.51 118.45,115.33 117.05,112.27 121.24,110.43 122.49,113.19 								"/>
								<polygon class="st13" points="121.24,110.43 117.05,112.27 115.52,108.94 119.73,107.09 								"/>
								<polygon class="st12" points="117.05,112.27 112.98,114.06 111.45,110.74 115.52,108.94 								"/>
								<polygon class="st13" points="115.52,108.94 111.45,110.74 109.99,107.57 114.07,105.78 								"/>
								<path class="st12" d="M94.78,106.95l-4.08,1.8l-1.2-2.6c1.15-0.47,2.58-1.01,4.18-1.58L94.78,106.95z"/>
								<path class="st13" d="M99.04,105.08l-4.26,1.87l-1.09-2.38c1.37-0.49,2.86-1.02,4.4-1.56L99.04,105.08z"/>
								<path class="st8" d="M103.02,103.33l-3.98,1.75l-0.96-2.07c1.36-0.48,2.74-0.97,4.11-1.47L103.02,103.33z"/>
								<path class="st14" d="M107.19,101.49l-4.18,1.84l-0.83-1.8c1.47-0.54,2.92-1.09,4.27-1.63L107.19,101.49z"/>
								<path class="st15" d="M111.28,99.69l-4.08,1.8l-0.73-1.6c1.51-0.61,2.9-1.22,4.08-1.8L111.28,99.69z"/>
								<polygon class="st14" points="118.29,103.92 114.07,105.78 112.7,102.79 116.93,100.92 								"/>
								<polygon class="st15" points="116.93,100.92 112.7,102.79 111.28,99.69 115.52,97.82 								"/>
								<path class="st10" d="M115.52,97.82l-4.25,1.87l-0.74-1.6c2.32-1.16,3.8-2.25,3.67-3.15L115.52,97.82z"/>
								<path class="st12" d="M95.13,129.25l-0.64-1.48c0,0-0.27-0.6-0.72-1.58l4.11-1.81l0.8,1.74
									C96.44,127.28,95.01,128.36,95.13,129.25z"/>
								<path class="st16" d="M107.1,122.59c-1.51,0.56-2.98,1.13-4.36,1.7l-0.78-1.7l4.28-1.88L107.1,122.59z"/>
								<path class="st8" d="M111.19,121.08c-1.35,0.49-2.73,0.99-4.09,1.5l-0.86-1.88l3.98-1.75L111.19,121.08z"/>
								<path class="st15" d="M115.5,119.53c-1.35,0.49-2.81,1.01-4.31,1.55l-0.98-2.13l4.18-1.84L115.5,119.53z"/>
								<polygon class="st10" points="114.39,117.12 110.21,118.96 108.8,115.9 112.98,114.06 								"/>
								<polygon class="st15" points="110.21,118.96 106.23,120.71 104.83,117.65 108.8,115.9 								"/>
								<polygon class="st8" points="106.23,120.71 101.96,122.59 100.55,119.53 104.83,117.65 								"/>
								<path class="st16" d="M96.49,121.32l-4.09,1.8c-0.47-1.04-0.98-2.18-1.5-3.34l4.06-1.78L96.49,121.32z"/>
								<path class="st8" d="M94.96,117.99l-4.06,1.78c-0.48-1.06-0.96-2.14-1.43-3.18l4.03-1.77L94.96,117.99z"/>
								<path class="st15" d="M93.5,114.83l-4.03,1.77c-0.48-1.07-0.94-2.09-1.35-3l4-1.76L93.5,114.83z"/>
								<path class="st10" d="M92.12,111.84l-4,1.76c-0.6-1.35-1.1-2.45-1.39-3.1l3.97-1.75L92.12,111.84z"/>
								<polygon class="st10" points="97.57,113.04 93.5,114.83 92.12,111.84 96.2,110.04 								"/>
								<polygon class="st15" points="99.03,116.2 94.96,117.99 93.5,114.83 97.57,113.04 								"/>
								<polygon class="st10" points="103.3,114.32 99.03,116.2 97.57,113.04 101.84,111.16 								"/>
								<polygon class="st16" points="101.96,122.59 97.89,124.38 96.49,121.32 100.55,119.53 								"/>
								<polygon class="st10" points="108.8,115.9 104.83,117.65 103.3,114.32 107.27,112.57 								"/>
								<path class="st10" d="M119.66,117.95c-1.15,0.47-2.58,1-4.16,1.58l-1.11-2.41l4.06-1.79L119.66,117.95z"/>
								<polygon class="st11" points="118.45,115.33 114.39,117.12 112.98,114.06 117.05,112.27 								"/>
								<polygon class="st14" points="112.7,102.79 108.62,104.58 107.19,101.49 111.28,99.69 								"/>
								<polygon class="st8" points="114.07,105.78 109.99,107.57 108.62,104.58 112.7,102.79 								"/>
								<polygon class="st13" points="109.99,107.57 105.82,109.41 104.44,106.42 108.62,104.58 								"/>
								<path class="st13" d="M102.74,124.29c-1.5,0.62-2.88,1.23-4.04,1.83l-0.8-1.74l4.06-1.79L102.74,124.29z"/>
								<polygon class="st15" points="104.83,117.65 100.55,119.53 99.03,116.2 103.3,114.32 								"/>
								<polygon class="st8" points="100.55,119.53 96.49,121.32 94.96,117.99 99.03,116.2 								"/>
								<path class="st11" d="M90.7,108.75l-3.97,1.75c-0.18-0.41-0.29-0.64-0.29-0.64s-0.15-2.36,2.76-3.58
									c0.1-0.04,0.2-0.08,0.3-0.13L90.7,108.75z"/>
								<polygon class="st13" points="104.44,106.42 100.46,108.17 99.04,105.08 103.02,103.33 								"/>
								<polygon class="st8" points="108.62,104.58 104.44,106.42 103.02,103.33 107.19,101.49 								"/>
								<polygon class="st12" points="100.46,108.17 96.2,110.04 94.78,106.95 99.04,105.08 								"/>
								<polygon class="st11" points="96.2,110.04 92.12,111.84 90.7,108.75 94.78,106.95 								"/>
								<polygon class="st12" points="105.82,109.41 101.84,111.16 100.46,108.17 104.44,106.42 								"/>
								<polygon class="st11" points="101.84,111.16 97.57,113.04 96.2,110.04 100.46,108.17 								"/>
								<polygon class="st8" points="119.73,107.09 115.52,108.94 114.07,105.78 118.29,103.92 								"/>
								<polygon class="st12" points="111.45,110.74 107.27,112.57 105.82,109.41 109.99,107.57 								"/>
								<polygon class="st11" points="107.27,112.57 103.3,114.32 101.84,111.16 105.82,109.41 								"/>
								<polygon class="st11" points="112.98,114.06 108.8,115.9 107.27,112.57 111.45,110.74 								"/>
								<path class="st13" d="M97.89,124.38l-4.11,1.81c-0.36-0.81-0.84-1.87-1.38-3.07l4.09-1.8L97.89,124.38z"/>
							</g>
						</g>
					</g>
				</g>
			</g>
		</g>
		<path class="st3" d="M171.14,187.74H31.61c-15.12,0-27.42-12.3-27.42-27.42V30.65c0-15.12,12.3-27.42,27.42-27.42h139.53
			c15.12,0,27.42,12.3,27.42,27.42v129.66C198.56,175.44,186.26,187.74,171.14,187.74z M31.61,4.75c-14.28,0-25.9,11.62-25.9,25.9
			v129.66c0,14.28,11.62,25.9,25.9,25.9h139.53c14.28,0,25.9-11.62,25.9-25.9V30.65c0-14.28-11.62-25.9-25.9-25.9H31.61z"/>
	</g>
</g>
<g id="Capa_2">
	<path class="st51" d="M92.65,86.63c0-12.89,0-25.74,0-38.65c0.35-0.02,0.66-0.04,0.96-0.04c4.09,0,8.18-0.04,12.26,0.01
		c2.23,0.03,4.46,0.24,6.54,1.16c4.41,1.94,6.09,5.6,5.74,10.22c-0.22,2.91-1.43,5.29-3.92,7.05c0.16,0.12,0.26,0.23,0.39,0.29
		c2.99,1.46,4.46,3.96,4.72,7.19c0.23,2.9-0.08,5.73-1.88,8.16c-2.07,2.8-5.01,4.32-8.36,4.49c-5.39,0.28-10.81,0.16-16.21,0.21
		C92.82,86.73,92.77,86.68,92.65,86.63z M101.7,78.62c1.82,0,3.58,0.13,5.31-0.04c1.51-0.14,2.68-1.44,2.9-2.96
		c0.24-1.66,0.04-3.23-1.44-4.32c-0.37-0.27-0.85-0.53-1.28-0.54c-1.81-0.06-3.63-0.03-5.5-0.03
		C101.7,73.36,101.7,75.93,101.7,78.62z M101.65,63.04c1.66,0,3.19,0.11,4.7-0.03c1.41-0.13,2.33-1.23,2.49-2.65
		c0.05-0.5,0.06-1,0.02-1.5c-0.12-1.63-1.21-2.76-2.83-2.84c-1.25-0.07-2.51-0.05-3.77,0c-0.21,0.01-0.58,0.37-0.59,0.57
		C101.63,58.72,101.65,60.86,101.65,63.04z"/>
	<path class="st51" d="M90.02,86.74c-3.09,0-6.08,0-9.14,0c-0.89-2.86-1.78-5.73-2.7-8.67c-0.64,0-1.26,0-1.89,0
		c-3.05,0-6.1,0.02-9.15-0.01c-0.62-0.01-0.95,0.13-1.14,0.78c-0.67,2.32-1.43,4.61-2.1,6.93c-0.21,0.73-0.52,1.04-1.35,1.02
		c-2.67-0.07-5.34-0.02-8.17-0.02c0.53-1.6,1.04-3.12,1.55-4.65c2.53-7.52,5.05-15.04,7.58-22.56c1.22-3.62,2.46-7.24,3.64-10.88
		c0.19-0.59,0.52-0.67,1.03-0.67c2.67,0.01,5.35,0.03,8.02-0.01c0.65-0.01,0.91,0.2,1.12,0.82c2.11,6.34,4.25,12.67,6.38,19.01
		c2.06,6.12,4.11,12.25,6.16,18.37C89.91,86.34,89.95,86.49,90.02,86.74z M75.82,70.32c-1.18-4.08-2.34-8.05-3.49-12.03
		c-0.08,0-0.16,0.01-0.24,0.01c-1.15,3.98-2.3,7.96-3.48,12.01C71.04,70.32,73.35,70.32,75.82,70.32z"/>
	<path class="st51" d="M151.26,51.17c-0.81,2.61-1.61,5.18-2.41,7.75c-1.3-0.61-2.52-1.32-3.83-1.77
		c-7.99-2.73-14.78,2.44-14.33,10.96c0.22,4.29,2.08,7.74,6.19,9.44c3.51,1.45,7.02,0.89,10.36-0.81c0.56-0.28,1.09-0.62,1.73-1
		c0.61,1.96,1.19,3.89,1.81,5.81c0.72,2.24,0.75,2.27-1.4,3.33c-7.37,3.62-19.96,2.84-25.51-7.52c-4.55-8.49-3.15-21.44,7.15-26.99
		c6.47-3.49,13.12-3.39,19.61,0.29c0.16,0.09,0.32,0.2,0.47,0.31C151.14,51.01,151.18,51.07,151.26,51.17z"/>
	<path class="st52" d="M128.66,163.39c0.21-0.11,0.29-0.15,0.37-0.19c1.37-0.67,1.87-1.56,1.69-3.03c-0.14-1.21-0.89-2.09-2.31-2.22
		c-1.76-0.15-3.54-0.03-5.32-0.03v9.68h1.4v-2.37c0-1.9,0-1.93,1.87-1.77c0.32,0.03,0.69,0.26,0.9,0.52
		c0.68,0.86,1.38,1.73,1.9,2.69c0.58,1.04,1.38,1.09,2.45,0.89C130.61,166.14,129.64,164.78,128.66,163.39z M124.53,162.13v-3.03
		c1.25,0.05,2.46,0.02,3.66,0.19c0.82,0.11,1.16,0.78,1.05,1.62c-0.1,0.78-0.61,1.17-1.33,1.2
		C126.81,162.16,125.72,162.13,124.53,162.13z"/>
	<path class="st52" d="M90.98,163.41c0.2-0.11,0.28-0.16,0.36-0.2c1.37-0.71,1.89-1.63,1.69-3.04c-0.17-1.24-0.93-2.11-2.4-2.24
		c-1.7-0.15-3.43-0.03-5.17-0.03v9.68h1.37v-4.02c1.49-0.32,2.65-0.24,3.35,1.23c0.33,0.7,0.98,1.25,1.34,1.94
		c0.54,1.02,1.33,1.02,2.37,0.8C92.89,166.11,91.94,164.77,90.98,163.41z M89.98,162.12c-1,0.02-2,0.01-3.15,0.01
		c0-0.89-0.04-1.66,0.02-2.43c0.02-0.21,0.35-0.53,0.54-0.54c0.94-0.04,1.88-0.04,2.81,0.05c0.94,0.1,1.45,0.74,1.39,1.57
		C91.53,161.61,90.95,162.11,89.98,162.12z"/>
	<path class="st52" d="M80.59,163.42c0.16-0.1,0.23-0.16,0.3-0.2c1.43-0.73,1.94-1.65,1.72-3.1c-0.18-1.22-0.96-2.08-2.45-2.21
		c-1.67-0.15-3.37-0.03-5.12-0.03v9.71h1.36c0-1.16-0.01-2.23,0.01-3.3c0-0.26,0.04-0.61,0.21-0.77c0.35-0.34,2.2-0.01,2.5,0.4
		c0.67,0.92,1.41,1.79,1.96,2.77c0.56,1,1.32,1.09,2.39,0.84C82.49,166.13,81.55,164.78,80.59,163.42z M76.41,162.13
		c0-0.88-0.03-1.69,0.02-2.49c0.02-0.18,0.33-0.47,0.51-0.48c0.94-0.03,1.88-0.04,2.81,0.05c0.93,0.09,1.49,0.74,1.46,1.53
		c-0.04,0.82-0.69,1.37-1.69,1.39C78.53,162.14,77.53,162.13,76.41,162.13z"/>
	<path class="st52" d="M59.89,149.92c0.21-0.19,0.38-0.33,0.52-0.49c0.58-0.66,0.63-1.44,0.37-2.21c-0.26-0.77-0.88-1.29-1.68-1.32
		c-1.63-0.07-3.26-0.02-4.95-0.02v9.02c1.81,0,3.58,0.11,5.32-0.03c1.49-0.12,2.21-1.18,2.17-2.68
		C61.61,151.03,60.9,150.4,59.89,149.92z M57.36,147.01c0.2,0.01,0.68-0.02,1.14,0.08c0.62,0.13,1.07,0.49,1.06,1.22
		c-0.01,0.73-0.47,1.1-1.11,1.16c-0.84,0.09-1.68,0.08-2.52,0.04c-0.18-0.01-0.34-0.32-0.5-0.51c-0.03-0.03-0.01-0.12-0.01-0.18
		C55.42,146.58,55.28,147.07,57.36,147.01z M58.75,153.67c-0.25,0.02-0.5,0.08-0.75,0.09c-2.72,0.13-2.9-0.09-2.47-3.01
		c1.1,0,2.17-0.05,3.22,0.02c0.89,0.06,1.46,0.68,1.42,1.45C60.13,153.11,59.62,153.58,58.75,153.67z"/>
	<path class="st52" d="M117.1,152.19c0-2.09,0-4.17,0-6.31c0.49,0,0.85,0,1.28,0c0,3.01,0,6.01,0,9.04
		c-0.76,0.23-1.27-0.03-1.74-0.66c-1.47-1.95-2.99-3.86-4.71-5.73c0,2.1,0,4.21,0,6.38c-0.49,0-0.85,0-1.29,0c0-2.96,0-5.93,0-8.97
		c0.64-0.25,1.16-0.16,1.64,0.48c1.3,1.74,2.65,3.43,3.99,5.14c0.19,0.24,0.4,0.47,0.6,0.7
		C116.94,152.24,117.02,152.22,117.1,152.19z"/>
	<path class="st52" d="M67.94,145.65c-2.74-0.02-4.76,1.93-4.78,4.61c-0.02,2.83,1.89,4.85,4.61,4.87c2.79,0.01,4.77-1.93,4.78-4.7
		C72.56,147.67,70.63,145.67,67.94,145.65z M67.85,153.88c-1.88-0.01-3.25-1.5-3.23-3.52c0.01-2.02,1.42-3.49,3.3-3.45
		c1.83,0.04,3.23,1.54,3.23,3.47C71.14,152.36,69.71,153.88,67.85,153.88z"/>
	<path class="st52" d="M101.69,163.07c-1.48,0-2.88,0-4.37,0c0,1.09,0,2.1,0,3.21c1.87,0,3.71,0,5.59,0c0,0.49,0,0.88,0,1.32
		c-2.35,0-4.66,0-7.05,0c0-3.26,0-6.48,0-9.76c2.26,0,4.53,0,6.85,0c0,0.39,0,0.76,0,1.28c-1.35,0-2.69,0-4.03,0
		c-1.68,0.01-1.42-0.1-1.45,1.48c-0.01,0.34,0,0.67,0,1.11c1.54,0,2.97,0,4.45,0C101.69,162.19,101.69,162.55,101.69,163.07z"/>
	<path class="st52" d="M139.46,146.13c-1.61-0.4-3.34-0.29-5.08-0.41v9.19c1.45,0,2.87,0.12,4.26-0.03
		c2.23-0.23,3.77-1.89,3.95-4.01C142.79,148.59,141.7,146.68,139.46,146.13z M141.22,150.64c-0.16,1.74-1.27,2.84-3.04,3
		c-0.77,0.07-1.54,0.09-2.43,0.14c0-2.21-0.01-4.27,0.02-6.33c0.01-0.15,0.32-0.41,0.48-0.41c0.81,0.01,1.65-0.02,2.43,0.15
		C140.38,147.57,141.38,149,141.22,150.64z"/>
	<path class="st52" d="M119.89,161.7c0,0.53,0,0.89,0,1.36c-1.47,0-2.9,0-4.4,0c0,1.1,0,2.08,0,3.2c1.82,0,3.65,0,5.54,0
		c0,0.49,0,0.85,0,1.3c-2.31,0-4.61,0-7,0c0-3.22,0-6.44,0-9.72c2.25,0,4.5,0,6.81,0c0,0.38,0,0.77,0,1.29c-1.79,0-3.56,0-5.37,0
		c0,0.91,0,1.68,0,2.56C116.94,161.7,118.37,161.7,119.89,161.7z"/>
	<path class="st52" d="M142.25,166.81c-1.19-2.75-2.4-5.5-3.58-8.27c-0.22-0.52-0.45-0.79-1.07-0.79c-0.63,0-0.87,0.27-1.07,0.8
		c-0.27,0.73-0.62,1.43-0.93,2.15c-0.99,2.26-1.97,4.52-3.02,6.95c0.81-0.11,1.6,0.38,1.82-0.62c0.36-1.64,1.39-2.12,2.93-1.86
		c0.37,0.06,0.76,0.06,1.13-0.01c1.16-0.2,1.75,0.29,2.12,1.39c0.43,1.28,0.55,1.27,1.95,0.95
		C142.44,167.27,142.35,167.04,142.25,166.81z M135.73,163.89c0.6-1.41,1.17-2.71,1.84-4.28c0.68,1.54,1.26,2.85,1.88,4.28H135.73z"
		/>
	<path class="st52" d="M73.02,167.02c-1.22-2.81-2.45-5.63-3.67-8.45c-0.21-0.47-0.39-0.83-1.06-0.83c-0.69,0-0.92,0.31-1.12,0.86
		c-0.27,0.7-0.61,1.38-0.91,2.07c-0.98,2.26-1.96,4.53-2.94,6.8c0.08,0.11,0.16,0.22,0.23,0.32c0.49-0.2,1.33-0.32,1.4-0.62
		c0.46-1.89,1.68-2.27,3.36-2c0.21,0.03,0.44,0.04,0.65,0c1.27-0.25,1.95,0.28,2.33,1.5c0.36,1.16,0.56,1.18,1.85,0.79
		C73.1,167.32,73.08,167.16,73.02,167.02z M66.39,163.87c0.61-1.41,1.17-2.69,1.85-4.26c0.67,1.52,1.24,2.83,1.86,4.26H66.39z"/>
	<path class="st52" d="M143.56,165.61c1.47,0.33,2.67,0.64,3.89,0.85c0.37,0.06,0.88-0.02,1.17-0.24c0.41-0.31,0.93-0.8,0.94-1.22
		c0.01-0.42-0.47-1.03-0.89-1.24c-0.83-0.42-1.78-0.59-2.66-0.92c-0.88-0.34-1.79-0.67-2.07-1.74c-0.4-1.55,0.38-2.99,2.01-3.25
		c1.09-0.17,2.26-0.11,3.34,0.11c1.34,0.27,1.33,0.4,1.17,1.61c-1.19-0.17-2.38-0.4-3.57-0.48c-0.73-0.05-1.41,0.28-1.52,1.11
		c-0.1,0.78,0.53,1.07,1.14,1.29c0.97,0.35,1.97,0.63,2.93,1.02c1.13,0.46,1.72,1.32,1.7,2.57c-0.02,1.12-0.7,2.07-1.87,2.46
		c-1.72,0.58-3.44,0.45-5.02-0.42C143.85,166.9,143.78,166.12,143.56,165.61z"/>
	<path class="st52" d="M108.73,154.34c-1.15-2.64-2.32-5.27-3.45-7.92c-0.21-0.5-0.44-0.74-1.02-0.73
		c-0.54,0.02-0.77,0.25-0.94,0.72c-0.15,0.47-0.39,0.92-0.59,1.38c-1.02,2.35-2.03,4.7-3.12,7.22c0.7-0.12,1.46,0.37,1.67-0.57
		c0.37-1.69,1.48-2.02,2.97-1.78c0.27,0.04,0.57,0.05,0.84,0c1.14-0.21,1.76,0.28,2.02,1.36c0.23,0.99,0.86,1.18,1.8,0.87
		C108.84,154.69,108.8,154.51,108.73,154.34z M102.58,151.38c0.56-1.28,1.08-2.47,1.7-3.91c0.62,1.39,1.15,2.59,1.74,3.91H102.58z"
		/>
	<path class="st52" d="M125.45,146.06c-0.07-0.15-0.3-0.31-0.47-0.33c-0.52-0.06-0.99-0.09-1.27,0.6c-1.2,2.87-2.46,5.72-3.69,8.56
		c1.2,0.43,1.71-0.21,1.94-1.15c0.23-0.91,0.76-1.18,1.64-1.09c0.68,0.07,1.39,0.09,2.07,0c0.94-0.12,1.45,0.25,1.69,1.15
		c0.24,0.92,0.75,1.49,1.95,1.08C128.01,151.9,126.74,148.97,125.45,146.06z M122.94,151.38c0.56-1.28,1.07-2.47,1.7-3.93
		c0.63,1.43,1.15,2.62,1.72,3.93H122.94z"/>
	<path class="st52" d="M144.75,145.88c2.16,0,4.25,0,6.41,0c0,0.38,0,0.7,0,1.14c-1.41,0-2.79,0.08-4.15-0.02
		c-1.17-0.08-0.95,0.64-0.98,1.32c-0.04,0.75,0.01,1.28,1.02,1.18c0.99-0.1,2-0.02,3.07-0.02c0,0.41,0,0.76,0,1.22
		c-1.33,0-2.64,0-4.08,0c0,0.94-0.04,1.78,0.03,2.61c0.02,0.18,0.47,0.43,0.73,0.44c1.13,0.05,2.26,0.02,3.39,0.03
		c0.34,0,0.68,0,1.06,0c0,0.44,0,0.77,0,1.17c-2.15,0-4.3,0-6.51,0C144.75,151.92,144.75,148.95,144.75,145.88z"/>
	<path class="st52" d="M62.04,165.8c0.16,1.43,0.12,1.48-1.16,1.83c-2.43,0.66-4.87-0.17-6.07-2.08c-1.18-1.88-0.97-4.57,0.51-6.24
		c1.4-1.58,4.16-2.2,6.05-1.24c0.37,0.19,0.49,0.88,0.61,1.43c-2.28-0.71-4.34-0.99-5.84,1.22c-0.85,1.26-0.8,3.11,0.13,4.26
		C57.91,167,59.95,166.75,62.04,165.8z"/>
	<path class="st52" d="M85.82,145.93c0.98-0.29,1.54-0.09,1.9,0.93c0.61,1.74,1.4,3.42,2.11,5.12c0.13,0.3,0.29,0.6,0.53,1.1
		c0.64-1.5,1.19-2.81,1.75-4.13c0.29-0.69,0.65-1.37,0.86-2.09c0.29-1.01,0.88-1.27,1.89-0.93c-1.04,2.45-2.08,4.89-3.12,7.34
		c-0.16,0.37-0.36,0.74-0.48,1.12c-0.15,0.49-0.4,0.69-0.95,0.69c-0.55,0-0.76-0.24-0.95-0.7c-1.08-2.57-2.19-5.12-3.28-7.69
		C85.98,146.45,85.91,146.19,85.82,145.93z"/>
	<path class="st52" d="M108.85,167.59c-0.52,0-0.94,0-1.47,0c0-2.8,0-5.55,0-8.43c-1.12,0-2.14,0-3.21,0c0-0.51,0-0.9,0-1.33
		c2.64,0,5.27,0,7.95,0c0,0.39,0,0.75,0,1.3c-0.76,0-1.57,0.04-2.36-0.01c-0.7-0.04-0.93,0.21-0.92,0.91
		c0.04,2.17,0.01,4.33,0.01,6.5C108.85,166.87,108.85,167.21,108.85,167.59z"/>
	<path class="st52" d="M76.81,142.45c-0.34,0-0.58,0-0.91,0c0-1.65,0-3.26,0-4.88c-0.07-0.03-0.13-0.06-0.2-0.09
		c-0.48,0.63-0.95,1.26-1.44,1.88c-0.53,0.68-0.84,0.67-1.37-0.02c-0.45-0.59-0.9-1.19-1.56-1.75c0,1.59,0,3.19,0,4.84
		c-0.41,0-0.67,0-0.97,0c0-2.25,0-4.47,0-6.66c0.73-0.24,1.14,0.05,1.51,0.63c0.5,0.79,1.08,1.53,1.64,2.31
		c1.3-0.8,1.38-2.85,3.29-3.08C76.81,137.98,76.81,140.17,76.81,142.45z"/>
	<path class="st52" d="M124.39,135.87c-1.07-0.19-2.17-0.16-3.33-0.24v6.82c1.09,0,2.14,0.1,3.16-0.02c1.69-0.2,2.8-1.53,2.85-3.22
		C127.12,137.49,126.13,136.18,124.39,135.87z M125.62,140.57c-0.92,1.24-2.23,1.01-3.56,0.97v-4.87c1.38-0.12,2.7-0.22,3.61,1.06
		C126.23,138.52,126.21,139.78,125.62,140.57z"/>
	<path class="st52" d="M66.27,135.97c-1.22-0.26-2.51-0.25-3.8-0.36v6.82c1.14,0,2.24,0.11,3.31-0.03c1.62-0.22,2.63-1.47,2.75-3.12
		C68.63,137.8,67.71,136.29,66.27,135.97z M67.21,140.35c-0.57,1.04-1.57,1.37-3.69,1.16v-4.82c1.26-0.15,2.49-0.24,3.45,0.84
		C67.6,138.24,67.69,139.48,67.21,140.35z"/>
	<path class="st52" d="M141.26,139.59c1.25-0.75,1.56-1.34,1.36-2.4c-0.19-1.02-0.95-1.39-1.84-1.45c-1.11-0.08-2.24-0.02-3.39-0.02
		v6.77c0.33-0.01,0.6-0.03,0.98-0.04v-2.75c1.05-0.2,1.88-0.15,2.38,0.87c0.22,0.44,0.61,0.8,0.85,1.24
		c0.34,0.61,0.81,0.84,1.62,0.58C142.53,141.41,141.9,140.5,141.26,139.59z M140.63,138.7c-0.71,0.06-1.43,0.02-2.21,0.02v-2.1
		c0.76,0,1.48-0.04,2.18,0.01c0.63,0.05,1.08,0.38,1.07,1.08C141.66,138.37,141.2,138.66,140.63,138.7z"/>
	<path class="st52" d="M86.86,135.73c0.4,0,0.64,0,0.94,0c0,2.24,0,4.46,0,6.98c-0.51-0.31-0.97-0.47-1.24-0.79
		c-0.95-1.13-1.83-2.31-2.75-3.47c-0.18-0.24-0.38-0.46-0.76-0.9c0,1.79,0,3.31,0,4.89c-0.38,0.02-0.65,0.04-0.97,0.06
		c0-2.27,0-4.48,0-6.99c0.49,0.28,0.96,0.42,1.22,0.73c0.95,1.13,1.83,2.32,2.73,3.48c0.2,0.26,0.41,0.5,0.81,0.68
		C86.86,138.87,86.86,137.35,86.86,135.73z"/>
	<path class="st52" d="M132.11,135.57c-1.96-0.02-3.47,1.54-3.45,3.57c0.01,2.06,1.47,3.52,3.49,3.49c2.01-0.02,3.45-1.54,3.41-3.59
		C135.52,137.06,134.07,135.59,132.11,135.57z M132.14,141.72c-1.38,0.02-2.53-1.18-2.5-2.63c0.02-1.44,1.1-2.55,2.47-2.55
		c1.38,0.01,2.44,1.11,2.45,2.57C134.57,140.53,133.48,141.7,132.14,141.72z"/>
	<path class="st52" d="M109.71,139.58c1.27-0.78,1.59-1.35,1.36-2.42c-0.21-0.93-0.93-1.35-1.78-1.41
		c-1.12-0.08-2.24-0.02-3.41-0.02v6.71h0.89v-2.68c1.13-0.35,1.92-0.15,2.44,0.87c0.21,0.41,0.57,0.75,0.8,1.15
		c0.36,0.63,0.84,0.89,1.62,0.61C110.99,141.44,110.35,140.51,109.71,139.58z M109.14,138.7c-0.74,0.05-1.49,0.01-2.33,0.01v-2.07
		c0.81,0,1.61-0.11,2.34,0.04c0.38,0.08,0.85,0.58,0.93,0.97C110.21,138.23,109.73,138.65,109.14,138.7z"/>
	<path class="st52" d="M74.72,145.88c0.43,0,0.79,0,1.28,0c0,1.61,0,3.17,0,4.73c0,0.79,0.03,1.57-0.01,2.36
		c-0.04,0.64,0.24,0.81,0.83,0.8c1.31-0.03,2.63-0.01,4.03-0.01c0.02,0.41,0.03,0.74,0.05,1.15c-2.08,0-4.1,0-6.18,0
		C74.72,151.92,74.72,148.95,74.72,145.88z"/>
	<path class="st52" d="M116.83,136.24c-0.11-0.25-0.47-0.46-0.75-0.52c-0.18-0.04-0.54,0.18-0.62,0.37
		c-0.94,2.08-1.84,4.18-2.75,6.27c0.07,0.09,0.14,0.18,0.21,0.26c0.34-0.23,0.89-0.39,0.99-0.7c0.31-1,0.93-1.29,1.89-1.15
		c0.31,0.04,0.63,0.04,0.94,0c0.74-0.1,1.19,0.13,1.38,0.9c0.16,0.65,0.56,1.04,1.39,0.72C118.61,140.3,117.74,138.26,116.83,136.24
		z M114.82,139.85c0.41-0.96,0.78-1.81,1.27-2.92c0.47,1.08,0.85,1.93,1.29,2.92H114.82z"/>
	<path class="st52" d="M60.64,141.68c-0.78-1.82-1.55-3.63-2.36-5.43c-0.11-0.23-0.39-0.47-0.64-0.53c-0.2-0.06-0.62,0.08-0.69,0.24
		c-0.96,2.13-1.88,4.28-2.81,6.44c0.67,0.19,1.12,0.14,1.3-0.57c0.2-0.86,0.76-1.21,1.64-1.06c0.28,0.04,0.57,0.04,0.85,0
		c0.9-0.15,1.5,0.14,1.73,1.08c0.16,0.67,0.62,0.79,1.26,0.53C60.82,142.13,60.74,141.9,60.64,141.68z M56.27,139.87
		c0.41-0.94,0.78-1.82,1.26-2.94c0.48,1.1,0.86,1.96,1.3,2.94H56.27z"/>
	<path class="st52" d="M148.29,136.04c-0.08-0.18-0.44-0.36-0.63-0.33c-0.25,0.04-0.58,0.25-0.68,0.46
		c-0.91,2.03-1.78,4.07-2.67,6.11c0.07,0.11,0.13,0.23,0.2,0.34c0.32-0.21,0.87-0.36,0.94-0.64c0.3-1.14,1.05-1.34,2.05-1.21
		c0.25,0.03,0.51,0.04,0.75,0c0.84-0.16,1.31,0.24,1.5,1.01c0.18,0.74,0.64,0.83,1.34,0.62
		C150.15,140.26,149.24,138.14,148.29,136.04z M146.37,139.86c0.43-0.97,0.81-1.83,1.29-2.92c0.47,1.08,0.85,1.94,1.28,2.92H146.37z
		"/>
	<path class="st52" d="M92.68,141.05c0.61,0.21,1.15,0.49,1.73,0.57c0.54,0.08,1.13,0.03,1.64-0.13c0.28-0.09,0.62-0.51,0.63-0.8
		c0.01-0.28-0.29-0.71-0.56-0.85c-0.55-0.29-1.17-0.42-1.77-0.62c-1.23-0.4-1.7-0.98-1.61-1.99c0.09-0.9,0.7-1.47,1.92-1.58
		c0.64-0.06,1.3,0.08,1.94,0.18c0.68,0.1,0.86,0.52,0.66,1.03c-0.85-0.11-1.65-0.3-2.44-0.26c-0.37,0.02-0.72,0.47-1.07,0.72
		c0.27,0.31,0.48,0.72,0.81,0.89c0.61,0.31,1.3,0.44,1.94,0.7c0.8,0.32,1.27,0.92,1.25,1.81c-0.02,0.91-0.56,1.58-1.38,1.68
		c-0.99,0.13-2.03,0-3.04-0.12C92.69,142.2,92.47,141.72,92.68,141.05z"/>
	<path class="st52" d="M96.66,145.89c0.44,0,0.83,0,1.27,0c0,3.03,0,6.01,0,9.03c-0.45,0-0.83,0-1.27,0
		C96.66,151.88,96.66,148.91,96.66,145.89z"/>
	<path class="st52" d="M83.95,154.94c-0.43,0-0.79,0-1.22,0c0-3.04,0-6.02,0-9.06c0.42,0,0.79,0,1.22,0
		C83.95,148.88,83.95,151.85,83.95,154.94z"/>
	<path class="st52" d="M104.25,135.75c0.01,0.25,0.02,0.49,0.04,0.85c-0.74,0-1.44,0-2.24,0c0,1.98,0,3.85,0,5.8
		c-0.34,0.03-0.6,0.06-1,0.1c0-1.98,0-3.88,0-5.87c-0.8,0-1.48,0-2.2,0c0-0.34,0-0.58,0-0.87
		C100.63,135.75,102.41,135.75,104.25,135.75z"/>
	<path class="st52" d="M90.01,135.74c0.32,0,0.56,0,0.84,0c0,2.23,0,4.41,0,6.67c-0.26,0.03-0.52,0.05-0.84,0.08
		C90.01,140.22,90.01,138.01,90.01,135.74z"/>
	<path class="st52" d="M79.9,142.46c-0.31,0-0.55,0-0.85,0c0-2.24,0-4.45,0-6.71c0.29,0,0.55,0,0.85,0
		C79.9,137.98,79.9,140.16,79.9,142.46z"/>
	<path class="st53" d="M171.06,22.16c-4.31,0.39-8.63,0.75-12.94,1.17c-6.75,0.66-13.48,1.47-20.19,2.43
		c-8.44,1.2-16.81,2.7-25.05,4.9c-4.74,1.26-9.42,2.72-13.81,4.96c-2.22,1.13-4.4,2.34-5.88,4.44c-0.63,0.89-1.09,1.85-0.63,2.99
		c0.15,0.38,0.01,0.52-0.37,0.51c-0.19,0-0.38,0.01-0.57,0.01c-7.45,0-14.9,0-22.36,0c-1.24,0-1.42-0.27-0.95-1.45
		c0.85-2.13,2.57-3.45,4.41-4.62c4.91-3.11,10.39-4.86,15.95-6.4c7.88-2.18,15.93-3.59,24.02-4.72c5.41-0.76,10.84-1.38,16.28-1.9
		c6.75-0.65,13.52-1.14,20.29-1.55c5.08-0.3,10.17-0.52,15.25-0.74C166.71,22.09,168.9,21.98,171.06,22.16z"/>
	<path class="st53" d="M179.84,22.66c-0.76,0.14-1.51,0.29-2.27,0.41c-4.83,0.8-9.68,1.53-14.5,2.41
		c-10.91,1.99-21.86,3.81-32.48,7.12c-3.24,1.01-6.46,2.11-9.2,4.22c-1.05,0.81-1.9,1.77-1.72,3.25c0.14,1.14,0.87,1.92,1.67,2.65
		c0.22,0.2,0.67,0.33,0.55,0.67c-0.12,0.34-0.56,0.17-0.85,0.17c-7.42,0.01-14.84,0.01-22.27,0.01c-1.11,0-1.2-0.13-0.97-1.21
		c0.19-0.92,0.67-1.68,1.29-2.37c1.81-2,4.1-3.28,6.5-4.4c5.58-2.6,11.49-4.22,17.46-5.62c6.64-1.56,13.36-2.73,20.11-3.72
		c6.43-0.94,12.88-1.73,19.35-2.42c4.71-0.5,9.44-0.88,14.15-1.38c1.04-0.11,2.11-0.02,3.16-0.02
		C179.84,22.5,179.84,22.58,179.84,22.66z"/>
	<path class="st54" d="M168.22,104.12v6.36l-10.98-0.14l-33.68,4.03l-0.74-0.25l-0.9-0.31l-0.89-0.31c0.71-0.42,1.11-0.66,1.11-0.66
		l-0.48-1.03l-0.62-1.29l-1.56-3.32l-0.8-1.7c0.1-0.01,0.21-0.02,0.31-0.03C137.78,103.63,154.46,103.5,168.22,104.12z"/>
	<g>
		<path class="st55" d="M170.59,110.51c-0.78,0.04-1.57,0.07-2.37,0.12v0.14c-17.54,0.94-39.95,5.36-49.7,7.64c0,0-0.01,0-0.02,0
			c-1.29,0.3-2.36,0.56-3.16,0.77c-0.48,0.13-0.87,0.24-1.15,0.33l-0.84-1.49l-0.05-0.09c0.39-0.22,0.78-0.44,1.16-0.66
			c0.52-0.28,1.02-0.57,1.51-0.84l0.05-0.03c0.83-0.48,1.61-0.93,2.31-1.33c1.12-0.64,2.04-1.18,2.7-1.57
			c0.71-0.42,1.11-0.66,1.11-0.66l-0.48-1.03c0.06-0.02,0.12-0.03,0.18-0.05c5.64-1.46,26.93-4.1,46.38-4.31v3.03L170.59,110.51z"/>
	</g>
	<path class="st56" d="M168.22,110.63V114c-23.62,2.01-64.17,13.15-68.61,14.08c-2.56,0.54-3.76,1.12-3.98,0.43
		c-0.03-0.09-0.03-0.21,0.02-0.37v-0.01c0.18-0.55,0.93-1.45,2.85-2.44c0.23-0.12,0.49-0.25,0.76-0.37
		c1.03-0.47,2.12-0.99,3.24-1.55c1.36-0.66,2.77-1.38,4.17-2.12c1.29-0.67,2.58-1.37,3.83-2.06c0.98-0.53,1.93-1.06,2.85-1.57
		c0.04-0.02,0.09-0.05,0.13-0.07l0.81,1.43c0.26-0.08,0.6-0.18,1.01-0.29c0.93-0.24,2.23-0.57,3.85-0.94c0.02,0,0.04-0.01,0.06-0.02
		C129.23,115.83,151.04,111.57,168.22,110.63z"/>
	<path class="st56" d="M91.12,117.98c-0.33,0.03-0.66,0.07-0.99,0.09c-20.1,1.93-37.76,1.91-51.98,1.12v-6.25l14.41,0.19l33.68-4.02
		l0.27,0.09l1.79,0.61l0.49,0.16c-0.58,0.34-0.94,0.56-1.07,0.64c-0.02,0.01-0.03,0.02-0.04,0.02c-0.01,0.01-0.02,0.01-0.02,0.01
		l0.48,1.03l0.75,1.59l1.41,2.98L91.12,117.98z"/>
	<g>
		<path class="st55" d="M0.82,110.18c-0.06-0.01-0.11-0.02-0.15-0.02v-0.01C0.71,110.16,0.76,110.17,0.82,110.18z"/>
		<path class="st55" d="M115.09,99.62c-0.72,0.41-1.81,0.92-3.15,1.51c-1.2,0.54-2.6,1.13-4.11,1.74c-1.34,0.56-2.78,1.13-4.23,1.71
			c-1.35,0.53-2.72,1.07-4.06,1.58c-1.51,0.59-2.99,1.15-4.36,1.67c-1.57,0.59-3,1.13-4.18,1.57c-1.79,0.67-3.01,1.12-3.28,1.21
			c-0.02,0.01-0.03,0.02-0.04,0.02c-0.01,0.01-0.02,0.01-0.02,0.01l0.48,1.03c-0.23,0.06-0.5,0.13-0.8,0.2
			c-6.83,1.57-29.53,4.27-49.19,4.17v-3.26c23.36-1.46,71.4-16.36,76.02-17.81c0.01,0.04,0.02,0.08,0.02,0.13l0.02,0.09
			c0,0,0,0.01,0,0.02l0.59,2.93L115.09,99.62z"/>
	</g>
	<path class="st8" d="M0.67,110.15c0.04,0.01,0.09,0.02,0.15,0.03c-0.06-0.01-0.11-0.02-0.15-0.02c-0.08-0.02-0.14-0.03-0.19-0.04
		l0.29-3.1c0,0,0.06,0.01,0.19,0.04L0.67,110.15z"/>
	<path class="st54" d="M114.19,95.1c0,0.17-0.08,0.41-0.27,0.69c-0.03,0.04-0.06,0.08-0.1,0.12c-0.46,0.61-1.43,1.41-3.25,2.24
		c-0.01,0-0.02,0.01-0.03,0.01c-1.26,0.57-2.61,1.22-4,1.92c-1.34,0.66-2.7,1.37-4.06,2.09c-1.29,0.69-2.58,1.38-3.83,2.07
		c-0.8,0.43-1.58,0.86-2.33,1.28l-0.9-1.57v-0.01c-4.6,1.43-35.78,8.27-57.27,8.88v-3.11c22.88-1.09,67.39-13.34,72.04-14.31
		c2.56-0.54,3.76-1.12,3.98-0.43C114.18,95.01,114.19,95.05,114.19,95.1z"/>
	<path class="st57" d="M120.08,117.78c-0.14,0.06-0.28,0.12-0.43,0.18l-1.2-2.62l4.15-1.83l0.24,0.69
		C122.85,114.19,123,116.55,120.08,117.78z"/>
	<polygon class="st58" points="122.6,113.51 118.45,115.33 117.05,112.27 121.24,110.43 122.49,113.19 	"/>
	<polygon class="st59" points="121.24,110.43 117.05,112.27 115.52,108.94 119.73,107.09 	"/>
	<polygon class="st58" points="117.05,112.27 112.98,114.06 111.45,110.74 115.52,108.94 	"/>
	<polygon class="st59" points="115.52,108.94 111.45,110.74 109.99,107.57 114.07,105.78 	"/>
	<path class="st58" d="M94.78,106.95l-4.08,1.8l-1.2-2.6c1.15-0.47,2.58-1.01,4.18-1.58L94.78,106.95z"/>
	<path class="st59" d="M99.04,105.08l-4.26,1.87l-1.09-2.38c1.37-0.49,2.86-1.02,4.4-1.56L99.04,105.08z"/>
	<path class="st60" d="M103.02,103.33l-3.98,1.75l-0.96-2.07c1.36-0.48,2.74-0.97,4.11-1.47L103.02,103.33z"/>
	<path class="st61" d="M107.19,101.49l-4.18,1.84l-0.83-1.8c1.47-0.54,2.92-1.09,4.27-1.63L107.19,101.49z"/>
	<path class="st62" d="M111.28,99.69l-4.08,1.8l-0.73-1.6c1.51-0.61,2.9-1.22,4.08-1.8L111.28,99.69z"/>
	<polygon class="st61" points="118.29,103.92 114.07,105.78 112.7,102.79 116.93,100.92 	"/>
	<polygon class="st62" points="116.93,100.92 112.7,102.79 111.28,99.69 115.52,97.82 	"/>
	<path class="st63" d="M115.52,97.82l-4.25,1.87l-0.74-1.6c2.32-1.16,3.8-2.25,3.67-3.15L115.52,97.82z"/>
	<path class="st58" d="M95.13,129.25l-0.64-1.48c0,0-0.27-0.6-0.72-1.58l4.11-1.81l0.8,1.74C96.44,127.28,95.01,128.36,95.13,129.25
		z"/>
	<path class="st60" d="M107.1,122.59c-1.51,0.56-2.98,1.13-4.36,1.7l-0.78-1.7l4.28-1.88L107.1,122.59z"/>
	<path class="st61" d="M111.19,121.08c-1.35,0.49-2.73,0.99-4.09,1.5l-0.86-1.88l3.98-1.75L111.19,121.08z"/>
	<path class="st62" d="M115.5,119.53c-1.35,0.49-2.81,1.01-4.31,1.55l-0.98-2.13l4.18-1.84L115.5,119.53z"/>
	<polygon class="st63" points="114.39,117.12 110.21,118.96 108.8,115.9 112.98,114.06 	"/>
	<polygon class="st62" points="110.21,118.96 106.23,120.71 104.83,117.65 108.8,115.9 	"/>
	<polygon class="st61" points="106.23,120.71 101.96,122.59 100.55,119.53 104.83,117.65 	"/>
	<path class="st60" d="M96.49,121.32l-4.09,1.8c-0.47-1.04-0.98-2.18-1.5-3.34l4.06-1.78L96.49,121.32z"/>
	<path class="st61" d="M94.96,117.99l-4.06,1.78c-0.48-1.06-0.96-2.14-1.43-3.18l4.03-1.77L94.96,117.99z"/>
	<path class="st62" d="M93.5,114.83l-4.03,1.77c-0.48-1.07-0.94-2.09-1.35-3l4-1.76L93.5,114.83z"/>
	<path class="st63" d="M92.12,111.84l-4,1.76c-0.6-1.35-1.1-2.45-1.39-3.1l3.97-1.75L92.12,111.84z"/>
	<polygon class="st63" points="97.57,113.04 93.5,114.83 92.12,111.84 96.2,110.04 	"/>
	<polygon class="st62" points="99.03,116.2 94.96,117.99 93.5,114.83 97.57,113.04 	"/>
	<polygon class="st63" points="103.3,114.32 99.03,116.2 97.57,113.04 101.84,111.16 	"/>
	<polygon class="st60" points="101.96,122.59 97.89,124.38 96.49,121.32 100.55,119.53 	"/>
	<polygon class="st63" points="108.8,115.9 104.83,117.65 103.3,114.32 107.27,112.57 	"/>
	<path class="st63" d="M119.66,117.95c-1.15,0.47-2.58,1-4.16,1.58l-1.11-2.41l4.06-1.79L119.66,117.95z"/>
	<polygon class="st11" points="118.45,115.33 114.39,117.12 112.98,114.06 117.05,112.27 	"/>
	<polygon class="st61" points="112.7,102.79 108.62,104.58 107.19,101.49 111.28,99.69 	"/>
	<polygon class="st60" points="114.07,105.78 109.99,107.57 108.62,104.58 112.7,102.79 	"/>
	<polygon class="st59" points="109.99,107.57 105.82,109.41 104.44,106.42 108.62,104.58 	"/>
	<path class="st59" d="M102.74,124.29c-1.5,0.62-2.88,1.23-4.04,1.83l-0.8-1.74l4.06-1.79L102.74,124.29z"/>
	<polygon class="st62" points="104.83,117.65 100.55,119.53 99.03,116.2 103.3,114.32 	"/>
	<polygon class="st61" points="100.55,119.53 96.49,121.32 94.96,117.99 99.03,116.2 	"/>
	<path class="st11" d="M90.7,108.75l-3.97,1.75c-0.18-0.41-0.29-0.64-0.29-0.64s-0.15-2.36,2.76-3.58c0.1-0.04,0.2-0.08,0.3-0.13
		L90.7,108.75z"/>
	<polygon class="st59" points="104.44,106.42 100.46,108.17 99.04,105.08 103.02,103.33 	"/>
	<polygon class="st60" points="108.62,104.58 104.44,106.42 103.02,103.33 107.19,101.49 	"/>
	<polygon class="st58" points="100.46,108.17 96.2,110.04 94.78,106.95 99.04,105.08 	"/>
	<polygon class="st11" points="96.2,110.04 92.12,111.84 90.7,108.75 94.78,106.95 	"/>
	<polygon class="st58" points="105.82,109.41 101.84,111.16 100.46,108.17 104.44,106.42 	"/>
	<polygon class="st11" points="101.84,111.16 97.57,113.04 96.2,110.04 100.46,108.17 	"/>
	<polygon class="st60" points="119.73,107.09 115.52,108.94 114.07,105.78 118.29,103.92 	"/>
	<polygon class="st58" points="111.45,110.74 107.27,112.57 105.82,109.41 109.99,107.57 	"/>
	<polygon class="st11" points="107.27,112.57 103.3,114.32 101.84,111.16 105.82,109.41 	"/>
	<polygon class="st11" points="112.98,114.06 108.8,115.9 107.27,112.57 111.45,110.74 	"/>
	<path class="st59" d="M97.89,124.38l-4.11,1.81c-0.36-0.81-0.84-1.87-1.38-3.07l4.09-1.8L97.89,124.38z"/>
	<path class="st3" d="M171.14,187.74H31.61c-15.12,0-27.42-12.3-27.42-27.42V30.65c0-15.12,12.3-27.42,27.42-27.42h139.53
		c15.12,0,27.42,12.3,27.42,27.42v129.66C198.56,175.44,186.26,187.74,171.14,187.74z M31.61,4.75c-14.28,0-25.9,11.62-25.9,25.9
		v129.66c0,14.28,11.62,25.9,25.9,25.9h139.53c14.28,0,25.9-11.62,25.9-25.9V30.65c0-14.28-11.62-25.9-25.9-25.9H31.61z"/>
</g>
</svg>
