<?xml version="1.0" encoding="utf-8"?>
<!-- Generator: Adobe Illustrator 25.4.1, SVG Export Plug-In . SVG Version: 6.00 Build 0)  -->
<svg version="1.1" id="Capa_1" xmlns="http://www.w3.org/2000/svg" xmlns:xlink="http://www.w3.org/1999/xlink" x="0px" y="0px"
	 viewBox="0 0 200 200" style="enable-background:new 0 0 200 200;" xml:space="preserve">
<style type="text/css">
	.st0{fill:#FFFFFF;}
	.st1{fill:#0089D0;}
	.st2{fill:#00ADEF;}
	.st3{fill:#015AAA;}
</style>
<g>
	<g>
		<path class="st2" d="M76.83,125.67c-25.43-25.43-38.12-58.77-38.08-92.1c-7.04,6.41-14.64,14.33-14.52,17.97
			c0.19,6.05-7.72,40.51,39.68,87.91c47.4,47.39,81.02,38.64,87.07,38.83c3.64,0.12,7.85-3.78,14.26-10.81
			C131.9,167.5,102.26,151.1,76.83,125.67z"/>
	</g>
	<g>
		<path class="st3" d="M66.87,136.48c41.09,41.08,71.11,38.59,80.98,37.77c1.38-0.12,2.38-0.2,3.25-0.17
			c3.29-0.45,14.75-12.72,19.74-19.85c1.71-2.46,1.04-4.41,0.7-4.74c-2.36-1.7-29.1-19.34-31.98-21.17
			c-0.35-0.18-2.11-0.28-4.73,1.1l-0.2,0.1c-12.05,6.38-27.01,4.48-37.13-4.74c-3.25-2.96-6.64-6.22-10.1-9.68
			c-3.47-3.47-6.72-6.86-9.67-10.1c-9.23-10.12-11.12-25.08-4.71-37.22c1.44-2.73,1.35-4.49,1.16-4.84
			c-1.83-2.88-19.47-29.63-21.2-32.01c-0.15-0.16-0.69-0.4-1.5-0.4c-0.84,0-1.96,0.26-3.21,1.13c-7.13,4.99-19.4,16.45-19.85,19.84
			c0.03,0.7-0.04,1.64-0.12,2.92c-0.53,7.59-1.85,26.91,15.33,53.72l-6.59,5.29c-19.19-29.5-17.7-51.15-17.12-59.58
			c0.06-0.95,0.13-1.69,0.11-2.19c-0.08-2.69,1.02-6.93,10.38-15.92c5.13-4.93,10.73-9.34,13.05-10.96
			c6.35-4.42,13.41-2.8,16.33,1.23c1.85,2.56,19.55,29.39,21.48,32.44c2.11,3.32,1.82,8.23-0.77,13.14
			c-4.82,9.13-3.42,20.24,3.43,27.75c2.86,3.14,6.03,6.45,9.4,9.82h0.01c3.36,3.37,6.67,6.54,9.82,9.41
			c7.51,6.85,18.61,8.25,27.64,3.49c5.02-2.65,9.93-2.94,13.25-0.83c3.05,1.93,29.87,19.62,32.44,21.48
			c4.03,2.92,5.65,9.98,1.24,16.32c-1.63,2.33-6.05,7.93-10.97,13.06c-8.99,9.36-13.25,10.46-15.92,10.38
			c-0.39,0-1.32,0.06-2.3,0.14c-1.94,0.17-4.59,0.39-7.89,0.39c-15.1,0-43.73-4.61-79.72-40.59"/>
		<path class="st3" d="M40.44,115.31L40.44,115.31c-2.35,0-4.26-1.91-4.26-4.26v0c0-2.35,1.91-4.26,4.26-4.26h0
			c2.35,0,4.26,1.91,4.26,4.26v0C44.71,113.4,42.8,115.31,40.44,115.31z"/>
		<path class="st3" d="M63.39,143.17L63.39,143.17c-2.35,0-4.26-1.91-4.26-4.26v0c0-2.35,1.91-4.26,4.26-4.26h0
			c2.35,0,4.26,1.91,4.26,4.26l0,0C67.66,141.26,65.75,143.17,63.39,143.17z"/>
	</g>
</g>
</svg>
