<?xml version="1.0" encoding="utf-8"?>
<svg version="1.1" id="Capa_1" xmlns="http://www.w3.org/2000/svg" xmlns:xlink="http://www.w3.org/1999/xlink" x="0px" y="0px"
	 viewBox="0 0 200 200" style="enable-background:new 0 0 200 200;" xml:space="preserve">
<style type="text/css">
	.st0{fill:#FFFFFF;}
	.st1{fill:#0089D0;}
	.st2{fill:#004F9F;}
	.st3{fill:#FFFFFF;}
</style>
<g>
	<circle class="st2" cx="100" cy="87.86" r="28.73"/>
</g>
<g>
	<g>
		<path class="st3" d="M100,192.25c-4.59,0-8.91-1.79-12.16-5.04l-42.25-42.26c-16.69-15.91-25.57-38.25-24.37-61.3
			c1.01-19.46,9.26-37.82,23.22-51.7C58.39,18.09,76.8,9.95,96.27,9.05c21.8-1.01,42.47,6.72,58.21,21.75
			c15.74,15.04,24.41,35.3,24.41,57.06c0,21.77-8.69,42.05-24.48,57.09l-5.03,5.04c-1.99,1.99-5.22,1.99-7.21,0
			c-1.99-1.99-1.99-5.22,0-7.21l5.17-5.17c13.77-13.11,21.36-30.78,21.36-49.76c0-18.95-7.55-36.6-21.26-49.7
			c-13.7-13.09-31.71-19.81-50.7-18.94c-16.94,0.78-32.96,7.87-45.13,19.95c-12.16,12.09-19.35,28.07-20.23,45
			c-1.05,20.1,6.7,39.58,21.26,53.44l0.09,0.09l42.3,42.3c1.32,1.32,3.08,2.05,4.96,2.05c1.87,0,3.63-0.73,4.96-2.05
			c1.99-1.99,5.22-1.99,7.21,0c1.99,1.99,1.99,5.22,0,7.21C108.91,190.46,104.59,192.25,100,192.25z"/>
	</g>
</g>
</svg>
